<svg width="56" height="36" viewBox="0 0 56 36" fill="none" xmlns="http://www.w3.org/2000/svg">
<path d="M13.216 13.0356C13.1157 12.2446 13.5077 11.4069 13.9534 10.8936C14.4504 10.2939 15.3067 9.86459 16.009 9.82959C16.0954 10.6533 15.7687 11.4583 15.288 12.0579C14.791 12.6413 14.0047 13.1033 13.216 13.0356Z" fill="#242B38"/>
<path d="M18.9023 20.0404C18.8836 20.0918 18.6129 21.0321 17.9456 22.0051C17.3646 22.8591 16.7672 23.6968 15.8106 23.7131C14.8889 23.7295 14.5809 23.1671 13.5216 23.1671C12.4622 23.1671 12.1216 23.6968 11.2512 23.7318C10.3296 23.7668 9.62956 22.8241 9.04856 21.9724C7.85389 20.2458 6.94855 17.1028 8.17822 14.9841C8.77556 13.9224 9.86756 13.2574 11.0459 13.2387C11.9512 13.2224 12.7866 13.8361 13.3349 13.8361C13.8809 13.8361 14.8539 13.1174 15.9972 13.1874C16.4406 13.2224 17.7216 13.3578 18.5429 14.5711C18.4753 14.6248 17.0239 15.4601 17.0402 17.2194C17.0566 19.3218 18.8836 20.0218 18.9023 20.0404Z" fill="#242B38"/>
<path d="M25.9606 10.8076H21.1562V23.6247H23.1466V19.2473H25.8999C28.4129 19.2473 30.1816 17.5253 30.1816 15.0193C30.1793 12.5226 28.4503 10.8076 25.9606 10.8076ZM25.4286 17.5743H23.1466V12.4853H25.4379C27.1599 12.4853 28.1469 13.4093 28.1469 15.0263C28.1469 16.6433 27.1599 17.5743 25.4286 17.5743Z" fill="#242B38"/>
<path d="M34.9277 14.1113C32.6177 14.1113 31.1804 15.355 31.073 17.042H32.8837C33.0517 16.2067 33.7447 15.6747 34.8554 15.6747C36.0291 15.6747 36.7291 16.2953 36.7291 17.336V18.057L34.1717 18.2087C31.9504 18.3323 30.6997 19.3357 30.6997 20.9713C30.6997 22.649 31.9784 23.7877 33.8077 23.7877C35.0351 23.7877 36.2157 23.1297 36.7571 22.0914H36.8014V23.6267H38.6401V17.1867C38.6424 15.3107 37.1934 14.1113 34.9277 14.1113ZM36.7314 20.1243C36.7314 21.34 35.6837 22.264 34.3421 22.264C33.3131 22.264 32.6387 21.732 32.6387 20.913C32.6387 20.115 33.2874 19.6087 34.4307 19.527L36.7314 19.3847V20.1243Z" fill="#242B38"/>
<path d="M46.2931 14.2793H48.3185L44.8185 24.112C44.0181 26.3777 43.0964 27.1057 41.1598 27.1057C41.0011 27.1057 40.5204 27.087 40.3781 27.0613V25.5073C40.5181 25.5423 40.8378 25.5423 40.9988 25.5423C41.8878 25.5423 42.3661 25.169 42.6601 24.21C42.6601 24.1913 42.8281 23.643 42.8281 23.6337L39.4541 14.2793H41.5331L43.8968 21.8837H43.9318L46.2931 14.2793Z" fill="#242B38"/>
<path d="M56 4.43972C55.9953 3.58338 55.9697 2.68271 55.5707 1.90338C55.2463 1.27338 54.7283 0.75304 54.0983 0.431039C53.312 0.0297045 52.423 0.00637103 51.5597 0.00170435C51.3683 0.00170435 51.177 0.00170435 50.9856 0.00170435H5.0165C4.31417 0.00170435 3.60016 -0.0216287 2.90483 0.104372C2.20949 0.225705 1.55382 0.55004 1.04982 1.04938C0.548152 1.55104 0.226151 2.20905 0.102484 2.90438C-0.023516 3.59738 0.00215075 4.31372 0.00215075 5.01605V30.8368C0.00215075 31.0281 0.00215075 31.2195 0.00215075 31.4108C0.00681743 32.2718 0.0324842 33.1655 0.431485 33.9471C0.753487 34.5772 1.27382 35.0998 1.90382 35.4195C2.69016 35.8185 3.5815 35.8395 4.4425 35.8488C4.63383 35.8512 4.82517 35.8512 5.0165 35.8512H50.9856C51.177 35.8512 51.3683 35.8512 51.5597 35.8488C52.4137 35.8395 53.3097 35.8208 54.0983 35.4195C54.7283 35.0998 55.251 34.5772 55.5707 33.9471C55.9673 33.1655 55.9953 32.2695 56 31.4108C56 31.2195 56 31.0281 56 30.8368V5.01605C56 4.82239 56 4.63105 56 4.43972ZM54.8053 30.8345C54.8053 31.0235 54.8053 31.2101 54.8053 31.4038C54.8007 32.0711 54.8147 32.7945 54.5067 33.4058C54.3013 33.8118 53.9607 34.1501 53.557 34.3555C52.9457 34.6658 52.2223 34.6495 51.555 34.6541C51.366 34.6541 51.177 34.6541 50.9903 34.6541H5.0095C4.82283 34.6541 4.6385 34.6541 4.44717 34.6541C3.7775 34.6495 3.05649 34.6658 2.44516 34.3531C2.03916 34.1455 1.70316 33.8118 1.49782 33.4058C1.18749 32.7945 1.20382 32.0735 1.19915 31.4038V30.9535V4.89705V4.44905C1.19915 4.29505 1.20149 4.14338 1.20615 3.98938C1.22015 3.46905 1.25982 2.91605 1.50016 2.44471C1.70316 2.03871 2.04149 1.70038 2.44516 1.49504C2.92349 1.25471 3.46483 1.21738 3.98983 1.20338C4.14383 1.19871 4.2955 1.19871 4.44717 1.19638H5.01417H50.9833H51.548C52.2153 1.19871 52.9433 1.18704 53.5523 1.49504C53.9583 1.70271 54.2943 2.03871 54.4997 2.44471C54.81 3.05371 54.796 3.78172 54.7983 4.44905C54.7983 4.63805 54.7983 4.82472 54.7983 5.01372V30.8345H54.8053Z" fill="#242B38"/>
<path d="M13.216 13.0356C13.1157 12.2446 13.5077 11.4069 13.9534 10.8936C14.4504 10.2939 15.3067 9.86459 16.009 9.82959C16.0954 10.6533 15.7687 11.4583 15.288 12.0579C14.791 12.6413 14.0047 13.1033 13.216 13.0356Z" fill="#242B38"/>
<path d="M18.9023 20.0404C18.8836 20.0918 18.6129 21.0321 17.9456 22.0051C17.3646 22.8591 16.7672 23.6968 15.8106 23.7131C14.8889 23.7295 14.5809 23.1671 13.5216 23.1671C12.4622 23.1671 12.1216 23.6968 11.2512 23.7318C10.3296 23.7668 9.62956 22.8241 9.04856 21.9724C7.85389 20.2458 6.94855 17.1028 8.17822 14.9841C8.77556 13.9224 9.86756 13.2574 11.0459 13.2387C11.9512 13.2224 12.7866 13.8361 13.3349 13.8361C13.8809 13.8361 14.8539 13.1174 15.9972 13.1874C16.4406 13.2224 17.7216 13.3578 18.5429 14.5711C18.4753 14.6248 17.0239 15.4601 17.0402 17.2194C17.0566 19.3218 18.8836 20.0218 18.9023 20.0404Z" fill="#242B38"/>
<path d="M25.9606 10.8076H21.1562V23.6247H23.1466V19.2473H25.8999C28.4129 19.2473 30.1816 17.5253 30.1816 15.0193C30.1793 12.5226 28.4503 10.8076 25.9606 10.8076ZM25.4286 17.5743H23.1466V12.4853H25.4379C27.1599 12.4853 28.1469 13.4093 28.1469 15.0263C28.1469 16.6433 27.1599 17.5743 25.4286 17.5743Z" fill="#242B38"/>
<path d="M34.9277 14.1113C32.6177 14.1113 31.1804 15.355 31.073 17.042H32.8837C33.0517 16.2067 33.7447 15.6747 34.8554 15.6747C36.0291 15.6747 36.7291 16.2953 36.7291 17.336V18.057L34.1717 18.2087C31.9504 18.3323 30.6997 19.3357 30.6997 20.9713C30.6997 22.649 31.9784 23.7877 33.8077 23.7877C35.0351 23.7877 36.2157 23.1297 36.7571 22.0914H36.8014V23.6267H38.6401V17.1867C38.6424 15.3107 37.1934 14.1113 34.9277 14.1113ZM36.7314 20.1243C36.7314 21.34 35.6837 22.264 34.3421 22.264C33.3131 22.264 32.6387 21.732 32.6387 20.913C32.6387 20.115 33.2874 19.6087 34.4307 19.527L36.7314 19.3847V20.1243Z" fill="#242B38"/>
<path d="M48.3185 14.2793L44.8185 24.112C44.0181 26.3777 43.0964 27.1057 41.1598 27.1057C41.0011 27.1057 40.5204 27.087 40.3781 27.0613V25.5073C40.5181 25.5423 40.8378 25.5423 40.9988 25.5423C41.8878 25.5423 42.3661 25.169 42.6601 24.21C42.6601 24.1913 42.8281 23.643 42.8281 23.6337L39.4541 14.2793H41.5331L43.8968 21.8837H43.9318L46.2955 14.2793H48.3185Z" fill="#242B38"/>
<path d="M15.288 12.0579C14.791 12.6413 14.0047 13.1033 13.216 13.0356C13.1157 12.2446 13.5077 11.4069 13.9534 10.8936C14.4504 10.2939 15.3067 9.86459 16.009 9.82959C16.093 10.6533 15.7687 11.4583 15.288 12.0579Z" fill="#242B38"/>
<path d="M18.9023 20.0404C18.8836 20.0918 18.6129 21.0321 17.9456 22.0051C17.3646 22.8591 16.7672 23.6968 15.8106 23.7131C14.8889 23.7295 14.5809 23.1671 13.5216 23.1671C12.4622 23.1671 12.1216 23.6968 11.2512 23.7318C10.3296 23.7668 9.62956 22.8241 9.04856 21.9724C7.85389 20.2458 6.94855 17.1028 8.17822 14.9841C8.77556 13.9224 9.86756 13.2574 11.0459 13.2387C11.9512 13.2224 12.7866 13.8361 13.3349 13.8361C13.8809 13.8361 14.8539 13.1174 15.9972 13.1874C16.4406 13.2224 17.7216 13.3578 18.5429 14.5711C18.4753 14.6248 17.0239 15.4601 17.0402 17.2194C17.0566 19.3218 18.8836 20.0218 18.9023 20.0404Z" fill="#242B38"/>
<path d="M25.9606 10.8071H21.1562V23.6242H23.1466V19.2468H25.8999C28.4129 19.2468 30.1816 17.5248 30.1816 15.0188C30.1793 12.5221 28.4503 10.8071 25.9606 10.8071ZM25.4286 17.5738H23.1466V12.4848H25.4379C27.1599 12.4848 28.1469 13.4088 28.1469 15.0258C28.1469 16.6428 27.1599 17.5738 25.4286 17.5738Z" fill="#242B38"/>
<path d="M34.9277 14.1113C32.6177 14.1113 31.1804 15.355 31.073 17.042H32.8837C33.0517 16.2067 33.7447 15.6747 34.8554 15.6747C36.0291 15.6747 36.7291 16.2953 36.7291 17.336V18.057L34.1717 18.2087C31.9504 18.3323 30.6997 19.3357 30.6997 20.9713C30.6997 22.649 31.9784 23.7877 33.8077 23.7877C35.0351 23.7877 36.2157 23.1297 36.7571 22.0914H36.8014V23.6267H38.6401V17.1867C38.6424 15.3107 37.1934 14.1113 34.9277 14.1113ZM36.7314 20.1243C36.7314 21.34 35.6837 22.264 34.3421 22.264C33.3131 22.264 32.6387 21.732 32.6387 20.913C32.6387 20.115 33.2874 19.6087 34.4307 19.527L36.7314 19.3847V20.1243Z" fill="#242B38"/>
<path d="M46.2935 14.2793L43.9298 21.8837H43.8948L41.5312 14.2793H39.4521L42.8262 23.6337C42.8262 23.643 42.6582 24.1937 42.6582 24.21C42.3642 25.169 41.8858 25.5423 40.9968 25.5423C40.8358 25.5423 40.5162 25.5423 40.3762 25.5073V27.0613C40.5162 27.087 40.9968 27.1057 41.1578 27.1057C43.0945 27.1057 44.0185 26.3777 44.8165 24.112L48.3165 14.2793H46.2935Z" fill="#242B38"/>
</svg>
