<svg width="160" height="161" viewBox="0 0 160 161" fill="none" xmlns="http://www.w3.org/2000/svg">
<g clip-path="url(#clip0_7393_33435)">
<path d="M144.162 160.718H15.695C7.02542 160.718 0 153.7 0 145.039V16.706C0 8.04544 7.02542 1.02734 15.695 1.02734H144.162C152.832 1.02734 159.857 8.04544 159.857 16.706V145.039C159.857 153.7 152.832 160.718 144.162 160.718Z" fill="url(#paint0_linear_7393_33435)"/>
<g opacity="0.33">
<path fill-rule="evenodd" clip-rule="evenodd" d="M159.794 98.0605C158.213 98.0248 156.875 97.6717 155.91 97.7233C153.742 97.8383 153.205 99.0365 151.637 99.7149C149.25 100.742 148.789 99.4808 147.403 101.699C145.028 101.933 144.238 101.591 142.292 102.924C141.156 103.702 140.211 104.995 138.519 104.975C137.459 104.964 137.074 104.491 135.866 105.039C134.762 105.543 135.235 105.991 134.234 106.558C133.221 107.13 132.673 106.721 131.641 107.134C130.974 107.399 130.807 107.776 130.072 108.122C129.536 105.467 131.097 105.507 132.669 104.71C133.674 104.202 133.69 103.841 134.337 103.238C135.211 102.421 135.521 102.766 136.728 102.528C138.416 102.19 139.425 100.877 140.866 100.365C142.836 99.6673 143.916 100.12 145.918 99.1198C146.653 98.7508 147.165 98.3501 148.011 98.0764C149.031 97.7431 149.826 97.9494 150.664 97.6479C151.764 97.2512 150.993 96.9378 153.031 96.7196C154.437 96.5688 154.262 96.5926 155.557 96.1761C157.129 95.6722 157.649 96.7632 159.794 96.4577V93.8155C158.869 93.8711 158.757 93.3077 155.91 93.1451C154.738 93.0776 150.012 92.2723 148.329 94.4146C146.76 96.4141 147.395 95.1485 145.159 96.0888C144.401 96.4101 144.218 96.6918 143.452 96.9378C139.905 98.0764 142.383 97.1718 140.183 98.5287C138.515 99.5562 140.076 98.0486 136.792 99.695C136.303 99.941 135.62 100.131 135.1 100.322C133.055 101.068 133.559 101.52 132.28 102.321C130.612 103.365 126.899 103.944 127.082 106.8C127.161 108.058 128.086 108.931 128.761 109.677C129.504 109.649 127.697 110.319 128.769 109.685C128.769 109.685 128.765 109.681 128.761 109.677C128.654 109.681 128.499 109.7 128.273 109.736C127.622 109.847 127.638 109.613 127.205 110.637C124.095 118 121.764 116.33 120.14 118.71C119.254 120.011 120.008 119.381 118.309 119.992C115.024 121.174 115.302 122.416 113.916 124.471C113.15 125.605 112.788 124.883 111.986 125.681C111.478 126.188 111.617 126.791 111.073 127.605C110.584 128.339 110.128 128.612 109.691 129.37C109.246 130.136 109.274 130.739 108.793 131.318C107.963 132.318 107.959 131.39 107.213 132.881C105.366 136.579 105.14 134.611 103.607 138.384C102.935 140.03 101.954 140.653 100.981 141.76C100.314 142.518 100.314 142.827 99.6868 143.601C98.1896 145.442 97.8718 143.311 96.6566 146.556C96.184 147.822 92.3436 151.984 91.1363 153.015C89.9608 154.015 89.5756 155.542 88.1419 156.034C86.4064 156.629 83.6423 158.609 84.4286 160.763H85.3063C86.1125 160.45 86.883 159.549 87.4231 159.002C88.3127 158.105 89.9489 157.871 90.5446 156.978C91.2078 155.983 90.4096 156.189 91.8432 155.709C93.0426 155.312 92.7368 155.82 93.5351 154.832C94.2023 154.007 95.3619 153.142 95.9814 152.15C97.0617 150.417 97.705 151.139 98.3603 149.389C99.1903 147.171 98.7813 147.679 100.747 146.656C102.467 145.759 101.788 144.823 102.828 143.601C103.853 142.399 104.198 142.605 104.985 140.895C106.097 138.475 108.154 138.602 109.576 135.234C110.06 134.087 110.008 134.436 110.596 133.687C111.692 132.298 110.771 133.139 111.216 131.731C111.486 130.886 111.807 131.001 112.399 130.354C113.178 129.501 112.781 129.418 113.539 128.926C114.381 128.378 114.385 129.041 115.223 128.045C115.648 127.545 115.537 127.279 116.252 126.494C119.099 123.356 118.527 123.503 120.676 120.662C121.712 119.293 122.379 119.297 124.365 119.301C123.873 120.174 122.773 120.849 120.441 124.982C117.955 129.39 118.69 127.228 115.962 129.628C112.991 132.243 114.039 133.572 112.28 135.083C111.029 136.158 111.792 136.464 110.545 137.912L106.391 143.168C105.469 145.093 106.168 144.612 104.587 145.91C103.106 147.128 103.682 147.509 102.681 148.572C101.597 149.73 101.414 148.972 100.429 150.905C99.5915 152.551 99.7861 152.285 98.0942 153.134C96.6566 153.856 96.9386 154.312 96.0847 155.677C94.9092 157.558 93.0942 158.319 92.6534 160.755H95.0601C96.5216 159.843 97.5819 158.097 98.686 157.133C99.6232 156.312 99.659 156.848 100.469 156.336C101.025 155.983 101.085 155.55 101.514 154.82C103.241 151.865 104.921 152.095 106.688 150.02C107.86 148.643 107.149 147.235 108.197 146.402C108.75 145.961 109.174 146.124 109.897 145.529C111.458 144.244 111.879 142.553 112.649 140.851C113.416 139.161 114.258 139.725 114.897 138.011C115.731 135.781 115.588 136.23 116.839 134.786C118.062 133.373 117.769 132.945 118.595 131.409C119.333 130.041 119.766 129.945 120.743 128.716C121.545 127.708 121.923 126.569 122.55 125.383C123.499 123.582 124.504 124.244 124.79 122.471C125.132 120.337 124.711 120.13 126.085 118.655C127.093 117.572 128.269 117.603 129.147 116.822C129.73 115.759 129.246 114.993 129.961 114.263C130.453 113.763 131.335 113.723 132.018 113.18C133.348 112.124 132.923 110.296 134.659 109.546C137.876 108.157 136.462 108.189 138.372 106.983C141.236 105.178 146.494 105.539 148.265 104.035C151.14 101.591 150.151 103.484 152.765 103.404C154.532 103.349 154.401 101.528 159.798 101.71V98.0645L159.794 98.0605Z" fill="#474747"/>
<path fill-rule="evenodd" clip-rule="evenodd" d="M159.999 111.104C154.276 110.758 154.435 109.501 149.193 112.659C149.141 112.69 149.074 112.742 149.022 112.774C147.795 113.535 148.315 113.313 146.719 113.131C145.48 112.988 144.193 113.5 143.168 114.031C142.374 114.444 142.497 114.734 141.933 115.099C141.27 115.527 141.179 115.313 140.46 115.618C138.208 116.566 140.849 116.67 135.635 119.292C135.722 120.891 136.318 120.581 136.08 122.053C134.475 122.367 135.718 121.716 134.062 121.803C133.458 121.835 132.438 122.156 131.671 122.252C132.132 121.299 132.39 121.252 133.073 120.49C134.134 119.308 133.47 119.72 133.935 118.542C134.415 117.324 134.801 117.824 135.762 117.193C137.41 116.106 135.575 116.138 139.094 114.519C139.948 114.127 139.908 113.889 140.643 113.23C142.815 111.294 142.934 113.801 144.817 112C147.815 109.136 147.751 109.878 153.153 108.326C155.651 107.608 157.91 106.712 160.003 109.441V104.859H159.797V102.987C159.404 102.931 158.983 102.919 158.415 103.054C156.993 103.399 156.072 104.232 154.455 104.51C152.104 104.915 153.363 105.01 149.932 105.434C147.569 105.724 148.701 106.87 146.473 107.374C145.67 107.557 144.94 107.537 144.078 107.831C143.216 108.124 143.176 108.382 142.338 108.672C140.619 109.263 141.469 108.374 140.456 109.628C138.875 111.58 136.536 110.85 134.832 111.988C134.07 112.496 134.189 112.861 133.724 113.444C133.165 114.142 133.002 113.904 132.454 114.757C131.985 115.483 132.104 115.904 131.369 116.523C130.408 117.336 130.543 116.606 129.848 117.558C129.356 118.229 128.768 120.081 128.014 121.153C127.227 122.26 126.246 122.962 125.694 124.247C125.146 125.525 124.983 126.782 124.13 127.81C123.411 128.679 123.458 128.179 122.97 129.492C121.183 134.308 117.918 135.415 116.536 141.667C114.582 142.31 115.079 141.695 113.744 143.377C112.62 144.798 113.137 144.992 112.406 146.587C111.858 147.785 111.147 147.948 110.333 149.09C109.674 150.015 109.106 151.074 108.248 151.586C105.456 153.256 107.585 152.117 106.29 154.16C105.599 155.251 104.451 154.859 103.502 155.946C103.041 156.473 103.117 156.687 102.569 157.294C102.025 157.897 101.739 157.921 101.35 158.362C99.8325 160.076 101.778 159.246 99.0898 160.675C99.0462 160.698 99.0104 160.722 98.9707 160.742H103.891C104.138 160.607 104.396 160.425 104.745 160.04C105.484 159.227 105.182 159.068 106.421 158.627C108.304 157.961 108.339 156.636 109.618 155.22C110.297 154.47 110.678 154.398 111.274 153.45L115.436 147.912C117.827 145.69 116.5 146.377 117.759 143.679C118.51 142.068 120.202 142.508 121.139 140.501C121.679 139.343 121.238 139.025 122.068 138.021C122.581 137.403 123.014 137.299 123.554 136.359C124.539 134.641 124.205 132.975 124.968 131.218C125.392 130.234 129.769 124.672 130.964 124.612C131.83 125.874 130.543 128.294 129.443 129.131C127.609 130.531 128.153 131.019 127.303 133.546C126.763 135.149 126.234 137.03 125.273 138.077C124.141 139.311 122.887 139.882 122.148 141.517C121.54 142.862 121.612 142.802 120.944 143.742C119.678 145.528 121.076 144.627 120.226 146.432C118.3 150.53 119.745 148.761 117.577 150.348C115.972 151.522 116.985 153.375 114.797 154.148C111.143 155.438 113.971 155.224 110.476 156.33C109.952 158.211 109.642 160.06 107.902 160.647C107.799 160.683 107.712 160.714 107.62 160.746H113.717C113.788 160.504 113.915 160.187 114.153 159.75C114.789 158.6 115.214 159.425 116.064 158.235C116.433 157.723 116.85 156.513 117.156 155.91C117.616 155.009 118.026 154.692 118.609 153.942C119.666 152.593 119.372 153.315 120.539 152.45C121.667 151.613 121.139 151.32 121.723 150.209C122.283 149.142 122.716 149.511 123.641 148.999C123.307 145.067 125.937 146.214 126.091 142.703C126.219 139.835 128.025 139.307 129.412 137.077C130.651 135.086 131.155 133.07 132.124 130.948C133.105 128.798 134.547 127.964 135.67 125.929C136.814 123.858 137.045 121.47 139.471 120.927C141.647 120.439 140.825 120.903 141.953 119.094C144.59 114.853 145.913 117.471 147.589 116.463C148.395 115.975 148.494 115.114 150.222 114.833C151.393 114.642 156.925 114.031 157.863 114.043C158.661 114.857 158.768 115.634 159.876 116.241L160.003 116.321V111.096L159.999 111.104Z" fill="#474747"/>
<path fill-rule="evenodd" clip-rule="evenodd" d="M159.793 89.3429C159.734 89.339 159.678 89.335 159.618 89.3271L159.436 85.9152C158.006 85.6573 157.863 86.2048 156.751 86.8436C153.431 88.7439 147.827 88.6487 147.311 88.8907C145.25 91.0687 146.124 90.5649 142.498 90.787C141.902 91.3424 141.648 91.7828 140.707 92.2073C140.286 92.3977 140.043 92.4533 139.726 92.6437C137.855 93.7783 138.3 93.2467 136.56 93.7585C135.186 94.1632 136.282 94.06 134.932 94.9963L133.352 96.5435C132.633 97.2021 132.259 96.976 131.179 97.2219C129.384 97.6345 129.047 98.8922 126.97 98.9636C127.434 97.0315 128.089 97.8527 129.618 96.7974C130.806 95.9762 130.516 95.6628 132.2 94.8336C133.614 94.1354 133.745 93.4054 134.928 92.969C137.414 92.0486 135.925 92.7945 137.311 90.8941C140.178 90.5569 141.406 89.6206 144.114 88.7518C146.179 88.0893 155.937 84.733 157.025 83.9673C158.518 82.916 158.439 84.1022 159.797 84.1736V81.1743C158.125 81.3489 156.445 81.5234 154.765 81.7416C153.137 81.9519 152.232 81.5155 151.1 82.3407C150.047 83.1064 150.039 83.2968 148.268 83.5626C145.826 83.9276 144.293 85.1099 141.68 84.9274C142.633 82.7255 145.762 83.269 147.549 82.4994C148.737 81.9876 148.808 81.341 150.222 81.1029C152.47 80.726 151.354 81.1108 153.312 80.2658C154.178 79.8929 158.01 80 159.801 79.7858V76.3025C159.479 76.239 159.186 76.1518 158.943 76.0288C159.166 75.759 159.46 75.5408 159.801 75.3583V72.2956C158.975 72.4741 158.749 72.6209 158.062 71.2879C158.344 71.2363 159.019 71.0935 159.801 70.9189V68.0625L158.653 68.5068C157.998 68.8956 157.895 69.213 157.573 69.7248L157.339 70.1056C155.711 69.6415 154.317 69.4748 153.284 71.4704C153.804 72.5812 155.56 72.728 156.767 73.5254L156.417 76.0407C157.363 76.1637 157.522 76.1081 158.153 76.604C157.458 77.3657 155.838 77.6831 154.531 77.6593C152.537 77.6197 153.232 78.2187 151.06 78.3655L150.619 77.5522C150.361 77.0761 150.655 77.461 150.21 76.8778C149.65 76.1438 149.738 76.6834 149.253 75.4654C150.043 73.7238 151.707 73.4699 151.342 71.9544C149.952 71.276 147.335 72.1528 146.183 72.8788C143.602 74.5014 142.506 74.6283 141.838 75.0925C140 76.37 139.507 76.3541 137.529 77.3538C135.341 78.4607 136.155 79.9762 134.213 80.369C132.331 80.7498 133.058 80 131.834 81.341C130.941 82.3169 131.219 81.9836 129.809 82.4677C128.189 83.0191 128.709 83.1897 127.756 83.8205C126.823 84.4354 126.334 84.1022 125.401 84.614C124.368 85.1773 124.809 85.6137 123.51 86.1414C122.061 86.7325 122.593 86.0025 121.56 87.3395C120 89.3588 119.785 88.1567 118.618 90.6244C117.835 91.4337 117.255 90.4101 115.997 92.3263C115.298 93.3896 114.821 93.6514 114.015 94.3298C111.576 96.3809 114.738 95.4327 109.34 97.6544C107.629 98.3605 108.59 98.8088 106.97 99.5706C105.917 100.066 104.964 99.9633 104.19 100.765C102.216 102.8 104.781 103.07 100.258 104.811C99.6304 106.168 100.949 105.601 99.2729 106.676C97.7082 107.676 98.4509 106.934 97.879 108.711C97.1085 111.107 95.3969 109.667 93.5343 111.226L89.6463 114.178C87.5891 115.348 88.149 116.209 86.6995 117.796C85.9409 118.625 84.5351 116.582 83.8679 117.237C82.0688 119.002 82.4739 123.763 80.4088 125.195C79.0545 126.135 78.149 127.695 77.5533 129.162C76.7471 131.142 74.6065 131.087 75.5835 133.487C77.462 133.883 80.6669 130.428 81.2904 129.48C82.1125 128.23 82.1284 126.929 82.9902 126.048C83.3873 125.639 83.9592 125.37 84.3961 124.89C85.0553 124.164 84.7376 124.219 85.3293 123.553C86.7432 121.978 86.4532 122.862 87.4898 120.569C88.4429 118.455 88.7368 119.335 89.9799 118.213C90.8496 117.427 92.3984 113.448 95.242 114.083C95.3532 115.535 93.4151 117.265 92.5136 118.463C91.1713 120.252 90.1228 120.391 88.57 121.64C87.8035 122.255 86.1594 124.957 85.7543 125.949C84.5986 128.786 84.547 128.282 82.6605 129.948C82.4302 131.384 82.7797 132.277 81.9934 133.324C81.2229 134.344 80.5795 134.467 80.2261 135.601C81.3103 136.438 81.7908 136.371 82.4461 135.213C83.4787 133.384 82.4938 134.3 84.1776 133.221C85.103 132.626 84.9084 132.106 86.0362 131.364C87.2356 130.575 86.6955 130.361 87.3945 129.016C88.2642 127.337 89.6542 127.683 90.9767 125.191C91.8623 123.525 91.4691 124.116 92.6447 123.16C93.6256 122.366 93.3913 121.89 93.4707 120.514C96.4652 118.713 97.4342 117.122 98.6772 113.214C99.7495 109.842 100.055 111.369 101.576 109.842C102.025 109.394 102.343 108.648 102.831 107.961C103.78 106.624 103.419 107.386 104.587 106.585C105.742 105.795 104.841 105.759 105.929 104.776C106.858 103.935 106.707 104.557 107.522 103.24C108.693 101.348 108.558 101.273 110.933 100.372C113.832 99.277 112.482 98.3923 113.689 96.8411C115.198 94.9011 116.044 96.9561 118.872 92.6199C119.618 91.4773 119.595 91.9931 120.631 91.2393C122.982 89.5334 119.98 89.7635 124.408 88.6883C126.453 88.1924 126.819 85.1337 129.789 85.0424C130.985 85.0067 133.185 84.0347 134.098 83.3087C135.047 82.5549 134.646 82.0511 135.413 81.4957C135.77 81.2378 137.2 80.8728 137.692 80.6268C139.718 79.6112 141.767 78.2266 143.876 77.4213C145.742 76.7072 144.579 77.0087 145.826 76.1994C146.108 76.0169 146.684 75.7987 147.093 75.755L148.125 75.8106C148.173 75.7273 148.3 75.8383 148.383 75.8661C148.395 76.7469 147.72 77.2705 146.97 77.6197C145.691 78.2147 146.37 77.2428 144.813 78.0204C143.451 78.6988 142.557 80.0952 141.513 81.0156C139.519 82.7731 134.428 84.0228 133.093 85.4312C131.588 87.0181 132.061 88.0496 129.38 88.2876C126.894 88.5058 126.918 89.5492 125.611 90.787C124.698 91.6519 124.233 91.4416 123.423 92.0248C122.589 92.6239 122.8 93.0999 122.224 93.9648C120.699 96.2539 119.75 93.6316 119.456 97.46C115.905 97.7139 117.379 97.7575 115.552 99.5547C114.738 100.356 114.654 100.055 113.876 100.729C113.121 101.384 113.439 101.677 112.41 102.114C110.008 103.129 110.353 102.407 109.154 104.855C108.264 106.668 108.026 106.827 106.147 107.569C104.603 108.18 104.539 109.608 103.467 110.865C102.45 112.056 101.592 112.428 100.631 113.73C98.7805 116.245 98.7686 118.11 97.7995 119.74C97.319 120.549 96.8583 120.494 96.3381 121.125L93.9513 124.711C93.1808 126.651 92.875 127 91.5525 128.028C86.4215 132.015 89.4239 132.023 86.5406 134.713C84.8845 136.26 86.0005 137.454 84.1697 138.327C80.2817 140.184 82.6923 138.489 81.2547 141.092L78.8242 144.389C77.8472 145.063 76.7154 145.091 76.6836 146.499C76.6478 148.106 76.6717 147.106 77.0212 147.479C78.1768 148.558 79.9481 144.885 80.7304 144.305C81.481 143.75 82.9743 143.365 84.7932 140.66C85.79 139.172 84.8885 139.382 86.5803 138.422C87.6605 137.811 87.3627 137.327 88.3476 136.51C89.3484 135.681 89.4795 135.772 90.23 134.411C91.2348 132.582 90.8019 133.511 92.0807 132.554C93.288 131.65 92.3428 129.623 94.8528 127.627C97.2158 125.747 96.767 126.548 98.1729 123.235C99.2213 120.764 101.485 118.701 103.28 116.931C104.388 115.836 104.098 115.523 104.734 114.674C105.754 113.305 105.865 114.491 106.592 112.547C107.259 110.762 106.815 111.449 108.483 110.73C110.651 109.802 108.868 108.295 112.025 106.577C113.931 105.537 114.511 103.601 115.893 102.744C118.725 100.991 117.498 103.288 119.734 98.8763C120.973 96.4285 122.251 96.9641 124.158 95.5993C125.246 94.8178 124.944 94.4766 126.12 93.576C130.151 90.4934 128.431 90.906 129.94 89.7C130.961 88.8827 131.533 89.2993 132.696 88.732C133.931 88.129 133.419 87.7719 135.123 87.4585C136.763 87.157 137.005 86.669 137.879 86.665C139.861 89.6762 137.224 88.7518 135.599 89.6445L131.076 91.6797C128.645 92.5882 128.661 93.1356 127.216 94.3853C125.794 95.6112 124.507 95.7302 124.209 97.9717C124.813 98.5311 125.619 98.9398 125.957 99.6816C124.666 100.622 124.039 99.6221 122.347 100.344C120.218 101.253 116.926 104.855 116.668 107.267L117.402 107.926C118.423 107.815 118.693 107.426 120.016 107.212C121.668 106.942 121.207 107.001 122.244 105.942C123.979 104.165 123.884 103.645 126.461 103.629C129.495 98.8723 128.55 101.959 131.485 99.4912C135.163 96.4007 135.405 98.1225 137.736 96.6189C141.684 94.0719 140.476 96.127 144.364 94.1156C146.279 93.1237 146.866 93.7188 148.05 93.2507C149.261 92.7707 148.9 92.3382 151.048 91.9653C154.988 91.2829 154.932 91.3067 159.055 91.4496C159.269 91.4575 159.527 91.4734 159.809 91.4892V89.335L159.793 89.3429Z" fill="#474747"/>
<path fill-rule="evenodd" clip-rule="evenodd" d="M155.436 122.32C153.764 123.395 152.172 122.499 151.08 123.653C149.975 124.823 150.019 126.069 148.026 125.815C148.002 121.88 148.168 123.153 150.547 121.995C154.05 120.285 154.161 118.448 157.144 119.841C158.033 120.257 158.907 120.277 159.543 120.598C159.717 120.686 159.868 120.773 160.003 120.86V118.777C158.589 118.484 159.713 118.424 158.45 117.663C157.08 116.837 157.041 118.277 155.575 117.69C154.662 117.325 154.686 116.5 152.982 116.984C151.409 117.428 148.411 118.115 146.524 118.008C146.115 119.817 146.31 120.368 145.273 121.523C144.014 120.725 144.912 120.301 143.359 120.202C141.973 121.193 142.906 121.344 143.105 123.106C140.043 123.054 140.317 123.042 138.633 124.899C135.305 128.577 136.087 129.89 133.915 132.726C133.494 133.278 132.751 133.905 132.517 134.46C131.933 135.849 132.791 135.769 132.076 137.122C131.58 138.054 131.294 137.499 130.813 139.066C130.496 140.105 130.583 140.455 130.015 141.363L127.481 145.128C126.953 145.989 127.311 146.394 126.683 147.457C126.298 148.107 125.77 148.5 125.297 149.202C124.729 150.051 124.753 150.567 124.312 151.365C123.764 152.352 123.597 152.011 122.648 152.765C122.398 154.447 122.752 155.423 121.524 156.28C120.722 156.839 119.392 157.113 118.844 157.871C118.24 158.708 118.685 158.664 118.216 159.541C117.779 160.362 117.68 159.946 117.184 160.747H122.299C122.525 160.212 122.704 159.628 122.898 159.355C123.578 158.391 123.907 158.982 124.658 158.264C125.512 157.446 124.725 157.454 125.674 156.423C126.381 155.657 126.421 156.141 127.001 154.895L128.875 151.079C129.813 147.794 130.913 149.452 132.029 145.671C132.616 143.684 132.89 143.458 134.229 142.168C135.313 141.121 135.607 139.776 136.632 138.864C138.204 137.467 137.477 136.765 138.216 134.773C138.661 133.571 140.114 132.869 140.968 131.802C142.477 129.913 144.042 126.894 145.635 125.339C146.782 125.649 147.513 126.018 147.851 127.057C146.425 128.735 145.492 127.057 144.233 130.207C143.399 132.294 140.091 133.309 138.748 138.403C137.934 141.494 138.915 141.419 136.854 143.077C133.931 145.429 134.36 147.695 132.974 149.452C131.381 151.464 131.985 152.618 130.651 153.697C129.876 154.324 129.531 154.344 128.967 155.443C128.172 156.99 128.919 156.371 127.652 157.549C127.029 158.129 126.504 159.442 125.539 160.751H129.344C129.61 160.565 129.729 160.703 130.381 160.271C131.584 159.47 130.825 159.803 131.246 158.545C131.56 157.609 131.79 157.764 132.319 157.073C132.887 156.336 132.755 156.074 133.157 155.36C134.014 153.832 134.606 155.03 135.428 152.471C136.147 150.242 136.779 151.353 137.529 149.464C138.891 146.033 140.15 147.147 140.77 142.728C142.978 142.081 142.311 141.113 144.944 138.614C145.996 137.614 146.616 137.535 147.47 136.86C148.391 136.126 148.188 135.218 148.617 134.02C148.927 133.151 149.157 133.238 149.539 132.651C149.999 131.941 149.844 131.798 150.142 131.231C150.813 129.945 151.437 130.778 152.509 129.632C153.625 128.434 153.169 126.541 154.741 125.819C156.219 125.145 155.897 125.72 156.183 126.01C156.798 126.982 155.722 127.684 155.162 128.569C154.408 129.759 154.535 130.667 153.887 131.58C152.712 133.238 151.544 133.889 150.396 136.36C150.031 137.15 149.423 138.721 148.923 139.165C147.342 140.562 147.605 138.578 146.469 140.978C145.639 142.728 143.105 143.783 143.538 145.981C146.278 146.711 144.638 143.323 147.807 143.43C147.398 147.667 146.409 147.35 144.372 149.726C142.902 151.44 143.597 151.765 142.748 153.233C141.771 154.919 142.084 155.01 141.556 156.875C140.968 158.95 139.662 159.2 138.514 160.743H141.369C141.501 160.573 141.632 160.41 141.763 160.231C142.271 159.541 142.402 159.275 142.847 158.458C143.582 157.101 143.502 157.752 144.217 156.97C145.396 155.677 143.796 153.416 147.307 148.659C148.149 147.52 148.971 146.691 149.84 145.489C151.965 142.549 152.315 139.57 153.355 137.876C153.955 136.9 154.169 137.233 154.805 136.475C155.214 135.983 155.416 135.277 155.802 134.619C156.914 132.71 157.7 133.5 157.922 131.04C158.192 128.112 159.038 128.945 159.721 127.136C160.341 125.49 159.924 123.609 159.058 122.483C157.692 120.705 156.886 121.384 155.452 122.304L155.436 122.32ZM146.032 133.738C145.917 134.325 145.317 135.19 144.324 135.273C144.686 134.051 144.626 133.317 145.917 132.944C146.103 133.472 146.31 132.294 146.032 133.742V133.738Z" fill="#474747"/>
<path fill-rule="evenodd" clip-rule="evenodd" d="M135.92 160.749C135.984 160.701 136.052 160.654 136.123 160.602C138.748 158.729 144.07 149.859 142.847 148.656C141.52 147.351 139.753 150.886 138.875 151.949C138.359 152.576 138.101 152.719 137.938 153.592C137.497 155.94 137.414 155.187 135.678 156.448C133.843 157.777 135.047 158.202 134.201 159.824C134.022 160.169 133.677 160.459 133.268 160.749H135.924H135.92Z" fill="#474747"/>
<path fill-rule="evenodd" clip-rule="evenodd" d="M159.007 133.661C158.967 133.807 158.59 135.906 158.586 135.95C158.487 137.168 159.007 136.945 158.229 137.913C158.018 138.175 157.2 138.874 156.763 139.314C154.774 141.313 155.568 140.667 153.443 141.135L152.99 141.274C152.152 142.94 153.713 143.603 152.446 145.257C151.664 146.28 150.973 146.344 150.623 148.268C150.119 151.061 150.163 149.72 148.642 151.16C147.748 152.005 147.677 153.326 147.284 154.636C146.382 157.639 144.77 158.698 143.455 160.749H146.517L148.578 158.218C149.218 157.222 148.674 157.135 149.635 156.464C150.508 158.016 149.166 159.345 148.423 160.297C148.503 160.277 148.586 160.257 148.67 160.241C148.936 160.186 149.186 160.098 149.436 159.999C150.008 159.769 150.556 159.495 151.092 159.198C151.509 158.968 151.906 158.71 152.311 158.46C152.538 158.321 152.788 158.174 153.05 158.095C153.137 157.988 153.221 157.885 153.304 157.786C153.32 157.726 153.336 157.667 153.352 157.607C153.987 154.751 157.415 150.97 157.82 148.355C158.388 144.701 159.448 146.114 160.008 143.519V132.109C159.619 132.76 159.313 132.613 159.015 133.665L159.007 133.661ZM153.924 150.736C150.405 153.457 152.859 152.878 151.056 153.58C150.258 152.279 151.767 150.835 152.498 149.589C153.276 148.264 153.725 146.911 155.504 146.832C155.826 148.359 154.793 150.061 153.924 150.732V150.736Z" fill="#474747"/>
<path fill-rule="evenodd" clip-rule="evenodd" d="M159.793 63.1065C159.122 63.4477 158.32 63.8246 157.231 64.2253C155.834 64.741 155.289 65.5146 154.344 65.9431C152.66 66.7048 152.069 65.471 150.258 66.685C149.13 67.4427 148.371 67.8553 147.124 66.9309C147.867 64.2332 152.474 64.3919 153.721 63.5826C155.377 62.5074 154.328 63.2374 156.052 62.7217C157.307 62.3448 156.481 61.8965 158.22 61.5434C158.872 61.4125 159.384 61.2815 159.793 61.1506V57.707C157.795 57.8022 157.422 58.0919 157.299 60.5714C155.937 60.2143 157.081 60.2739 155.905 59.528C150.639 62.444 153.347 61.4799 151.624 63.1263C150.047 62.9597 150.667 61.0713 146.791 62.6502C145.464 63.1898 145.961 63.4794 145.174 64.1618C144.618 64.6458 143.578 64.8521 142.99 65.0782C142.283 68.7479 144.336 66.8714 146 66.8278C146.104 68.3353 144.253 68.8551 143.181 69.0733C141.818 69.347 140.754 69.7834 140.007 70.9855C138.526 73.3619 136.644 72.1598 133.272 74.5322C131.759 75.5954 131.894 76.3413 130.925 77.3133L123.876 80.5466C122.22 81.0227 121.358 81.2845 120.544 82.3319C120.234 82.7326 119.813 83.6649 119.448 84.0973C118.618 85.0812 118.768 84.4187 117.795 85.0018C115.865 86.1603 118.427 86.5015 115.043 87.3901C112.946 87.9416 112.954 87.9495 111.687 89.1635L106.87 92.0437C105.957 92.7182 106.453 92.8094 105.619 93.3768C104.757 93.9599 104.487 93.5553 103.733 94.0472C102.875 94.6106 103.383 94.8486 102.625 95.5072C102.104 95.9594 101.417 96.0348 100.937 96.38C99.3046 97.5384 99.4674 99.3911 96.3061 99.4506C96.469 98.3041 97.5015 96.8759 98.3117 96.3244C99.793 95.3167 99.7454 95.0827 100.953 93.8409C103.03 91.7065 105.512 91.9723 103.165 88.0566C99.4634 89.4214 100.337 90.5124 98.8399 91.7303C97.6485 92.6983 97.6763 91.7303 96.6914 93.5751C95.8614 95.1303 96.044 94.5114 94.8248 95.4239C93.5063 96.4117 92.8113 98.2129 91.1155 99.4149C90.1544 100.097 89.3284 100.193 88.5182 100.803C87.4936 101.577 87.7994 101.982 87.1243 103.112C86.2227 104.628 84.4992 104.426 83.1211 106.81C81.6874 109.289 80.5595 108.865 78.9392 110.329C77.7915 111.368 78.6016 111.999 77.8232 113.193C76.4729 115.26 73.3157 114.32 72.7954 119.704C76.052 119.68 75.8614 117.99 76.9733 115.768C77.7319 114.253 79.7851 113.725 81.0639 112.166C82.2712 110.69 83.8161 110.968 85.5992 108.992C86.5524 107.937 87.0011 108.072 87.6723 107.084C88.5222 105.838 88.0853 105.64 90.0154 105.671C90.1743 107.052 89.1695 109.301 88.4388 109.829C86.8105 110.999 86.6358 109.115 85.0909 111.904C84.2291 113.459 83.6612 113.939 82.6922 114.927C81.3776 116.272 82.0011 116.891 80.3054 117.958C78.1251 119.331 78.7446 118.716 77.3864 120.735C76.9495 121.39 76.4094 121.727 76.1354 122.374C75.6628 123.484 76.2069 123.504 75.4602 124.246C74.3919 125.305 73.5897 124.262 72.2672 126.468C71.6199 127.547 70.5635 128.824 70.6628 130.165C72.9662 129.852 76.4809 124.821 77.6644 124.163C79.5309 123.119 79.2251 122.302 80.631 120.572C81.7708 119.168 82.7994 119.073 83.8677 117.24C85.0154 115.264 85.9169 115.447 87.4062 114.213C88.7843 113.074 89.2132 111.321 90.4563 110.714C92.2712 109.829 93.3236 109.658 94.4237 108.127C95.0909 107.199 96.7867 105.973 97.6604 105.08L107.899 95.6381C109.368 94.4439 109.646 93.1308 110.718 92.1747C112.37 90.7028 114.988 90.9091 118.657 86.9974C120.79 84.7241 125.067 83.7522 126.501 82.0066C128.387 79.7095 128.8 81.5186 130.532 79.4675C131.429 78.4043 133.447 77.7219 134.606 76.984C135.659 76.3135 136.131 76.6071 137.144 76.0874C137.843 75.7303 138.324 75.0202 138.792 74.6116C140.194 73.3936 141.87 73.6555 143.185 72.7271C145.206 71.2989 143.776 71.045 147.482 70.4221L154.932 67.9426C155.857 67.4268 155.667 66.9151 157.037 66.8119C158.443 66.7048 158.49 67.3356 159.793 66.685V63.1025V63.1065ZM90.5516 105.374C90.4443 103.287 91.4054 102.736 93.6612 101.085C94.6461 100.363 94.3125 100.288 95.6072 100.633C95.8852 102.72 92.9106 105.362 90.5556 105.374H90.5516Z" fill="#474747"/>
<path fill-rule="evenodd" clip-rule="evenodd" d="M159.793 35.6855C159.606 35.8918 159.328 36.1219 158.713 36.3719C156.676 37.197 157.728 36.7844 156.481 38.0857C154.841 38.4031 153.852 37.8873 152.458 38.657C150.627 39.6687 151.588 39.4227 149.062 39.6052C146.942 39.7559 148.137 40.4661 146.429 41.196C145.381 41.6444 144.031 41.6364 143.248 42.287C141.902 43.4098 143.482 43.7391 140.818 44.1398C134.964 45.0205 137.339 47.6667 132.283 48.4998C130.603 48.7775 130.635 49.329 129.773 50.2018C128.32 51.6776 128.216 50.2375 126.946 51.6498C125.718 53.0145 126.326 52.5226 124.324 53.3081C121.882 54.2642 121.672 55.8035 119.205 56.7517C116.668 57.7277 114.436 62.9803 111.298 60.7269C111.163 59.6518 111.942 59.2233 112.51 58.6203C113.351 57.7316 113.284 57.811 114.606 57.2952C116.239 56.6565 115.667 56.4145 116.715 55.6964C117.374 55.2442 118.395 55.2005 119.193 54.7482C120.131 54.2166 120.301 53.5343 120.965 52.8162C121.775 51.9434 122.331 52.1417 123.371 51.7966C125.556 51.0706 124.499 49.8526 127.521 48.8172C130.103 47.9325 129.035 47.1866 131.918 46.0718C135.321 44.7587 138.069 42.8187 141.008 40.8906C142.49 39.9186 144.527 39.6806 145.774 38.538C148.272 36.2528 148.284 38.3515 150.679 36.8797C152.053 36.0346 153.367 34.7294 155.357 34.3922C158.637 33.8288 157.72 33.4083 159.793 32.5474V30.2742C159.348 30.3971 158.864 30.2384 157.716 30.2464L156.779 31.8095C153.093 32.0515 154.241 32.6704 151.751 33.3766C149.718 33.9558 148.776 34.6699 147.629 35.8204C146.31 35.4475 145.143 34.1343 142.891 37.0979C142.077 38.169 141.227 37.4351 140.214 38.3952C139.448 39.1212 139.73 39.5338 139.046 40.0971C138.459 40.5851 137.537 40.5216 136.668 40.835C134.483 41.6245 132.164 43.3939 130.885 43.9176C130.055 44.2588 129.241 44.4254 128.709 44.8697C127.879 45.56 128.268 45.802 127.43 46.4725C124.662 47.3294 125.567 45.3696 123.328 48.3292C122.486 49.44 117.474 52.114 115.877 52.8598C113.645 53.9032 114.174 54.5856 112.688 55.6607C111.584 56.4581 110.087 56.966 108.959 57.9181C107.879 58.8266 107.128 59.9335 105.869 60.8182C104.471 61.8021 103.312 62.0123 102.668 63.6151C101.386 66.7968 101.672 64.8965 99.5866 66.2295C98.1807 67.1301 99.8487 67.3126 96.743 69.3795C95.3769 70.292 94.9281 71.8194 93.8955 72.5137C91.7033 73.9855 92.1243 71.4028 90.2816 74.8901C88.9988 77.3141 83.5063 78.5281 82.7001 79.2937C82.0846 79.873 82.0329 80.234 81.1989 80.9322C78.6136 83.0944 74.1418 84.0227 73.4587 87.7599C75.4563 87.7361 75.3888 87.2323 76.3816 86.3793C77.5095 85.4113 78.0139 86.1968 79.4198 85.1375C80.3888 84.4036 80.8097 83.8799 81.8582 83.3007C83.0893 82.6223 83.9869 82.7611 84.9321 82.3565C86.4055 79.1311 85.0036 81.1742 87.4182 79.1708C88.9789 77.8735 87.7001 77.4172 92.2712 75.4772C93.4865 74.9615 93.689 75.2868 94.7534 75.0607C96.1433 74.7711 96.6239 73.1365 97.6723 72.3153C99.7534 70.6887 98.9035 70.9784 100.635 69.566C102.371 68.1537 101.096 67.8997 103.522 66.7334C105.905 65.5908 106.93 62.2623 110.091 61.6116C110.488 65.0909 108.518 65.5353 106.413 67.0587C105.087 68.0188 105.687 68.2568 103.991 69.205C102.664 69.9469 102.422 70.3118 102.255 72.0336C101.961 75.0884 100.008 75.4534 97.6207 76.5167C95.9924 77.2427 95.9686 77.9211 94.9877 78.4527C93.9948 78.9922 92.9424 79.2898 91.8423 79.8769C89.801 80.964 91.2029 81.3369 89.1418 81.7931C86.9893 82.2692 87.7279 82.3644 86.5564 83.7173C85.6429 84.7725 84.7256 84.6059 83.836 85.562C82.5611 86.9307 83.7327 87.1132 81.6159 87.8908C79.6064 88.6287 80.0433 88.4105 79.0584 89.9102C78.0893 91.386 77.7796 90.3981 76.5683 91.985C75.3054 93.6354 72.5611 95.6865 71.9893 96.5831C74.0663 97.4242 73.7684 95.9642 74.8844 95.139C75.3054 94.8296 79.7732 93.9528 83.28 89.561C84.249 88.3471 85.075 88.4899 85.9487 87.379C87.5492 85.3438 87.3268 86.6729 88.7684 85.6414C89.94 84.8043 89.4356 84.0584 91.4849 83.4871C93.7367 82.8603 93.4309 83.8125 93.8082 81.2575C95.5437 81.1663 96.9694 80.8608 98.3117 80.0594C101.278 78.29 99.805 76.4413 104.285 75.1916C106.552 74.5568 106.056 74.2791 107.188 72.6882C108.542 72.359 108.498 72.8906 109.511 72.1447C109.801 71.9305 110.456 71.1807 110.949 70.7363C112.49 69.3438 113.026 69.4073 112.331 67.6935C108.054 67.6935 106.691 72.2082 104.666 72.4819L104.368 71.7401C105.115 70.9109 105.556 71.1013 106.227 70.292C108.264 67.8363 106.691 67.6538 110.937 65.5987C112.974 64.6109 113.387 64.4046 114.539 62.6233C116.195 60.0565 117.255 61.7386 118.562 60.3976C120.23 58.6838 118.745 59.1916 122.065 57.3349C123.125 56.7438 125.325 55.6369 126.044 55.0339C126.874 54.3356 126.668 53.7088 127.788 53.4033C129.031 53.0661 128.999 53.6453 130.246 52.6694C130.826 52.2171 131.104 51.7569 131.985 51.2729C132.998 50.7215 133.363 50.9357 134.046 50.2057C134.797 49.4043 134.455 49.079 135.794 48.5236C136.592 48.1903 137.402 48.1784 138.296 47.8809C140.19 47.2541 140.691 45.6354 141.838 45.1355C143.455 44.4333 143.336 45.56 146.898 43.6399C148.526 42.7631 150.274 43.0884 152.001 42.4695C153.097 42.0768 153.395 41.4817 154.15 41.2C155.325 40.7676 155.687 41.3785 156.723 40.6327C157.672 39.9503 156.755 39.7797 158.506 39.2521C159.372 38.9902 159.563 38.9506 159.785 38.8236V35.6696L159.793 35.6855Z" fill="#474747"/>
<path fill-rule="evenodd" clip-rule="evenodd" d="M159.793 53.0235C158.701 53.452 158.387 53.1663 157.462 53.9201C155.691 55.3602 157.128 54.3327 154.948 54.8841C153.916 55.146 154.07 55.5903 152.617 55.9275C147.955 57.0106 151.207 56.6694 147.819 57.9628C144.583 59.1966 143.991 59.9702 143.169 59.4148C143.554 57.8636 146.144 58.6689 146.366 56.1814C144.781 54.7651 145.242 55.9553 140.973 57.6811C137.049 59.268 134.19 62.3069 133.455 62.7433C132.851 63.1004 132.641 62.9774 132.025 63.2987C131.584 63.5288 131.318 63.9097 130.921 64.1636C129.027 65.3855 130.794 62.9893 125.564 67.0994C123.34 68.8489 124.897 70.0471 121.306 71.0944C118.403 71.9394 119.595 73.4668 116.314 74.4071C114.098 75.0418 115.147 75.5259 113.816 76.1527C112.232 76.9025 112.617 76.1368 111.529 77.8745C110.703 79.1916 110.961 79.0171 109.178 79.5209C107.867 79.8938 107.113 80.8103 106.763 79.4495C107.673 78.3545 108.26 79.2035 109.611 77.3825C111.072 75.4068 110.409 76.3034 112.434 75.387C113.582 74.8673 113.789 73.5343 114.551 72.6218C115.933 70.9675 116.946 72.7765 116.803 70.0034C115.159 69.8249 115.786 70.3644 113.121 72.0545C112.522 72.4353 111.938 72.7686 111.513 73.2962C110.913 74.0421 111.092 74.542 110.345 75.0022C109.547 75.4981 109.245 75.0696 108.276 75.7599C107.569 76.2638 107.494 76.6565 106.799 77.1366C105.361 78.1323 104.321 77.6801 103.562 79.3265C103.097 80.3342 103.407 80.5405 102.486 81.084C101.505 81.6632 101.453 81.08 100.671 82.1353C99.3405 83.9246 101.199 82.4924 98.3318 85.2139C97.6448 85.8685 97.756 85.9598 96.8465 86.5747C93.5264 88.8241 96.1793 88.1775 93.9633 89.4073C92.9347 89.9786 93.1531 89.5184 92.6527 90.657C91.4573 93.3865 91.6122 91.8829 89.5868 93.2992C88.3675 94.1522 87.9228 95.2749 86.9736 96.3858C85.1745 98.4844 85.4525 96.5087 83.8759 98.9923C82.8513 100.611 81.8108 100.059 80.9172 101.448C79.2929 103.963 80.7822 102.606 78.1372 104.364C77.4462 104.824 77.2913 105.189 76.5884 105.685C73.2286 108.054 75.3175 107.145 74.2174 108.736C73.7329 109.438 70.6749 109.573 70.667 113.306C72.8473 112.913 72.9148 112.017 74.0546 111.124C76.7631 109.002 74.0546 112.179 78.6019 107.125C79.0943 106.578 79.2293 106.165 79.8648 105.534C81.2746 104.13 80.7742 105.51 82.883 103.134C83.2166 102.761 88.2405 99.7064 89.2373 98.3615C91.9299 94.7195 90.6948 96.8222 91.9736 95.3979C92.8751 94.3942 92.0927 94.4537 93.3358 93.8745C94.1499 93.4936 94.277 93.7515 95.0832 93.085C97.5494 91.0577 96.3024 88.3838 100.238 86.8286C102.406 85.9717 101.259 84.8648 103.078 83.9642C104.515 83.2501 106.437 83.8849 107.919 83.381C109.746 82.7582 109.69 81.3815 110.719 80.477C111.858 79.4773 112.637 80.2985 114.277 78.6164C115.516 77.3468 116.43 77.7515 117.446 76.0852C118.888 73.7287 119.098 75.871 120.746 73.9707C122.498 71.9513 122.267 72.9868 124.337 71.8641C126.005 70.9556 125.409 70.2296 127.474 69.2695C128.876 68.6149 130.266 68.4125 131.644 67.75C133.391 66.9129 133.209 65.7029 134.487 65.1792C135.715 64.6754 137.518 65.3101 139.484 64.4532C140.913 63.8303 141.469 62.9536 142.847 62.4101C143.514 62.1482 144.348 62.0451 145.028 61.7237C145.782 61.3667 146.032 61.0017 146.783 60.6288C147.51 60.2677 148.094 60.1963 148.888 59.867C149.897 59.4505 149.718 59.2481 150.488 58.9466C153.252 57.8636 151.886 59.1648 154.491 57.205C155.782 56.233 157.391 56.5782 158.824 55.8323C159.194 55.6419 159.507 55.4158 159.809 55.1857V53.0195L159.793 53.0235Z" fill="#474747"/>
<path fill-rule="evenodd" clip-rule="evenodd" d="M157.446 8.07C157.144 7.62566 156.846 7.18133 156.533 6.74493C156.366 6.51483 156.207 6.28076 156.028 6.06256C155.905 5.91577 155.651 5.56268 155.46 5.56268C155.436 5.56268 155.413 5.55475 155.393 5.55078C152.696 7.74865 153.645 8.2763 151.06 8.34374C149.372 8.38738 147.065 9.80766 146.08 10.9225C144.936 12.2158 145.889 11.8111 143.995 12.5411L140.421 14.6676C137.617 16.8972 138.53 14.6041 136.997 16.6591C135.738 18.3452 136.405 17.286 134.626 17.9802C133.518 18.4127 133.621 19.0752 132.641 19.7258C131.707 20.3408 130.726 20.0472 129.984 20.7811C128.971 21.7769 129.984 22.1935 128.443 22.9393C126.596 23.832 127.517 23.4392 126.255 24.4548C125.158 25.3356 125.071 24.7722 124.217 26.1211C123.502 27.2478 123.598 27.6604 122.652 28.2594L115.933 32.6829C113.566 33.647 113.971 34.8054 112.096 36.2456L110.143 37.9991C109.237 38.8203 108.657 38.8124 107.112 38.7568C105.54 41.4744 106.453 39.9391 103.963 41.2245C103.248 41.5934 101.318 42.9621 100.814 43.5136C98.5381 45.9852 99.384 48.2942 94.7613 48.2783C94.2211 51.1546 93.3196 49.9763 91.7271 51.2577C91.04 51.8091 89.2966 53.8126 89.5945 54.7925C90.0432 54.9909 89.0782 54.9988 90.2696 54.9076L90.6787 54.8163C90.6787 54.8163 91.3617 54.3641 91.3816 54.3482C92.2315 53.7769 92.021 53.9356 92.9463 53.65L96.0877 51.8964C97.1878 51.1863 96.596 50.7459 98.6056 49.5756C99.7335 48.917 100.258 48.2822 101.064 47.4729C105.782 42.732 104.396 45.2949 108.975 40.8357C110.794 39.0663 110.004 40.1374 111.981 39.3202C113.264 38.3244 111.965 38.3323 114.098 37.3921C115.579 36.7375 114.972 36.4479 116.207 35.8012C117.851 34.9363 117.271 35.8647 118.391 34.2738C119.368 32.8853 123.153 30.2312 124.622 29.0965C129.086 25.645 126.644 27.0375 128.256 25.2641C129.309 24.4945 129.233 25.2364 130.139 24.6056C130.889 24.0819 130.46 23.6693 131.282 23.2012C132.279 22.6299 132.486 23.225 133.451 22.7806C134.451 22.3204 133.657 22.1776 134.662 21.4556C136.342 20.2376 136.417 22.0388 137.768 19.4164C138.637 17.7263 138.899 17.9168 140.917 17.405C143.284 16.8059 142.18 15.8816 143.768 15.1714C144.868 14.6795 146.552 14.5803 147.545 13.8027C148.467 13.0846 147.545 13.2354 149.015 12.7236C149.706 12.4816 150.472 12.3745 150.957 12.073C152.41 11.1843 151.656 10.125 153.534 9.53392C154.872 9.11339 156.576 9.29192 157.783 8.64922C157.795 8.64525 157.803 8.63732 157.811 8.63335C157.688 8.45086 157.577 8.25249 157.458 8.07793L157.446 8.07Z" fill="#474747"/>
<path fill-rule="evenodd" clip-rule="evenodd" d="M159.793 42.2754C159.066 42.4658 158.598 42.5848 157.931 43.2831C156.06 45.2389 156.568 43.8464 153.959 44.1162C152.176 44.3027 151.147 44.6399 150.528 45.7706C146.124 45.7031 146.68 45.5047 143.737 47.9168C141.58 49.6863 138.403 47.0282 137.184 50.0909C137.537 51.2494 138.193 51.658 139.352 51.8246C140.552 51.2692 140.365 51.0074 141.203 50.2337C141.771 49.7061 144.877 48.7738 145.917 48.627C145.945 48.627 147.426 48.4445 147.454 48.4445L148.562 48.6667C148.411 48.8928 148.383 48.9563 148.379 48.9682C148.379 48.9563 148.36 48.9166 148.086 49.115C145.723 50.7971 143.133 51.8008 140.059 52.3086L139.245 54.7802C135.472 53.7051 138.403 52.6696 136.846 51.1303C135.647 49.9481 131.267 54.1613 130.425 55.1452C128.927 56.8868 128.59 55.7482 126.648 56.7956C125.079 57.6406 125.23 58.6602 123.371 59.2037C121.894 59.6362 121.108 60.505 120.218 61.4849C118.792 63.0599 117.927 62.0086 116.791 63.7661C116.076 64.869 116.596 64.6825 115.369 65.2181C114.285 65.6902 114.225 65.2697 114.003 66.3448C115.901 68.4157 117.923 64.8293 119.245 64.2104C121.306 63.2504 120.417 63.9764 121.827 62.5164C122.827 61.4809 123.419 62.0165 124.71 61.1279C125.476 60.6002 126.084 59.6084 127.188 59.3307C129.166 58.8308 129.007 59.5687 130.135 57.9937C130.929 56.8868 130.993 56.3433 132.224 55.7998C133.078 55.4229 134.464 55.0341 135.321 55.5102C135 57.3272 132.899 56.7559 130.818 58.6801L122.252 65.238C120.973 66.0869 118.491 67.0034 118.665 68.7133C118.741 68.753 118.844 68.7847 118.904 68.7966L120.254 68.6974C123.217 67.3684 123.34 66.1068 125.321 64.5953C126.338 63.8177 126.001 63.5677 127.359 63.167C129.738 62.4609 130.178 62.1435 132.279 61.0088C134.527 59.7949 135.413 60.0646 135.866 57.4145C138.451 57.9937 137.716 57.5454 139.813 56.5615C141.183 55.9188 142.398 55.6451 143.792 55.1055C146.302 54.1375 143.395 53.3996 146.58 52.4832L153.479 48.8333C155.54 46.9528 154.742 45.8777 158.137 45.4056C159.257 45.2508 159.19 45.0644 159.777 44.8779V42.2794L159.793 42.2754Z" fill="#474747"/>
<path fill-rule="evenodd" clip-rule="evenodd" d="M72.1203 160.749H73.2084C73.403 160.701 73.6056 160.634 73.82 160.535C74.8725 160.039 74.245 159.705 75.4682 159.289C76.0837 159.079 77.013 159.15 77.7041 159.031C79.6183 158.698 79.1854 157.73 80.627 156.774C82.1918 155.738 83.1647 156.571 84.4833 155.211C87.2235 152.39 85.7899 154.076 87.3903 152.969C89.1298 151.767 87.0806 151.37 89.8089 150.259C91.2267 149.684 91.7708 149.089 92.299 147.613C94.1576 142.4 94.662 146.574 97.1362 141.9C97.7636 140.718 98.5738 140.682 99.5945 138.933C101.235 136.112 101.04 137.818 101.985 136.191C103.149 134.184 101.763 134.251 104.249 133.045C105.806 132.292 104.948 131.121 106.258 129.915C108.375 127.967 107.136 129.78 108.411 126.928C110.202 122.925 112.073 123.58 116.004 118.835C117.057 117.565 118.157 117.791 118.856 116.561C119.702 115.066 119.305 114.498 121.139 113.709C126.231 111.511 126.767 106.449 124.801 106.485C123.756 106.5 124.185 106.85 123.665 107.964C122.891 109.619 121.767 109.143 120.516 109.96C119.122 111.396 122.021 109.829 117.339 113.046C115.174 114.534 115.095 115.744 114.376 116.355C113.51 117.093 113.506 116.51 112.529 117.637C111.251 119.112 111.687 118.156 110.754 119.009C109.837 119.85 109.281 121.509 108.093 122.623C107.251 123.413 107.228 123.33 106.544 124.21C105.937 124.996 105.849 125.238 105.131 125.936C104.098 126.94 104.309 126.468 103.832 127.805C103.24 129.459 103.431 128.551 102.557 129.63C101.743 130.633 101.116 132.363 100.325 133.676C99.5667 134.942 99.3165 134.509 98.7207 135.212C98.133 135.906 98.4706 136.35 97.9702 137.314C97.1759 137.85 96.6397 137.814 96.1354 138.326C95.6469 138.818 95.7144 139.31 95.1346 139.897C94.662 140.377 94.106 140.46 93.6691 140.996C93.125 141.666 93.3951 141.885 92.8351 142.718C91.2624 145.066 88.403 148.026 88.0575 148.514C85.7422 151.783 84.515 150.311 82.6008 153.604C80.349 157.48 79.2211 154.715 75.8256 157.095C72.7716 159.237 73.7287 158.186 72.2553 158.968C71.0877 159.586 71.2744 160.483 72.1123 160.745L72.1203 160.749Z" fill="#474747"/>
<path fill-rule="evenodd" clip-rule="evenodd" d="M159.793 47.5117C159.396 47.6506 158.884 47.9045 158.165 48.3647C155.357 50.1579 156.239 47.1983 154.877 51.0109C153.88 51.0981 152.816 50.9394 151.946 51.2727C150.901 51.6694 150.921 52.1415 149.885 52.2724C148.626 52.4311 149.118 51.7289 148.074 53.0857C146.612 54.9861 146.827 56.2754 149.71 56.1088C152.875 52.0185 152.51 54.6885 154.357 53.3833C155.21 52.7803 154.226 52.8517 155.675 52.4391C156.946 52.078 156.438 52.5025 157.621 51.8202C158.463 51.3322 158.181 51.483 159.198 51.0942C159.436 51.0029 159.631 50.9156 159.793 50.8363V47.5236V47.5117Z" fill="#474747"/>
<path fill-rule="evenodd" clip-rule="evenodd" d="M159.591 13.0406C159.543 12.7629 159.476 12.5129 159.352 12.259C159.162 11.8702 159.071 11.4576 158.995 11.0371C158.395 11.533 157.911 12.0765 156.668 12.6518C155.345 13.2667 154.067 13.5286 152.625 14.0403C150.008 14.9647 152.772 15.2067 149.65 16.0874C148.252 16.4842 148.538 17.0832 146.807 18.7852C145.226 20.3364 145.933 18.3091 143.665 19.5905C142.808 20.0746 140.623 20.7291 140.119 21.4869C139.67 22.1574 139.73 22.324 139.825 22.3478C139.912 22.3716 140.02 22.2843 139.825 22.3478C139.591 22.4232 138.912 22.7128 137.18 23.6927C136.183 24.2561 134.579 25.0852 134.237 26.1445C135.48 27.7274 140.457 25.1923 140.723 24.9384C141.692 24.022 140.941 24.1172 142.498 23.534C145.238 22.5025 142.863 21.7448 146.231 21.0465C151.14 20.0349 147.863 18.5392 152.327 17.6863C154.821 17.2102 153.701 17.0079 155.333 16.1549L159.797 14.1078V13.8856C159.686 13.6119 159.642 13.3262 159.595 13.0406H159.591Z" fill="#474747"/>
<path fill-rule="evenodd" clip-rule="evenodd" d="M89.6388 61.1754C93.7016 60.005 91.835 60.9691 96.8946 58.4181C99.1027 57.3073 96.9422 57.8151 99.6865 56.3591L104.547 51.519C106.073 49.944 106.084 51.65 107.459 49.583C108.487 48.0318 108.956 48.6864 110.461 47.7382C111.656 46.9884 111.811 46.2029 112.693 45.1159C113.852 43.6877 114.75 44.132 115.846 43.1402C117.038 42.065 116.811 41.5374 118.805 41.2121C120.85 40.8788 120.588 40.4107 121.68 39.2721C122.518 38.3953 123.237 37.6772 124.285 37.0266C125.31 36.3918 126.315 35.9158 127.339 35.2374C128.455 34.5034 129.134 34.0194 129.73 32.7816C131.378 29.3539 134.226 28.9889 133.078 27.0688C131.942 27.0489 132.371 27.0569 131.553 28.0407C129.365 30.6671 128.4 28.6953 126.843 31.036C125.147 33.579 124.408 34.186 121.466 35.646C120.143 36.3006 120.818 36.2609 120.171 36.9314C119.667 37.4511 120.405 37.1258 119.246 37.4194C115.894 38.2644 118.948 37.9192 115.822 39.9822C113.837 41.2914 114.464 41.3033 113.253 42.553C112.284 43.5488 111.2 42.8506 109.909 44.0566C109.408 44.5287 109.889 44.2748 109.134 44.7072C106.315 46.318 108.471 45.1357 107.153 46.433C106.478 47.0955 106.271 46.7464 105.548 47.3931C104.127 48.6666 105.37 48.5793 101.644 50.9081C97.3036 53.6217 97.7127 55.0896 96.5729 55.8235C95.6317 56.4305 95.731 56.125 94.9685 56.7915C92.6968 58.7831 93.7175 56.6567 91.831 58.4975C90.9375 59.3703 91.287 58.9458 90.3497 59.5805C88.1376 61.0762 90.7985 60.6239 87.0773 61.1992C86.3465 62.4647 85.7588 63.405 84.2139 63.9961C82.9947 64.4642 81.6285 65.5076 82.2242 66.9319C83.0979 67.8563 85.9176 65.2022 86.4538 64.8134C87.1527 64.3056 88.2171 64.0953 88.6539 63.5795C88.9637 63.2106 89.3767 61.707 89.6349 61.1833L89.6388 61.1754Z" fill="#474747"/>
<path fill-rule="evenodd" clip-rule="evenodd" d="M139.912 0.75C139.845 0.781738 139.781 0.809509 139.71 0.849182C138.161 1.67437 139.352 0.496095 136.676 2.083C135.103 3.01531 135.234 1.97192 134.15 3.83654C133.57 4.82835 132.974 5.3798 132.879 6.72868L135.591 7.58561C136.147 6.81199 136.811 5.96299 137.831 5.51866C140.297 4.44353 138.78 5.99076 140.17 3.5866C140.595 2.84869 141.989 1.71801 143.332 0.75H139.908L139.912 0.75Z" fill="#474747"/>
<path fill-rule="evenodd" clip-rule="evenodd" d="M106.93 55.058C108.677 55.3634 109.066 55.3 110.043 54.1614C111.596 52.3562 110.802 53.5544 112.736 52.9236C113.868 52.5546 113.987 51.4001 114.702 50.5551C115.548 49.5514 116.338 49.9243 117.295 49.1586C118.59 48.1232 117.418 47.5479 119.674 47.2305C122.128 46.8814 120.83 47.3853 122.375 45.957C122.887 45.4849 123.05 45.5286 123.435 45.0247C124.253 43.9536 122.903 44.5368 124.388 43.9655C125.496 43.541 126.159 43.9377 127.514 43.1006C128.904 42.2397 128.36 41.7755 129.976 41.2915C132.128 40.6488 130.973 40.5695 132.518 39.8276C134.813 38.7287 136.644 39.8435 138.153 37.4909C138.816 36.4554 138.896 35.7254 140.313 35.4596C144.571 34.6622 142.279 34.9399 145.691 32.7619C146.958 31.9565 147.533 32.389 148.078 30.9925C147.347 30.4768 146.342 30.2427 144.277 31.0798C143.224 31.5043 142.704 32.0835 141.684 32.4723C139.761 33.2023 140.075 32.3929 138.61 33.6744C137.514 34.6305 136.993 34.2774 136.048 35.1066C135.039 35.9913 135.321 36.2967 133.582 36.9355C132.057 37.4949 131.485 36.8323 130.25 37.5861C129.543 38.0185 130.218 37.9868 128.999 38.3438C127.045 38.9151 126.167 38.1098 125.103 40.4346C124.249 42.2913 124.388 41.4502 122.978 42.5849C121.485 43.7869 122.915 43.5291 120.369 43.9496C117.605 44.4098 118.447 46.2625 115.683 47.2781C114.225 47.8137 113.792 47.5797 112.819 48.6786C109.11 52.872 107.208 51.1343 106.922 55.0619L106.93 55.058Z" fill="#474747"/>
<path fill-rule="evenodd" clip-rule="evenodd" d="M99.3842 39.5264L100.862 39.6176C103.884 38.8242 104.206 36.0352 107.403 35.2973C108.669 35.0037 109.428 34.4245 110.119 33.7104C111.485 32.302 112.708 30.4175 114.261 29.2789C115.397 28.4458 116.024 29.1758 117.105 27.8547C119.551 24.8633 119.305 27.331 123.014 22.9313C123.717 22.1021 123.133 22.2251 124.023 21.6459C125.592 20.6184 125.182 21.6697 126.561 19.9122C128.526 17.4009 132.399 16.8534 134.801 15.3221C136.294 14.3699 138.88 12.0967 138.407 10.2638C135.85 9.03394 136.457 11.8745 130.234 14.1914C128.562 14.8143 128.578 14.7666 127.534 16.0441C125.548 18.4721 125.266 17.7223 124.067 18.8529C123.161 19.7059 123.685 19.3845 123.189 20.2415C122.291 21.7847 122.081 20.5946 120.389 21.7332C119.305 22.4631 118.296 22.4473 117.458 23.3677C116.7 24.1968 116.513 25.0538 115.683 25.8631C114.789 26.7359 114.007 26.7557 113.05 27.5055C112.025 28.3069 112.097 29.1837 110.925 29.6558C109.615 30.1835 106.481 30.7032 105.528 33.0994C104.912 34.6466 104.912 34.8331 103.701 35.5631C102.315 36.4002 98.2881 37.749 99.3882 39.5264H99.3842Z" fill="#474747"/>
<path fill-rule="evenodd" clip-rule="evenodd" d="M152.466 3.23443C152.355 3.13922 152.236 3.05987 152.113 2.98846C152.097 2.98052 152.085 2.97259 152.069 2.96069C151.946 2.88928 151.815 2.82183 151.676 2.76233C151.168 2.54016 150.671 2.31006 150.199 2.03631C149.96 1.94903 149.726 1.84985 149.515 1.70703C147.931 2.30212 146.465 2.90118 146.068 3.20269C145.604 3.55975 141.18 5.75365 140.417 8.47123C142.597 11.6173 144.512 7.15013 149.122 4.83721C150.044 4.377 150.806 4.3294 151.632 3.94854C152.121 3.7224 152.47 3.55975 152.728 3.44073C152.633 3.37725 152.546 3.30187 152.462 3.23443H152.466Z" fill="#474747"/>
<path fill-rule="evenodd" clip-rule="evenodd" d="M159.793 16.8008C159.515 17.0507 159.094 17.4435 158.332 18.0346C157.192 18.9114 157.2 18.3361 156.012 18.8122C154.599 19.3795 155.536 19.8397 154.043 20.2404C152.494 20.657 152.565 19.7842 149.702 22.5216C148.292 23.8665 149.106 23.081 147.784 23.7157C146.946 24.1204 146.572 24.7869 145.921 25.2947C144.642 26.2865 144.658 25.5605 143.562 26.0842C142.816 26.4412 142.724 27.2149 141.715 27.6433C140.79 28.0361 139.996 27.8417 139.094 28.1789C138.197 28.5122 137.943 29.0319 137.005 29.5C136.251 29.8769 135.488 29.984 134.793 30.4244C133.912 30.9838 133.848 31.4757 133.066 32.1224C131.731 33.2332 129.344 32.9753 130.667 35.3914L131.668 35.6969C133.28 35.8714 133.761 35.1573 134.682 34.3083C137.069 32.1105 134.9 33.3919 138.3 32.2136C139.777 31.7018 140.036 30.2935 141.485 29.7063C142.641 29.2382 142.474 29.7063 143.479 28.8533C144.182 28.2543 144.067 27.9686 145.159 27.6711C146.207 27.3855 146.521 27.6909 147.454 27.1197C148.987 26.1794 147.891 25.7152 151.032 24.9416C152.97 24.4655 155.182 22.1725 156.358 21.7599C159.4 20.6966 157.951 20.6847 159.638 19.4033L159.793 19.447V16.8047V16.8008Z" fill="#474747"/>
<path fill-rule="evenodd" clip-rule="evenodd" d="M88.9392 142.473C90.214 142.267 90.7223 141.751 91.3022 140.918C92.2355 139.573 92.2434 139.966 93.3792 139.002C94.9241 137.692 94.7772 135.848 96.0679 133.979L99.666 129.599C100.607 128.603 101.167 128.576 101.83 127.774C103.073 126.275 105.52 121.415 106.342 120.597C109.197 117.769 107.768 118.784 109.61 116.162C110.079 115.496 110.917 114.615 111.584 114.151C112.239 113.694 113.59 113.218 113.943 112.798C114.515 112.123 114.364 111.469 115.44 110.294C116.362 109.287 116.683 109.001 115.667 107.914C113.868 108.426 115.516 108.914 113.367 109.66C111.668 110.251 112.208 109.886 111.278 111.278C110.492 112.457 110.143 111.913 109.261 113.254C108.55 114.337 108.57 114.647 107.605 115.297C106.274 116.198 106.187 115.698 105.254 116.94C103.427 119.364 102.994 121.45 100.448 123.541C99.1973 124.569 99.7414 124.596 99.0107 126.084C98.5778 126.965 97.998 127.342 97.4499 128.246C96.6596 129.552 97.0726 129.75 95.8971 130.686C95.0075 131.396 94.5111 131.535 94.0464 132.547C93.2918 134.201 94.0663 133.892 92.573 135.062C91.2466 136.102 91.6874 135.55 91.2069 137.442C90.639 139.676 88.7128 139.172 88.9312 142.473H88.9392Z" fill="#474747"/>
<path fill-rule="evenodd" clip-rule="evenodd" d="M111.406 85.1263C112.288 85.1699 114.468 84.071 115.811 83.5751C117.451 82.9681 118.031 81.7858 119.043 80.8258C120.247 79.6832 121.041 79.3618 122.88 78.6676C125.58 77.648 124.889 76.4459 126.077 75.8508C127.316 75.2279 126.351 76.2634 130.267 74.0774C133.499 72.2723 132.197 74.5456 134.079 71.9153C134.615 71.1615 136.577 70.0745 137.713 69.5508C139.659 68.6502 141.065 69.5111 141.41 67.1347C140.493 66.861 140.131 66.6745 139.079 66.9363C137.058 67.4402 138.321 66.9919 136.49 66.9046C133.722 66.7777 133.821 68.0154 132.026 68.7177C129.889 69.5508 130.124 70.7489 128.571 71.5344C127.125 72.2684 127.546 71.4908 126.668 72.7722C126.009 73.7402 126.521 73.5696 125.068 74.0417C123.487 74.5535 124.115 74.1687 123.11 75.2041C121.708 76.6443 120.215 76.5927 119.365 77.7273C118.602 78.7469 119.174 78.8461 117.991 79.4888C116.017 80.5679 115.529 80.3973 114.075 81.8533C113.17 82.7618 111.768 83.9956 111.402 85.1263H111.406Z" fill="#474747"/>
<path fill-rule="evenodd" clip-rule="evenodd" d="M159.794 96.4522C157.649 96.7537 157.129 95.6667 155.556 96.1705C154.261 96.5871 154.436 96.5633 153.03 96.714C150.993 96.9322 151.759 97.2457 150.663 97.6424C149.825 97.9439 149.035 97.7376 148.01 98.0708C147.164 98.3446 146.652 98.7493 145.917 99.1142C143.916 100.114 142.836 99.6657 140.866 100.36C139.424 100.872 138.415 102.185 136.728 102.522C135.52 102.764 135.214 102.415 134.337 103.232C133.693 103.835 133.674 104.196 132.669 104.704C131.096 105.498 129.535 105.462 130.072 108.116C130.806 107.771 130.973 107.394 131.64 107.128C132.673 106.716 133.221 107.128 134.234 106.553C135.23 105.99 134.758 105.537 135.866 105.033C137.073 104.486 137.458 104.958 138.519 104.97C140.211 104.99 141.156 103.7 142.292 102.919C144.238 101.582 145.032 101.927 147.403 101.693C148.789 99.4792 149.249 100.741 151.636 99.7093C153.205 99.0309 153.741 97.8328 155.909 97.7178C156.875 97.6662 158.213 98.0193 159.794 98.055V96.4482V96.4522Z" fill="#474747"/>
<path fill-rule="evenodd" clip-rule="evenodd" d="M75.2148 101.313C76.1402 101.361 78.4595 100.587 79.1585 99.9921C81.1799 98.2664 84.2816 96.6596 85.195 95.4734C86.8709 93.2914 86.8987 94.6998 88.3443 93.4858C88.9043 93.0177 90.0798 91.1054 90.5564 90.2723C91.855 88.007 91.4102 89.1099 93.2689 87.8602C94.2577 87.1937 94.0433 86.4399 95.9098 85.3569C97.0814 84.6785 98.2212 84.1111 97.8797 82.3933C95.2546 81.6395 95.7391 83.1868 94.1743 83.9128C91.6287 85.099 92.8797 83.9723 91.4539 86.3169C90.3181 88.1855 89.8614 87.1858 88.3324 88.61C87.6771 89.221 87.5381 89.0702 86.8789 89.7407C86.3189 90.308 86.5135 90.3596 85.7232 91.1451C83.0584 93.7833 80.1791 94.9854 77.3475 98.4528C75.4214 100.813 75.2585 99.9604 75.2228 101.305L75.2148 101.313Z" fill="#474747"/>
<path fill-rule="evenodd" clip-rule="evenodd" d="M105.111 56.4298C103.332 57.0685 103.709 58.1476 102.196 58.8696C100.246 59.8059 100.413 58.8895 99.0346 60.8334C97.7161 62.698 97.6724 60.8572 95.8337 62.7694C94.817 63.8287 94.7733 64.4833 92.8234 64.8959C89.8369 65.5227 91.5803 66.5066 89.8766 67.3754C89.2332 67.7047 88.7964 67.6214 88.0259 68.0856L83.5501 71.3149C82.8353 72.1163 81.1832 73.8183 82.5692 74.342C85.7463 75.548 87.8631 71.4459 89.3166 70.5136C90.4961 69.7558 91.6717 69.7637 92.7956 68.8513C93.979 67.8872 94.2213 67.4032 95.5954 66.5225C96.5009 65.9393 98.3079 65.0229 98.979 64.4873L103.812 59.0521C104.73 58.0444 105.989 57.5247 105.107 56.4258L105.111 56.4298Z" fill="#474747"/>
<path fill-rule="evenodd" clip-rule="evenodd" d="M160 109.446C157.907 106.716 155.647 107.617 153.149 108.331C147.752 109.882 147.812 109.136 144.813 112.005C142.931 113.806 142.812 111.294 140.639 113.234C139.905 113.889 139.944 114.127 139.091 114.524C135.572 116.142 137.407 116.107 135.759 117.198C134.801 117.833 134.412 117.333 133.932 118.547C133.467 119.725 134.126 119.312 133.07 120.495C132.387 121.256 132.129 121.304 131.668 122.256C132.434 122.157 133.455 121.839 134.059 121.808C135.719 121.72 134.472 122.375 136.076 122.058C136.315 120.586 135.719 120.891 135.631 119.296C140.846 116.674 138.205 116.571 140.457 115.623C141.179 115.317 141.267 115.531 141.93 115.103C142.494 114.738 142.375 114.448 143.165 114.036C144.19 113.5 145.477 112.992 146.716 113.135C148.312 113.318 147.792 113.544 149.019 112.778C149.071 112.746 149.138 112.695 149.19 112.663C154.432 109.505 154.277 110.763 159.996 111.108V109.45L160 109.446Z" fill="#474747"/>
<path fill-rule="evenodd" clip-rule="evenodd" d="M119.999 0.75C119.741 0.964233 119.42 1.1626 118.836 1.36096C117.045 1.96795 117.207 1.30145 116.373 2.61065C114.753 5.15367 114.785 4.46733 111.945 5.62578C109.503 6.61759 111.024 7.3436 106.929 7.9863C106.389 8.79959 105.706 9.77951 105.821 10.9022C107.315 11.0371 109.594 9.91836 110.758 9.2717C112.962 8.04581 113.256 8.13706 114.269 5.95903C117.339 5.44328 119.368 4.52684 121.52 2.9082C122.624 2.07904 122.978 1.4284 123.689 0.753967H119.999V0.75Z" fill="#474747"/>
<path fill-rule="evenodd" clip-rule="evenodd" d="M159.793 23.6523C159.63 23.6841 159.439 23.7277 159.217 23.7912C158.288 24.053 158.025 24.8862 156.691 25.509C155.651 25.997 154.511 26.1121 153.522 26.6199C152.092 27.3538 152.557 28.175 151.21 28.5242C149.491 28.9725 148.637 28.2226 148.72 30.6228C151.766 30.7379 151.032 31.1108 152.517 29.389C157.513 29.032 154.785 28.8812 157.839 27.5085C158.673 27.1316 159.261 26.7428 159.789 26.3779V23.6523H159.793Z" fill="#474747"/>
<path fill-rule="evenodd" clip-rule="evenodd" d="M130.031 0.75C129.86 0.857116 129.721 0.952331 129.618 1.01977C127.871 2.19012 128.153 3.28905 125.714 4.23723C124.022 4.8958 124.824 4.68156 123.863 5.82017C122.743 7.14127 122.176 5.98283 118.99 8.37906C117.882 9.21219 117.998 9.3193 118.395 10.5531C120.345 10.6364 121.965 9.37881 123.323 8.13706C124.523 7.04209 124.221 7.78 125.797 7.20078C126.584 6.91117 128.697 4.49907 129.396 3.65801C130.571 2.23773 130.226 3.44378 131.874 2.43212C132.128 2.2774 132.986 1.53949 133.673 0.753967H130.027L130.031 0.75Z" fill="#474747"/>
<path fill-rule="evenodd" clip-rule="evenodd" d="M107.089 0.75C106.466 3.87224 109.468 1.96795 111.684 1.34509C112.34 1.15863 112.88 0.988036 113.316 0.75H107.085H107.089Z" fill="#474747"/>
<path fill-rule="evenodd" clip-rule="evenodd" d="M82.9746 51.8017C84.5513 53.341 84.4083 51.2543 86.1478 50.5481C89.1621 49.3262 87.2915 49.4849 89.4679 48.7152C92.6569 47.5845 90.1509 47.1481 92.2836 46.1047C93.7887 45.3668 94.2336 44.9582 94.9683 43.4625C91.1915 43.0023 91.5211 43.9108 90.2701 46.438C85.2383 47.7115 86.6204 48.2233 84.7697 50.2942C84.174 50.9607 84.3567 50.556 83.7371 50.9766C82.8436 51.5835 83.471 50.7385 82.9746 51.8017Z" fill="#474747"/>
<path fill-rule="evenodd" clip-rule="evenodd" d="M101.151 23.3636C104.301 23.3914 103.888 21.9393 105.476 20.8007C106.898 19.7851 108.673 19.3447 109.154 17.6071C104.833 16.278 101.803 21.0388 101.151 23.3636Z" fill="#474747"/>
<path fill-rule="evenodd" clip-rule="evenodd" d="M109.574 17.1106C111.882 17.0233 111.727 15.7458 113.299 14.6469C114.431 13.8574 116.044 13.6114 117.39 12.8378L117.398 10.0488C115.289 10.6598 115.702 12.0007 112.815 12.7862C110.797 13.3337 109.721 14.9008 109.578 17.1106H109.574Z" fill="#474747"/>
<path fill-rule="evenodd" clip-rule="evenodd" d="M71.4297 146.389C73.3121 146.801 73.614 146.254 74.2414 144.965C75.2978 142.787 75.0794 143.981 76.4734 142.917C77.2955 142.291 79.3606 138.442 79.019 137.181C76.6561 137.074 76.8507 139.783 76.0802 140.561C75.7466 140.898 75.1946 141.029 74.8848 141.342C74.0389 142.199 74.5909 142.707 73.2685 143.997C72.6489 144.6 71.5766 145.528 71.4337 146.393L71.4297 146.389Z" fill="#474747"/>
<path fill-rule="evenodd" clip-rule="evenodd" d="M116.799 19.2575L119.099 19.079C120.564 16.1908 119.492 17.7182 122.137 16.3495C123.142 15.8338 124.837 13.3423 122.55 13.2273C119.611 13.0805 120.111 14.5008 119.289 15.7703C118.277 17.3334 116.644 16.1274 116.799 19.2575Z" fill="#474747"/>
<path fill-rule="evenodd" clip-rule="evenodd" d="M80.7263 150.511C82.1401 149.935 80.9249 150.717 81.8502 149.42C83.1568 147.591 84.3403 148.741 85.4245 147.019C86.3975 145.472 85.3887 145.853 87.2632 144.857C87.9702 144.48 88.0218 144.81 88.2561 143.782C88.8677 141.132 85.4007 142.993 84.9678 143.711C83.3752 146.349 84.0702 146.349 82.4578 147.222C81.2982 147.852 80.0551 148.924 80.7223 150.511H80.7263Z" fill="#474747"/>
<path fill-rule="evenodd" clip-rule="evenodd" d="M68.582 140.589V141.764C70.0078 141.406 70.5916 140.47 71.4216 139.589C72.3866 138.566 72.8791 138.106 74.0229 137.138C74.0824 135.777 73.7528 135.507 73.2206 134.789C72.0451 135.218 70.9013 136.031 70.1269 136.868C69.5312 137.515 69.5352 137.614 69.285 138.586C69.1698 139.03 69.1301 139.332 68.9951 139.712C68.6694 140.625 69.424 138.697 68.8084 140.153C68.7846 140.208 68.7131 140.415 68.6972 140.371C68.6813 140.327 68.6217 140.518 68.582 140.589Z" fill="#474747"/>
<path fill-rule="evenodd" clip-rule="evenodd" d="M108.558 23.2314C108.208 24.2946 108.093 24.2391 108.343 25.4808C109.999 25.7625 111.302 24.4692 112.613 23.6638C113.824 22.9219 115.516 21.8151 114.92 19.764C112.819 19.5379 112.91 20.49 111.957 21.585C110.694 23.041 109.837 22.5728 108.558 23.2314Z" fill="#474747"/>
<path fill-rule="evenodd" clip-rule="evenodd" d="M105.397 89.4755C106.493 89.2414 107.49 88.4995 108.443 87.9203C109.499 87.2776 110.409 86.75 109.849 84.9885C107.315 84.9726 107.938 85.8851 106.91 86.3612C105.393 87.0634 104.932 86.016 103.955 88.0076C104.332 88.8248 104.626 88.9875 105.401 89.4755H105.397Z" fill="#474747"/>
<path fill-rule="evenodd" clip-rule="evenodd" d="M76.0318 149.051C73.9587 149.15 69.6577 151.939 71.4607 153.534C73.0413 154.938 76.1112 151.296 76.0318 149.051Z" fill="#474747"/>
<path fill-rule="evenodd" clip-rule="evenodd" d="M90.5521 105.375C92.9071 105.363 95.8817 102.725 95.6037 100.634C94.309 100.285 94.6426 100.365 93.6577 101.087C91.4019 102.737 90.4409 103.288 90.5481 105.375H90.5521Z" fill="#474747"/>
<path fill-rule="evenodd" clip-rule="evenodd" d="M151.057 153.58C152.86 152.878 150.406 153.457 153.924 150.736C154.794 150.061 155.826 148.363 155.505 146.836C153.726 146.915 153.277 148.268 152.498 149.593C151.768 150.835 150.259 152.283 151.057 153.584V153.58Z" fill="#474747"/>
<path fill-rule="evenodd" clip-rule="evenodd" d="M95.8617 27.3668L96.783 27.5533C96.9181 27.5374 97.5376 27.2796 97.629 27.2359C98.5265 26.8114 99.8331 26.2481 100.262 25.292C101.362 22.86 98.9395 22.5466 97.2477 24.562C96.8029 25.0936 95.7743 26.5932 95.8617 27.3668Z" fill="#474747"/>
<path fill-rule="evenodd" clip-rule="evenodd" d="M90.9298 22.6211C92.5462 22.6211 91.8591 21.3397 94.2301 20.6851C95.6677 20.2884 96.6208 19.364 96.5057 17.6779C95.4016 17.5986 93.5351 18.6896 92.8917 19.3442C92.3913 19.856 92.3873 20.3122 91.8274 20.8676C90.7511 21.9427 90.5128 20.7962 90.9298 22.6211Z" fill="#474747"/>
<path fill-rule="evenodd" clip-rule="evenodd" d="M76.4102 77.6282C78.789 78.6597 80.6913 76.7237 80.0003 74.9067C78.6381 74.2243 78.4515 74.7757 77.7207 75.7477C77.2005 76.438 76.7716 76.8347 76.4102 77.6282Z" fill="#474747"/>
<path fill-rule="evenodd" clip-rule="evenodd" d="M95.7703 42.8505C97.2596 42.8743 100.465 39.3593 96.7274 39.4981C96.1873 40.3114 95.1905 41.2437 95.1865 42.3784L95.7664 42.8465L95.7703 42.8505Z" fill="#474747"/>
<path fill-rule="evenodd" clip-rule="evenodd" d="M70.7934 105.477C71.8855 105.631 75.3565 103.414 74.0817 102.188C73.1961 101.339 72.3065 102.715 71.8855 103.271C71.3732 103.941 70.6068 104.647 70.7974 105.477H70.7934Z" fill="#474747"/>
<path fill-rule="evenodd" clip-rule="evenodd" d="M86.0039 42.3745C87.7116 42.8783 90.3963 41.1447 90.432 39.6569C89.2525 39.3435 88.7203 39.9624 87.803 40.498C86.6036 41.2042 86.131 40.9622 86.0039 42.3745Z" fill="#474747"/>
<path fill-rule="evenodd" clip-rule="evenodd" d="M94.4076 28.3101C93.6451 28.0205 92.9461 28.2387 92.128 28.8576C91.7349 29.1551 90.6546 30.2739 91.3655 31.0197C91.8421 31.5196 94.9636 30.496 94.4076 28.3101Z" fill="#474747"/>
<path fill-rule="evenodd" clip-rule="evenodd" d="M100.349 32.0397C102.505 32.4205 103.49 30.6948 103.693 28.6992C102.22 29.2586 100.095 30.0679 100.349 32.0397Z" fill="#474747"/>
<path fill-rule="evenodd" clip-rule="evenodd" d="M125.396 11.8096C127.319 12.246 129.122 10.6352 128.311 9.81005C127.414 8.89361 125.4 10.4131 125.396 11.8096Z" fill="#474747"/>
<path fill-rule="evenodd" clip-rule="evenodd" d="M96.9414 17.2263C98.8318 17.7222 100.412 17.0596 100.702 15.4172C99.8763 14.9094 99.6698 15.2783 98.7881 15.8258C97.8111 16.4289 97.5053 16.3297 96.9454 17.2263H96.9414Z" fill="#474747"/>
<path fill-rule="evenodd" clip-rule="evenodd" d="M91.5088 38.3153C93.0894 38.7358 94.3444 37.5774 94.4595 36.2364C92.7916 36.0936 91.5207 36.6451 91.5088 38.3153Z" fill="#474747"/>
<path fill-rule="evenodd" clip-rule="evenodd" d="M79.0352 69.5849C81.0923 69.8388 81.3147 68.9779 81.275 66.8594C79.8771 67.272 79.1066 67.998 79.0352 69.5849Z" fill="#474747"/>
<path fill-rule="evenodd" clip-rule="evenodd" d="M84.6469 57.9937C87.0695 57.5375 87.2601 57.1407 87.3594 56.0854L86.2752 55.7363C85.604 56.1093 85.7232 56.0696 85.1592 56.6805C84.4841 57.4105 84.6628 56.9106 84.6469 57.9977V57.9937Z" fill="#474747"/>
<path fill-rule="evenodd" clip-rule="evenodd" d="M104.821 27.4586C105.226 29.478 107.01 28.5457 107.248 27.7046C107.74 25.963 105.254 27.1928 104.821 27.4586Z" fill="#474747"/>
<path fill-rule="evenodd" clip-rule="evenodd" d="M129.266 9.60879C131.732 11.2036 131.926 6.70871 129.929 8.14487C129.389 8.53366 129.369 9.00576 129.266 9.60879Z" fill="#474747"/>
<path fill-rule="evenodd" clip-rule="evenodd" d="M144.324 135.268C145.313 135.189 145.917 134.324 146.032 133.733C146.314 132.285 146.107 133.463 145.917 132.936C144.626 133.308 144.682 134.046 144.324 135.264V135.268Z" fill="#474747"/>
<path fill-rule="evenodd" clip-rule="evenodd" d="M78.0019 151.522C77.0369 152.986 79.3522 154.049 79.5389 151.479L78.0019 151.522Z" fill="#474747"/>
<path fill-rule="evenodd" clip-rule="evenodd" d="M80.7461 60.6402C81.9812 61.3226 82.7239 60.5886 82.7715 59.3072C81.6357 59.2874 80.9685 59.7912 80.7461 60.6402Z" fill="#474747"/>
<path fill-rule="evenodd" clip-rule="evenodd" d="M87.4619 32.9192C87.9305 34.2046 88.5263 34.0102 89.2173 33.2683C89.0386 32.824 89.8209 32.7486 88.5183 32.5145C88.0735 32.4352 87.585 32.697 87.4619 32.9192Z" fill="#474747"/>
<path fill-rule="evenodd" clip-rule="evenodd" d="M100.055 6.80761L99.916 8.17632C100.675 7.87877 101.163 7.64867 101.6 7.04168C101.02 6.49023 101.092 6.36328 100.051 6.80761H100.055Z" fill="#474747"/>
<path fill-rule="evenodd" clip-rule="evenodd" d="M69.7259 156.16C70.3097 155.203 70.2303 155.572 69.7021 154.799C69.4598 154.858 68.8641 154.676 68.9992 155.513C69.0786 156.001 69.2533 155.949 69.7259 156.16Z" fill="#474747"/>
</g>
<g filter="url(#filter0_d_7393_33435)">
<path fill-rule="evenodd" clip-rule="evenodd" d="M90.7978 124.771C89.0345 126.445 86.8939 127.743 84.4952 128.469L80.7422 98.1309C81.2267 98.1586 81.6914 98.2023 82.164 98.2776L90.7978 124.775V124.771Z" fill="white"/>
<path fill-rule="evenodd" clip-rule="evenodd" d="M75.3452 128.436C72.9544 127.698 70.7463 126.385 69.0068 124.671L77.6327 98.301C78.0934 98.2137 78.6057 98.1899 79.0744 98.1582L75.3452 128.44V128.436Z" fill="white"/>
<path fill-rule="evenodd" clip-rule="evenodd" d="M66.1119 120.776C64.9681 118.547 64.428 116.341 64.3446 113.655C64.1143 106.423 69.8172 99.9007 76.5766 98.4844L66.1159 120.776H66.1119Z" fill="white"/>
<path fill-rule="evenodd" clip-rule="evenodd" d="M83.1816 98.4688C90.3222 100.012 95.5526 106.272 95.5208 113.632C95.5089 116.663 94.8536 118.69 93.7496 120.912L83.1816 98.4688Z" fill="white"/>
</g>
<path fill-rule="evenodd" clip-rule="evenodd" d="M83.2969 98.4609C90.4414 100.004 95.6718 106.269 95.64 113.636C95.6281 116.671 94.9728 118.698 93.8688 120.924L83.2969 98.4649V98.4609Z" fill="#E30613" stroke="#E30613" stroke-width="0.5" stroke-miterlimit="10"/>
<path fill-rule="evenodd" clip-rule="evenodd" d="M66.4225 120.785C65.2787 118.551 64.7386 116.345 64.6552 113.659C64.4248 106.423 70.1317 99.8968 76.8911 98.4766L66.4264 120.785H66.4225Z" fill="#E30613"/>
<path fill-rule="evenodd" clip-rule="evenodd" d="M75.4565 128.448C73.0618 127.711 70.8576 126.397 69.1182 124.68L77.748 98.2893C78.2087 98.202 78.721 98.1782 79.1896 98.1465L75.4565 128.448Z" fill="#E5271E"/>
<path fill-rule="evenodd" clip-rule="evenodd" d="M90.9131 124.787C89.1498 126.465 87.0053 127.762 84.6066 128.485L80.8496 98.127C81.3341 98.1547 81.7988 98.1984 82.2714 98.2737L90.9092 124.787H90.9131Z" fill="#E5271E"/>
<path fill-rule="evenodd" clip-rule="evenodd" d="M122.033 75.6127C123.491 73.034 128.673 68.1384 129.849 65.7818L123.078 65.8255C122.538 66.7062 117.152 73.756 116.382 74.1924L116.346 55.8398L110.619 55.9232L110.6 87.6732L116.374 87.6812L116.406 77.4337C117.22 78.0724 122.824 86.2529 123.523 87.697L130.85 87.7129C129.71 85.1223 123.495 78.3581 122.033 75.6167V75.6127Z" fill="#E5271E"/>
<path fill-rule="evenodd" clip-rule="evenodd" d="M44.5786 69.0396C53.3196 66.6076 54.2648 82.6394 47.5571 84.6468C43.0893 85.9838 40.2656 82.2585 39.7573 78.4975C39.1099 73.6614 40.9606 70.0473 44.5786 69.0396ZM39.515 84.8531C41.3895 87.4596 46.5762 89.4869 50.9765 87.3604C59.0742 83.4487 58.6254 63.4219 44.7613 65.6515C41.8899 66.1117 41.6 67.2146 39.5825 68.5595L39.4356 55.8008L35.5436 55.8206L35.5039 87.6421L39.4396 87.7532L39.5111 84.8491L39.515 84.8531Z" fill="#040005"/>
<path fill-rule="evenodd" clip-rule="evenodd" d="M73.7569 77.406C73.9912 80.5164 73.2565 82.6547 71.4416 83.9362C66.2827 87.5861 60.3296 80.9528 66.1199 78.2233C68.3359 77.1799 71.1795 77.2196 73.7529 77.406H73.7569ZM62.1564 70.8283C64.5949 69.8365 73.4074 65.0956 73.8443 74.3393C68.61 74.2322 58.3558 73.9029 59.6068 82.869C60.0397 85.9714 62.4503 87.6813 65.7109 88.1018C70.0317 88.6651 71.7196 87.356 74.1739 85.285L74.2216 87.7289L78.0857 87.6773C77.5814 82.5516 78.9833 72.3874 76.5885 68.6741C74.0508 64.7425 66.2311 64.4608 61.9777 67.587L62.1564 70.8243V70.8283Z" fill="#040005"/>
<path fill-rule="evenodd" clip-rule="evenodd" d="M88.7331 87.5326C88.7411 75.5039 87.3392 70.4139 95.9293 71.0526L95.9174 65.5222C91.2153 64.4153 89.7895 67.4067 88.1692 69.8981L88.1176 65.7841L82.9746 65.7563L82.9905 87.7508L88.7371 87.5366L88.7331 87.5326Z" fill="#E5271E"/>
<path fill-rule="evenodd" clip-rule="evenodd" d="M99.8418 87.6529L105.612 87.6966L105.592 65.7734L99.8577 65.944L99.8418 87.6529Z" fill="#E5271E"/>
<path fill-rule="evenodd" clip-rule="evenodd" d="M99.8613 61.6398L105.652 61.9056L105.576 56.3594L99.8653 56.3991L99.8613 61.6398Z" fill="#E5271E"/>
</g>
<defs>
<filter id="filter0_d_7393_33435" x="41.6579" y="75.4509" width="76.5431" height="75.6979" filterUnits="userSpaceOnUse" color-interpolation-filters="sRGB">
<feFlood flood-opacity="0" result="BackgroundImageFix"/>
<feColorMatrix in="SourceAlpha" type="matrix" values="0 0 0 0 0 0 0 0 0 0 0 0 0 0 0 0 0 0 127 0" result="hardAlpha"/>
<feOffset/>
<feGaussianBlur stdDeviation="11.34"/>
<feColorMatrix type="matrix" values="0 0 0 0 1 0 0 0 0 1 0 0 0 0 1 0 0 0 1 0"/>
<feBlend mode="normal" in2="BackgroundImageFix" result="effect1_dropShadow_7393_33435"/>
<feBlend mode="normal" in="SourceGraphic" in2="effect1_dropShadow_7393_33435" result="shape"/>
</filter>
<linearGradient id="paint0_linear_7393_33435" x1="4.66243" y1="80.8726" x2="164.746" y2="80.8726" gradientUnits="userSpaceOnUse">
<stop offset="0.11" stop-color="#C0C0BF"/>
<stop offset="0.59" stop-color="#FBFBFB" stop-opacity="0.9"/>
<stop offset="0.9" stop-color="white" stop-opacity="0.9"/>
</linearGradient>
<clipPath id="clip0_7393_33435">
<rect width="160" height="160" fill="white" transform="translate(0 0.75)"/>
</clipPath>
</defs>
</svg>
