<svg width="88" height="210" viewBox="0 0 88 210" fill="none" xmlns="http://www.w3.org/2000/svg">
<g clip-path="url(#clip0_7741_1154)">
<path d="M71.8004 0.0193132H70.7311C66.3041 0.897695 62.087 2.42531 58.0997 4.29665C55.2017 5.63332 51.6441 5.60467 49.3657 8.17298C48.9759 8.60263 48.1565 8.86041 48.5862 9.59558C48.9759 10.2639 49.8653 10.474 50.5049 10.3021C52.8333 9.63377 55.5015 9.30915 57.3402 8.00113C63.0663 3.98158 69.9217 4.03886 76.3473 2.57808C80.1047 1.71879 84.122 2.57808 87.7895 1.11729C87.8494 1.11729 87.9194 1.11729 87.9794 1.11729V0.00976562C82.583 0.00976562 77.1867 0.00976562 71.7804 0.0193132H71.8004Z" fill="#E3E3E5"/>
<path d="M83.4344 6.19636C83.5243 7.05565 84.5936 7.57122 85.5729 7.36118C86.4024 7.17977 87.2018 7.21796 88.0013 7.31344V4.83105C87.0919 4.88834 86.1725 4.97427 85.2532 5.14613C84.4737 5.29889 83.3145 5.27979 83.4344 6.19636Z" fill="#E3E3E5"/>
<path d="M53.6834 2.17686C54.6427 1.21255 56.6513 1.68038 57.0611 0H53.7833C53.3536 0.496477 52.6241 0.907024 52.9139 1.71857C53.0238 2.06229 53.4135 2.4251 53.6934 2.16731L53.6834 2.17686Z" fill="#E3E3E5"/>
<path d="M70.1924 207.728C69.2331 207.9 68.7134 208.568 68.2537 209.294C68.1138 209.513 68.0938 209.771 68.0039 210H69.0932C69.6628 209.399 70.7121 209.179 70.6621 208.148C70.6621 207.995 70.3223 207.699 70.1824 207.718L70.1924 207.728Z" fill="#E3E3E5"/>
<path d="M68.8616 142.995C63.7351 144.675 58.7385 146.394 54.8911 150.203C52.6326 152.59 50.654 155.349 47.9858 157.192C45.8472 158.672 43.4989 160.028 41.2204 161.412C39.4216 162.51 37.9626 164.057 36.0439 165.069C34.6549 165.804 34.425 167.37 35.0846 168.43C35.8641 169.652 36.8834 168.411 37.8427 168.067C39.9213 167.332 41.0105 165.594 42.6095 164.458C45.6374 162.329 49.8545 161.489 50.7739 157.23C50.8239 157.02 51.1636 156.887 51.3435 156.696C53.7119 154.137 56.8098 152.504 59.7578 150.671C64.5445 147.272 70.1707 145.897 75.9667 145.678C80.1439 145.515 83.8014 148.227 88.0085 148.532V144.79C85.84 143.434 83.4017 142.537 80.6335 142.26C76.6862 141.849 72.8189 141.725 68.8716 143.014L68.8616 142.995Z" fill="#E3E3E5"/>
<path d="M74.631 182.102C71.4132 182.789 68.2954 183.992 65.4473 185.692C64.9476 185.997 63.7385 185.501 63.8784 186.551C64.0183 187.43 64.8377 188.06 65.907 187.84C67.1561 187.601 68.3453 187.191 69.5745 186.914C73.3319 186.036 77.2093 185.883 80.8768 184.336C82.8155 183.515 84.3144 181.539 86.5529 181.777C87.0326 181.825 87.5123 181.873 88.0019 181.921V178.98C87.6821 178.999 87.3724 179.009 87.0626 179.028C82.8654 179.247 78.8382 181.176 74.641 182.102H74.631Z" fill="#E3E3E5"/>
<path d="M60.7669 44.2532C60.627 43.6326 60.1273 43.4798 59.5777 43.6326C55.3606 44.6447 51.6031 46.7929 48.0456 48.922C43.049 51.8913 38.4921 55.5003 34.9345 60.1691C32.9259 62.7947 29.3683 63.9786 27.5295 67.158C26.2504 69.3539 24.0219 71.2443 22.8128 73.6503C22.423 74.4714 21.9034 75.0443 21.1039 75.5694C17.9761 77.5744 17.0667 81.1166 14.7682 83.7231C14.5184 84 14.5384 84.907 14.8182 85.1457C15.3678 85.6231 16.0074 85.1457 16.5071 84.7829C17.6263 83.9618 17.8062 82.4628 18.7455 81.6226C22.9127 77.9181 26.1805 73.5358 29.2284 69.077C32.6461 64.1123 37.113 60.15 41.6099 56.1305C43.8684 54.0873 46.7365 53.0752 49.0849 51.2516C52.1827 48.817 55.2207 46.1532 59.4578 45.4658C60.0973 45.3798 60.597 44.9693 60.7769 44.2628L60.7669 44.2532Z" fill="#E3E3E5"/>
<path d="M31.918 57.7441V57.7923L31.938 57.7441H31.918Z" fill="#E3E3E5"/>
<path d="M43.8089 43.2604C46.0674 40.8067 48.9154 39.1549 51.9434 37.7323C52.563 37.4268 53.6122 37.3886 53.1326 36.4625C52.8328 35.8801 51.8335 35.4696 51.2139 35.8801C48.9754 37.36 46.1573 37.6655 44.1287 39.6228C42.4898 41.1886 40.821 42.7448 38.6325 43.9287C34.895 45.9528 31.0376 48.3588 28.4194 51.5C26.6406 53.61 24.2223 55.3763 23.0631 57.9924C22.6733 58.8517 20.7846 59.625 21.694 60.3602C22.8332 61.2672 23.7226 59.5009 24.702 58.8803C25.0417 58.6416 25.3415 58.2311 25.4814 57.8492C26.3209 55.4623 28.6093 54.6889 30.6579 53.696C31.2275 53.4191 31.8171 53.0085 32.4167 53.5623C33.0962 54.1829 32.7565 54.8512 32.2568 55.3954C31.5773 56.1306 31.5773 56.904 31.8971 57.7442C34.885 56.4934 37.0236 54.1733 39.4619 52.2543C42.4898 49.8865 46.2972 48.3397 48.2859 44.8549C49.2852 44.4443 50.3844 44.1674 51.2539 43.6041C56.7201 40.2243 63.0358 39.2122 69.2216 38.0283C72.6393 37.3791 76.2668 37.7705 79.7944 37.5318C80.5439 37.4841 82.1628 38.0951 82.0529 36.5198C81.9629 35.269 80.9836 34.8203 79.5246 34.8203C75.5373 34.8203 71.64 35.3359 67.6926 35.9565C61.9965 36.8635 56.8001 39.0786 51.4837 40.9881C50.0047 41.5227 48.086 42.3438 47.5364 44.2343C45.138 45.0745 42.8196 46.4111 41.4306 48.2156C39.7417 50.4307 37.0335 50.8221 35.1348 52.5216C34.5852 53.0181 33.496 53.0563 32.8764 52.3688C32.2868 51.7005 32.8264 51.0799 33.3561 50.5834C35.7744 48.3016 37.913 45.7046 41.4306 44.8358V44.8549C42.4599 44.5971 43.1894 43.9287 43.8289 43.2413L43.8089 43.2604Z" fill="#E3E3E5"/>
<path d="M80.3355 207.594C80.5453 208.128 80.995 208.415 81.6146 207.985C83.0036 206.992 84.6025 207.384 86.1015 207.403C86.7411 207.403 87.3707 207.403 88.0002 207.374V205.541C85.6918 205.799 83.5133 206.725 81.1749 206.658C80.5353 206.639 80.0556 206.935 80.3355 207.603V207.594Z" fill="#E3E3E5"/>
<path d="M75.1371 196.06C74.4975 196.28 74.4575 196.853 74.7973 197.349C75.0671 197.76 75.5468 197.913 75.9365 197.521C76.9858 196.442 78.0751 197.091 79.2143 197.282C80.4634 197.492 81.7626 197.75 83.0017 197.607C84.6806 197.387 86.3394 197.273 87.9983 197.235V193.759C86.3494 193.597 84.6806 193.492 83.0017 193.482C80.3535 194.361 77.7153 195.201 75.1371 196.06Z" fill="#E3E3E5"/>
<path d="M63.327 12.116C64.696 12.1829 65.8752 11.8965 66.9545 11.2568C69.4628 9.72914 72.8804 10.5502 75.1389 8.37338C75.2988 8.22062 75.9184 8.28745 76.1682 8.45931C77.4873 9.36633 78.7464 8.80302 80.0456 8.41157C80.9849 8.13469 82.324 8.15378 82.0242 6.84576C81.7744 5.81462 80.4753 6.0724 79.6758 6.13924C74.2995 6.63571 68.7133 5.40407 63.6068 8.37338C58.91 11.0849 52.2045 10.4166 49.2266 16.0974C51.0053 16.3361 52.6442 15.6869 54.3531 15.2381C57.451 14.3979 59.9193 11.9442 63.3369 12.116H63.327Z" fill="#E3E3E5"/>
<path d="M53.6829 58.6892C53.2032 57.7631 52.6336 58.0686 52.1539 58.2404C48.1866 59.5962 44.8589 61.8113 42.0808 64.8474C39.2527 67.9026 37.5239 71.5976 35.0156 74.8247C32.7572 77.7081 31.3481 81.212 27.9704 83.2839C27.4208 83.6276 27.5807 84.4869 27.3109 84.8783C25.9118 86.8165 25.662 89.5566 23.1537 90.7978H23.1337H23.1137V90.8265C23.1137 90.8265 23.1037 90.836 23.0938 90.836H23.1637C23.3036 91.3516 23.3236 91.9149 23.5934 92.3446C23.9831 92.9652 22.724 94.0918 24.0931 94.235C25.2123 94.34 25.5021 93.2229 25.7619 92.4496C26.4415 90.2727 27.9504 88.516 28.9098 86.511C30.1589 83.8663 32.2875 81.8613 34.0363 79.6271C35.905 77.2402 37.9536 75.0252 39.3926 72.3136C40.5319 70.1654 42.8803 68.6378 43.3399 66.0504C43.4798 65.2102 44.1594 64.7997 44.9389 64.4178C48.1067 62.8233 50.3851 60.0545 53.6929 58.6987L53.6829 58.6892Z" fill="#E3E3E5"/>
<path d="M38.2757 81.0592V81.0401C42.0631 79.2356 43.8419 75.7698 46.1203 72.7337C46.1403 72.7337 46.1703 72.7337 46.2103 72.6859C48.6286 71.502 50.8171 69.9935 52.7758 68.1508C54.9643 68.4563 55.9936 66.8141 57.7224 65.7639C54.3047 65.3533 54.2348 65.4011 51.9763 68.0267H51.9564C51.047 68.3322 50.1376 68.8478 49.1982 68.9051C46.9198 69.0578 46.1703 70.299 46.1203 72.2181H46.1003C45.121 72.3899 44.1417 72.5618 43.1623 72.6955C42.0431 72.8673 41.3136 73.2779 40.6141 74.2613C37.786 78.1758 36.4169 82.9974 32.1798 85.9858C31.5902 86.4154 30.9307 86.9978 31.0206 87.6375C31.2904 89.6807 29.7015 90.8455 28.8121 92.3445C26.9934 95.4666 25.4644 98.7796 23.2459 101.615C21.9268 103.296 21.9468 104.279 23.196 105.702C24.655 104.365 24.9747 102.608 25.9041 101.166C29.7315 95.3615 32.6995 89.0315 37.0765 83.5225C37.6961 82.7491 37.2864 81.5175 38.2857 81.0496L38.2757 81.0592Z" fill="#E3E3E5"/>
<path d="M69.2737 14.0063C68.6341 14.1782 67.6747 14.7797 68.2044 15.7726C68.6841 16.6319 69.5535 16.4601 70.3729 16.2023C72.7413 15.4289 75.2296 15.7058 77.6479 15.4671C80.5859 15.1902 83.1642 16.3073 85.9023 16.6892C86.6018 16.7942 87.3014 16.9183 88.0109 17.0329V15.2475C85.3227 14.7701 82.6745 14.1209 80.0963 13.0134C76.5887 11.4857 72.8512 13.1184 69.2936 14.0063H69.2737Z" fill="#E3E3E5"/>
<path d="M86.3497 46.3157C84.8008 46.5925 83.2518 46.5544 81.7928 46.0388C79.6043 45.2463 77.4158 45.3323 75.1174 45.4755C70.0608 45.8001 65.2441 47.28 60.2975 48.082C57.6293 48.5116 55.191 48.9604 54.7812 52.2352C55.9704 52.2352 57.0397 51.8056 58.1789 51.586C60.5773 51.1754 62.6259 49.7528 65.1042 49.6287C68.6818 49.4568 71.9196 47.8815 75.617 47.7574C78.675 47.6523 81.6329 46.879 84.511 48.3398C85.1905 48.6835 85.8101 48.7885 86.5596 48.5976C87.0193 48.4734 87.6289 48.5307 88.0086 48.3016V46.6689C87.6488 46.2775 87.0393 46.182 86.3597 46.3157H86.3497Z" fill="#E3E3E5"/>
<path d="M81.796 172.917C80.4269 173.605 79.1478 174.206 77.6288 174.579C74.0313 175.4 70.2639 176.058 67.0061 177.615C61.8296 180.049 56.2734 180.823 50.8171 182.093C46.62 183.085 43.1623 185.281 39.6447 187.496C39.3449 187.687 39.0751 187.993 39.305 188.356C39.5148 188.699 39.9445 188.804 40.2443 188.594C41.9731 187.344 44.2516 187.43 46.0803 186.036C48.5387 184.145 51.8664 183.84 54.9943 183.324C56.773 183.047 55.0842 186.398 57.0928 185.129C58.1621 184.46 58.7317 183.257 60.3706 183.563C61.1501 183.716 62.0994 183.582 62.699 183C64.6377 181.147 67.146 180.975 69.6243 180.527C73.4317 179.839 77.5989 179.62 80.8866 177.92C83.285 176.679 85.6634 176.068 88.0117 175.944V172.077C85.8832 171.886 83.7646 171.953 81.806 172.936L81.796 172.917Z" fill="#E3E3E5"/>
<path d="M66.335 19.7064C64.3264 20.2028 62.2278 20.6134 60.4491 21.7305C60.0593 21.9691 59.6496 22.1601 59.6296 22.6566C59.6096 23.1053 60.0193 23.2581 60.3591 23.239C62.4077 23.1531 64.7561 23.5636 66.445 22.7616C70.2024 20.9953 74.0098 20.4415 78.4568 20.9094C81.075 20.4129 83.953 21.6445 86.961 21.4058C87.2808 21.3867 87.6605 21.5968 88.0003 21.6923V20.136C87.7804 20.0692 87.5506 20.0119 87.3507 19.9451C80.3755 17.5581 73.3303 17.9687 66.335 19.7064Z" fill="#E3E3E5"/>
<path d="M78.1873 39.9663C76.1087 40.6346 74.0401 40.8733 71.8316 40.9593C69.6431 41.0261 67.2248 40.3578 65.2161 41.8185C64.6265 42.2482 63.4573 42.5537 63.937 43.4989C64.3667 44.32 65.466 44.4919 66.3753 44.2341C69.7231 43.308 73.1907 42.8974 76.6383 42.3437C79.9461 41.809 82.954 43.2889 86.2318 42.9452C86.6915 42.8974 87.3211 43.1266 88.0006 43.3748V41.1311C84.0033 40.2241 79.4264 39.5653 78.1873 39.9759V39.9663Z" fill="#E3E3E5"/>
<path d="M57.5424 24.1363C56.7229 23.0574 55.7436 23.2293 54.8542 23.2293C50.777 23.0574 47.5392 25.5493 44.3713 27.1247C40.7938 28.891 37.2862 31.4689 34.1783 34.2281C33.4288 34.8965 33.199 35.4789 33.9085 36.405C34.8678 37.6557 35.6873 36.5769 36.1469 36.1854C39.4247 33.3498 43.1222 31.1538 46.9995 29.082C50.3772 27.2775 53.7949 25.683 57.5524 24.1363H57.5424Z" fill="#E3E3E5"/>
<path d="M58.3813 56.7318C58.811 56.7318 59.2208 56.4549 59.6305 56.3021C63.8276 54.6886 68.4045 53.6956 72.6916 53.6765C76.1992 53.6574 79.0772 52.2348 82.315 51.9579C82.9346 51.9197 83.3843 51.5092 83.2044 50.9077C82.9946 50.3253 82.4949 50.7167 82.0852 50.774C80.3763 51.0318 78.6675 51.2514 76.7488 50.6404C73.1213 51.2896 69.3439 52.1489 65.5365 52.5308C62.6384 52.8077 60.1301 53.9248 57.5319 54.8795C56.9423 55.1182 56.003 55.5669 56.3927 56.3594C56.7325 57.0659 57.6918 56.789 58.3713 56.7222L58.3813 56.7318Z" fill="#E3E3E5"/>
<path d="M37.9061 189.521C33.0993 189.072 32.0201 189.883 31.9102 194.638C34.8082 194.638 36.607 189.931 39.9147 193.416C39.9647 193.454 40.7541 192.9 41.1938 192.595C43.2224 191.115 45.4809 190.485 48.0092 189.969C50.6274 189.435 53.2056 188.165 55.2343 186.208C52.2263 187.582 48.5088 186.122 45.8007 188.356C43.3823 190.332 40.6042 189.778 37.9161 189.521H37.9061Z" fill="#E3E3E5"/>
<path d="M31.1201 21.0811C32.5091 20.7374 33.6683 19.5153 34.8575 18.5892C35.3772 18.1787 35.9968 17.539 35.3372 16.8229C34.8575 16.2882 34.0581 16.0304 33.3586 16.3073C32.719 16.5651 32.1094 16.9947 31.6297 17.4912C29.6911 19.4103 27.6225 21.0811 25.0142 22.2459C23.945 22.7424 23.0356 23.5158 22.436 24.7379C21.8864 25.874 20.5673 27.1057 19.3381 27.4494C15.5307 28.4996 13.7719 31.5549 11.5234 34.1805C14.5814 32.3282 17.8591 30.9725 20.5773 28.4805C23.6552 25.5972 26.5232 22.2459 31.1301 21.0811H31.1201Z" fill="#E3E3E5"/>
<path d="M45.198 202.41C47.7463 202.104 49.7549 200.729 51.4637 199.078C52.8128 197.76 54.2718 197.053 56.2305 197.12C57.5996 197.187 59.1985 197.101 60.0379 196.07C61.1072 194.762 62.1365 193.941 63.9852 194.371C64.5048 194.504 65.1744 194.218 65.2643 193.635C65.3742 192.9 64.5848 192.967 64.1251 192.814C63.6954 192.662 63.2357 192.681 62.2564 192.595C60.5675 194.227 57.5196 193.674 55.3511 195.115C53.6422 196.232 51.9334 197.006 49.8848 197.12C47.2166 197.254 45.3979 198.772 43.799 200.586C43.4092 201.016 43.1394 201.703 43.4792 202.266C43.9089 203.002 44.6184 202.486 45.208 202.419L45.198 202.41Z" fill="#E3E3E5"/>
<path d="M45.5209 23.1912C45.9106 24.1555 46.5202 23.4967 47.0298 23.2389C49.3982 22.0359 51.7666 20.7184 54.5047 20.4224C57.4227 20.0978 59.6812 17.9304 62.6392 17.9495C63.8883 17.9686 64.7577 17.7968 65.1675 16.5938C65.3973 15.9254 65.2574 15.3717 64.5479 15.0853C63.4786 14.6747 62.2495 14.0923 61.3601 15.3049C60.7005 16.1832 59.9011 16.5079 58.8318 16.4697C56.983 16.4028 55.4341 17.0712 54.115 18.1882C53.3655 18.8088 52.606 19.0953 51.6267 18.9425C48.9585 18.5319 47.6394 20.9857 45.4309 21.5872C44.7214 21.7781 45.321 22.7043 45.5209 23.2007V23.1912Z" fill="#E3E3E5"/>
<path d="M24.0753 63.4154C22.4065 65.7832 20.6077 67.9123 18.669 70.0414C17.1201 71.76 15.6411 73.7459 16.1607 76.8394C17.3499 75.5886 18.2393 74.7484 18.9888 73.8318C22.8661 69.0962 25.944 63.7686 30.8407 59.7873C31.4103 59.3099 31.93 58.6893 31.87 57.8491C28.5922 58.8803 25.8341 60.9235 24.0753 63.4249V63.4154Z" fill="#E3E3E5"/>
<path d="M31.8672 57.8499C31.8672 57.8499 31.9172 57.8499 31.9372 57.8306L31.8672 57.7632V57.8499Z" fill="#E3E3E5"/>
<path d="M22.4565 12.2399V12.2208C22.8462 12.8701 23.3259 12.3259 23.8256 12.1826C28.4724 10.7409 31.5803 6.91235 36.0173 5.16514C36.5869 4.92645 37.4063 4.28675 37.0166 3.55159C36.5869 2.7114 35.7674 3.48475 35.1279 3.46566C33.2791 3.39883 32.5296 5.83347 30.1313 5.1174C30.2412 5.13649 29.9214 4.98373 29.7415 5.1174C26.8435 6.38723 24.685 8.62138 22.1067 10.3495C21.5871 10.6932 22.1067 11.6575 22.4465 12.2399H22.4565Z" fill="#E3E3E5"/>
<path d="M30.0013 13.3761C26.9035 14.5791 25.0347 16.7942 22.5664 18.4745C22.8662 18.9519 23.2959 19.1429 23.5457 18.9233C27.2832 15.658 32.6196 14.961 36.377 11.8485C37.9259 10.5787 39.7947 9.7862 41.2537 8.44953C44.6014 6.06263 50.1876 6.92191 51.8564 2.08127C51.3967 1.63253 50.967 1.73755 50.5074 1.77574C46.2902 2.22448 43.692 4.9551 41.1637 7.73346C38.8153 7.54251 36.7367 8.01034 34.898 9.5666C33.2991 10.9033 31.6202 12.746 30.0013 13.3761Z" fill="#E3E3E5"/>
<path d="M23.525 52.6645C24.3045 50.7263 27.1025 50.8791 27.7421 49.6092C29.5908 45.9716 34.0578 44.8354 35.7467 40.9209C33.8979 40.9591 31.9892 41.0928 31.0698 42.6872C30.1305 44.2339 28.9313 45.2937 27.4023 46.2771C25.7135 47.3751 24.2745 48.8168 22.8155 50.2107C22.1959 50.7931 22.2459 51.6047 22.7055 52.359C22.9154 52.7027 23.3851 52.9795 23.525 52.6645Z" fill="#E3E3E5"/>
<path d="M72.3708 197.588C65.9852 197.378 59.7694 197.979 54.1133 201.159C60.6788 202.324 66.3549 199.24 72.3708 197.588Z" fill="#E3E3E5"/>
<path d="M64.6759 203.641C63.9264 203.403 63.2169 203.622 62.5573 203.899C58.4302 205.618 54.0132 205.379 49.6761 205.494C47.5076 205.532 45.8887 206.678 44 207.327C45.7288 208.119 47.4676 208.788 49.2164 207.995C51.8147 206.811 54.6827 207.069 57.3109 206.296C59.7992 205.561 62.3075 206.573 64.7459 205.732C65.2955 205.541 65.7951 205.522 65.8351 204.873C65.8851 204.119 65.3155 203.842 64.6759 203.651V203.641Z" fill="#E3E3E5"/>
<path d="M81.4227 201.999C81.4427 203.135 82.6519 202.964 83.2915 202.82C84.8604 202.438 86.4193 202.295 87.9982 202.352V200.061C86.3594 200.309 84.7205 200.615 83.0616 200.586C82.1522 200.586 81.3928 201.169 81.4227 202.009V201.999Z" fill="#E3E3E5"/>
<path d="M26.4222 27.0007H26.3722C25.0231 29.1107 23.4042 31.8604 21.2457 32.5478C18.3776 33.4739 17.828 36.2046 15.4097 37.3407C14.4703 37.7895 12.6515 38.7824 12.1719 40.4628C14.93 40.1859 15.9593 37.8563 18.0079 36.9302C20.2664 35.9181 21.5855 33.8081 23.5041 32.5383C25.8026 31.0107 26.722 28.175 29.54 27.3062V27.2871C29.8798 25.8072 32.7578 26.9243 32.4381 24.7665C34.4167 24.2891 36.3554 23.7545 37.3847 21.8449C37.3847 21.8449 37.4047 21.7972 37.4347 21.7972V21.8449C39.6931 21.5681 40.4626 19.8017 42.2214 18.2741C39.893 18.1023 39.3034 19.2862 38.4839 20.1264C36.5453 21.0907 34.6366 22.0836 32.6679 23.0479C32.1183 23.3248 31.4387 23.4585 31.5287 24.2509C30.3195 24.5087 28.2909 23.9263 29.2003 26.3132C29.2003 26.3323 29.2003 26.361 29.2203 26.3992C29.2203 26.3992 29.2003 26.361 29.1703 26.3323C28.101 25.9409 27.3515 25.5399 26.4122 26.9816L26.4222 27.0007Z" fill="#E3E3E5"/>
<path d="M45.55 195.764C46.0297 195.335 46.8991 194.857 46.2295 194.084C45.7299 193.483 45.0903 193.931 44.5207 194.218C42.1024 195.44 39.5741 195.984 36.766 196.156C33.9879 196.328 31.5495 197.75 30.6602 200.653C31.4396 200.204 32.0092 199.192 33.0285 199.402C37.0658 200.242 39.8939 196.566 43.8112 196.929C44.3308 196.977 45.0204 196.242 45.54 195.764H45.55Z" fill="#E3E3E5"/>
<path d="M22.7527 140.579C22.1631 140.063 21.5435 140.188 21.3437 140.445C17.2864 145.181 13.0493 149.735 9.08203 154.557C15.1479 151.177 18.9053 145.84 22.7627 140.569L22.7527 140.579Z" fill="#E3E3E5"/>
<path d="M48.3264 179.61C47.1173 179.677 45.998 179.219 44.7889 179.83C40.6417 181.787 36.5844 183.964 32.0875 185.224C31.6078 185.358 31.1482 185.787 30.8384 186.169C30.6585 186.389 30.6285 186.837 30.7284 187.114C30.8384 187.506 31.2281 187.544 31.6178 187.391C33.8963 186.465 36.5445 186.857 38.753 185.367C40.0321 184.508 40.8715 183.343 42.1307 182.465C44.0494 181.128 46.4577 181.004 48.3264 179.6V179.61Z" fill="#E3E3E5"/>
<path d="M48.1652 193.397C48.3951 194.189 49.1645 193.931 49.7641 193.998C49.944 193.979 50.1239 193.979 50.2838 193.96C54.0012 193.12 56.8993 190.475 60.7267 189.873C61.1364 189.807 61.686 189.291 61.5461 188.67C61.4062 188.05 60.8666 187.935 60.297 187.897C59.7473 187.859 59.1377 187.687 58.6781 187.878C55.3703 189.234 52.1125 190.656 48.8548 192.117C48.3751 192.337 48.0153 192.852 48.1752 193.406L48.1652 193.397Z" fill="#E3E3E5"/>
<path d="M82.9938 10.0441C82.4042 10.13 81.5148 9.87223 81.4848 10.6933C81.4648 11.3999 82.1444 12.0491 82.9438 11.9632C84.7226 11.8009 86.3515 12.4596 87.9904 12.8415V9.90087C86.3415 9.75766 84.6726 9.82449 82.9838 10.0441H82.9938Z" fill="#E3E3E5"/>
<path d="M14.5891 143.167C14.6091 142.995 13.8796 142.479 13.5598 142.518C11.9209 142.709 11.0715 143.978 10.5318 145.181C9.62247 147.225 8.16346 148.542 5.94497 149.23C4.7358 149.612 3.91636 150.328 4.0063 151.683C4.05626 152.562 3.43668 153.249 3.38672 154.328C6.03491 151.235 9.29269 148.8 12.5705 146.346C13.5698 145.592 14.3892 144.456 14.5791 143.167H14.5891Z" fill="#E3E3E5"/>
<path d="M83.8225 166.119C79.9052 167.084 76.1678 168.592 72.2205 169.537C69.8721 170.101 67.5037 170.874 65.0853 171.409C63.9661 171.647 62.9168 172.373 63.0367 173.5C63.1766 174.769 64.5457 174.578 65.4751 174.512C69.8021 174.235 73.9992 173.003 78.0165 171.714C81.4442 170.607 84.7419 169.776 88.0097 170.053V166.119C86.6406 166.043 85.2516 166.043 83.8325 166.119H83.8225Z" fill="#E3E3E5"/>
<path d="M44.2916 10.9893C41.8733 12.1255 39.5249 13.3762 37.1765 14.627C36.7468 14.8657 36.2371 15.3335 36.6968 15.8777C37.0666 16.2883 37.3364 16.9566 37.9959 16.8707C40.844 16.0114 43.1924 14.5888 45.4009 12.9562C45.8306 12.6124 46.5601 12.1351 46.2203 11.4954C45.8506 10.7888 44.8712 10.722 44.2816 10.9989L44.2916 10.9893Z" fill="#E3E3E5"/>
<path d="M73.2619 103.945C67.9055 105.282 64.8976 108.824 61.5899 112.146C58.2421 115.526 56.943 120.539 52.1763 122.859C51.9464 122.964 51.7166 123.222 51.6566 123.441C51.3868 124.367 49.9478 125.293 50.9471 126.134C51.7666 126.802 52.9757 126.153 53.8651 125.398C55.1443 124.301 56.5133 123.288 58.0123 122.085C58.2621 124.11 57.4427 125.122 55.8438 125.79C51.147 127.766 46.5401 130.373 44.1517 134.507C42.373 137.562 40.1645 140.121 37.976 142.785C36.9766 144.007 36.0173 145.258 35.1679 146.546C32.8894 150.05 31.7902 154.29 27.9828 156.896C27.3932 157.307 27.0734 158.185 26.8236 158.901C26.4838 159.865 25.8242 160.62 24.8849 160.944C22.9062 161.613 21.4872 162.987 20.0981 164.276C18.9389 165.355 17.0702 166.186 17.1801 168.191H17.0202C15.861 168.363 15.7211 169.938 14.2421 169.938C13.4027 169.919 13.8324 170.712 14.3121 170.902C15.4713 171.399 16.2508 170.301 17.2301 170.043C18.2094 169.766 18.2594 169.031 17.7298 168.277C17.7797 168.277 17.8197 168.277 17.8697 168.239C19.3087 166.969 21.3773 166.969 22.9562 165.852C28.4724 161.87 32.2998 156.19 38.5256 152.905C40.784 151.721 42.1031 149.143 44.5615 147.874C45.7007 147.272 46.9798 146.394 47.5494 145.315C50.2376 140.235 56.4633 139.08 60.1308 135.07C61.0003 134.106 62.6391 133.781 62.799 132.149C62.849 131.7 63.2287 131.242 63.6684 131.27C67.6557 131.461 69.5045 126.601 73.7715 127.509C78.9081 124.224 83.385 127.193 88.0018 128.673V123.709C87.3623 123.565 86.6827 123.479 85.9632 123.489C82.9953 123.527 80.0573 122.735 77.0293 122.821C74.0614 122.907 71.4431 123.508 69.1447 125.446C68.0255 126.391 66.1168 126.067 64.9476 127.127C61.41 130.354 56.0836 131.232 53.1656 135.147C50.8872 138.183 47.5394 140.111 45.0012 142.89C42.6528 145.449 39.5749 147.387 37.4563 150.184C37.0666 150.7 36.3371 150.919 35.7475 150.461C35.018 149.926 35.6575 149.363 35.9773 148.914C36.407 148.265 36.8167 147.52 37.4363 147.062C40.5142 144.847 41.8833 141.381 44.2517 138.67C44.8213 138.02 45.301 137.505 46.0505 137.018C47.6494 135.92 49.5381 135.299 50.6373 133.342C51.8265 131.28 55.1542 131.404 56.7931 129.361C57.9324 127.967 59.6012 126.955 61.0103 125.752C61.4899 125.341 61.9496 124.759 62.6291 124.912C65.2973 125.513 66.7963 123.489 68.645 122.458C71.4032 120.863 74.3412 120.023 77.2891 119.727C81.0566 120.138 84.7041 120.415 88.0118 121.704V117.063C85.2637 116.491 82.5056 115.86 79.7275 115.631C76.1499 115.354 73.072 116.815 70.4538 119.25C68.5351 121.016 66.3466 122.544 63.7784 123.489C63.1388 122.391 63.5685 121.446 64.1881 120.758C66.4865 118.114 68.9948 115.641 72.5724 114.495C73.162 114.304 74.0114 114.39 74.3911 114.018C76.7395 111.717 79.038 111.65 82.2358 112.834C84.0645 113.502 86.0832 113.836 88.0118 114.39V109.941C84.3144 108.891 80.447 109.33 76.2199 109.96C70.7036 110.8 66.8263 113.139 63.7784 117.207C62.889 118.343 61.8197 119.25 60.2907 119.87C60.6805 117.932 60.3607 115.698 62.909 114.686C64.6877 113.98 65.1175 111.679 66.0768 111.096C68.2153 109.826 70.0441 107.869 72.7522 107.42C75.6203 106.943 78.4284 106.103 81.2964 105.807C83.7148 105.559 85.8533 106.332 88.0118 107.363V104.518C86.9126 103.907 85.7734 103.353 84.4243 103.219C80.6369 102.857 77.1293 103 73.2819 103.974L73.2619 103.945Z" fill="#E3E3E5"/>
<path d="M76.4096 130.191C76.2298 130.344 75.7001 130.058 75.3604 130.124C73.4217 130.468 71.1932 130.43 69.5743 131.327C66.7962 132.874 62.689 133.523 62.9388 137.887C62.9388 138.45 62.5291 138.469 61.9995 138.469C57.8723 138.469 55.0242 140.512 53.2654 143.844C52.6758 144.981 51.8564 145.849 50.967 146.661C48.1589 149.201 44.0817 150.365 42.143 153.889C41.9831 154.165 41.3436 154.299 40.9138 154.318C39.225 154.356 38.3656 155.397 37.4762 156.533C36.1571 158.233 34.9679 160.209 33.1891 161.374C30.1312 163.379 26.8334 164.964 24.7749 168.038C24.3651 168.64 23.086 168.983 23.7056 169.824C24.3252 170.645 25.9141 170.683 26.4137 170.148C27.7828 168.668 29.8314 168.191 31.2504 166.883C34.7181 163.675 37.5661 159.865 41.9232 157.507C43.612 156.581 45.2009 155.292 46.3701 153.831C50.5673 148.542 56.7431 145.697 62.2593 142.002C62.9888 141.505 63.8782 141.333 64.5577 141.419C68.1553 141.83 71.463 140.15 75.0206 140.216C78.4882 140.283 81.816 140.321 85.2736 141.353C86.2529 141.639 87.1423 142.059 87.9918 142.517V138.183C85.9831 137.438 83.9445 136.751 81.9858 135.891C79.8473 134.946 77.8587 135.07 75.7201 135.824C73.1019 136.751 70.3838 137.438 67.6956 138.23C66.9461 138.45 66.2366 138.488 65.8269 137.696C65.4871 137.008 66.0367 136.598 66.4165 136.12C67.3258 135.022 68.7649 135.366 69.9041 134.936C74.8707 133.084 79.7774 131.948 85.0837 134.144C86.0431 134.545 87.0224 134.879 87.9918 135.232V131.032C87.5221 130.936 87.0424 130.821 86.5727 130.707C83.225 129.886 79.9872 127.289 76.4096 130.191Z" fill="#E3E3E5"/>
<path d="M77.8479 61.6584C78.3076 63.5966 77.1184 63.6825 75.7493 63.4916C72.4416 62.9951 69.3237 63.6634 66.5856 65.2579C63.8075 66.8905 60.6796 67.9217 57.7416 68.9814C51.286 71.3015 47.3687 76.0849 43.0616 80.5341C40.8031 82.8828 38.6146 85.3079 36.8359 88.1531C35.167 90.8169 33.668 93.662 31.4295 96.1158C29.4509 98.3308 28.4416 101.367 27.1425 104.079C26.8227 104.766 26.2031 105.845 27.2824 106.399C28.5115 107.048 28.6514 105.711 29.221 105.176C30.3803 104.079 30.0405 102.102 31.0398 101.329C33.7979 99.1997 35.4168 96.4022 37.0857 93.5666C39.8438 88.8596 43.2815 84.5727 46.7291 80.2954C50.5565 75.5407 55.3732 72.0176 61.2992 69.9076C64.6769 68.7046 68.1845 67.7975 71.6521 66.9573C74.8899 66.184 78.3975 65.3629 81.8652 66.4609C83.0943 66.8523 84.5333 67.9407 83.8938 68.6377C82.9844 69.602 82.5447 70.8146 81.5953 71.6739C80.596 72.5809 79.197 72.1226 78.6274 71.4543C77.7579 70.4231 79.197 70.1463 79.8765 69.7357C80.2163 69.5161 80.8159 69.602 80.7159 68.9814C78.7073 66.6327 76.5488 67.9503 74.4002 68.59C74.4502 69.2774 74.9199 69.3824 75.3396 69.5352C75.9592 69.7548 76.6387 70.0699 76.4089 70.7859C76.159 71.5593 75.2896 71.7503 74.5901 71.4734C71.2824 70.1653 68.2045 71.8171 65.0366 72.094C63.4677 72.2467 61.8888 72.6095 60.4298 73.4879C55.3033 76.5623 50.0169 79.4456 46.9989 84.7637C46.6392 85.3652 46.0396 85.7566 45.5199 86.2244C41.8524 89.6043 38.4547 93.3279 36.2662 97.7102C34.2876 101.644 32.279 105.52 29.7007 109.158C28.9512 110.208 27.762 111.507 28.7214 113.072C28.8613 113.225 28.8813 113.416 28.8813 113.636C28.8113 113.445 28.7713 113.254 28.7014 113.053C27.862 114.925 25.2338 114.686 24.2744 116.643C23.0453 119.25 21.0566 121.589 19.9474 124.234C19.3578 125.675 17.8088 126.878 18.0587 128.683C19.2179 128.75 19.6076 127.995 20.2272 127.518C23.2151 125.255 24.1945 121.732 26.313 118.935C27.3623 117.579 28.9312 116.5 29.211 114.676H29.231C30.8699 111.106 33.8379 108.327 35.8165 104.241C36.4061 106.437 36.3862 107.945 35.3369 109.034C34.2176 110.199 33.7679 111.554 33.5381 112.948C33.2883 114.495 32.4688 115.593 31.3496 116.653C30.5302 117.445 29.6607 118.304 29.231 119.297C27.7221 122.63 25.3137 125.494 23.0752 128.291C20.0473 132.082 18.9081 136.836 15.4404 140.293C15.3505 140.359 15.5504 140.703 15.6903 141.133C17.0793 140.121 19.2279 139.758 19.5676 138.354C20.2971 135.366 23.425 133.686 23.7847 130.564C23.9247 129.361 24.6042 128.129 26.383 128.043C27.2224 128.005 27.862 127.203 28.0219 126.468C28.6614 123.546 31.3296 122.362 33.3782 120.663C33.3782 119.803 33.4282 118.963 33.3982 118.104C33.3982 117.693 33.1684 116.968 33.3083 116.901C36.1363 115.717 36.4561 112.337 39.0943 111.048C39.7539 110.724 40.4434 110.514 40.6932 109.759C42.3321 104.766 46.9589 102.169 50.6564 98.8941C53.1447 96.6982 55.1034 94.2731 56.8122 91.5807C58.3612 89.1269 60.9194 87.7712 63.078 85.9858C65.7661 83.7707 69.0739 83.4652 72.3316 83.0164C73.4709 82.8446 74.5701 82.6918 74.8799 81.5079C75.0598 80.7728 74.5601 80.1522 73.9006 79.8084C72.7414 79.2451 71.4822 79.2451 70.7128 80.3049C69.7734 81.5748 68.7041 81.8325 67.0852 81.8516C63.8075 81.9185 61.4091 83.9808 59.1107 85.8998C56.9421 87.7043 54.6237 89.4038 53.0748 91.7907C52.5951 92.5259 52.0255 93.2324 51.0462 93.3565C50.8163 94.3686 50.4965 95.2756 49.6571 96.0681C47.1288 98.4359 45.42 101.491 42.6119 103.639C42.0923 104.05 41.7925 104.804 40.6033 104.432C41.7925 102.58 42.3821 100.622 44.0409 98.9037C46.0196 96.8605 48.0082 94.8364 50.0568 92.8982C49.847 92.144 49.9869 91.5902 50.8563 91.2465C51.7257 90.9028 52.4952 90.1676 52.675 89.442C53.4245 86.4059 56.2126 85.0978 58.2812 83.2074C59.9701 81.6607 62.7282 81.8516 64.3171 80.0662C68.4243 78.2331 72.5215 76.3904 77.2383 78.023C77.2383 78.023 77.2583 78.023 77.2883 78.0039V78.023C78.9771 77.8512 80.3662 78.5577 82.5047 79.7034C80.4261 79.6843 79.127 79.2929 77.8979 79.6557C77.1883 79.8753 76.4388 80.2381 76.5488 81.0496C76.6887 82.0139 77.4582 81.8707 78.2376 81.7371C80.3362 81.3456 82.135 82.1476 84.2335 83.131C81.9351 83.9235 79.7866 82.7682 77.4182 83.6275C78.8572 84.4199 80.2263 84.8496 81.4954 86.4059C67.0852 84.1908 58.681 91.0937 52.795 102.179C51.8356 102.179 52.3852 100.221 50.9962 100.546C49.9469 100.785 49.4273 101.625 48.9176 102.465C47.7084 104.508 46.1095 106.208 44.1509 107.688C43.0616 108.509 42.0323 109.511 41.8924 111.048C41.8424 111.612 41.5326 112.356 41.0929 112.614C37.7652 114.399 36.1463 117.474 34.1877 120.319C34.1677 120.472 34.1177 120.625 34.0977 120.796C33.4182 123.508 33.0284 126.324 30.1104 127.986C29.4909 128.329 29.221 129.256 28.8313 129.924C28.0518 131.213 27.3223 132.445 26.1631 133.581C24.6841 135.041 22.4457 136.789 23.6748 139.452C26.293 139.433 26.1132 137.066 26.9526 135.777C28.7114 133.113 31.5994 131.499 33.3083 128.845C33.8279 128.024 34.1077 125.981 35.4068 126.802C36.546 127.537 35.7466 129.361 35.0471 130.611C34.9771 130.745 34.7073 130.764 34.6174 130.888C33.0185 133.017 30.0805 134.268 29.4909 137.018C29.1511 138.593 27.9819 139.472 27.2324 140.675C25.9133 142.785 22.8754 143.749 22.6455 146.46C22.4656 148.609 21.7062 150.184 19.5177 151.062C18.6483 151.406 17.8288 152.227 18.6782 153.086C19.3877 153.822 20.5669 153.449 21.0966 152.781C23.395 149.878 26.1531 147.291 27.862 143.959C28.8013 142.154 29.6208 139.825 30.9199 138.727C35.2469 135.051 37.6653 130.182 40.8631 125.838C42.8418 123.126 44.2608 120.071 46.839 117.665C48.5279 116.07 50.1867 114.333 51.6258 112.547C53.4745 110.227 54.7936 107.497 55.8429 104.699C56.0727 104.079 56.5024 103.343 57.162 103.84C59.9901 105.921 61.539 103.277 62.2885 101.988C64.3671 98.455 67.9846 96.8414 71.4023 95.7721C72.8113 95.3233 74.2304 95.0369 75.6394 94.8651C75.7993 94.6264 75.9991 94.4354 76.2989 94.3877C78.5074 94.0821 80.8558 94.0631 83.0244 94.6646C83.2542 94.359 83.6439 94.2158 84.1436 94.3877C85.4027 94.8555 86.6819 95.2661 87.961 95.6766V93.557C86.9817 93.242 85.9923 92.946 85.013 92.6691C81.5454 91.7239 77.4881 90.645 73.6607 92.3445C73.341 92.4972 72.9512 92.6882 72.6314 92.6691C66.3657 92.0867 63.1679 96.3449 59.5903 100.03C59.2905 100.336 59.0707 100.765 58.0614 100.68C58.7909 98.054 59.8801 95.7912 62.3684 94.3304C63.5776 93.6239 64.9467 93.1465 64.9667 91.4279C64.9667 90.7787 65.6262 89.948 66.3757 90.0912C69.1338 90.6259 71.4323 89.0792 74.0305 88.8691C78.8572 88.4777 83.3441 89.9289 87.941 90.7405V84.8973C87.0316 84.8305 86.2022 84.439 85.5426 83.1406C86.3821 83.0928 87.1915 82.9687 87.941 83.026V77.0874C87.5113 77.5361 86.6719 77.517 86.0623 77.4215C84.3734 77.1638 82.7146 76.715 81.0657 76.3427C78.7373 76.1517 76.3689 75.6075 74.0904 75.8271C69.3537 76.2758 64.6969 77.2497 60.2499 78.9205C58.1113 81.4125 55.4432 83.1979 52.2953 84.4104C51.8156 84.5823 51.296 85.0119 51.1061 85.4225C49.3473 90.0244 44.7505 92.7837 42.6019 97.166C41.8025 98.8178 39.3441 99.4288 38.045 101.061C38.5047 98.2258 40.1836 95.8389 42.0123 93.8339C44.7005 90.8837 46.5292 87.2938 49.6071 84.63C50.1768 84.1526 50.6564 83.5129 51.276 83.0164C54.0841 80.7823 57.3119 78.9969 60.3698 77.1638C65.2265 74.2422 70.8127 72.6286 77.0284 73.4402C80.2163 73.8698 83.2742 74.6623 86.4021 75.2256C86.9617 75.3211 87.5912 75.4452 87.941 75.7698V72.9055C87.941 72.9055 87.8611 72.8864 87.8211 72.8769C86.6619 72.6382 85.4927 72.1894 85.6825 70.6809C85.7525 70.1176 85.4327 69.287 86.3421 69.2392C86.8717 69.2201 87.4314 69.201 87.951 69.2774V66.9096C86.0423 66.1935 84.1436 65.3533 82.155 64.6373C83.3841 63.4152 84.7732 63.3865 86.0723 63.6921C86.6919 63.8353 87.3214 63.9785 87.951 64.1122V62.0308C85.1329 61.8685 82.3248 61.6011 79.7166 60.2645C78.0777 59.4243 77.4582 60.1785 77.7979 61.6393L77.8479 61.6584ZM51.5158 106.446C49.4373 109.244 47.7584 112.471 45.1302 114.686C41.9624 117.35 40.1136 120.644 38.065 123.938C37.6753 124.52 37.5454 125.274 36.1063 125.551C36.566 123.871 36.566 122.257 37.3855 121.188C41.1029 116.261 45.0203 111.468 48.8776 106.647C49.2674 106.169 49.747 105.768 50.2667 105.425C50.6065 105.205 51.226 104.947 51.4759 105.1C52.0455 105.425 51.8156 106.045 51.5258 106.456L51.5158 106.446Z" fill="#E3E3E5"/>
<path d="M76.2786 96.8703C73.6104 96.8035 71.1221 97.8155 69.0735 99.5341C66.3853 101.797 63.917 104.356 61.049 106.38C56.9418 109.263 53.704 112.729 51.4055 117.006C51.0658 117.608 50.8359 118.238 50.1964 118.687C47.2784 120.749 45.0199 123.203 43.0812 126.258C39.6136 131.719 36.3558 137.4 32.1587 142.374C28.781 146.394 25.9629 150.767 22.4453 154.681C22.0156 155.159 21.466 155.388 20.9363 155.712C16.8791 158.147 13.0017 160.763 10.9531 165.413C12.7119 164.592 14.2809 163.971 15.7598 163.198C22.6252 159.579 28.0715 154.681 31.9888 148.141C34.1273 144.551 35.5863 140.503 39.1239 137.686C40.0633 136.951 40.9227 135.767 41.1026 134.698C41.3124 133.342 42.0119 132.636 43.0412 131.862C44.84 130.507 47.0485 129.37 46.7387 126.611C46.7187 126.353 47.0585 125.991 47.3283 125.79C51.4755 122.754 53.644 118.257 56.602 114.39C57.7612 112.882 58.2709 110.905 59.7898 109.635C64.3967 105.826 68.7737 101.654 75.2493 100.728C75.4292 100.708 75.5891 100.623 75.7489 100.537C78.0074 99.2286 80.3958 99.3527 82.8341 99.9733C84.6129 100.432 86.3117 101.024 87.9706 101.72V99.7823C87.0712 99.4864 86.2018 99.1235 85.4124 98.6175C82.5843 96.7844 79.3765 96.9658 76.2486 96.8703H76.2786Z" fill="#E3E3E5"/>
<path d="M4.0783 146.155C6.17687 144.647 9.00494 143.787 9.48461 140.866C9.62452 140.045 10.1642 139.73 10.7837 139.386C12.2927 138.422 13.7017 137.381 14.5911 135.853C14.9109 135.29 15.8003 134.755 15.0508 134.106C14.4312 133.591 13.6618 134.02 13.0422 134.383C11.1235 135.548 10.1042 137.333 9.30474 139.271C6.33676 140.217 4.60794 142.584 2.62929 144.628C2.28952 144.99 2.35947 145.621 2.83914 146.022C3.1989 146.327 3.72854 146.413 4.08829 146.155H4.0783Z" fill="#E3E3E5"/>
<path d="M53.0255 178.235C55.9235 178.101 57.7622 175.456 60.6802 175.332C61.04 175.332 61.2299 174.922 61.1399 174.54C60.98 173.919 60.6802 173.318 59.8608 173.595C57.2826 174.521 54.3645 174.693 52.176 176.43C51.6564 176.86 50.4672 177.251 51.0168 178.178C51.4465 178.884 52.3359 178.263 53.0255 178.244V178.235Z" fill="#E3E3E5"/>
<path d="M7.31501 94.0346V94.0155C9.04383 93.9774 10.283 92.9176 11.5521 92.0392C12.2816 91.5427 12.4915 90.6834 11.9419 90.0151C11.3223 89.2417 10.7327 89.9292 10.1431 90.3206C8.95389 91.1131 8.00454 92.106 7.22507 93.2708C6.35567 92.9653 6.24574 92.3925 6.49557 91.6191C6.67545 91.0558 6.83534 90.3302 6.06586 90.0724C5.17647 89.7955 4.6968 90.5211 4.397 91.1035C4.09721 91.6859 4.18715 92.4593 3.9673 93.0799C3.3777 94.7316 3.82739 96.6698 2.32841 98.0446C1.52896 99.1235 0.119918 99.8491 0 101.787C1.36907 100.737 2.52828 100.002 2.91801 98.5984C4.58687 97.2426 7.20509 96.7271 7.31501 94.0346Z" fill="#E3E3E5"/>
<path d="M42.5417 59.4433C37.9149 59.8921 38.3246 64.3699 35.9062 66.585C39.3739 64.2362 42.3119 61.4006 45.05 58.3645C48.6775 57.9539 50.1066 54.9464 52.4849 52.9414C50.2065 53.2851 48.058 53.8675 46.1892 54.8796C45.2499 55.3951 44.0507 56.3213 44.5204 57.8011C43.9008 58.4026 43.5211 59.3479 42.5417 59.4338V59.4433Z" fill="#E3E3E5"/>
<path d="M8.23614 134.087C10.1049 131.032 13.0928 128.883 15.731 125.914C11.2641 126.907 9.82505 130.927 6.31745 132.454C5.31813 132.903 6.20752 133.848 6.70718 134.411C7.34674 135.147 7.93634 134.583 8.23614 134.087Z" fill="#E3E3E5"/>
<path d="M83.6814 188.107C77.7355 187.353 72.7189 189.205 67.7922 191.85C67.3625 192.07 66.633 192.213 66.8529 192.881C67.0627 193.464 67.7423 193.464 68.2619 193.33C71.07 192.681 73.988 192.662 76.7461 191.65C78.5449 190.981 80.5535 189.95 82.5622 190.552C84.341 191.096 86.1697 191.382 87.9985 191.583V187.917C86.5295 188.041 85.0605 188.26 83.6814 188.088V188.107Z" fill="#E3E3E5"/>
<path d="M23.2045 96.1634C22.475 95.8006 21.6755 96.4212 21.1059 97.0227C19.3072 98.9132 19.4371 101.367 19.0273 103.716C20.7861 102.035 22.2651 100.212 23.0646 97.9966C23.2744 97.4142 24.0639 96.6026 23.2045 96.1634Z" fill="#E3E3E5"/>
<path d="M17.35 97.0899C18.2194 97.2427 21.5472 93.9487 21.6771 92.8126C21.817 91.7814 20.6978 91.6478 20.2381 91.7146C17.8897 92.0392 17.3201 93.8914 16.7704 95.6769C16.6805 96.2784 16.3607 96.9276 17.34 97.0994L17.35 97.0899Z" fill="#E3E3E5"/>
<path d="M10.0036 98.4838H9.93359L9.95359 98.503L10.0036 98.5416V98.4741V98.4838Z" fill="#E3E3E5"/>
<path d="M15.6574 92.7169C15.9072 92.2013 16.247 91.4948 15.5175 91.1033C14.808 90.7405 14.2883 91.2943 14.0385 91.8576C12.9892 94.2445 10.5709 95.8581 10.0312 98.4837C13.5189 97.9872 14.4083 95.1706 15.6574 92.7169Z" fill="#E3E3E5"/>
<path d="M36.0856 27.7073C36.3154 28.156 36.925 28.8053 37.3148 28.4138C38.9836 26.8194 42.0116 26.5234 42.6711 23.4204C40.1428 24.0887 38.2941 24.9003 36.6552 26.151C36.1555 26.5425 35.7458 27.0581 36.0856 27.6977V27.7073Z" fill="#E3E3E5"/>
<path d="M16.2989 114.81C15.5894 114.591 15.2496 115.288 14.8599 115.755C14.5401 116.166 14.1803 116.548 13.7906 116.92C12.9212 117.694 12.5814 118.62 13.0411 119.699C13.221 120.128 13.7007 120.348 14.1603 120.233C15.3895 119.976 16.189 119.183 16.5987 118.085C16.7586 117.636 16.6187 117.073 16.6187 116.433C16.4388 115.985 17.4181 115.116 16.2989 114.82V114.81Z" fill="#E3E3E5"/>
<path d="M66.6536 63.4437C67.2732 63.4437 68.0626 63.3101 68.0427 62.5176C68.0227 61.7825 67.1733 61.7252 66.6036 61.5724C65.8042 61.3528 64.9148 61.4674 64.2552 61.9352C62.7463 63.0332 60.9275 63.5488 58.8789 64.408C60.178 65.3151 61.2273 65.1623 62.0467 64.7327C63.5058 64.0261 64.9448 63.3769 66.6536 63.4437Z" fill="#E3E3E5"/>
<path d="M69.2734 202.772C72.5812 204.863 76.9782 204.405 79.2766 202.037C75.8989 201.417 73.0309 203.03 69.2734 202.772Z" fill="#E3E3E5"/>
<path d="M30.7272 31.1922C29.1983 31.8796 27.5094 32.4143 26.5601 33.856C25.9205 34.8012 26.1504 35.5077 27.4994 35.5363C28.7985 35.5554 31.5567 33.2163 31.6266 32.5288C31.7365 31.3258 31.3268 30.9153 30.7372 31.1922H30.7272Z" fill="#E3E3E5"/>
<path d="M23.3459 189.998C22.4365 190.151 21.4072 190.38 21.5871 191.506C21.7969 192.757 22.9361 192.538 23.7056 192.213C25.0947 191.65 26.6036 191.354 27.8128 190.389C28.6822 189.702 29.1319 189.034 28.2425 187.897C26.9434 189.339 26.3038 189.597 23.3459 190.007V189.998Z" fill="#E3E3E5"/>
<path d="M25.103 43.8235C25.4028 43.3939 26.4221 43.2029 25.7226 42.4487C25.243 41.9331 24.5134 42.0572 23.9438 42.2959C21.8053 43.1552 20.5961 44.6828 20.4062 46.917C22.4349 46.5255 23.9838 45.4562 25.103 43.8235Z" fill="#E3E3E5"/>
<path d="M20.3755 46.9652V46.917H20.3555V46.9652H20.3755Z" fill="#E3E3E5"/>
<path d="M17.5961 41.9714C15.6374 42.9167 13.8586 44.0146 14.5382 46.7453C15.4076 44.8739 18.2357 45.2176 18.8053 43.1076C18.8952 42.7162 18.9852 42.2006 18.8053 41.9046C18.4855 41.4272 17.9658 41.7996 17.5961 41.9714Z" fill="#E3E3E5"/>
<path d="M24.5915 37.9231C24.5715 37.1497 24.0419 36.8728 23.3124 36.9301C21.4437 37.102 20.3744 38.1522 19.9647 39.8135C19.8248 40.31 20.1046 40.8255 20.8041 40.8637C22.0832 40.9497 24.6115 38.9924 24.5915 37.9135V37.9231Z" fill="#E3E3E5"/>
<path d="M18.1481 113.13C19.3573 113.693 19.697 112.509 20.0168 111.812C20.6564 110.418 21.0661 108.948 21.5857 107.535C21.4758 107.449 21.3359 107.344 21.196 107.229C20.0568 108.366 18.8276 109.464 17.7983 110.714C17.1588 111.488 16.9589 112.586 18.1381 113.12L18.1481 113.13Z" fill="#E3E3E5"/>
<path d="M23.2747 4.75475C25.1234 4.01959 25.6231 2.09097 27.0821 0.878418C24.9835 1.11711 23.0748 1.7568 21.7257 3.43718C21.336 3.91456 21.366 4.3633 21.8856 4.77385C22.3853 5.1653 22.7051 4.99344 23.2747 4.75475Z" fill="#E3E3E5"/>
<path d="M7.81389 75.1016C8.61335 75.5122 8.86318 74.6242 9.09302 74.1564C9.91246 72.476 11.3015 71.0821 11.7112 69.2107C13.3801 69.2585 14.2195 67.9886 15.2688 67.1007C15.9483 66.5183 16.2082 65.659 15.4487 65.0957C14.6992 64.5133 14.1496 65.3344 13.7598 65.8691C12.9804 66.9193 12.3008 68.0173 11.5913 69.0962C9.40281 69.7168 8.46345 71.6167 7.19431 73.1157C6.64469 73.784 7.05441 74.7102 7.81389 75.0921V75.1016Z" fill="#E3E3E5"/>
<path d="M18.8074 121.35C20.1265 121.131 20.996 120.205 21.3357 119.202C21.9553 117.417 22.1352 115.526 23.794 114.19C24.2038 113.865 23.9539 113.158 23.4942 112.834C22.9446 112.423 22.445 112.872 22.0352 113.178C19.6169 114.963 18.4077 117.35 18.1779 120.214C16.1493 121.331 14.1906 122.496 14.1406 125.589C15.7096 123.756 18.4277 123.804 18.7875 121.35H18.8074Z" fill="#E3E3E5"/>
<path d="M8.25243 79.2738C7.45298 78.3286 7.04326 79.207 6.63354 79.6652C5.6542 80.7441 4.71484 81.8612 4.71484 83.9044C6.15386 82.9114 7.24312 82.0712 8.41232 81.2979C9.64149 80.5054 8.77208 79.9039 8.25243 79.2738Z" fill="#E3E3E5"/>
<path d="M24.804 178.598L24.824 178.579C26.9425 175.781 29.4108 173.356 32.7386 171.8C33.2182 171.58 33.8778 171.523 33.648 170.788C33.5081 170.358 33.2182 170.1 32.6686 170.033C28.1517 169.518 23.7347 172.869 23.5548 176.984C23.5349 177.481 23.2351 177.948 23.0552 178.445C22.3956 179.476 21.3264 179.066 20.367 179.18C19.6175 179.266 18.9979 179.829 19.0679 180.555C19.1379 181.204 19.9573 180.985 20.437 181.032C22.5155 181.223 24.0845 180.536 24.814 178.598H24.804Z" fill="#E3E3E5"/>
<path d="M24.1433 87.4087C24.1233 86.7595 23.9135 86.0339 23.054 86.4444C21.8049 87.0459 21.5451 88.3157 21.3852 89.5187C21.2053 90.8077 22.1647 90.8077 23.114 90.7886C23.6636 89.7383 24.1833 88.6404 24.1433 87.4087Z" fill="#E3E3E5"/>
<path d="M12.0335 63.1577C12.6531 63.6065 13.3826 63.2914 13.6724 62.7949C14.4519 61.4582 15.701 60.5321 17.27 59.0522C14.5119 59.1 13.6025 60.8377 12.0935 61.611C11.5938 61.8688 11.384 62.6899 12.0236 63.1577H12.0335Z" fill="#E3E3E5"/>
<path d="M30.3389 37.4937V37.5128C29.2896 38.9926 27.0612 39.575 26.6914 41.9047C29.1297 41.475 29.7693 39.2982 31.4082 38.3339C31.4582 38.2861 31.2283 37.7324 31.0185 37.4937C30.9285 37.3886 30.4289 37.4077 30.3389 37.4937Z" fill="#E3E3E5"/>
<path d="M12.6713 73.612C11.8918 73.3542 10.9425 74.0607 10.5927 74.9009C10.2729 75.6743 9.95316 76.2567 9.04378 76.4667C8.54412 76.6004 8.49415 77.0682 8.63406 77.517C8.77396 77.9466 8.97383 78.3094 9.66336 78.2903C10.0931 78.0707 10.8026 78.0516 10.9125 77.2401C11.0224 76.5717 11.0924 75.8843 11.7819 75.4547C11.9918 75.321 12.2616 75.2351 12.4614 75.0632C12.9811 74.6336 13.7406 73.9461 12.6713 73.6024V73.612Z" fill="#E3E3E5"/>
<path d="M9.96484 98.5893C9.96484 98.5893 10.0148 98.5701 10.0148 98.5508H9.96484V98.5893Z" fill="#E3E3E5"/>
<path d="M7.29374 102.16C10.6215 102.589 9.87198 100.307 9.96192 98.5889C8.98259 99.7059 5.83474 99.41 7.29374 102.16Z" fill="#E3E3E5"/>
<path d="M8.77392 85.747C9.41349 86.4822 9.9831 85.7279 10.5527 85.3365C11.582 84.6681 12.2216 83.8757 11.9218 82.1953C10.8325 82.8827 9.9831 83.3601 9.27358 83.9616C8.72396 84.3913 8.29425 85.1837 8.77392 85.747Z" fill="#E3E3E5"/>
<path d="M20.2649 54.8608C19.1756 55.4432 18.0764 56.0447 17.0071 56.6462C16.6174 56.8849 16.1677 57.0759 16.4375 57.6392C16.7373 58.2025 17.2569 58.3266 17.8066 58.0688C19.1556 57.4673 19.9751 56.4171 20.7445 55.3191C20.5847 55.1664 20.4048 55.0136 20.2649 54.8704V54.8608Z" fill="#E3E3E5"/>
<path d="M3.73828 107.153C6.83617 106.332 6.4964 103.964 7.24589 102.227C5.42713 103.344 4.39783 104.919 3.73828 107.153Z" fill="#E3E3E5"/>
<path d="M7.29688 102.246C7.29688 102.246 7.31687 102.227 7.34687 102.207L7.29688 102.188V102.255V102.246Z" fill="#E3E3E5"/>
<path d="M17.3482 89.9862H17.3682C19.6267 89.5948 19.5767 87.5516 20.4661 86.2245C23.544 83.6466 25.9324 80.3718 28.9703 77.8321C31.4986 75.703 32.8876 73.0583 34.7863 70.6714C35.4259 69.879 36.3153 68.5423 34.8063 67.788C33.4872 67.1197 32.9376 68.6091 32.348 69.3156C29.2901 72.9055 26.1022 76.4573 23.524 80.3336C22.2749 82.224 19.057 83.1311 19.8065 86.1672C18.4175 87.1124 16.2989 87.628 17.3482 89.9958V89.9862Z" fill="#E3E3E5"/>
<path d="M11.5303 158.701C13.0792 158.481 13.4489 157.307 13.8287 156.142C13.8986 155.951 13.9886 155.751 14.1685 155.35C12.3197 155.607 11.4303 156.553 11.0006 157.994C10.9107 158.319 11.0706 158.768 11.5203 158.701H11.5303Z" fill="#E3E3E5"/>
<path d="M15.0703 107.754C15.0703 108.203 15.4101 108.633 15.9397 108.528C17.059 108.289 17.3088 107.277 17.7885 106.523C17.6486 105.988 17.2388 105.749 16.7891 105.816C15.6699 105.988 15.0303 106.656 15.0803 107.754H15.0703Z" fill="#E3E3E5"/>
<path d="M25.5531 107.22C24.9136 107.372 24.5238 107.869 24.4839 108.509C24.4339 109.244 24.9435 109.645 25.6031 109.673C26.5424 109.692 26.6024 108.9 26.7623 108.251C26.5524 107.687 26.4025 107 25.5531 107.22Z" fill="#E3E3E5"/>
<path d="M14.3613 102.102C14.2014 101.539 13.6318 101.863 13.242 102.035C11.7131 102.685 12.5325 103.582 12.8823 104.508C14.0715 104.012 14.6611 103.219 14.3613 102.102Z" fill="#E3E3E5"/>
<path d="M18.9879 66.9859C17.0692 66.8332 16.0499 67.4633 15.6602 69.201C17.369 69.1341 18.2084 68.2749 18.9879 66.9859Z" fill="#E3E3E5"/>
<path d="M17.3867 50.8984C18.7958 49.3708 20.4846 48.8075 20.3747 46.9839C19.2554 47.9291 17.6365 48.5306 17.3867 50.8984Z" fill="#E3E3E5"/>
<path d="M7.93341 118.83C8.66291 118.83 9.05265 118.486 9.05265 117.78C8.87277 117.331 8.8228 116.615 8.25319 116.615C7.45374 116.653 7.13395 117.369 7.09398 118.037C7.04402 118.505 7.45374 118.811 7.93341 118.83Z" fill="#E3E3E5"/>
<path d="M74.2687 207.47C74.0389 207.728 74.0589 208.157 74.4087 208.348C75.8177 209.141 75.9376 207.355 76.9369 207.212C75.9776 207.107 75.0182 206.592 74.2687 207.47Z" fill="#E3E3E5"/>
<path d="M11.6211 48.7025C11.6211 48.7025 11.781 49.2372 11.9409 49.2658C12.9402 49.4377 13.6097 49.008 14.2193 47.7191C12.9702 47.5854 12.1407 47.8241 11.6211 48.7121V48.7025Z" fill="#E3E3E5"/>
<path d="M62.5459 25.9028C60.4972 26.4183 57.939 26.3515 56.46 28.3374C52.083 28.5093 49.2149 31.8032 45.3376 33.0921C43.8786 33.5886 42.6694 35.0112 40.9806 35.5268C39.2517 36.0614 38.902 37.274 39.9812 39.0594C40.9806 37.2072 42.9892 37.169 44.5181 36.3479C47.3262 34.868 49.6247 32.672 52.8824 31.7268C54.3614 31.2972 56.1602 30.5238 57.1495 28.9962H57.2595C60.4273 28.7766 63.4852 27.7264 66.693 27.6022C69.4711 27.5163 72.0494 26.0937 74.9474 26.3133C79.2145 26.6379 83.5415 25.8359 87.7587 27.0198C87.8386 27.0389 87.9186 27.0676 87.9985 27.0962V24.3274C86.0099 23.9837 83.9812 23.8118 81.9226 23.8405C75.4271 23.9264 68.8615 24.2892 62.5459 25.9314V25.9028Z" fill="#E3E3E5"/>
<path d="M71.581 162.758C67.3438 164.697 63.0568 166.549 58.1101 166.845C57.7504 166.864 57.3806 166.931 57.0209 166.998C56.2214 167.494 55.382 167.876 54.4426 167.962C52.8038 168.84 51.3148 170.072 49.7658 171.141C46.2782 174.521 41.7613 176.602 37.7041 179.333C36.8646 179.896 36.0152 180.431 35.1758 180.928C36.0652 181.768 37.3643 181.204 38.0039 180.689C40.4022 178.818 43.3802 177.939 45.8485 176.364C50.8451 173.175 56.4013 171.284 61.9175 169.308C65.5451 168 69.2126 166.749 72.97 165.909C75.5882 165.327 78.2564 163.828 81.1344 165.174C83.4329 165.155 85.7113 165.117 88.0098 165.098V162.663C85.8812 162.128 83.7527 161.546 81.5741 161.279C78.0366 160.83 74.8487 161.259 71.591 162.739L71.581 162.758Z" fill="#E3E3E5"/>
<path d="M77.6668 147.94C74.1991 147.663 71.2611 148.542 68.1632 150.05C62.597 152.762 57.2407 155.578 53.1435 160.161C52.0942 161.297 51.5046 162.959 49.7958 163.427C47.3974 164.095 45.8085 165.689 44.0297 167.169C41.0617 169.642 38.4235 172.287 34.5462 173.9C32.2178 174.846 29.5795 176.163 28.2305 178.521C29.1898 178.073 30.2091 177.7 31.1984 177.385C31.2684 177.366 31.3384 177.347 31.4283 177.318C32.4776 176.564 33.6868 175.982 34.9659 176.049C37.0445 174.779 39.3929 173.986 41.5314 172.783C41.9611 172.545 42.4907 172.631 42.8505 172.907C44.7392 171.724 46.6579 170.54 48.5066 169.317C48.7165 169.127 48.9164 168.936 49.1262 168.716C49.3761 168.439 49.6758 168.353 49.9656 168.372C50.7851 167.809 51.6045 167.255 52.4739 166.778C52.5839 166.215 53.1135 165.699 53.863 165.852C55.252 166.11 57.0108 164.41 58.0102 163.703C59.5191 162.672 60.9781 161.966 62.8669 161.832C64.166 161.746 65.515 161.918 66.7842 161.679C67.8335 161.46 68.8628 161.116 69.8621 160.753C71.8208 160.047 73.7594 159.359 75.858 159.159C76.6375 158.987 77.4269 158.968 78.2963 159.054C81.6341 159.455 84.8119 160.467 88.0197 161.383V157.058C87.4901 156.839 86.9504 156.629 86.4108 156.438C83.9725 155.559 81.5341 155.359 79.0658 154.929C74.1692 154.089 70.7015 156.734 66.5743 157.679C65.6849 157.87 64.5957 158.28 64.116 157.354C63.5464 156.237 64.6856 155.378 65.5051 155.244C68.513 154.748 70.9713 153.048 73.7794 152.17C75.0086 151.779 76.3277 151.74 77.6768 151.521C81.0744 152.361 84.7419 152.256 87.9997 154.146V151.989C86.9404 151.54 85.9411 150.977 85.0018 150.203C82.9532 148.485 80.3549 148.141 77.6568 147.921L77.6668 147.94Z" fill="#E3E3E5"/>
<path d="M70.6208 30.2848C66.3537 30.9723 61.9766 31.2778 57.9494 33.0823C56.7202 33.6456 54.4118 33.4928 54.8215 35.1064C55.1613 36.3953 57.3498 35.7556 58.7389 35.641V35.622C58.7389 35.622 58.8987 35.536 58.9887 35.5169C65.2344 33.8652 71.4102 32.4617 78.0457 32.2707C81.4534 32.1753 84.7511 32.3853 87.9889 32.834V30.3039C82.1429 29.6165 76.3868 29.3396 70.6108 30.2944L70.6208 30.2848Z" fill="#E3E3E5"/>
<path d="M82.9018 55.2618C79.2044 55.0231 75.7667 56.4457 72.0292 56.5126C67.1925 56.5985 62.116 57.1809 57.669 59.8065C55.8902 60.8567 53.382 60.9236 51.833 62.1552C50.0542 63.5301 48.2754 64.7808 46.2668 65.7738C45.5173 66.1366 44.8078 66.5089 44.488 67.2823C44.2582 67.7979 44.3281 68.3612 44.8478 68.6571C45.1176 68.8099 45.7871 68.8099 45.8271 68.7049C46.7165 66.6808 49.0849 66.6617 50.6338 65.5637C53.302 63.6924 56.1301 61.8879 59.4978 61.0668C66.0133 59.501 72.7887 59.6919 79.3343 58.3362C81.253 57.9256 83.2816 58.3839 85.2802 58.6799C86.1996 58.8135 87.089 59.0236 87.9784 59.2527V56.5508C87.2489 56.3121 86.5294 56.0352 85.8298 55.6915C84.9404 55.2618 83.8912 55.3478 82.8918 55.2809L82.9018 55.2618Z" fill="#E3E3E5"/>
<path d="M84.271 36.6151C84.0911 37.4934 84.6807 37.5794 85.3702 37.6939C86.2496 37.8276 87.129 37.9804 87.9984 38.1522V35.9372C87.3089 35.794 86.6394 35.6317 85.9798 35.393C85.0904 35.0683 84.4708 35.7367 84.271 36.6151Z" fill="#E3E3E5"/>
<path d="M85.372 51.7768C85.1022 52.7029 86.6012 52.7697 87.1908 53.3712C87.3507 53.524 87.7104 53.524 87.9702 53.5908C87.9802 53.5908 87.9902 53.5908 88.0002 53.5908V51.3758C87.9203 51.3758 87.8403 51.3758 87.7604 51.3758C86.921 51.4617 85.6818 50.7552 85.362 51.7672L85.372 51.7768Z" fill="#E3E3E5"/>
</g>
<defs>
<clipPath id="clip0_7741_1154">
<path d="M0 0H73C81.2843 0 88 6.71573 88 15V195C88 203.284 81.2843 210 73 210H0V0Z" fill="white"/>
</clipPath>
</defs>
</svg>
