<svg width="64" height="20" viewBox="0 0 64 20" fill="none" xmlns="http://www.w3.org/2000/svg">
<g clip-path="url(#clip0_7741_26548)">
<path fill-rule="evenodd" clip-rule="evenodd" d="M11.0105 12.2523C10.3181 11.748 9.34727 11.891 8.84303 12.5909L7.01425 15.097C6.51001 15.7894 6.653 16.7602 7.35291 17.2645C8.04529 17.7687 9.01613 17.6257 9.52036 16.9258L11.3491 14.4197C11.8534 13.7273 11.7104 12.7565 11.0105 12.2523ZM13.8477 16.2259C13.1554 15.7217 12.1845 15.8647 11.6803 16.5646C11.1761 17.257 11.319 18.2278 12.0189 18.732C12.7113 19.2363 13.6822 19.0933 14.1864 18.3934C14.6906 17.701 14.5476 16.7301 13.8477 16.2259ZM2.79976 2.46862C3.30399 1.77624 3.161 0.805403 2.46109 0.30117C1.76871 -0.203064 0.805403 -0.0600723 0.301169 0.639834C-0.203064 1.33221 -0.0600723 2.29553 0.639834 2.80728C1.33221 3.31152 2.30305 3.16853 2.80728 2.46862H2.79976ZM11.7856 3.26636C11.0933 2.76213 10.1224 2.90512 9.6182 3.60503L2.34068 13.622C1.83645 14.3143 1.97944 15.2852 2.67934 15.7894C3.37925 16.2936 4.34256 16.1507 4.8468 15.4507L12.1243 5.43381C12.6511 4.74143 12.4856 3.7706 11.7856 3.26636ZM3.49966 6.80352C4.19204 7.30775 5.16288 7.16476 5.66712 6.46486L7.47332 3.95874C7.97756 3.26636 7.83457 2.29553 7.13466 1.79129C6.44228 1.28706 5.47144 1.43005 4.96721 2.12996L3.13842 4.63607C2.65677 5.32845 2.79976 6.29929 3.49966 6.80352ZM64.0001 10.5063C64.0001 8.46674 63.0519 6.80352 60.4856 6.80352C59.3266 6.80352 58.5062 7.14219 57.9418 7.70663C57.3774 7.15724 56.557 6.80352 55.3981 6.80352C52.8317 6.80352 51.8835 8.48932 51.8835 10.5063V15.0745C51.8835 15.6238 52.3275 16.0603 52.8543 16.0603C53.3811 16.0603 53.8402 15.6163 53.8402 15.0745V10.5063C53.8402 9.30964 54.2165 8.5721 55.3981 8.5721C56.5796 8.5721 56.9559 9.30964 56.9559 10.5063V15.0745C56.9559 15.6238 57.3999 16.0603 57.9268 16.0603C58.4536 16.0603 58.9126 15.6163 58.9126 15.0745V10.5063C58.9126 9.30964 59.2889 8.5721 60.4705 8.5721C61.6521 8.5721 62.0284 9.30964 62.0284 10.5063V15.0745C62.0284 15.6238 62.4724 16.0603 62.9992 16.0603C63.526 16.0603 63.9851 15.6163 63.9851 15.0745L64.0077 10.5063H64.0001ZM49.0011 6.78094C48.4517 6.78094 48.0152 7.22497 48.0152 7.76683V12.335C48.0152 13.5316 47.4884 14.2692 46.2918 14.2692C45.0951 14.2692 44.5909 13.5316 44.5909 12.335V7.76683C44.5909 7.21744 44.1469 6.78094 43.6201 6.78094C43.0933 6.78094 42.6342 7.22497 42.6342 7.76683V12.335C42.6342 14.3745 43.7254 16.0378 46.3143 16.0378C48.9032 16.0378 49.9945 14.352 49.9945 12.335V7.76683C49.9719 7.21744 49.5354 6.78094 49.0086 6.78094H49.0011ZM28.8242 10.2504C28.8242 8.21086 27.748 6.88631 25.2494 6.88631H23.4432V4.13184C23.4432 3.58245 22.9992 3.14595 22.4724 3.14595C21.9456 3.14595 21.4865 3.58997 21.4865 4.13184V12.335C21.4865 14.3745 22.5777 16.0378 25.1666 16.0378C27.7555 16.0378 28.8468 14.352 28.8468 12.335V10.2504H28.8242ZM26.8449 12.335C26.8449 13.5316 26.3181 14.2692 25.1215 14.2692C23.9249 14.2692 23.4206 13.5316 23.4206 12.335V8.60973H25.2118C26.6643 8.60973 26.8524 9.40747 26.8524 10.2955V12.335H26.8449ZM41.2795 7.74426C41.2795 7.13466 40.7979 6.90136 40.3539 6.90136H35.4545C34.9729 6.90136 34.589 7.27765 34.589 7.74426C34.589 8.21086 34.9653 8.60973 35.4545 8.60973H38.6756L34.5138 14.4197C34.3858 14.5853 34.3256 14.8186 34.3256 15.0067C34.3256 15.6163 34.8073 15.955 35.2287 15.955H40.4216C40.9032 15.955 41.2871 15.5787 41.2871 15.0895C41.2871 14.6003 40.9108 14.224 40.4216 14.224H36.9296L41.0086 8.542C41.2193 8.24849 41.2795 7.99261 41.2795 7.74426ZM31.6464 3.13842C31.0368 3.13842 30.5326 3.64266 30.5326 4.25225C30.5326 4.86185 31.0368 5.38866 31.6464 5.38866C32.256 5.38866 32.7602 4.88442 32.7602 4.25225C32.7602 3.62008 32.256 3.13842 31.6464 3.13842ZM31.6464 6.78094C31.097 6.78094 30.6605 7.22497 30.6605 7.75178V15.0519C30.6605 15.6013 31.1046 16.0378 31.6464 16.0378C32.1883 16.0378 32.6323 15.5937 32.6323 15.0519V7.75178C32.6323 7.22497 32.1883 6.78094 31.6464 6.78094Z" fill="#2DB7C0"/>
</g>
<defs>
<clipPath id="clip0_7741_26548">
<rect width="64" height="19.0329" fill="white"/>
</clipPath>
</defs>
</svg>
