<svg width="320" height="280" viewBox="0 0 320 280" fill="none" xmlns="http://www.w3.org/2000/svg">
<path d="M160 279.8C248.366 279.8 320 275.565 320 270.342C320 265.118 248.366 260.884 160 260.884C71.6344 260.884 0 265.118 0 270.342C0 275.565 71.6344 279.8 160 279.8Z" fill="#C7DEF7"/>
<g opacity="0.5">
<path d="M197.175 157.759L181.922 151.691C181.722 150.998 181.522 150.324 181.303 149.65C179.9 145.276 178.096 141.066 175.927 137.076C175.453 136.183 174.943 135.308 174.433 134.451C174.123 133.923 173.795 133.394 173.467 132.866L179.553 118.962C180.337 117.176 179.936 115.098 178.569 113.713L167.435 102.524C166.068 101.139 163.973 100.738 162.187 101.522L147.116 108.028C146.497 107.681 145.877 107.353 145.239 107.025C141.23 104.948 136.984 103.235 132.556 101.941C131.59 101.65 130.624 101.394 129.64 101.139C129.039 100.993 128.437 100.848 127.836 100.72L126.159 96.4195C126.506 96.219 126.834 96.0368 127.18 95.8363C127.526 95.6359 127.854 95.4354 128.182 95.2167L137.002 99.0801C138.132 99.5721 139.462 99.3352 140.337 98.4605L147.444 91.3899C148.319 90.5151 148.574 89.2031 148.082 88.055L143.963 78.4878C144.182 78.0869 144.401 77.7042 144.601 77.3033C145.913 74.752 147.007 72.0732 147.827 69.2486C148.009 68.629 148.173 68.0277 148.337 67.3898C148.428 67.0072 148.519 66.6245 148.61 66.2418L157.576 62.7247C158.724 62.2691 159.49 61.1575 159.49 59.9183V49.8955C159.508 48.6564 158.761 47.5447 157.613 47.0892L147.936 43.2441C147.809 42.8067 147.681 42.3694 147.553 41.9502C146.661 39.1803 145.512 36.5015 144.146 33.9684C143.836 33.4035 143.526 32.8568 143.198 32.3101C142.998 31.9821 142.797 31.6359 142.579 31.3078L146.442 22.4878C146.934 21.358 146.697 20.0277 145.822 19.1529L138.752 12.0459C137.877 11.1712 136.565 10.916 135.417 11.4081L125.85 15.5265C125.449 15.3078 125.066 15.0892 124.665 14.8887C122.114 13.5766 119.417 12.4832 116.61 11.6632C115.991 11.481 115.389 11.317 114.752 11.1529C114.369 11.0618 113.986 10.9707 113.604 10.8796L110.086 1.91377C109.631 0.765702 108.519 0.000326032 107.28 0.000326032H97.2573C96.0182 -0.0178972 94.9065 0.729256 94.451 1.87732L90.6059 11.5539C90.1685 11.6814 89.7311 11.809 89.312 11.9548C86.5421 12.8477 83.8633 13.9775 81.3302 15.3625C80.7653 15.6723 80.2186 15.9821 79.6719 16.3101C79.3439 16.5106 78.9977 16.711 78.6696 16.9297L69.8314 13.0664C68.7015 12.5744 67.3712 12.8113 66.4965 13.686L59.3895 20.7566C58.5147 21.6313 58.2596 22.9434 58.7516 24.0914L62.8701 33.6586C62.6514 34.0596 62.4327 34.4422 62.2323 34.8614C60.9202 37.4126 59.8268 40.0914 59.0068 42.916C58.8245 43.5356 58.6605 44.1552 58.4965 44.7748C58.4054 45.1575 58.3143 45.5402 58.2232 45.9229L49.2573 49.44C48.1093 49.8955 47.3439 51.0072 47.3439 52.2463V62.2691C47.3257 63.5083 48.0728 64.6199 49.2209 65.0755L58.8974 68.9206C59.025 69.358 59.1525 69.7953 59.2801 70.2144C60.173 72.9844 61.3211 75.6632 62.6879 78.1962C62.9977 78.7611 63.3074 79.3078 63.6355 79.8545C63.8359 80.2008 64.0364 80.5288 64.2551 80.8568L60.3917 89.6951C59.8997 90.8249 60.1366 92.1552 61.0113 93.0299L68.0819 100.137C68.9566 101.012 70.2687 101.267 71.4168 100.775L80.984 96.6564C81.3849 96.875 81.7676 97.0937 82.1685 97.2942C84.7197 98.6063 87.3986 99.6996 90.2232 100.52C90.7881 100.684 91.353 100.848 91.9179 100.993L91.5899 101.832C90.8974 102.032 90.2232 102.233 89.5489 102.451C85.1753 103.855 80.9658 105.659 76.9749 107.827C76.0819 108.301 75.2072 108.811 74.3507 109.322C73.8223 109.631 73.2938 109.959 72.7653 110.287L58.8428 104.201C57.0569 103.417 54.9794 103.818 53.5945 105.185L42.4054 116.319C41.0204 117.686 40.6195 119.782 41.4031 121.568L47.9088 136.656C47.5626 137.276 47.2346 137.914 46.9065 138.533C44.8291 142.542 43.1161 146.788 41.804 151.217C41.5125 152.183 41.2573 153.148 41.0022 154.132C40.8564 154.734 40.7106 155.335 40.5831 155.937L26.4418 161.476C24.6195 162.187 23.435 163.937 23.435 165.886L23.3986 181.668C23.3986 183.618 24.5831 185.367 26.3872 186.096L41.64 192.164C41.8405 192.857 42.0409 193.531 42.2596 194.205C43.6628 198.579 45.4669 202.788 47.6355 206.779C48.1093 207.654 48.6195 208.547 49.1298 209.404C49.4396 209.932 49.7676 210.46 50.1138 210.989L44.0273 224.911C43.2437 226.697 43.6446 228.775 45.0113 230.16L56.1457 241.349C57.5125 242.734 59.6081 243.135 61.394 242.351L76.4828 235.845C77.1024 236.192 77.722 236.52 78.3598 236.848C82.3689 238.925 86.615 240.638 91.0432 241.95C92.009 242.242 92.9749 242.497 93.9589 242.752C94.5603 242.898 95.1617 243.044 95.763 243.171L102.487 260.319L124.738 260.374L131.991 242.114C132.683 241.914 133.358 241.713 134.032 241.495C138.405 240.091 142.615 238.287 146.606 236.119C147.499 235.645 148.374 235.135 149.23 234.624C149.758 234.315 150.287 233.987 150.815 233.64L164.72 239.727C166.506 240.511 168.583 240.11 169.968 238.743L181.157 227.609C182.542 226.242 182.943 224.146 182.159 222.36L175.654 207.271C176 206.652 176.328 206.032 176.656 205.394C178.733 201.385 180.446 197.139 181.758 192.711C182.05 191.745 182.305 190.779 182.56 189.795C182.706 189.194 182.852 188.593 182.979 187.991L197.121 182.451C198.943 181.741 200.127 179.991 200.127 178.041L200.164 162.26C200.164 160.31 198.979 158.561 197.175 157.832V157.759ZM74.5876 54.1233C75.6446 38.4878 89.6036 26.26 105.239 27.2805C121.148 28.3192 133.175 42.0778 132.118 57.9867C131.317 70.014 122.861 80.0185 111.891 83.5356H102.032C100.92 83.5174 99.8633 83.9001 99.0432 84.5744C84.3553 82.3693 73.5671 69.2304 74.5694 54.1416L74.5876 54.1233ZM108.793 217.24C83.7357 215.599 64.7471 193.932 66.4236 168.857C68.0819 144.219 90.0774 124.939 114.733 126.561C139.809 128.201 158.779 149.868 157.102 174.943C155.444 199.581 133.449 218.861 108.793 217.24Z" fill="#C7DEF7"/>
<path d="M25.9134 124.484C26.0592 124.447 26.205 124.393 26.3508 124.356C27.2984 124.046 28.2096 123.664 29.066 123.19C29.2665 123.08 29.4487 122.971 29.631 122.862C29.7403 122.789 29.8496 122.716 29.959 122.643L32.9658 123.955C33.3485 124.119 33.8041 124.046 34.0957 123.736L36.5193 121.331C36.8109 121.039 36.902 120.584 36.738 120.201L35.3348 116.939C35.4077 116.812 35.4806 116.666 35.5535 116.538C36.0091 115.664 36.3736 114.752 36.6469 113.787C36.7016 113.586 36.7745 113.367 36.8109 113.149C36.8474 113.021 36.8656 112.894 36.902 112.766L39.9635 111.563C40.3644 111.418 40.6196 111.035 40.6196 110.616V107.208C40.6196 106.789 40.3644 106.406 39.9818 106.26L36.6834 104.948C36.6469 104.803 36.5922 104.657 36.5558 104.511C36.246 103.563 35.8633 102.652 35.3895 101.796C35.2802 101.595 35.1708 101.413 35.0615 101.231C34.9886 101.121 34.9157 101.012 34.8428 100.903L36.1549 97.8959C36.3189 97.5133 36.246 97.0577 35.9362 96.7661L33.5307 94.3424C33.2392 94.0508 32.7836 93.9597 32.4009 94.1237L29.1389 95.5269C29.0114 95.454 28.8656 95.3811 28.738 95.3082C27.8633 94.8527 26.9521 94.4882 25.9863 94.2149C25.7859 94.1602 25.5672 94.0873 25.3485 94.0508C25.2209 94.0144 25.0934 93.9962 24.9658 93.9597L23.7631 90.8982C23.6173 90.4973 23.2346 90.2422 22.8155 90.2422H19.4077C18.9886 90.2422 18.6059 90.4973 18.4601 90.88L17.148 94.1784C17.0023 94.2149 16.8565 94.2695 16.7107 94.306C15.7631 94.6158 14.8519 94.9984 13.9954 95.4723C13.795 95.5816 13.6127 95.6909 13.4305 95.8003C13.3212 95.8732 13.2118 95.9461 13.1025 96.0189L10.0957 94.7069C9.71297 94.5429 9.25738 94.6158 8.96581 94.9256L6.54212 97.331C6.25055 97.6226 6.15943 98.0782 6.32344 98.4609L7.72663 101.723C7.65374 101.85 7.58085 101.996 7.50795 102.124C7.05237 102.998 6.68791 103.91 6.41456 104.875C6.35989 105.076 6.287 105.295 6.25055 105.513C6.2141 105.641 6.19588 105.768 6.15943 105.896L3.09793 107.099C2.69702 107.244 2.44189 107.627 2.44189 108.046V111.454C2.44189 111.873 2.69702 112.256 3.07971 112.402L6.37811 113.714C6.41456 113.86 6.46923 114.005 6.50568 114.151C6.81547 115.099 7.19816 116.01 7.67196 116.866C7.7813 117.049 7.89064 117.249 7.99998 117.431C8.07287 117.541 8.14577 117.65 8.21866 117.759L6.90659 120.766C6.74258 121.149 6.81547 121.604 7.12527 121.896L9.53073 124.32C9.82231 124.611 10.2779 124.702 10.6606 124.538L13.9225 123.135C14.0501 123.208 14.1959 123.281 14.3234 123.354C15.1982 123.809 16.1093 124.174 17.0752 124.447C17.2756 124.502 17.4943 124.575 17.713 124.611C17.8405 124.648 17.9681 124.666 18.0957 124.702L19.5535 128.42H24.3644L25.9316 124.484H25.9134ZM20.902 119.126C15.4897 118.762 11.3713 114.078 11.7357 108.666C12.1002 103.326 16.8565 99.1716 22.1777 99.5178C27.6082 99.8823 31.7084 104.566 31.3439 109.978C30.9795 115.317 26.2232 119.472 20.902 119.126Z" fill="#C7DEF7"/>
<path d="M276.957 139.772L270.688 137.312C270.633 137.039 270.56 136.784 270.506 136.51C270.396 136.073 270.269 135.636 270.159 135.216C269.576 133.248 268.811 131.371 267.9 129.585C267.754 129.312 267.608 129.021 267.444 128.747L270.323 122.041C270.67 121.239 270.487 120.328 269.868 119.708L264.893 114.752C264.273 114.132 263.362 113.968 262.56 114.314L256.383 117.011C256.146 116.866 255.909 116.72 255.672 116.574C255.289 116.337 254.907 116.118 254.506 115.9C252.738 114.934 250.861 114.132 248.929 113.513C248.638 113.421 248.328 113.33 248.018 113.239L245.321 106.46C244.993 105.658 244.228 105.13 243.353 105.13H236.337C235.462 105.13 234.697 105.677 234.387 106.478L231.927 112.747C231.654 112.802 231.399 112.875 231.125 112.929C230.688 113.039 230.251 113.166 229.831 113.276C227.863 113.859 225.986 114.624 224.2 115.535C223.927 115.681 223.635 115.827 223.362 115.991L216.656 113.112C215.854 112.765 214.943 112.948 214.323 113.567L209.367 118.542C208.747 119.162 208.583 120.073 208.929 120.875L211.626 127.052C211.481 127.289 211.335 127.526 211.189 127.745C210.952 128.128 210.733 128.51 210.533 128.911C209.567 130.679 208.765 132.556 208.146 134.488C208.055 134.779 207.964 135.089 207.872 135.399L201.093 138.096C200.292 138.424 199.763 139.189 199.763 140.064V147.08C199.763 147.954 200.31 148.72 201.112 149.03L207.38 151.49C207.435 151.763 207.508 152.018 207.563 152.292C207.672 152.729 207.8 153.166 207.909 153.585C208.492 155.554 209.257 157.431 210.169 159.216C210.314 159.49 210.46 159.763 210.624 160.055L207.727 166.761C207.38 167.563 207.563 168.474 208.182 169.093L213.157 174.05C213.777 174.67 214.688 174.834 215.49 174.488L221.667 171.79C221.904 171.936 222.141 172.082 222.378 172.228C222.761 172.465 223.143 172.683 223.544 172.884C225.312 173.85 227.189 174.652 229.121 175.271C229.412 175.362 229.722 175.453 230.032 175.544L233.257 183.654H243.134C243.134 183.636 246.123 176.018 246.123 176.018C246.396 175.964 246.651 175.891 246.925 175.836C247.362 175.727 247.8 175.599 248.219 175.49C250.187 174.907 252.064 174.141 253.85 173.23C254.123 173.084 254.415 172.939 254.688 172.793L261.394 175.672C262.196 176.018 263.107 175.836 263.727 175.216L268.683 170.242C269.303 169.622 269.467 168.711 269.121 167.909L266.424 161.731C266.569 161.494 266.715 161.257 266.861 161.021C267.098 160.638 267.317 160.255 267.517 159.854C268.483 158.087 269.285 156.21 269.904 154.278C269.995 153.986 270.087 153.677 270.178 153.367L276.957 150.67C277.759 150.342 278.287 149.576 278.287 148.702V141.686C278.287 140.811 277.74 140.046 276.938 139.736L276.957 139.772ZM240.383 164.556C229.43 165.267 219.663 156.72 218.934 145.768C218.187 134.633 226.606 125.011 237.74 124.283C248.692 123.572 258.46 132.118 259.189 143.071C259.936 154.205 251.499 163.827 240.383 164.556Z" fill="#C7DEF7"/>
<path d="M234.132 76.8297L237.74 78.2511C237.777 78.3969 237.813 78.5609 237.85 78.7067C237.904 78.9618 237.977 79.1987 238.05 79.4538C238.378 80.5837 238.816 81.6588 239.344 82.6793C239.435 82.8434 239.508 82.9891 239.599 83.1531L237.941 86.9982C237.74 87.4538 237.85 87.9823 238.196 88.3285L241.039 91.1714C241.385 91.5176 241.913 91.6269 242.369 91.4265L245.923 89.8775C246.05 89.9686 246.178 90.0415 246.323 90.1326C246.542 90.2602 246.761 90.3878 246.998 90.5153C248.018 91.062 249.075 91.5358 250.205 91.8821C250.369 91.9367 250.551 91.9914 250.734 92.0461L252.574 96.693H258.241L259.954 92.3012C260.1 92.2648 260.264 92.2283 260.41 92.1919C260.665 92.1372 260.902 92.0643 261.157 91.9914C262.287 91.6634 263.362 91.226 264.383 90.6976C264.547 90.6064 264.693 90.5336 264.857 90.4424L268.702 92.1007C269.157 92.3012 269.686 92.1919 270.032 91.8456L272.875 89.0028C273.221 88.6566 273.33 88.1281 273.13 87.6725L271.581 84.119C271.672 83.9914 271.745 83.8638 271.836 83.7181C271.964 83.4994 272.091 83.2807 272.219 83.0438C272.765 82.0233 273.239 80.9481 273.585 79.8365C273.64 79.6725 273.695 79.4903 273.749 79.3263L277.631 77.7773C278.087 77.5951 278.396 77.1395 278.396 76.6475V72.6201C278.396 72.1281 278.087 71.6725 277.613 71.4903L274.005 70.0689C273.968 69.9231 273.932 69.7591 273.895 69.6133C273.841 69.3582 273.768 69.1213 273.695 68.8661C273.367 67.7363 272.929 66.6611 272.401 65.6406C272.31 65.4766 272.237 65.3126 272.146 65.1668L273.804 61.3217C274.005 60.8661 273.895 60.3377 273.549 59.9914L270.706 57.1486C270.36 56.8023 269.831 56.693 269.376 56.8935L265.822 58.4424C265.695 58.3513 265.567 58.2784 265.421 58.1873C265.203 58.0598 264.984 57.9322 264.747 57.8046C263.727 57.2579 262.67 56.7841 261.54 56.4379C261.376 56.3832 261.194 56.3285 261.03 56.2739L259.481 52.3923C259.298 51.9367 258.843 51.627 258.351 51.627H254.323C253.831 51.627 253.376 51.9367 253.194 52.4105L251.772 56.0187C251.626 56.0552 251.462 56.0916 251.317 56.1281C251.062 56.1828 250.825 56.2557 250.569 56.3285C249.44 56.6566 248.364 57.0939 247.344 57.6224C247.18 57.7135 247.034 57.7864 246.87 57.8775L243.025 56.2192C242.569 56.0187 242.041 56.1281 241.695 56.4743L238.852 59.3172C238.506 59.6634 238.396 60.1919 238.597 60.6475L240.146 64.201C240.055 64.3285 239.982 64.4561 239.891 64.6019C239.763 64.8206 239.636 65.0393 239.508 65.2762C238.961 66.2967 238.488 67.3718 238.141 68.4834C238.087 68.6475 238.032 68.8297 237.977 68.9937L234.096 70.5427C233.64 70.7249 233.33 71.1805 233.33 71.6725V75.6998C233.33 76.1919 233.64 76.6475 234.114 76.8297H234.132ZM255.125 62.6156C261.412 62.1964 267.007 67.1167 267.426 73.3855C267.845 79.7636 263.016 85.2853 256.638 85.7044C250.351 86.1235 244.756 81.2033 244.337 74.9345C243.918 68.5563 248.747 63.0347 255.125 62.6156Z" fill="#C7DEF7"/>
<path d="M301.157 113.385C301.157 113.093 300.975 112.838 300.72 112.729L298.642 111.909C298.624 111.818 298.606 111.727 298.588 111.636C298.551 111.49 298.515 111.344 298.478 111.198C298.278 110.542 298.041 109.923 297.731 109.34C297.677 109.248 297.64 109.157 297.585 109.066L298.551 106.843C298.661 106.588 298.606 106.278 298.405 106.078L296.765 104.437C296.565 104.237 296.255 104.182 296 104.292L293.941 105.185C293.868 105.13 293.795 105.093 293.704 105.039C293.576 104.966 293.449 104.893 293.321 104.82C292.738 104.492 292.118 104.237 291.481 104.037C291.39 104 291.28 103.982 291.189 103.945L290.296 101.704C290.187 101.431 289.932 101.267 289.64 101.267H287.326C287.034 101.267 286.779 101.449 286.67 101.722L285.85 103.8C285.759 103.818 285.667 103.836 285.576 103.854C285.431 103.891 285.285 103.927 285.139 103.964C284.483 104.164 283.863 104.401 283.28 104.711C283.189 104.765 283.098 104.802 283.007 104.857L280.784 103.891C280.528 103.781 280.219 103.836 280.018 104.037L278.378 105.677C278.178 105.877 278.123 106.187 278.232 106.442L279.125 108.501C279.071 108.574 279.034 108.647 278.979 108.738C278.907 108.866 278.834 108.993 278.761 109.121C278.433 109.704 278.178 110.324 277.977 110.961C277.941 111.052 277.923 111.162 277.886 111.253L275.645 112.146C275.371 112.255 275.207 112.51 275.207 112.802V115.116C275.207 115.408 275.39 115.663 275.663 115.772L277.74 116.592C277.759 116.683 277.777 116.775 277.795 116.866C277.831 117.011 277.868 117.157 277.904 117.303C278.105 117.959 278.342 118.579 278.651 119.162C278.706 119.253 278.743 119.344 278.797 119.435L277.831 121.658C277.722 121.914 277.777 122.223 277.977 122.424L279.617 124.064C279.818 124.264 280.128 124.319 280.383 124.21L282.442 123.317C282.515 123.371 282.588 123.408 282.679 123.463C282.806 123.535 282.934 123.608 283.062 123.681C283.645 124.009 284.264 124.264 284.902 124.465C284.993 124.501 285.103 124.519 285.194 124.556L286.269 127.235H289.549L290.533 124.702C290.624 124.683 290.715 124.665 290.806 124.647C290.952 124.611 291.098 124.574 291.244 124.538C291.9 124.337 292.519 124.1 293.103 123.791C293.194 123.736 293.285 123.699 293.376 123.645L295.599 124.611C295.854 124.72 296.164 124.665 296.364 124.465L298.005 122.825C298.205 122.624 298.26 122.314 298.15 122.059L297.257 120C297.312 119.927 297.349 119.854 297.403 119.763C297.476 119.636 297.549 119.508 297.622 119.381C297.95 118.797 298.205 118.178 298.405 117.54C298.442 117.449 298.46 117.339 298.497 117.248L300.738 116.355C301.011 116.246 301.175 115.991 301.175 115.699V113.385H301.157ZM288.601 120.948C284.975 121.185 281.731 118.342 281.494 114.734C281.239 111.052 284.046 107.863 287.727 107.608C291.353 107.371 294.597 110.214 294.834 113.822C295.089 117.504 292.282 120.693 288.601 120.948Z" fill="#C7DEF7"/>
</g>
<path d="M200.346 19.8818H104.929C94.9757 19.8818 86.9066 27.9509 86.9066 37.9046V251.025C86.9066 260.979 94.9757 269.048 104.929 269.048H200.346C210.3 269.048 218.369 260.979 218.369 251.025V37.9046C218.369 27.9509 210.3 19.8818 200.346 19.8818Z" fill="#455A64"/>
<path d="M87.2346 48.2559H87.599V62.798H87.2346C86.5421 62.798 85.9772 62.2331 85.9772 61.5406V49.5133C85.9772 48.8208 86.5421 48.2559 87.2346 48.2559Z" fill="#3E168F"/>
<path d="M87.5079 92.4648H87.599V114.078H87.5079C86.6697 114.078 85.9772 113.385 85.9772 112.547V94.0138C85.9772 93.1755 86.6697 92.4831 87.5079 92.4831V92.4648Z" fill="#263238"/>
<path d="M87.5079 115.554H87.599V137.166H87.5079C86.6697 137.166 85.9772 136.474 85.9772 135.636V117.103C85.9772 116.264 86.6697 115.572 87.5079 115.572V115.554Z" fill="#3E168F"/>
<path d="M215.417 251.043V37.9042C215.417 29.5407 208.637 22.7607 200.273 22.7607L104.838 22.7607C96.4748 22.7607 89.6948 29.5407 89.6948 37.9042L89.6948 251.043C89.6948 259.407 96.4748 266.187 104.838 266.187H200.273C208.637 266.187 215.417 259.407 215.417 251.043Z" fill="#263238"/>
<path d="M211.572 251.025V37.9045C211.572 31.6545 206.505 26.5879 200.255 26.5879L104.838 26.5879C98.5883 26.5879 93.5217 31.6545 93.5217 37.9045L93.5217 251.025C93.5217 257.275 98.5883 262.342 104.838 262.342H200.255C206.505 262.342 211.572 257.275 211.572 251.025Z" fill="white"/>
<path d="M193.895 195.098V210.296C193.895 212.064 192.784 213.485 191.435 213.485H113.677C112.31 213.485 111.216 212.064 111.216 210.296V195.098C111.216 193.331 112.328 191.909 113.677 191.909H191.435C192.802 191.909 193.895 193.331 193.895 195.098Z" fill="#FC6262"/>
<path d="M248 257.513C248 257.513 249.913 264.182 250.861 267.991L257.531 267.044L255.617 253.704L248 257.513Z" fill="#F2A58B"/>
<path d="M237.194 243.717L230.852 254.578L226.096 249.895L233.713 236.556L237.194 243.717Z" fill="#F2A58B"/>
<path d="M240.383 95.0529C240.383 95.0529 242.861 97.5313 246.67 95.5632C247.198 95.2898 247.49 94.7067 247.417 94.1235L246.105 83.627L237.759 89.6588L240.383 95.0529Z" fill="#263238"/>
<path d="M264.437 105.239L268.538 91.2801C268.665 90.8792 269.084 90.6241 269.485 90.7334L276.72 92.5011C277.157 92.6104 277.43 93.066 277.285 93.5033L272.984 107.244C272.856 107.645 272.456 107.863 272.055 107.772L265.02 106.205C264.565 106.114 264.31 105.64 264.437 105.203V105.239Z" fill="#455A64"/>
<path d="M248 146.059C248 146.059 247.052 154.624 251.809 162.26C256.565 169.877 271.781 198.451 271.326 203.226C270.907 207.563 243.043 240.237 237.995 246.123C237.576 246.615 236.829 246.633 236.392 246.159L231.38 240.893C231.034 240.529 230.852 240.036 230.888 239.526C231.125 236.191 233.531 222.998 255.636 204.155L238.487 174.615L235.754 147.134L248.018 146.041L248 146.059Z" fill="#131A1C"/>
<path d="M219.426 147.955C219.426 147.955 209.895 157.395 222.287 184.11C234.679 210.825 236.574 219.39 236.574 219.39C236.574 219.39 240.146 248.839 246.415 258.497C246.779 259.044 247.417 259.336 248.073 259.226L257.203 257.714C257.932 257.586 258.46 256.93 258.405 256.183C258.059 251.335 256.383 233.623 249.913 211.773C242.296 186.06 238.487 146.989 238.487 146.989L219.426 147.937V147.955Z" fill="#263238"/>
<path d="M209.932 156.156L214.123 161.386C214.123 161.386 214.123 169.75 223.526 167.654V166.616L220.392 161.386H222.487C222.487 161.386 221.449 158.652 216.729 156.884L213.066 151.982L209.932 156.174V156.156Z" fill="#F2A58B"/>
<path d="M268.957 109.85C268.957 109.85 269.904 106.989 269.904 105.094C269.904 103.199 263.235 103.181 267.043 99.372C270.852 95.5633 274.661 101.285 274.661 105.094C274.661 108.903 271.799 112.711 271.799 112.711L268.938 109.85H268.957Z" fill="#F2A58B"/>
<path d="M218.169 99.189C222.779 97.0568 237.139 91.6263 248.948 100.282C248.948 100.282 254.67 105.039 253.704 125.048C253.704 125.048 264.182 115.517 264.182 114.569C264.182 113.622 265.768 111.235 267.499 109.376C267.79 109.048 268.264 108.92 268.683 109.048C269.74 109.376 271.781 110.105 273.203 111.253C273.513 111.508 273.64 111.927 273.513 112.328C272.31 115.918 265.622 134.287 252.756 140.301C252.756 140.301 250.843 141.248 248.948 138.387C248.948 138.387 251.809 148.866 248.948 150.779H217.513C217.513 150.779 213.977 150.779 216.529 140.082C217.166 137.403 217.513 134.651 217.513 131.881V116.483C217.513 116.483 208.948 129.348 204.173 131.717C204.173 131.717 217.513 150.779 214.652 153.622L210.478 156.957C210.077 157.266 209.531 157.321 209.093 157.084C206.888 155.918 200.273 150.998 191.781 131.699C191.781 131.699 196.665 119.162 215.617 100.902C216.365 100.191 217.221 99.6081 218.15 99.1707L218.169 99.189Z" fill="#FC6262"/>
<path d="M228.938 96.4741L226.077 77.9046C226.077 77.9046 234.642 66.4786 247.508 75.0436C247.508 75.0436 250.369 92.1916 241.786 92.1916V97.9137C241.786 97.9137 237.503 107.918 228.92 96.4923L228.938 96.4741Z" fill="#F2A58B"/>
<path d="M236.1 75.0431C236.1 75.0431 235.717 77.8131 236.1 77.9042C237.758 78.3051 241.421 78.542 245.412 77.1388C245.613 77.0659 245.904 75.116 246.105 75.0431C246.305 74.9702 246.378 76.7561 246.56 76.665C247.471 76.2459 249.731 75.6992 250.387 75.0431C251.389 74.0409 248.966 66.4782 241.822 63.6172C241.822 63.6172 224.674 59.3347 221.813 75.0431C219.152 89.64 222.67 89.4577 218.606 95.0705C218.077 95.7994 218.442 96.8199 219.298 97.0386C221.777 97.6946 226.424 98.46 230.378 96.4737V86.4691C230.378 86.4691 225.294 83.2436 228.738 80.8928C229.029 80.6923 229.394 80.6194 229.74 80.7106C230.433 80.911 231.38 81.7857 231.799 85.0477L232.638 80.6377C232.929 79.0523 233.676 77.5944 234.77 76.4099C235.189 75.9543 235.645 75.4805 236.082 75.0431H236.1Z" fill="#263238"/>
<path d="M248.765 266.315C248.146 267.5 247.162 269.978 247.453 273.313C247.526 274.206 248.292 274.88 249.166 274.844L270.506 274.279C271.271 274.26 271.818 273.495 271.563 272.784C271.107 271.472 269.485 269.595 264.055 268.575C260.774 267.955 259.335 266.734 258.752 265.951C258.497 265.604 258.023 265.513 257.658 265.75C256.328 266.588 253.23 268.01 249.895 266.005C249.494 265.768 248.966 265.914 248.747 266.333L248.765 266.315Z" fill="#263238"/>
<path d="M226.041 247.873C225.221 248.219 222.597 249.531 220.72 252.812C220.374 253.413 220.574 254.16 221.139 254.543L237.303 265.458C237.977 265.914 238.907 265.458 238.943 264.657C239.016 263.436 238.433 261.322 235.681 257.914C232.875 254.433 232.474 253.085 232.547 252.575C232.565 252.429 232.456 252.283 232.292 252.283C231.071 252.283 227.736 251.955 226.351 248.055C226.296 247.928 226.15 247.855 226.023 247.91L226.041 247.873Z" fill="#263238"/>
<path d="M248.911 138.406C248.237 135.654 247.781 132.848 247.49 130.041C247.344 128.474 247.198 126.87 247.307 125.303C247.399 123.991 247.982 122.752 248.419 121.531C249.166 119.472 249.239 117.23 249.148 115.062C249.112 113.968 248.984 112.784 248.911 111.69H248.984C249.166 112.656 249.421 114.041 249.531 115.007C249.786 117.249 249.804 119.563 249.075 121.713C248.729 122.788 248.237 123.809 248.091 124.921C248 125.467 248 126.032 248 126.597C248 128.274 248.128 129.987 248.273 131.663C248.474 133.905 248.729 136.146 249.002 138.387H248.929L248.911 138.406Z" fill="#E5E5E5"/>
<path d="M155.025 65.0271C158.335 63.656 159.907 59.861 158.536 56.5508C157.165 53.2406 153.37 51.6687 150.06 53.0398C146.749 54.4109 145.178 58.2059 146.549 61.5161C147.92 64.8263 151.715 66.3982 155.025 65.0271Z" fill="#263238"/>
<g opacity="0.1">
<path d="M184.864 119.327C188.388 118.68 190.72 115.299 190.074 111.775C189.427 108.251 186.046 105.918 182.522 106.565C178.997 107.212 176.665 110.593 177.312 114.117C177.959 117.641 181.34 119.974 184.864 119.327Z" fill="#263238"/>
</g>
<g opacity="0.1">
<path d="M176.791 127.805C177.718 124.344 175.665 120.786 172.204 119.859C168.743 118.932 165.186 120.986 164.258 124.446C163.331 127.907 165.385 131.465 168.846 132.392C172.306 133.319 175.864 131.265 176.791 127.805Z" fill="#263238"/>
</g>
<g opacity="0.2">
<path d="M158.923 131.942C159.495 128.405 157.093 125.074 153.556 124.501C150.019 123.928 146.687 126.331 146.115 129.867C145.542 133.404 147.945 136.736 151.481 137.309C155.018 137.882 158.35 135.479 158.923 131.942Z" fill="#263238"/>
</g>
<g opacity="0.3">
<path d="M136.261 132.382C139.721 131.455 141.775 127.897 140.848 124.437C139.921 120.976 136.363 118.922 132.902 119.849C129.442 120.777 127.388 124.334 128.315 127.795C129.242 131.256 132.8 133.309 136.261 132.382Z" fill="#263238"/>
</g>
<g opacity="0.5">
<path d="M127.231 115.917C128.824 112.708 127.514 108.815 124.304 107.222C121.095 105.629 117.202 106.939 115.609 110.148C114.016 113.357 115.326 117.25 118.535 118.844C121.745 120.437 125.638 119.126 127.231 115.917Z" fill="#263238"/>
</g>
<g opacity="0.6">
<path d="M122.949 96.522C123.773 93.0352 121.615 89.5403 118.128 88.7161C114.641 87.8918 111.147 90.0503 110.322 93.5371C109.498 97.024 111.656 100.519 115.143 101.343C118.63 102.167 122.125 100.009 122.949 96.522Z" fill="#263238"/>
</g>
<g opacity="0.7">
<path d="M123.087 83.2698C126.548 82.3424 128.602 78.7851 127.675 75.3243C126.747 71.8634 123.19 69.8096 119.729 70.7369C116.268 71.6643 114.214 75.2216 115.142 78.6824C116.069 82.1433 119.626 84.1971 123.087 83.2698Z" fill="#263238"/>
</g>
<g opacity="0.8">
<path d="M128.948 67.0976C127.162 63.9997 128.219 60.027 131.317 58.2411C134.415 56.4553 138.387 57.5122 140.173 60.6102C141.959 63.7081 140.902 67.6808 137.804 69.4666C134.706 71.2525 130.734 70.1956 128.948 67.0976Z" fill="#263238"/>
</g>
<path d="M168.565 161.913C168.565 163.371 167.69 164.629 166.433 165.157C166.014 165.339 165.54 165.43 165.048 165.43H114.916C113.95 165.43 113.057 165.029 112.419 164.392C111.781 163.754 111.38 162.879 111.38 161.895C111.38 159.945 112.966 158.378 114.898 158.378H165.03C165.522 158.378 165.996 158.487 166.415 158.651C166.834 158.834 167.198 159.089 167.526 159.398C168.164 160.036 168.565 160.911 168.565 161.895V161.913Z" fill="#FF847D"/>
<path d="M186.971 158.105H114.916C112.82 158.105 111.107 159.818 111.107 161.914C111.107 164.01 112.82 165.723 114.916 165.723H186.971C189.066 165.723 190.779 164.01 190.779 161.914C190.779 159.818 189.066 158.105 186.971 158.105ZM186.971 165.158H114.916C113.13 165.158 111.672 163.7 111.672 161.914C111.672 160.128 113.13 158.67 114.916 158.67H186.971C188.756 158.67 190.214 160.128 190.214 161.914C190.214 163.7 188.756 165.158 186.971 165.158Z" fill="white"/>
<path d="M190.214 161.914C190.214 163.7 188.756 165.157 186.971 165.157H166.433C167.69 164.611 168.565 163.372 168.565 161.914C168.565 160.456 168.164 160.055 167.526 159.417C167.217 159.107 166.834 158.852 166.415 158.67H186.952C188.738 158.67 190.196 160.128 190.196 161.914H190.214Z" fill="#C7DEF7"/>
<path d="M265.403 52.1549C265.093 48.5102 264.219 44.8838 262.797 41.5125C261.412 38.2506 259.572 35.1526 257.276 32.4556C254.998 29.7768 252.392 27.4077 249.403 25.4943C247.818 24.492 246.214 23.5626 244.501 22.7973C242.806 22.0319 241.021 21.4305 239.235 20.9385C235.718 19.9727 232.037 19.6082 228.392 19.7904C227.955 19.8086 227.517 19.8451 227.08 19.8815C226.478 19.9362 225.877 20.246 225.476 20.7016C225.112 21.1389 224.857 21.8314 224.929 22.4146C225.002 23.0159 225.257 23.6355 225.75 24.0182C226.242 24.4009 226.825 24.6196 227.462 24.5649C228.866 24.4373 230.287 24.4191 231.708 24.4738C231.508 24.4738 231.308 24.4738 231.107 24.4556C233.932 24.5831 236.738 25.0569 239.453 25.8952C239.253 25.8405 239.071 25.7676 238.87 25.713C241.057 26.3872 243.171 27.2984 245.175 28.41C245.74 28.7198 246.287 29.0478 246.834 29.3941C246.652 29.2847 246.488 29.1754 246.305 29.0478C248.255 30.287 250.059 31.7266 251.718 33.3303C252.191 33.7859 252.647 34.2597 253.084 34.7517C252.939 34.5877 252.793 34.4419 252.665 34.2779C254.196 35.9727 255.563 37.8132 256.711 39.7995C257.039 40.3645 257.349 40.9294 257.64 41.5125C257.549 41.3303 257.458 41.1481 257.367 40.9658C258.642 43.4989 259.608 46.1777 260.21 48.9476C260.173 48.7471 260.119 48.5649 260.082 48.3645C260.374 49.7494 260.592 51.1526 260.702 52.5558C260.756 53.1572 261.066 53.7585 261.522 54.1594C261.959 54.5239 262.652 54.779 263.235 54.7061C263.836 54.6333 264.456 54.3781 264.838 53.8861C265.221 53.3941 265.44 52.8109 265.385 52.1731L265.403 52.1549Z" fill="#FFD200"/>
<path d="M256.674 52.9025C256.547 51.4264 256.273 49.9503 255.909 48.5107C255.599 47.2897 255.198 46.087 254.706 44.9207C253.667 42.4606 252.301 40.1462 250.569 38.1234C248.857 36.1006 246.907 34.3148 244.683 32.8934C243.481 32.128 242.241 31.4173 240.929 30.8341C239.636 30.251 238.269 29.7954 236.902 29.4309C234.26 28.702 231.508 28.4469 228.775 28.5744C228.446 28.5744 228.137 28.6109 227.809 28.6291C227.207 28.6838 226.606 28.9936 226.205 29.4492C225.841 29.8865 225.585 30.579 225.658 31.1621C225.731 31.7635 225.986 32.3831 226.478 32.7658C226.97 33.1485 227.554 33.3672 228.191 33.3125C229.23 33.2214 230.269 33.2032 231.308 33.2396C231.107 33.2396 230.907 33.2396 230.706 33.2214C232.784 33.3125 234.843 33.6587 236.847 34.2783C236.647 34.2237 236.465 34.1508 236.264 34.0961C237.868 34.5881 239.435 35.2624 240.911 36.0824C241.33 36.3193 241.731 36.5562 242.132 36.8114C241.95 36.702 241.786 36.5927 241.604 36.4651C243.025 37.3763 244.374 38.4332 245.576 39.6177C245.923 39.9457 246.251 40.292 246.579 40.6565C246.433 40.4924 246.287 40.3467 246.159 40.1826C247.289 41.4218 248.292 42.7886 249.13 44.2282C249.367 44.6473 249.604 45.0665 249.822 45.4856C249.731 45.3034 249.64 45.1211 249.549 44.9389C250.497 46.7977 251.189 48.7658 251.626 50.8068C251.59 50.6063 251.535 50.4241 251.499 50.2237C251.718 51.2442 251.863 52.2647 251.954 53.3034C252.009 53.9047 252.319 54.5061 252.774 54.907C253.212 55.2715 253.904 55.5266 254.487 55.4537C255.089 55.3808 255.708 55.1257 256.091 54.6337C256.474 54.1416 256.693 53.5585 256.638 52.9207L256.674 52.9025Z" fill="#FFD200"/>
<path d="M247.836 53.6679C247.745 52.6474 247.563 51.6451 247.308 50.661C247.107 49.8774 246.852 49.1121 246.542 48.3831C245.85 46.7613 244.957 45.2123 243.809 43.8638C242.661 42.5153 241.403 41.3125 239.909 40.3649C239.071 39.8364 238.232 39.3262 237.339 38.9253C236.446 38.5244 235.517 38.2146 234.569 37.9594C233.804 37.7408 233.021 37.595 232.219 37.5039C231.216 37.3945 230.196 37.3581 229.194 37.3945C228.993 37.3945 228.793 37.4127 228.574 37.431C228.264 37.431 227.973 37.5403 227.718 37.7043C227.426 37.8319 227.171 38.0141 226.97 38.2692C226.752 38.5061 226.606 38.7795 226.533 39.0893C226.424 39.3809 226.387 39.6724 226.424 39.9822C226.46 40.1827 226.515 40.3649 226.551 40.5654C226.697 40.9663 226.934 41.2943 227.244 41.5676C227.426 41.677 227.59 41.7863 227.772 41.9139C228.155 42.0779 228.538 42.1508 228.957 42.1143C229.613 42.0597 230.269 42.0415 230.943 42.0779C230.743 42.0779 230.542 42.0779 230.342 42.0597C231.672 42.1143 232.966 42.333 234.241 42.7339C234.041 42.6793 233.859 42.6064 233.658 42.5517C234.679 42.8615 235.663 43.2989 236.61 43.8091C236.866 43.9549 237.139 44.1189 237.394 44.2647C237.212 44.1553 237.048 44.046 236.866 43.9184C237.777 44.5016 238.615 45.1758 239.399 45.923C239.617 46.1417 239.836 46.3604 240.036 46.579C239.891 46.415 239.745 46.2692 239.617 46.1052C240.328 46.8888 240.966 47.7635 241.513 48.6747C241.658 48.9298 241.804 49.2032 241.95 49.4765C241.859 49.2943 241.768 49.1121 241.677 48.9298C242.278 50.1143 242.715 51.3717 243.007 52.6656C242.97 52.4651 242.916 52.2829 242.879 52.0825C243.025 52.7203 243.116 53.3763 243.171 54.0323C243.171 54.3421 243.28 54.6337 243.444 54.8888C243.572 55.1804 243.754 55.4355 244.009 55.636C244.246 55.8547 244.519 56.0004 244.829 56.0733C245.121 56.1827 245.412 56.2191 245.722 56.1827C245.923 56.1462 246.105 56.0916 246.305 56.0551C246.706 55.9093 247.034 55.6724 247.308 55.3626C247.417 55.1804 247.526 55.0164 247.654 54.8342C247.818 54.4515 247.891 54.0688 247.854 53.6496L247.836 53.6679Z" fill="#FFD200"/>
<path d="M235.773 54.6771C237.259 52.9681 237.078 50.3783 235.369 48.8926C233.66 47.407 231.07 47.5881 229.585 49.2971C228.099 51.0062 228.28 53.596 229.989 55.0816C231.698 56.5672 234.288 56.3861 235.773 54.6771Z" fill="#FFD200"/>
<path d="M68.556 91.7904L39.089 142.815C37.6676 145.276 39.4535 148.355 42.2963 148.355H101.212C104.055 148.355 105.841 145.276 104.419 142.815L74.9523 91.7904C73.5309 89.3303 69.9774 89.3303 68.556 91.7904Z" fill="#FFD200"/>
<g style="mix-blend-mode:multiply">
<path d="M101.212 148.356H42.2962C39.5263 148.356 37.7769 145.458 38.9796 143.016C39.9636 143.089 40.9477 143.126 41.95 143.126C61.6311 143.126 78.4693 129.422 85.4671 109.978L104.419 142.798C105.841 145.258 104.055 148.337 101.212 148.337V148.356Z" fill="#EAEAEA"/>
</g>
<path d="M71.7085 140.994C69.6675 140.994 68.2279 139.518 68.2279 137.349C68.2279 135.181 69.6493 133.705 71.7085 133.705C73.7495 133.705 75.2985 135.29 75.2985 137.349C75.2985 139.409 73.7678 140.994 71.7085 140.994ZM71.6357 102.379C73.1664 102.379 74.8794 102.725 74.9341 104.311C74.9341 104.875 74.8794 105.677 74.77 106.534C74.3691 110.926 73.2393 121.167 72.7837 127.946H70.5605C70.0502 121.167 69.0297 111.199 68.5741 106.588C68.5195 105.841 68.4101 104.821 68.4101 104.256C68.4101 102.78 70.0685 102.379 71.6539 102.379H71.6357Z" fill="#263238"/>
<path d="M66.9521 238.888C66.8063 237.648 66.4965 236.409 66.0591 235.17C65.8405 234.569 65.6036 233.985 65.312 233.402C64.0181 230.687 62.0318 228.026 59.4077 225.53C59.2072 225.348 59.0068 225.165 58.8245 224.983C59.6081 221.466 60.4099 218.095 61.1389 215.106C62.7425 208.564 63.9999 203.899 64.0181 203.826L62.1776 203.334C62.1594 203.407 61.0478 207.525 59.5717 213.466C58.8245 216.473 58.0045 219.935 57.1662 223.58C55.6355 222.341 54.3234 221.484 53.5762 221.029C53.1935 220.792 52.9749 220.664 52.9384 220.646L52.009 222.323C52.009 222.323 52.2277 222.45 52.574 222.651C53.3758 223.143 54.943 224.181 56.6924 225.694C56.4191 226.933 56.1457 228.172 55.8906 229.43C54.7425 234.86 53.9407 239.288 53.394 242.915C51.5352 255.27 52.7562 258.077 54.1958 258.951C54.5421 259.152 54.8883 259.261 55.2892 259.261C56.2004 259.261 57.2391 258.714 58.4054 257.603C63.4897 252.792 66.3689 247.872 66.9703 242.915C67.1343 241.585 67.1343 240.236 66.9703 238.906L66.9521 238.888ZM58.2596 255.033C57.8769 255.416 57.4942 255.799 57.0933 256.181C56.9658 256.309 56.8382 256.418 56.7106 256.528C55.8177 257.293 55.3257 257.366 55.1799 257.293C54.943 257.165 53.8496 256.072 54.6332 248.309C54.7972 246.705 55.0341 244.901 55.3257 242.897C55.8906 239.179 56.7106 234.806 57.7494 229.812C57.9316 228.919 58.132 228.045 58.3143 227.152C60.2824 229.047 62.2687 231.452 63.599 234.241C63.8724 234.824 64.1275 235.425 64.3279 236.045C64.6742 237.029 64.9111 238.049 65.0386 239.106C65.1844 240.364 65.1844 241.621 65.0022 242.878C64.4373 246.924 62.1776 250.988 58.2414 255.015L58.2596 255.033Z" fill="#2E5E12"/>
<path d="M56.8929 257.111C54.7244 250.441 54.8884 244.792 57.4214 240.327C60.9021 234.186 67.4989 232.619 67.7722 232.546L68.1914 234.405C68.1367 234.405 62.1048 235.881 59.0615 241.275C56.8201 245.247 56.6925 250.368 58.697 256.509L56.8747 257.111H56.8929Z" fill="#2E5E12"/>
<path d="M66.7153 233.475L67.4807 231.343C67.5536 231.124 67.5353 230.869 67.3896 230.687C66.3873 229.247 62.6333 222.887 71.4351 219.115C72.0183 218.86 72.6379 219.425 72.4192 220.045L70.4511 225.584C70.2871 226.04 70.6151 226.532 71.0889 226.569L72.0729 226.623C72.401 226.641 72.7107 226.441 72.8201 226.131L75.6082 218.277C75.6994 218.04 75.8998 217.858 76.1549 217.803C77.4488 217.53 81.6219 216.783 85.0843 217.457C85.631 217.566 85.8679 218.204 85.5217 218.641L80.9477 224.291C80.6561 224.655 80.7654 225.202 81.1846 225.42C81.4397 225.548 81.7495 225.512 81.9864 225.329L90.4055 218.441C90.5695 218.295 90.8064 218.241 91.0251 218.295C92.975 218.696 102.123 221.102 95.3987 230.086C95.2347 230.304 94.9431 230.414 94.6697 230.377L86.7609 228.919C86.3964 228.846 86.0502 229.065 85.9226 229.411V229.484C85.7768 229.885 85.9955 230.304 86.3964 230.414L93.0661 232.345C93.5399 232.491 93.7404 233.038 93.4852 233.457C92.4101 235.133 89.4761 238.705 84.2096 238.596C84.0456 238.596 83.8998 238.541 83.7723 238.432L75.9363 232.236C75.6811 232.036 75.3349 232.017 75.0798 232.199L74.8611 232.345C74.4602 232.6 74.4237 233.165 74.77 233.493L80.2916 238.632C80.7107 239.015 80.5467 239.707 80 239.871C78.1959 240.418 74.2779 240.619 68.9203 235.133C68.8474 235.061 68.7381 234.988 68.647 234.951L67.1709 234.423C66.7882 234.295 66.5877 233.858 66.7335 233.475H66.7153Z" fill="#2E5E12"/>
<path d="M59.59 214.14L59.4807 211.224C59.4807 210.842 59.2255 210.495 58.8793 210.35C55.1253 208.764 34.8429 199.106 54.5968 182.869C55.18 182.395 56.0547 182.705 56.2005 183.452L58.8246 197.229C58.934 197.757 59.4442 198.122 59.9727 198.013L60.8656 197.848C61.3941 197.739 61.7586 197.229 61.6492 196.7L58.3873 179.516C58.3326 179.206 58.4237 178.896 58.6242 178.678C60.0456 177.092 66.1868 170.751 76.7381 167.434C77.467 167.197 78.1777 167.853 77.9955 168.6L74.5513 183.416C74.4237 183.926 74.7335 184.454 75.2438 184.582C75.7176 184.71 76.2096 184.491 76.4101 184.035L84.4647 166.14C84.5741 165.885 84.7927 165.684 85.0661 165.612C88.0729 164.628 106.351 159.653 106.26 182.413C106.26 182.851 105.968 183.252 105.549 183.361L89.713 187.899C89.4032 187.99 89.1481 188.227 89.0388 188.536L88.8383 189.12C88.6014 189.83 89.2028 190.523 89.9317 190.413L104.456 188.117C105.039 188.026 105.585 188.464 105.604 189.065C105.677 191.817 105.021 199.069 97.0752 204.937C96.9112 205.065 96.6925 205.138 96.4738 205.138L74.6606 204.883C74.205 204.883 73.7859 205.192 73.6948 205.648L73.5308 206.304C73.385 206.905 73.8224 207.47 74.4237 207.507L91.0798 208.673C91.8451 208.728 92.2643 209.602 91.8269 210.222C89.7495 213.174 83.3531 219.279 67.262 215.416C67.2073 215.416 67.1344 215.397 67.0798 215.397L60.5194 215.106C60.0091 215.088 59.59 214.669 59.5718 214.158L59.59 214.14Z" fill="#579930"/>
<path d="M53.6856 221.521L53.1572 218.787C53.1025 218.496 53.1936 218.204 53.3941 218.004C54.8884 216.437 60.6287 209.402 50.6241 203.188C49.9499 202.769 49.1116 203.352 49.2574 204.118L50.6241 211.225C50.7335 211.808 50.2597 212.355 49.6583 212.3L48.4556 212.191C48.0546 212.154 47.7266 211.863 47.6537 211.462L45.7221 201.402C45.6674 201.093 45.4487 200.837 45.1571 200.728C43.6264 200.163 38.7061 198.487 34.369 198.651C33.6947 198.669 33.2756 199.416 33.6218 200.017L38.1412 207.726C38.4328 208.218 38.1959 208.856 37.6492 209.038C37.3029 209.147 36.9385 209.038 36.7016 208.783L27.754 198.851C27.5717 198.651 27.2984 198.541 27.025 198.56C24.5831 198.687 13.0114 199.908 19.5171 212.063C19.6811 212.373 20.0091 212.555 20.3371 212.537L30.2141 212.245C30.6697 212.245 31.0706 212.555 31.1435 213.011V213.102C31.2346 213.612 30.8884 214.086 30.3781 214.14L21.9043 215.252C21.3029 215.325 20.9385 215.963 21.1936 216.509C22.1959 218.751 25.0934 223.635 31.5079 224.473C31.7084 224.491 31.8906 224.473 32.0729 224.364L42.7335 218.295C43.0797 218.095 43.4988 218.15 43.7904 218.405L44.0273 218.623C44.4647 219.024 44.41 219.717 43.9362 220.045L36.2824 225.275C35.6993 225.676 35.7722 226.532 36.3918 226.842C38.4692 227.844 43.2255 228.81 50.7517 223.125C50.861 223.033 50.9886 222.979 51.1161 222.96L53.0114 222.596C53.5034 222.505 53.8314 222.031 53.7221 221.539L53.6856 221.521Z" fill="#3C7A1B"/>
<path d="M79.9635 246.067L78.3781 257.912C77.4305 265.019 71.3622 270.304 64.2004 270.304H54.9977C53.5216 270.304 52.082 270.086 50.7335 269.666C45.5398 268.045 41.5672 263.543 40.82 257.912L39.2346 246.067C39.0159 244.391 40.3098 242.896 42.0045 242.896H77.1754C78.8701 242.896 80.164 244.391 79.9453 246.067H79.9635Z" fill="#FF847D"/>
<path d="M56.5284 270.304H55.5808C54.0318 270.304 52.5557 269.976 51.189 269.393C46.9794 267.589 43.8086 263.252 43.189 257.912L41.804 246.067C41.6036 244.391 42.7516 242.896 44.2277 242.896H47.8724C46.7425 242.896 45.8678 244.391 46.0136 246.067L47.0705 257.912C47.5079 262.705 49.476 266.678 52.1913 268.755C53.5034 269.758 54.9794 270.322 56.5284 270.322V270.304Z" fill="#FBA4A4"/>
<path d="M79.9636 246.068L78.3782 257.913C77.4306 265.02 71.3622 270.305 64.2005 270.305H54.9978C53.5217 270.305 52.082 270.086 50.7335 269.667C50.8793 269.576 51.0251 269.485 51.1709 269.393C51.5171 269.175 51.8451 268.956 52.1914 268.756C66.041 259.699 71.5991 247.325 73.221 242.915H77.1754C78.8702 242.915 80.164 244.409 79.9454 246.086L79.9636 246.068Z" fill="#FC6262"/>
<path d="M179.137 206.231V207.603H174.596V206.231H179.137ZM175.17 199.071V207.603H173.412V199.071H175.17ZM178.545 202.546V203.882H174.596V202.546H178.545ZM179.131 199.071V200.448H174.596V199.071H179.131Z" fill="white"/>
<path d="M168.226 207.603H166.369L166.381 206.231H168.226C168.687 206.231 169.076 206.128 169.392 205.921C169.709 205.71 169.947 205.403 170.107 205.001C170.271 204.599 170.353 204.112 170.353 203.542V203.126C170.353 202.688 170.307 202.304 170.213 201.972C170.123 201.64 169.988 201.36 169.808 201.134C169.629 200.907 169.408 200.737 169.146 200.624C168.885 200.507 168.584 200.448 168.244 200.448H166.334V199.071H168.244C168.814 199.071 169.336 199.169 169.808 199.364C170.285 199.556 170.697 199.831 171.045 200.19C171.392 200.55 171.66 200.979 171.848 201.479C172.039 201.976 172.135 202.528 172.135 203.138V203.542C172.135 204.147 172.039 204.7 171.848 205.2C171.66 205.7 171.392 206.13 171.045 206.489C170.701 206.845 170.289 207.12 169.808 207.315C169.332 207.507 168.805 207.603 168.226 207.603ZM167.365 199.071V207.603H165.607V199.071H167.365Z" fill="white"/>
<path d="M161.014 200.53L158.693 207.603H156.824L159.994 199.071H161.183L161.014 200.53ZM162.941 207.603L160.615 200.53L160.428 199.071H161.629L164.816 207.603H162.941ZM162.836 204.427V205.804H158.33V204.427H162.836Z" fill="white"/>
<path d="M149.857 199.071H153.039C153.691 199.071 154.252 199.169 154.721 199.364C155.193 199.56 155.557 199.849 155.81 200.231C156.064 200.614 156.191 201.085 156.191 201.644C156.191 202.101 156.113 202.493 155.957 202.821C155.805 203.146 155.588 203.417 155.307 203.636C155.029 203.851 154.703 204.022 154.328 204.151L153.771 204.444H151.006L150.994 203.073H153.051C153.359 203.073 153.615 203.019 153.818 202.909C154.021 202.8 154.174 202.647 154.275 202.452C154.381 202.257 154.433 202.03 154.433 201.772C154.433 201.499 154.383 201.263 154.281 201.063C154.18 200.864 154.025 200.712 153.818 200.606C153.611 200.501 153.351 200.448 153.039 200.448H151.615V207.603H149.857V199.071ZM154.627 207.603L152.682 203.8L154.539 203.788L156.508 207.521V207.603H154.627Z" fill="white"/>
<path d="M148.439 203.144V206.524C148.307 206.685 148.101 206.858 147.824 207.046C147.547 207.229 147.189 207.388 146.752 207.521C146.314 207.653 145.785 207.72 145.164 207.72C144.613 207.72 144.111 207.63 143.658 207.45C143.205 207.267 142.814 206.999 142.486 206.647C142.162 206.296 141.912 205.866 141.736 205.358C141.56 204.847 141.473 204.263 141.473 203.606V203.073C141.473 202.417 141.557 201.833 141.724 201.321C141.896 200.81 142.141 200.378 142.457 200.026C142.773 199.675 143.15 199.407 143.588 199.224C144.025 199.04 144.512 198.948 145.047 198.948C145.789 198.948 146.398 199.069 146.875 199.312C147.351 199.55 147.715 199.882 147.965 200.308C148.219 200.729 148.375 201.214 148.433 201.761H146.728C146.685 201.472 146.603 201.22 146.482 201.005C146.361 200.79 146.187 200.622 145.961 200.501C145.738 200.38 145.449 200.319 145.094 200.319C144.801 200.319 144.539 200.38 144.308 200.501C144.082 200.618 143.891 200.792 143.734 201.022C143.578 201.253 143.459 201.538 143.377 201.878C143.295 202.218 143.254 202.612 143.254 203.062V203.606C143.254 204.052 143.297 204.446 143.383 204.79C143.469 205.13 143.596 205.417 143.764 205.651C143.935 205.882 144.146 206.056 144.396 206.173C144.646 206.29 144.937 206.349 145.269 206.349C145.547 206.349 145.777 206.325 145.961 206.278C146.148 206.231 146.299 206.175 146.412 206.108C146.529 206.038 146.619 205.972 146.682 205.909V204.397H145.076V203.144H148.439Z" fill="white"/>
<path d="M137.266 204.562H135.092V203.19H137.266C137.601 203.19 137.875 203.136 138.086 203.026C138.297 202.913 138.451 202.757 138.549 202.558C138.646 202.358 138.695 202.134 138.695 201.884C138.695 201.63 138.646 201.394 138.549 201.175C138.451 200.956 138.297 200.78 138.086 200.647C137.875 200.515 137.601 200.448 137.266 200.448H135.701V207.603H133.943V199.071H137.266C137.933 199.071 138.506 199.192 138.982 199.435C139.463 199.673 139.83 200.003 140.084 200.425C140.338 200.847 140.465 201.329 140.465 201.872C140.465 202.423 140.338 202.899 140.084 203.302C139.83 203.704 139.463 204.015 138.982 204.233C138.506 204.452 137.933 204.562 137.266 204.562Z" fill="white"/>
<path d="M130.744 199.071H132.496V204.708C132.496 205.364 132.355 205.917 132.074 206.366C131.797 206.815 131.412 207.153 130.92 207.38C130.432 207.606 129.869 207.72 129.232 207.72C128.596 207.72 128.029 207.606 127.533 207.38C127.041 207.153 126.654 206.815 126.373 206.366C126.096 205.917 125.957 205.364 125.957 204.708V199.071H127.715V204.708C127.715 205.091 127.775 205.403 127.896 205.646C128.017 205.888 128.191 206.065 128.418 206.179C128.648 206.292 128.92 206.349 129.232 206.349C129.553 206.349 129.824 206.292 130.047 206.179C130.273 206.065 130.445 205.888 130.562 205.646C130.683 205.403 130.744 205.091 130.744 204.708V199.071Z" fill="white"/>
<path d="M137.921 87.1475C137.22 87.1475 136.623 87.3921 136.134 87.8821C135.644 88.3719 135.399 88.9595 135.399 89.645V100.175C135.399 100.876 135.644 101.472 136.134 101.962C136.623 102.451 137.219 102.696 137.921 102.696C138.623 102.696 139.215 102.451 139.696 101.962C140.178 101.472 140.419 100.876 140.419 100.175V89.645C140.419 88.9592 140.174 88.3717 139.684 87.8821C139.195 87.3924 138.607 87.1475 137.921 87.1475Z" fill="#263238"/>
<path d="M141.399 103.921C141.399 104.672 141.66 105.309 142.183 105.831C142.705 106.353 143.341 106.614 144.093 106.614H145.905L145.929 112.173C145.929 112.875 146.174 113.47 146.664 113.96C147.153 114.45 147.741 114.695 148.427 114.695C149.129 114.695 149.725 114.45 150.214 113.96C150.704 113.47 150.949 112.875 150.949 112.173V106.614H154.328V112.173C154.328 112.875 154.573 113.47 155.062 113.96C155.552 114.45 156.148 114.695 156.85 114.695C157.552 114.695 158.147 114.45 158.637 113.96C159.126 113.47 159.371 112.875 159.371 112.173V106.614H161.208C161.942 106.614 162.571 106.354 163.093 105.831C163.615 105.309 163.877 104.672 163.877 103.921V87.6133H141.399V103.921Z" fill="#263238"/>
<path d="M158.196 77.6966L159.934 74.4888C160.049 74.2766 160.007 74.1134 159.812 73.9992C159.599 73.9012 159.436 73.9502 159.322 74.1462L157.559 77.3783C156.008 76.6927 154.368 76.3499 152.638 76.3499C150.907 76.3499 149.267 76.6927 147.716 77.3783L145.953 74.1463C145.839 73.9502 145.675 73.9013 145.463 73.9993C145.267 74.1135 145.227 74.2767 145.341 74.4889L147.079 77.6966C145.316 78.5943 143.913 79.8473 142.868 81.4552C141.823 83.0632 141.301 84.8222 141.301 86.7319H163.951C163.951 84.8222 163.428 83.0631 162.383 81.4552C161.338 79.8473 159.943 78.5942 158.196 77.6966ZM148.144 82.361C147.957 82.5489 147.732 82.6427 147.471 82.6427C147.21 82.6427 146.99 82.5489 146.81 82.361C146.631 82.1735 146.541 81.9489 146.541 81.6878C146.541 81.4265 146.631 81.202 146.81 81.0142C146.989 80.8264 147.21 80.7327 147.471 80.7327C147.732 80.7327 147.956 80.8263 148.144 81.0142C148.332 81.202 148.426 81.4265 148.426 81.6878C148.426 81.949 148.332 82.1732 148.144 82.361ZM158.466 82.361C158.286 82.5489 158.065 82.6427 157.804 82.6427C157.543 82.6427 157.319 82.5489 157.131 82.361C156.943 82.1735 156.85 81.9489 156.85 81.6878C156.85 81.4265 156.943 81.202 157.131 81.0142C157.319 80.8264 157.543 80.7327 157.804 80.7327C158.065 80.7327 158.286 80.8263 158.466 81.0142C158.645 81.202 158.735 81.4265 158.735 81.6878C158.735 81.949 158.645 82.1732 158.466 82.361Z" fill="#263238"/>
<path d="M169.141 87.8698C168.652 87.3883 168.056 87.1475 167.354 87.1475C166.668 87.1475 166.081 87.3883 165.591 87.8698C165.101 88.3514 164.856 88.9433 164.856 89.645V100.175C164.856 100.876 165.101 101.472 165.591 101.962C166.081 102.451 166.668 102.696 167.354 102.696C168.056 102.696 168.652 102.451 169.141 101.962C169.631 101.472 169.876 100.876 169.876 100.175V89.645C169.876 88.9432 169.631 88.3513 169.141 87.8698Z" fill="#263238"/>
</svg>
