<svg width="56" height="40" viewBox="0 0 56 40" fill="none" xmlns="http://www.w3.org/2000/svg">
<path d="M51.0996 0L51.3408 0.00585938C52.5436 0.0672067 53.6845 0.585837 54.54 1.46484C55.4527 2.40252 55.9658 3.67392 55.9658 5C55.9658 37.3625 56.2212 35.85 55.333 37.5C54.9043 38.2629 54.2873 38.896 53.5439 39.335C52.8005 39.7739 51.9571 40.0034 51.0996 40H4.86621C3.57566 39.9999 2.33835 39.4727 1.42578 38.5352C0.513123 37.5975 7.41573e-06 36.3261 0 35V5C0 3.67392 0.513117 2.40252 1.42578 1.46484C2.1942 0.675367 3.19286 0.177803 4.25977 0.0400391C4.26697 0.0267828 4.27487 0.0136692 4.28223 0H51.0996Z" fill="#FFDE76"/>
<path d="M55.9658 15H0V7.5H55.9658V15Z" fill="#425B72"/>
<path d="M29.2002 26.25H4.86719V21.25H29.2002V26.25Z" fill="#EFB343"/>
<path d="M49.8831 36.25H45.0165C44.6938 36.25 44.3843 36.1183 44.1562 35.8839C43.928 35.6495 43.7998 35.3315 43.7998 35C43.7998 34.6685 43.928 34.3505 44.1562 34.1161C44.3843 33.8817 44.6938 33.75 45.0165 33.75H49.8831C50.2057 33.75 50.5152 33.8817 50.7434 34.1161C50.9715 34.3505 51.0997 34.6685 51.0997 35C51.0997 35.3315 50.9715 35.6495 50.7434 35.8839C50.5152 36.1183 50.2057 36.25 49.8831 36.25Z" fill="#EFB343"/>
<path d="M40.1501 36.25H35.2835C34.9609 36.25 34.6514 36.1183 34.4232 35.8839C34.1951 35.6495 34.0669 35.3315 34.0669 35C34.0669 34.6685 34.1951 34.3505 34.4232 34.1161C34.6514 33.8817 34.9609 33.75 35.2835 33.75H40.1501C40.4728 33.75 40.7823 33.8817 41.0104 34.1161C41.2386 34.3505 41.3668 34.6685 41.3668 35C41.3668 35.3315 41.2386 35.6495 41.0104 35.8839C40.7823 36.1183 40.4728 36.25 40.1501 36.25Z" fill="#EFB343"/>
<path d="M30.4167 36.25H25.5501C25.2275 36.25 24.918 36.1183 24.6898 35.8839C24.4617 35.6495 24.3335 35.3315 24.3335 35C24.3335 34.6685 24.4617 34.3505 24.6898 34.1161C24.918 33.8817 25.2275 33.75 25.5501 33.75H30.4167C30.7394 33.75 31.0489 33.8817 31.2771 34.1161C31.5052 34.3505 31.6334 34.6685 31.6334 35C31.6334 35.3315 31.5052 35.6495 31.2771 35.8839C31.0489 36.1183 30.7394 36.25 30.4167 36.25Z" fill="#EFB343"/>
<path d="M20.6833 36.25H15.8167C15.4941 36.25 15.1846 36.1183 14.9564 35.8839C14.7283 35.6495 14.6001 35.3315 14.6001 35C14.6001 34.6685 14.7283 34.3505 14.9564 34.1161C15.1846 33.8817 15.4941 33.75 15.8167 33.75H20.6833C21.006 33.75 21.3155 33.8817 21.5437 34.1161C21.7718 34.3505 21.9 34.6685 21.9 35C21.9 35.3315 21.7718 35.6495 21.5437 35.8839C21.3155 36.1183 21.006 36.25 20.6833 36.25Z" fill="#EFB343"/>
<path d="M10.9504 36.25H6.08384C5.76116 36.25 5.4517 36.1183 5.22354 35.8839C4.99537 35.6495 4.86719 35.3315 4.86719 35C4.86719 34.6685 4.99537 34.3505 5.22354 34.1161C5.4517 33.8817 5.76116 33.75 6.08384 33.75H10.9504C11.2731 33.75 11.5826 33.8817 11.8107 34.1161C12.0389 34.3505 12.1671 34.6685 12.1671 35C12.1671 35.3315 12.0389 35.6495 11.8107 35.8839C11.5826 36.1183 11.2731 36.25 10.9504 36.25Z" fill="#EFB343"/>
</svg>
