<svg width="74" height="45" viewBox="0 0 74 45" fill="none" xmlns="http://www.w3.org/2000/svg">
<path d="M57.7769 43.1155C65.8772 43.1155 72.4436 36.5491 72.4436 28.4489C72.4436 20.3486 65.8772 13.7822 57.7769 13.7822C56.6448 13.7807 55.5173 13.912 54.4158 14.1733C51.2548 4.55439 40.8934 -0.679776 31.2745 2.4812C25.7409 4.29925 21.4005 8.63967 19.5825 14.1733C18.4809 13.912 17.3534 13.7807 16.2214 13.7822C8.12108 13.7822 1.55469 20.3486 1.55469 28.4489C1.55469 36.5491 8.12108 43.1155 16.2214 43.1155H57.7769Z" fill="#EF8885"/>
<path d="M46.5045 24.0428C46.9827 24.5195 47.7557 24.5195 48.2339 24.0428C48.7106 23.5646 48.7106 22.7915 48.2339 22.3133C42.025 16.1182 31.9738 16.1182 25.7649 22.3133C25.2867 22.79 25.2867 23.5646 25.7649 24.0428C26.2416 24.521 27.0161 24.521 27.4943 24.0428C32.7468 18.7995 41.2535 18.7995 46.5075 24.0428H46.5045Z" fill="#8A1E1B"/>
<path d="M32.6789 29.2265C32.2099 29.7124 32.2236 30.4854 32.7095 30.9545C33.1831 31.4113 33.9348 31.4113 34.4084 30.9545C35.8399 29.5229 38.1606 29.5229 39.5937 30.9545C40.0627 31.4403 40.8357 31.454 41.3216 30.985C41.8074 30.516 41.8211 29.7429 41.3521 29.2571C41.343 29.2464 41.3323 29.2372 41.3216 29.2265C38.9336 26.8447 35.0684 26.8447 32.6805 29.2265H32.6789Z" fill="#8A1E1B"/>
<path d="M44.7777 27.4986C45.2544 27.022 45.2544 26.2474 44.7777 25.7707C40.4801 21.4807 33.5195 21.4807 29.2219 25.7707C28.7529 26.2566 28.7666 27.0296 29.2524 27.4986C29.7261 27.9554 30.4777 27.9554 30.9513 27.4986C34.2941 24.162 39.7086 24.162 43.0513 27.4986C43.528 27.9753 44.3026 27.9753 44.7793 27.4986H44.7777Z" fill="#8A1E1B"/>
<path d="M57.7765 44.3379C66.549 44.3303 73.6577 37.2215 73.6654 28.449C73.6577 19.6765 66.549 12.5677 57.7765 12.5601C56.9163 12.5601 56.0593 12.6304 55.2098 12.7679C51.2743 2.71051 39.9305 -2.25171 29.8731 1.68232C24.7933 3.66996 20.7752 7.68801 18.7876 12.7679C17.9381 12.6304 17.0811 12.5616 16.2209 12.5601C7.44536 12.5601 0.332031 19.6734 0.332031 28.449C0.332031 37.2246 7.44536 44.3379 16.2209 44.3379H57.7765ZM16.2209 41.8934C8.79592 41.8934 2.77648 35.874 2.77648 28.449C2.77648 21.024 8.79592 15.0045 16.2209 15.0045C17.2583 15.0045 18.2911 15.1237 19.3009 15.359C19.9197 15.5118 20.5506 15.1589 20.7431 14.5523C23.6933 5.5751 33.3641 0.689261 42.3413 3.64093C47.5052 5.33829 51.5569 9.38843 53.2543 14.5539C53.4468 15.1604 54.0777 15.5133 54.6965 15.3605C55.7063 15.1252 56.7391 15.0061 57.7765 15.0061C65.2015 15.0061 71.2209 21.0255 71.2209 28.4505C71.2209 35.8755 65.2015 41.895 57.7765 41.895H16.2209V41.8934Z" fill="#8A1E1B"/>
</svg>
