<svg width="320" height="100" viewBox="0 0 320 100" fill="none" xmlns="http://www.w3.org/2000/svg">
<path d="M63.3333 79.1665L59.1667 75.8332V39.9998L54.1667 36.6665L50 28.3332L51.6667 19.9998L59.1667 14.1665V24.9998L63.3333 28.3332L66.6667 25.8332V14.1665L74.1667 19.1665L76.6667 27.4998L73.3333 34.9998L66.6667 39.1665V75.8332L63.3333 79.1665Z" fill="#F6F7F7"/>
<path d="M25.1641 26.1665H49.9139L53.5806 37.1664H25.1641V26.1665Z" fill="#EF8885"/>
<path d="M25.1641 45.4165H59.0805V56.4164H25.1641V45.4165Z" fill="#EF8885"/>
<path d="M25.1641 63.7498H59.0805V74.7497H25.1641V63.7498Z" fill="#EF8885"/>
<path d="M59.2441 13.3363C59.545 13.3156 59.8474 13.4012 60.0967 13.5833C60.4272 13.8274 60.623 14.2134 60.623 14.6253V24.9661L63.207 26.6898L65.79 24.9661V14.6253C65.7901 14.2133 65.9867 13.8274 66.3174 13.5833C66.6493 13.3406 67.0781 13.2709 67.4707 13.3949C73.2313 15.2058 77.415 20.5921 77.415 26.9495C77.4149 32.9685 73.6622 38.1209 68.373 40.1888V75.3656C68.373 78.2174 66.0588 80.5314 63.207 80.5316C60.6859 80.5316 58.5854 78.7231 58.1318 76.3333H45.29V84.0833H76.29C77.003 84.0834 77.5811 84.6624 77.5811 85.3753C77.5809 86.0881 77.0029 86.6663 76.29 86.6663H24.624C23.9111 86.6663 23.3322 86.0882 23.332 85.3753C23.332 84.6623 23.911 84.0833 24.624 84.0833H42.707V76.3333H27.207C25.0681 76.3333 23.332 74.5973 23.332 72.4583V66.3753C23.332 64.2363 25.0681 62.5003 27.207 62.5003H42.707V58.0833H27.207C25.0681 58.0833 23.332 56.3473 23.332 54.2083V47.2083C23.3322 45.0695 25.0682 43.3333 27.207 43.3333H42.707V38.9173H27.207C25.0681 38.9173 23.3321 37.1812 23.332 35.0423V28.0423C23.332 25.9033 25.0681 24.1673 27.207 24.1673H49.2734C50.2892 19.0589 54.0453 14.9346 58.9434 13.3949C59.0415 13.3639 59.1435 13.3427 59.2441 13.3363ZM58.04 16.5335C54.2143 18.4375 51.582 22.3888 51.582 26.9495C51.5822 30.8934 53.5516 34.3806 56.5586 36.4827C56.6439 36.5278 56.7232 36.5826 56.7959 36.6449C57.6919 37.2389 58.6742 37.7135 59.7207 38.0423C60.2592 38.2116 60.623 38.7097 60.623 39.2728V75.3656C60.6231 76.7915 61.7811 77.9486 63.207 77.9486C64.6328 77.9484 65.79 76.7914 65.79 75.3656V39.2728C65.79 38.7096 66.1547 38.2115 66.6934 38.0423C71.4076 36.5608 74.8318 32.1508 74.832 26.9495C74.832 22.3887 72.1989 18.4381 68.373 16.5355V25.6576C68.373 26.0888 68.1577 26.4928 67.7988 26.7318L63.9238 29.3158C63.49 29.605 62.9242 29.6048 62.4902 29.3158L58.6152 26.7318C58.2562 26.4928 58.0401 26.0889 58.04 25.6576V16.5335ZM27.207 65.0833C26.494 65.0833 25.915 65.6623 25.915 66.3753V72.4583C25.915 73.1713 26.494 73.7503 27.207 73.7503H58.04V65.0833H27.207ZM32.374 67.6673C33.0868 67.6675 33.6649 68.2456 33.665 68.9583C33.665 69.6712 33.0868 70.2501 32.374 70.2503H29.79C29.0772 70.2502 28.499 69.6712 28.499 68.9583C28.4991 68.2455 29.0772 67.6675 29.79 67.6673H32.374ZM38.832 67.6673C39.5449 67.6674 40.1239 68.2455 40.124 68.9583C40.124 69.6713 39.545 70.2502 38.832 70.2503H37.54C36.8271 70.2502 36.249 69.6713 36.249 68.9583C36.2491 68.2455 36.8272 67.6674 37.54 67.6673H38.832ZM54.332 67.6673C55.0448 67.6675 55.623 68.2455 55.623 68.9583C55.623 69.6712 55.0449 70.2502 54.332 70.2503H43.998C43.2853 70.2501 42.707 69.6712 42.707 68.9583C42.7071 68.2456 43.2853 67.6676 43.998 67.6673H54.332ZM45.29 58.0833V62.5003H58.04V58.0833H45.29ZM27.207 45.9173C26.4942 45.9173 25.9152 46.4955 25.915 47.2083V54.2083C25.915 54.9213 26.494 55.5003 27.207 55.5003H58.04V45.9173H27.207ZM32.374 49.4173C33.0867 49.4175 33.6649 49.9956 33.665 50.7083C33.665 51.4212 33.0868 52.0001 32.374 52.0003H29.79C29.0772 52.0002 28.499 51.4212 28.499 50.7083C28.4992 49.9956 29.0773 49.4175 29.79 49.4173H32.374ZM38.832 49.4173C39.5449 49.4174 40.1238 49.9955 40.124 50.7083C40.124 51.4213 39.545 52.0002 38.832 52.0003H37.54C36.8271 52.0002 36.249 51.4213 36.249 50.7083C36.2492 49.9956 36.8272 49.4174 37.54 49.4173H38.832ZM54.332 49.4173C55.0448 49.4175 55.6229 49.9956 55.623 50.7083C55.623 51.4212 55.0449 52.0002 54.332 52.0003H43.998C43.2853 52.0001 42.707 51.4212 42.707 50.7083C42.7072 49.9956 43.2854 49.4176 43.998 49.4173H54.332ZM45.29 38.9173V43.3333H58.04V40.1888C57.1651 39.8467 56.3335 39.4181 55.5527 38.9173H45.29ZM27.207 26.7503C26.494 26.7503 25.915 27.3293 25.915 28.0423V35.0423C25.9151 35.7552 26.4941 36.3333 27.207 36.3333H52.543C50.338 33.8293 48.9991 30.5444 48.999 26.9495C48.999 26.8832 49.002 26.8165 49.0029 26.7503H27.207ZM32.374 30.2503C33.0868 30.2505 33.665 30.8295 33.665 31.5423C33.6649 32.2551 33.0868 32.8331 32.374 32.8333H29.79C29.0772 32.8332 28.4991 32.2551 28.499 31.5423C28.499 30.8294 29.0772 30.2505 29.79 30.2503H32.374ZM38.832 30.2503C39.545 30.2504 40.124 30.8294 40.124 31.5423C40.1239 32.2552 39.5449 32.8333 38.832 32.8333H37.54C36.8272 32.8332 36.2491 32.2552 36.249 31.5423C36.249 30.8294 36.8271 30.2504 37.54 30.2503H38.832ZM47.707 30.2503C48.4199 30.2505 48.998 30.8294 48.998 31.5423C48.998 32.2552 48.4199 32.8332 47.707 32.8333H43.998C43.2853 32.8331 42.7071 32.2551 42.707 31.5423C42.707 30.8295 43.2853 30.2506 43.998 30.2503H47.707Z" fill="#8A1E1B"/>
<g clip-path="url(#clip0_4451_13456)">
<path d="M160 10C137.943 10 120 27.9431 120 50C120 72.0569 137.943 90 160 90C182.057 90 200 72.0569 200 50C200 27.9431 182.057 10 160 10Z" fill="#E3312C"/>
<path d="M174.731 60.0165C176.034 61.3202 176.034 63.4265 174.731 64.7303C174.081 65.3803 173.227 65.7068 172.374 65.7068C171.52 65.7068 170.667 65.3803 170.017 64.7303L160.001 54.7132L149.984 64.7303C149.334 65.3803 148.481 65.7068 147.627 65.7068C146.774 65.7068 145.92 65.3803 145.27 64.7303C143.967 63.4265 143.967 61.3202 145.27 60.0165L155.287 50L145.27 39.9836C143.967 38.6798 143.967 36.5735 145.27 35.2698C146.574 33.9667 148.68 33.9667 149.984 35.2698L160.001 45.2869L170.017 35.2698C171.321 33.9667 173.427 33.9667 174.731 35.2698C176.034 36.5735 176.034 38.6798 174.731 39.9836L164.714 50L174.731 60.0165Z" fill="#F6F7F7"/>
</g>
<rect x="250" y="21.6665" width="40" height="56.6667" fill="#F6F7F7"/>
<path d="M249.555 80.5555C249.555 83.2551 251.744 85.4444 254.444 85.4444H286.221C288.921 85.4444 291.11 83.2551 291.11 80.5555V78.1111H249.555V80.5555Z" fill="#EF8885"/>
<path d="M286.221 14.5554H254.444C251.744 14.5554 249.555 16.7447 249.555 19.4443V21.8888H291.11V19.4443C291.11 16.7447 288.921 14.5554 286.221 14.5554Z" fill="#EF8885"/>
<path d="M271.554 57.3333C271.554 58.0086 271.007 58.5555 270.332 58.5555C269.656 58.5555 269.109 58.0086 269.109 57.3333C269.109 56.658 269.656 56.1111 270.332 56.1111C271.007 56.1111 271.554 56.658 271.554 57.3333Z" fill="#EF8885"/>
<path d="M272.775 83.0001H267.886C267.211 83.0001 266.664 82.4532 266.664 81.7779C266.664 81.1026 267.211 80.5557 267.886 80.5557H272.775C273.45 80.5557 273.997 81.1026 273.997 81.7779C273.997 82.4532 273.45 83.0001 272.775 83.0001Z" fill="#8A1E1B"/>
<path d="M286.221 13.3333H254.443C251.07 13.3378 248.337 16.071 248.332 19.4444V80.5555C248.337 83.9288 251.07 86.662 254.443 86.6666H286.221C289.594 86.662 292.327 83.9288 292.332 80.5555V19.4444C292.327 16.071 289.594 13.3378 286.221 13.3333ZM250.776 23.111H289.888V76.8888H250.776V23.111ZM254.443 15.7777H286.221C288.245 15.7777 289.888 17.4201 289.888 19.4444V20.6666H250.776V19.4444C250.776 17.4201 252.419 15.7777 254.443 15.7777ZM286.221 84.2221H254.443C252.419 84.2221 250.776 82.5798 250.776 80.5555V79.3333H289.888V80.5555C289.888 82.5798 288.245 84.2221 286.221 84.2221Z" fill="#8A1E1B"/>
<path d="M265.441 19.4444H266.663C267.338 19.4444 267.885 18.8975 267.885 18.2222C267.885 17.5469 267.338 17 266.663 17H265.441C264.766 17 264.219 17.5469 264.219 18.2222C264.219 18.8975 264.766 19.4444 265.441 19.4444Z" fill="#8A1E1B"/>
<path d="M270.332 19.4444H275.22C275.896 19.4444 276.443 18.8975 276.443 18.2222C276.443 17.5469 275.896 17 275.22 17H270.332C269.656 17 269.109 17.5469 269.109 18.2222C269.109 18.8975 269.656 19.4444 270.332 19.4444Z" fill="#8A1E1B"/>
<path d="M270.334 40.2222C265.473 40.2146 260.81 42.1472 257.379 45.5908L259.104 47.3233C265.31 41.1159 275.372 41.1159 281.579 47.3233L283.304 45.5908C279.869 42.1457 275.2 40.213 270.336 40.2222H270.334Z" fill="#8A1E1B"/>
<path d="M264.281 52.5131L266.018 54.2334C267.161 53.0876 268.713 52.4444 270.333 52.4444C271.952 52.4444 273.503 53.0876 274.647 54.2334L276.384 52.5131C274.782 50.9044 272.605 50.0015 270.334 50.0015C268.064 50.0015 265.887 50.9044 264.284 52.5131H264.281Z" fill="#8A1E1B"/>
<path d="M260.826 49.0512L262.554 50.7791C266.848 46.4845 273.812 46.4845 278.106 50.7791L279.834 49.0512C274.586 43.7987 266.072 43.7987 260.824 49.0512H260.826Z" fill="#8A1E1B"/>
<path d="M272.776 57.3334C272.776 58.6839 271.682 59.7778 270.331 59.7778C268.981 59.7778 267.887 58.6839 267.887 57.3334C267.887 55.9828 268.981 54.8889 270.331 54.8889C271.682 54.8889 272.776 55.9828 272.776 57.3334Z" fill="#8A1E1B"/>
<defs>
<clipPath id="clip0_4451_13456">
<rect width="80" height="80" fill="white" transform="translate(120 10)"/>
</clipPath>
</defs>
</svg>
