<svg width="320" height="100" viewBox="0 0 320 100" fill="none" xmlns="http://www.w3.org/2000/svg">
<path d="M70.7769 71.1155C78.8772 71.1155 85.4436 64.5491 85.4436 56.4489C85.4436 48.3486 78.8772 41.7822 70.7769 41.7822C69.6448 41.7807 68.5173 41.912 67.4158 42.1733C64.2548 32.5544 53.8934 27.3202 44.2745 30.4812C38.7409 32.2993 34.4005 36.6397 32.5825 42.1733C31.4809 41.912 30.3534 41.7807 29.2214 41.7822C21.1211 41.7822 14.5547 48.3486 14.5547 56.4489C14.5547 64.5491 21.1211 71.1155 29.2214 71.1155H70.7769Z" fill="#EF8885"/>
<path d="M59.5045 52.0428C59.9827 52.5195 60.7557 52.5195 61.2339 52.0428C61.7106 51.5646 61.7106 50.7915 61.2339 50.3133C55.025 44.1182 44.9738 44.1182 38.7649 50.3133C38.2867 50.79 38.2867 51.5646 38.7649 52.0428C39.2416 52.521 40.0161 52.521 40.4943 52.0428C45.7468 46.7995 54.2535 46.7995 59.5075 52.0428H59.5045Z" fill="#8A1E1B"/>
<path d="M45.6789 57.2265C45.2099 57.7124 45.2236 58.4854 45.7095 58.9545C46.1831 59.4113 46.9348 59.4113 47.4084 58.9545C48.8399 57.5229 51.1606 57.5229 52.5937 58.9545C53.0627 59.4403 53.8357 59.454 54.3216 58.985C54.8074 58.516 54.8211 57.7429 54.3521 57.2571C54.343 57.2464 54.3323 57.2372 54.3216 57.2265C51.9336 54.8447 48.0684 54.8447 45.6805 57.2265H45.6789Z" fill="#8A1E1B"/>
<path d="M57.7777 55.4986C58.2544 55.022 58.2544 54.2474 57.7777 53.7707C53.4801 49.4807 46.5195 49.4807 42.2219 53.7707C41.7529 54.2566 41.7666 55.0296 42.2524 55.4986C42.7261 55.9554 43.4777 55.9554 43.9513 55.4986C47.2941 52.162 52.7086 52.162 56.0513 55.4986C56.528 55.9753 57.3026 55.9753 57.7793 55.4986H57.7777Z" fill="#8A1E1B"/>
<path d="M70.7765 72.3379C79.549 72.3303 86.6577 65.2215 86.6654 56.449C86.6577 47.6765 79.549 40.5677 70.7765 40.5601C69.9163 40.5601 69.0593 40.6304 68.2098 40.7679C64.2743 30.7105 52.9305 25.7483 42.8731 29.6823C37.7933 31.67 33.7752 35.688 31.7876 40.7679C30.9381 40.6304 30.0811 40.5616 29.2209 40.5601C20.4454 40.5601 13.332 47.6734 13.332 56.449C13.332 65.2246 20.4454 72.3379 29.2209 72.3379H70.7765ZM29.2209 69.8934C21.7959 69.8934 15.7765 63.874 15.7765 56.449C15.7765 49.024 21.7959 43.0045 29.2209 43.0045C30.2583 43.0045 31.2911 43.1237 32.3009 43.359C32.9197 43.5118 33.5506 43.1589 33.7431 42.5523C36.6933 33.5751 46.3641 28.6893 55.3413 31.6409C60.5052 33.3383 64.5569 37.3884 66.2543 42.5539C66.4468 43.1604 67.0777 43.5133 67.6965 43.3605C68.7063 43.1252 69.7391 43.0061 70.7765 43.0061C78.2015 43.0061 84.2209 49.0255 84.2209 56.4505C84.2209 63.8755 78.2015 69.895 70.7765 69.895H29.2209V69.8934Z" fill="#8A1E1B"/>
<g clip-path="url(#clip0_4451_13833)">
<path d="M160 10C137.943 10 120 27.9431 120 50C120 72.0569 137.943 90 160 90C182.057 90 200 72.0569 200 50C200 27.9431 182.057 10 160 10Z" fill="#E3312C"/>
<path d="M174.731 60.0165C176.034 61.3202 176.034 63.4265 174.731 64.7303C174.081 65.3803 173.227 65.7068 172.374 65.7068C171.52 65.7068 170.667 65.3803 170.017 64.7303L160.001 54.7132L149.984 64.7303C149.334 65.3803 148.481 65.7068 147.627 65.7068C146.774 65.7068 145.92 65.3803 145.27 64.7303C143.967 63.4265 143.967 61.3202 145.27 60.0165L155.287 50L145.27 39.9836C143.967 38.6798 143.967 36.5735 145.27 35.2698C146.574 33.9667 148.68 33.9667 149.984 35.2698L160.001 45.2869L170.017 35.2698C171.321 33.9667 173.427 33.9667 174.731 35.2698C176.034 36.5735 176.034 38.6798 174.731 39.9836L164.714 50L174.731 60.0165Z" fill="#FAFAFA"/>
</g>
<rect x="250" y="21.6665" width="40" height="56.6667" fill="#F6F7F7"/>
<path d="M249.555 80.5555C249.555 83.2551 251.744 85.4444 254.444 85.4444H286.221C288.921 85.4444 291.11 83.2551 291.11 80.5555V78.1111H249.555V80.5555Z" fill="#EF8885"/>
<path d="M286.221 14.5554H254.444C251.744 14.5554 249.555 16.7447 249.555 19.4443V21.8888H291.11V19.4443C291.11 16.7447 288.921 14.5554 286.221 14.5554Z" fill="#EF8885"/>
<path d="M271.554 57.3333C271.554 58.0086 271.007 58.5555 270.332 58.5555C269.656 58.5555 269.109 58.0086 269.109 57.3333C269.109 56.658 269.656 56.1111 270.332 56.1111C271.007 56.1111 271.554 56.658 271.554 57.3333Z" fill="#EF8885"/>
<path d="M272.775 83.0001H267.886C267.211 83.0001 266.664 82.4532 266.664 81.7779C266.664 81.1026 267.211 80.5557 267.886 80.5557H272.775C273.45 80.5557 273.997 81.1026 273.997 81.7779C273.997 82.4532 273.45 83.0001 272.775 83.0001Z" fill="#8A1E1B"/>
<path d="M286.221 13.3333H254.443C251.07 13.3378 248.337 16.071 248.332 19.4444V80.5555C248.337 83.9288 251.07 86.662 254.443 86.6666H286.221C289.594 86.662 292.327 83.9288 292.332 80.5555V19.4444C292.327 16.071 289.594 13.3378 286.221 13.3333ZM250.776 23.111H289.888V76.8888H250.776V23.111ZM254.443 15.7777H286.221C288.245 15.7777 289.888 17.4201 289.888 19.4444V20.6666H250.776V19.4444C250.776 17.4201 252.419 15.7777 254.443 15.7777ZM286.221 84.2221H254.443C252.419 84.2221 250.776 82.5798 250.776 80.5555V79.3333H289.888V80.5555C289.888 82.5798 288.245 84.2221 286.221 84.2221Z" fill="#8A1E1B"/>
<path d="M265.441 19.4444H266.663C267.338 19.4444 267.885 18.8975 267.885 18.2222C267.885 17.5469 267.338 17 266.663 17H265.441C264.766 17 264.219 17.5469 264.219 18.2222C264.219 18.8975 264.766 19.4444 265.441 19.4444Z" fill="#8A1E1B"/>
<path d="M270.332 19.4444H275.22C275.896 19.4444 276.443 18.8975 276.443 18.2222C276.443 17.5469 275.896 17 275.22 17H270.332C269.656 17 269.109 17.5469 269.109 18.2222C269.109 18.8975 269.656 19.4444 270.332 19.4444Z" fill="#8A1E1B"/>
<path d="M270.334 40.2222C265.473 40.2146 260.81 42.1472 257.379 45.5908L259.104 47.3233C265.31 41.1159 275.372 41.1159 281.579 47.3233L283.304 45.5908C279.869 42.1457 275.2 40.213 270.336 40.2222H270.334Z" fill="#8A1E1B"/>
<path d="M264.281 52.5131L266.018 54.2334C267.161 53.0876 268.713 52.4444 270.333 52.4444C271.952 52.4444 273.503 53.0876 274.647 54.2334L276.384 52.5131C274.782 50.9044 272.605 50.0015 270.334 50.0015C268.064 50.0015 265.887 50.9044 264.284 52.5131H264.281Z" fill="#8A1E1B"/>
<path d="M260.826 49.0512L262.554 50.7791C266.848 46.4845 273.812 46.4845 278.106 50.7791L279.834 49.0512C274.586 43.7987 266.072 43.7987 260.824 49.0512H260.826Z" fill="#8A1E1B"/>
<path d="M272.776 57.3334C272.776 58.6839 271.682 59.7778 270.331 59.7778C268.981 59.7778 267.887 58.6839 267.887 57.3334C267.887 55.9828 268.981 54.8889 270.331 54.8889C271.682 54.8889 272.776 55.9828 272.776 57.3334Z" fill="#8A1E1B"/>
<defs>
<clipPath id="clip0_4451_13833">
<rect width="80" height="80" fill="white" transform="translate(120 10)"/>
</clipPath>
</defs>
</svg>
