<svg width="77" height="76" viewBox="0 0 77 76" fill="none" xmlns="http://www.w3.org/2000/svg">
<mask id="mask0_3999_19178" style="mask-type:luminance" maskUnits="userSpaceOnUse" x="0" y="0" width="77" height="76">
<path d="M0.820068 37.7958C0.824768 47.8185 4.80833 57.4292 11.8954 64.5163C18.9825 71.6034 28.5933 75.5869 38.6159 75.5916C48.6385 75.5869 58.2493 71.6034 65.3364 64.5163C72.4234 57.4292 76.407 47.8185 76.4117 37.7958C76.4117 27.7717 72.4297 18.1582 65.3416 11.0701C58.2535 3.98205 48.64 0 38.6159 0C28.5918 0 18.9783 3.98205 11.8902 11.0701C4.80212 18.1582 0.820068 27.7717 0.820068 37.7958Z" fill="white"/>
</mask>
<g mask="url(#mask0_3999_19178)">
<path d="M0.447176 37.7608C0.449588 29.179 3.35746 20.8509 8.69721 14.1327C14.037 7.41454 21.494 2.70217 29.8538 0.76306C29.8538 0.76306 6.42427 55.763 5.32463 56.4192C2.11874 50.7237 0.438637 44.2966 0.447176 37.7608ZM64.0669 9.75531C70.4436 15.499 74.6878 23.2325 76.1081 31.6963C77.5284 40.1601 76.0411 48.8554 71.8885 56.366C71.8885 56.366 46.6854 2.14648 46.9337 0.90495C53.3144 2.33295 59.2168 5.38804 64.0669 9.77304M32.6384 0.230974C33.8844 0.0377682 35.1393 -0.0924627 36.3984 -0.159222C37.0547 -0.159222 29.1621 68.3734 27.9915 74.3328C21.8896 72.5913 16.322 69.3471 11.7983 64.8971C14.8844 58.2993 22.5465 31.1984 32.6384 0.284183M44.1669 0.000403762C42.9254 -0.159222 41.6838 -0.265639 40.4068 -0.318848C39.7506 -0.318848 48.8492 68.0719 50.1085 73.9603C56.16 72.1099 61.6492 68.7676 66.0711 64.2409C62.8963 57.7317 54.8086 30.7017 44.1669 0.000403762Z" fill="#E3312C"/>
</g>
</svg>
