<svg width="100" height="100" viewBox="0 0 100 100" fill="none" xmlns="http://www.w3.org/2000/svg">
<path d="M25.5 22V88.5L34 83.3038L42 88.5L50 83.3038L56.5 88.5L64.5 83.3038L73.5 88.5V22C73.5 16.4 67.5 13 64.5 12H35.5C29.1 12 26.1667 18.6667 25.5 22Z" fill="#EF8885"/>
<path d="M62.2521 11H36.7507C29.7208 11 24 16.7355 24 23.7834V87.1592C24 88.2132 24.578 89.1762 25.5131 89.6733C26.4311 90.1562 27.5787 90.0909 28.4316 89.5029L34.3989 85.4122L40.3662 89.5029C41.3381 90.1676 42.5962 90.1648 43.5681 89.5L49.5213 85.4122L55.4716 89.5C55.9589 89.8324 56.5171 90 57.0725 90C57.6335 90 58.1946 89.8324 58.6763 89.4972L64.6238 85.4122L70.5656 89.4972C71.4383 90.0937 72.5547 90.1619 73.4897 89.6676C74.422 89.1733 75 88.2103 75 87.1536V23.7834C75 16.7355 69.282 11 62.2521 11ZM72.1693 87.1592L65.4285 82.5231C64.9411 82.1908 64.3064 82.1908 63.8275 82.5231L57.0697 87.1592L50.3231 82.5231C49.8386 82.1936 49.2039 82.1936 48.7222 82.5231L41.9672 87.1621L35.2008 82.526C34.7191 82.1964 34.0816 82.1964 33.6027 82.526L26.8363 87.1621V23.7834C26.8363 18.3007 31.2849 13.8408 36.7535 13.8408H62.255C67.7236 13.8408 72.1722 18.3007 72.1722 23.7834L72.1693 87.1592ZM63.6689 24.3057C63.6689 25.0897 63.0342 25.726 62.2521 25.726H36.7507C35.9687 25.726 35.334 25.0897 35.334 24.3057C35.334 23.5216 35.9687 22.8853 36.7507 22.8853H62.2521C63.0342 22.8853 63.6689 23.5216 63.6689 24.3057ZM63.6689 32.8279C63.6689 33.612 63.0342 34.2483 62.2521 34.2483H36.7507C35.9687 34.2483 35.334 33.612 35.334 32.8279C35.334 32.0439 35.9687 31.4075 36.7507 31.4075H62.2521C63.0342 31.4075 63.6689 32.0439 63.6689 32.8279ZM55.1684 41.3502C55.1684 42.1342 54.5337 42.7705 53.7517 42.7705H36.7507C35.9687 42.7705 35.334 42.1342 35.334 41.3502C35.334 40.5661 35.9687 39.9298 36.7507 39.9298H53.7517C54.5337 39.9298 55.1684 40.5661 55.1684 41.3502Z" fill="#8A1E1B"/>
<path d="M62.2521 55.726C63.0342 55.726 63.6689 55.0897 63.6689 54.3056C63.6689 53.5216 63.0342 52.8853 62.2521 52.8853H36.7507C35.9687 52.8853 35.334 53.5216 35.334 54.3056C35.334 55.0897 35.9687 55.726 36.7507 55.726H62.2521Z" fill="#8A1E1B"/>
<path d="M62.2521 64.2483C63.0342 64.2483 63.6689 63.6119 63.6689 62.8279C63.6689 62.0438 63.0342 61.4075 62.2521 61.4075H36.7507C35.9687 61.4075 35.334 62.0438 35.334 62.8279C35.334 63.6119 35.9687 64.2483 36.7507 64.2483H62.2521Z" fill="#8A1E1B"/>
<path d="M53.7517 72.7705C54.5337 72.7705 55.1684 72.1342 55.1684 71.3502C55.1684 70.5661 54.5337 69.9298 53.7517 69.9298H36.7507C35.9687 69.9298 35.334 70.5661 35.334 71.3502C35.334 72.1342 35.9687 72.7705 36.7507 72.7705H53.7517Z" fill="#8A1E1B"/>
<path d="M84.2849 7.23053C85.8469 5.66843 88.3796 5.66843 89.9417 7.23053L92.7701 10.059C94.3322 11.6211 94.3322 14.1537 92.7701 15.7158L15.7163 92.7696C14.1542 94.3317 11.6216 94.3317 10.0595 92.7696L7.23104 89.9412C5.66894 88.3791 5.66894 85.8464 7.23104 84.2843L84.2849 7.23053Z" fill="#8A1E1B"/>
</svg>
