<svg width="26" height="18" viewBox="0 0 26 18" fill="none" xmlns="http://www.w3.org/2000/svg">
<g clip-path="url(#clip0_7006_390)">
<path d="M25.9071 9.21579C25.8632 9.40619 25.7464 9.5798 25.5678 9.69122C25.2103 9.91444 24.7395 9.80569 24.5162 9.44854C19.673 1.69697 9.42596 -0.668761 1.67441 4.17526C1.31688 4.39848 0.846025 4.28973 0.622807 3.93258C0.399589 3.57543 0.508336 3.10419 0.865483 2.88059C2.93778 1.58593 5.202 0.735413 7.59558 0.353081C9.90712 -0.0158963 12.2404 0.0649963 14.531 0.593851C16.8215 1.12271 18.9541 2.07281 20.87 3.41784C22.8537 4.81057 24.5159 6.5677 25.8109 8.63962C25.9227 8.81819 25.9513 9.02538 25.9074 9.21579H25.9071Z" fill="#FCEAEA"/>
<path d="M21.9853 11.6665C21.9415 11.8569 21.8251 12.0302 21.6461 12.142C21.2886 12.3652 20.8177 12.2564 20.5945 11.8993C18.9026 9.19169 16.2576 7.30521 13.1467 6.58709C10.0358 5.86898 6.83134 6.40509 4.12412 8.09696C3.76659 8.32018 3.29573 8.21143 3.07251 7.85429C2.8493 7.49714 2.95804 7.0259 3.31519 6.80268C4.85787 5.83846 6.54402 5.20543 8.32632 4.92078C10.0472 4.64605 11.7849 4.70634 13.4901 5.10012C15.1957 5.4939 16.7834 6.20133 18.2097 7.20257C19.6868 8.23967 20.9246 9.54769 21.8888 11.0908C22.0006 11.2693 22.0292 11.4765 21.9853 11.6669L21.9853 11.6665Z" fill="#FCEAEA"/>
<path d="M18.0651 14.1172C18.0212 14.3076 17.9048 14.4808 17.7259 14.5926C17.3683 14.8158 16.8975 14.7071 16.6743 14.3499C15.6368 12.6897 14.0151 11.5332 12.1076 11.0925C10.2002 10.6521 8.23549 10.9811 6.57529 12.0182C6.21776 12.2414 5.7469 12.1326 5.52368 11.7755C5.30047 11.418 5.40921 10.9471 5.76636 10.7239C7.77226 9.47043 10.146 9.07321 12.4507 9.60512C14.7553 10.137 16.7147 11.5347 17.9682 13.5406C18.08 13.7192 18.1086 13.9264 18.0647 14.1168L18.0651 14.1172Z" fill="#FCEAEA"/>
<path d="M14.1396 16.5679C14.0957 16.7583 13.9793 16.9315 13.8003 17.0433C13.4428 17.2665 12.972 17.1578 12.7487 16.8006C12.366 16.1878 11.7673 15.7608 11.0633 15.5983C10.3594 15.4357 9.63437 15.5571 9.02158 15.9398C8.66405 16.163 8.19319 16.0543 7.96997 15.6971C7.74675 15.3396 7.8555 14.8687 8.21265 14.6455C9.17115 14.0465 10.3056 13.8568 11.4068 14.1109C12.508 14.3651 13.4443 15.0332 14.043 15.9913C14.1548 16.1699 14.1834 16.3771 14.1396 16.5675L14.1396 16.5679Z" fill="#FCEAEA"/>
</g>
<defs>
<clipPath id="clip0_7006_390">
<rect width="25.4202" height="17.0333" fill="white" transform="matrix(1 0 1.04094e-06 1 0.506836 0.125977)"/>
</clipPath>
</defs>
</svg>
