<svg width="342" height="442" viewBox="0 0 342 442" fill="none" xmlns="http://www.w3.org/2000/svg">
<path d="M260.76 134.566C260.76 134.566 279.03 111.244 292.318 107.483C305.607 103.734 334.621 115.525 334.739 122.302C334.846 128.227 325.604 130.651 306.257 126.476C300.471 125.235 294.436 127.115 290.413 131.455C282.84 139.651 274.995 148.639 274.995 148.639" fill="#F69A88"/>
<path d="M265.281 147.586C265.281 147.586 283.551 124.265 296.839 120.504C310.127 116.755 339.141 128.546 339.26 135.322C339.366 141.247 330.125 143.672 310.778 139.497C304.992 138.255 298.957 140.136 294.934 144.476C287.361 152.671 279.516 161.659 279.516 161.659" fill="#F69A88"/>
<path d="M264.097 160.134C264.097 160.134 282.367 136.812 295.655 133.052C308.944 129.303 337.958 141.094 338.076 147.87C338.182 153.795 328.941 156.219 309.583 152.045C303.796 150.803 297.762 152.683 293.738 157.024C286.165 165.219 278.32 174.207 278.32 174.207" fill="#F69A88"/>
<path d="M260.76 169.205C260.76 169.205 279.03 145.883 292.318 142.122C305.607 138.373 334.621 150.164 334.739 156.941C334.846 162.866 325.604 165.29 306.257 161.116C300.471 159.874 294.436 161.754 290.413 166.094C282.84 174.29 274.995 183.278 274.995 183.278" fill="#F69A88"/>
<path d="M157.84 225.971L21.4663 296.723L1.46631 404.386L199.325 259.061L157.84 225.971Z" fill="#FDAB95"/>
<path d="M338.575 197.366L296.922 14.1264C295.157 6.36238 287.429 1.49833 279.66 3.26228L193.87 22.7428C186.101 24.5068 181.235 32.2308 183 39.9948L224.653 223.234C226.418 230.998 234.146 235.862 241.915 234.098L327.705 214.618C335.474 212.854 340.34 205.13 338.575 197.366Z" fill="#242B38"/>
<path d="M331.63 198.943L289.976 15.7034C289.083 11.7736 285.171 9.31167 281.239 10.2045L195.449 29.685C191.517 30.5779 189.054 34.4874 189.947 38.4172L231.601 221.657C232.494 225.586 236.406 228.048 240.337 227.156L326.128 207.675C330.06 206.782 332.523 202.873 331.63 198.943Z" fill="#E3E3E5"/>
<path d="M266.347 21.9316L213.927 33.8289C212.188 34.2192 210.401 33.4859 209.443 31.984L206.283 27.0287L270.311 12.4941L269.601 18.3245C269.388 20.0867 268.086 21.5295 266.347 21.9198V21.9316Z" fill="#242B38"/>
<path d="M244.255 20.5948L233.274 23.0902C232.706 23.2203 232.15 22.8655 232.02 22.2978C231.889 21.7301 232.244 21.1743 232.812 21.0442L243.793 18.5488C244.361 18.4188 244.917 18.7735 245.048 19.3412C245.178 19.9089 244.823 20.4647 244.255 20.5948Z" fill="#E3E3E5"/>
<path d="M253.815 17.3429C253.993 18.1234 253.508 18.8921 252.727 19.0695C251.946 19.2469 251.176 18.762 250.999 17.9815C250.822 17.2009 251.307 16.4322 252.088 16.2548C252.869 16.0774 253.638 16.5623 253.815 17.3429Z" fill="#E3E3E5"/>
<path d="M278.936 147.574C271.055 149.94 234.492 168.223 225.037 164.332C217.382 161.175 208.673 153.984 202.886 127.588C202.886 127.588 191.823 136.943 183.552 151.915C175.269 166.887 157.839 225.971 157.839 225.971L199.325 259.062C209.962 247.637 227.179 221.336 235.687 198.227C243.177 177.897 280.249 168.767 288.497 160.288C298.235 150.283 286.828 145.209 278.948 147.574H278.936Z" fill="#FDAB95"/>
<path d="M195.229 274.605L180.986 286.14L178.849 287.869L174.21 291.636L172.058 293.386L19.8393 416.69L2.34555 399.369L19.9753 294.162L127.095 238.366L129.448 237.141L135.01 234.236L137.363 233.012L151.427 225.692L195.229 274.605Z" fill="#8A1E1B"/>
</svg>
