<svg width="101" height="138" viewBox="0 0 101 138" fill="none" xmlns="http://www.w3.org/2000/svg">
<path d="M65.1223 61.7773C65.1223 61.7773 73.4364 51.5091 79.3887 49.9275C85.341 48.3512 98.1941 53.8171 98.1982 56.8397C98.2032 59.4825 94.0649 60.4972 85.468 58.4968C82.8968 57.9016 80.1923 58.6967 78.3672 60.6032C74.9315 64.2034 71.3687 68.155 71.3687 68.155" fill="#F69A88"/>
<path d="M67.0461 67.6165C67.0461 67.6165 75.3602 57.3482 81.3126 55.7666C87.2648 54.1903 100.118 59.6562 100.122 62.6788C100.127 65.3216 95.9888 66.3363 87.3918 64.3359C84.8206 63.7407 82.1161 64.5358 80.291 66.4423C76.8553 70.0425 73.2926 73.9941 73.2926 73.9941" fill="#F69A88"/>
<path d="M66.4308 73.2024C66.4308 73.2024 74.745 62.9341 80.6973 61.3525C86.6496 59.7762 99.5027 65.2421 99.5068 68.2647C99.5118 70.9075 95.3735 71.9222 86.7713 69.9218C84.2001 69.3265 81.4956 70.1217 79.6705 72.0282C76.2348 75.6284 72.6721 79.58 72.6721 79.58" fill="#F69A88"/>
<path d="M64.8742 77.2239C64.8742 77.2239 73.1883 66.9556 79.1407 65.374C85.093 63.7977 97.946 69.2636 97.9502 72.2862C97.9551 74.929 93.8169 75.9437 85.22 73.9433C82.6487 73.3481 79.9443 74.1433 78.1191 76.0498C74.6834 79.65 71.1207 83.6015 71.1207 83.6015" fill="#F69A88"/>
<path d="M99.565 87.9887L80.9886 6.26948C80.2015 2.80694 76.755 0.637722 73.2906 1.42439L35.0306 10.1121C31.5662 10.8988 29.3958 14.3435 30.1829 17.806L48.7592 99.5253C49.5463 102.988 52.9929 105.157 56.4573 104.37L94.7173 95.6826C98.1817 94.8959 100.352 91.4513 99.565 87.9887Z" fill="#1E3358"/>
<path d="M96.4661 88.6921L77.8898 6.97287C77.4914 5.2203 75.7469 4.12234 73.9934 4.52052L35.7335 13.2083C33.9799 13.6064 32.8814 15.35 33.2798 17.1025L51.8561 98.8218C52.2545 100.574 53.999 101.672 55.7525 101.274L94.0125 92.5864C95.766 92.1882 96.8645 90.4447 96.4661 88.6921Z" fill="#FCEAEA"/>
<path d="M67.3513 9.75032L43.9739 15.0562C43.1982 15.2302 42.4014 14.9032 41.9739 14.2334L40.5649 12.0235L69.1192 5.5415L68.8025 8.14169C68.7075 8.92754 68.1271 9.57099 67.3513 9.74504L67.3513 9.75032Z" fill="#1E3358"/>
<path d="M57.5012 9.15367L52.6041 10.2665C52.3508 10.3245 52.1028 10.1663 52.0447 9.91315C51.9867 9.65999 52.145 9.41211 52.3983 9.35409L57.2954 8.24123C57.5487 8.18322 57.7967 8.34144 57.8548 8.5946C57.9128 8.84776 57.7545 9.09565 57.5012 9.15367Z" fill="#212121"/>
<path d="M61.7635 7.70368C61.8426 8.05178 61.6263 8.3946 61.278 8.47372C60.9297 8.55283 60.5867 8.33659 60.5075 7.98849C60.4284 7.64039 60.6447 7.29757 60.993 7.21846C61.3413 7.13935 61.6843 7.35559 61.7635 7.70368Z" fill="#212121"/>
<path d="M18.5722 101.799L7.89396 106.821L18.5296 128.592L36.8337 116.852L18.5722 101.799Z" fill="#FDAB95"/>
<path d="M73.1344 67.7089C69.6033 68.707 53.1681 76.5975 48.9802 74.7946C45.589 73.3316 41.7572 70.0628 39.3665 58.2508C39.3665 58.2508 34.3659 62.3428 30.5703 68.9597C26.7694 75.5765 18.5732 101.798 18.5732 101.798L36.8348 116.851C41.6602 111.833 49.5261 100.228 53.4857 89.9849C56.9715 80.9735 73.568 77.1684 77.3065 73.4465C81.7207 69.055 76.6707 66.7108 73.1396 67.709L73.1344 67.7089Z" fill="#FDAB95"/>
<rect width="35.3684" height="16.2503" rx="3.2" transform="matrix(0.497262 0.867601 -0.867599 0.497263 14.0991 98.5063)" fill="#8A1E1B"/>
</svg>
