<svg width="138" height="85" viewBox="0 0 138 85" fill="none" xmlns="http://www.w3.org/2000/svg">
<path d="M76.5053 16.5956C76.5053 16.5956 64.1725 21.3505 60.8401 26.5264C57.5077 31.7024 58.7652 45.6102 61.6446 46.5411C64.1604 47.3548 66.3958 43.732 67.1338 34.9404C67.353 32.3097 68.9459 29.98 71.3234 28.8349C75.8076 26.6689 80.6658 24.4953 80.6658 24.4953" fill="#F69A88"/>
<path d="M81.1284 19.5519C81.1284 19.5519 68.7956 24.3068 65.4632 29.4827C62.1307 34.6587 63.3882 48.5665 66.2677 49.4974C68.7835 50.3111 71.0189 46.6883 71.7569 37.8967C71.976 35.266 73.569 32.9363 75.9464 31.7912C80.4306 29.6252 85.2889 27.4516 85.2889 27.4516" fill="#F69A88"/>
<path d="M86.7822 22.0004C86.7822 22.0004 74.4494 26.7553 71.117 31.9312C67.7845 37.1072 69.042 51.015 71.9215 51.9459C74.4373 52.7596 76.6727 49.1368 77.4107 40.3452C77.6298 37.7145 79.2228 35.3848 81.6002 34.2397C86.0845 32.0737 90.9427 29.9001 90.9427 29.9001" fill="#F69A88"/>
<path d="M117.635 47.6474L131.801 53.8187L118.896 75.8045L104.453 67.2975L117.635 47.6474Z" fill="#FDAB95"/>
<path d="M57.5883 22.6772L4.11345 35.0162C1.84165 35.5404 0.425182 37.806 0.94967 40.0766L8.54703 72.9663C9.07152 75.2369 11.3384 76.6526 13.6101 76.1284L67.085 63.7894C69.3568 63.2652 70.7733 60.9996 70.2488 58.7291L62.6514 25.8393C62.1269 23.5687 59.8601 22.153 57.5883 22.6772Z" fill="#E3312C"/>
<rect width="35.3684" height="16.2503" rx="3.2" transform="matrix(0.464806 -0.885412 0.885412 0.464808 106.948 77.0093)" fill="#8A1E1B"/>
<path d="M55.5946 30.6086C59.2636 30.5539 78.1688 33.7818 78.017 29.2272C77.8637 24.6675 61.4683 24.7003 53.2445 24.3543C45.0207 24.0084 42.1064 18.2977 50.7525 16.4799C59.4001 14.667 91.1982 14.3679 96.7346 19.6193C102.271 24.8707 117.632 47.6473 117.632 47.6473L104.446 67.2991C98.3853 63.873 87.5259 55.0065 80.7991 46.3258C74.8789 38.6898 57.8878 39.7962 53.2401 37.3006C47.7532 34.357 51.9206 30.6649 55.5896 30.6102L55.5946 30.6086Z" fill="#FDAB95"/>
</svg>
