<svg width="387" height="400" viewBox="0 0 387 400" fill="none" xmlns="http://www.w3.org/2000/svg">
<path d="M183.427 65.6895C183.427 65.6895 153.845 67.5107 143.219 76.3214C132.593 85.132 125.872 115.715 131.398 119.653C136.226 123.095 143.455 116.862 150.981 98.5667C153.229 93.0911 158.211 89.1884 164.068 88.3488C175.12 86.7522 186.977 85.3922 186.977 85.3922" fill="#F69A88"/>
<path d="M191.306 75.1392C191.306 75.1392 161.724 76.9604 151.098 85.7711C140.472 94.5817 133.751 125.165 139.277 129.103C144.105 132.544 151.335 126.312 158.861 108.016C161.109 102.541 166.09 98.6381 171.948 97.7985C182.999 96.2019 194.856 94.8419 194.856 94.8419" fill="#F69A88"/>
<path d="M201.743 84.1973C201.743 84.1973 172.161 86.0185 161.535 94.8292C150.909 103.64 144.188 134.223 149.714 138.161C154.542 141.602 161.772 135.37 169.298 117.075C171.546 111.599 176.527 107.696 182.385 106.857C193.437 105.26 205.293 103.9 205.293 103.9" fill="#F69A88"/>
<path d="M250.341 159.898L386.726 290.651V388.313L208.867 192.989L250.341 159.898Z" fill="#FDAB95"/>
<path d="M215.352 210.042L227.492 223.772L229.314 225.83L233.266 230.312L235.101 232.394L383.058 399.761L384.963 364.967V258.294L288.538 185.561L286.419 183.965L281.414 180.18L279.296 178.584L266.635 169.04L215.352 210.042Z" fill="#8A1E1B"/>
<path d="M129.736 2.32661L9.8291 29.9943C4.73503 31.1697 1.55885 36.2499 2.73491 41.3412L19.7705 115.09C20.9465 120.181 26.0295 123.356 31.1235 122.18L151.031 94.5127C156.125 93.3372 159.301 88.2571 158.125 83.1658L141.089 9.41693C139.913 4.32563 134.83 1.15119 129.736 2.32661Z" fill="#E3312C"/>
<path d="M129.243 81.5012C137.124 83.8665 175.356 103.557 178.113 93.7179C180.87 83.8665 145.797 72.8443 128.45 66.5409C111.103 60.2374 108.737 46.0576 128.45 48.0208C148.164 49.9958 216.345 70.8693 224.627 85.8415C232.91 100.814 250.34 159.898 250.34 159.898L208.854 192.988C198.217 181.564 181 155.262 172.492 132.154C165.002 111.824 127.93 102.694 119.682 94.2146C109.944 84.2095 121.351 79.136 129.231 81.5012H129.243Z" fill="#FDAB95"/>
</svg>
