<svg width="58" height="33" viewBox="0 0 58 33" fill="none" xmlns="http://www.w3.org/2000/svg">
<path d="M57.1426 20.5804C57.0442 21.0073 56.7824 21.3966 56.382 21.6464C55.5803 22.147 54.5245 21.9031 54.024 21.1023C43.1639 3.72088 20.1869 -1.5838 2.80555 9.27797C2.00386 9.77849 0.948057 9.53464 0.447534 8.73381C-0.0529885 7.93297 0.190856 6.87631 0.991692 6.37494C5.63842 3.4719 10.7155 1.56478 16.0827 0.707479C21.2659 -0.11988 26.4978 0.061506 31.6339 1.24736C36.7701 2.43321 41.552 4.56364 45.8479 7.57961C50.2962 10.7025 54.0231 14.6425 56.927 19.2884C57.1777 19.6888 57.2419 20.1534 57.1435 20.5804H57.1426Z" fill="#FCEAEA"/>
<path d="M48.3501 26.0764C48.2517 26.5034 47.9907 26.8918 47.5894 27.1425C46.7877 27.643 45.7319 27.3992 45.2314 26.5984C41.4377 20.5271 35.5067 16.297 28.5311 14.6868C21.5554 13.0766 14.3701 14.2787 8.29969 18.0724C7.498 18.5729 6.4422 18.329 5.94167 17.5282C5.44115 16.7274 5.685 15.6707 6.48583 15.1702C9.945 13.0081 13.7259 11.5887 17.7224 10.9504C21.5811 10.3344 25.4775 10.4696 29.3011 11.3525C33.1256 12.2355 36.6857 13.8218 39.8839 16.0669C43.196 18.3924 45.9715 21.3253 48.1336 24.7854C48.3843 25.1858 48.4484 25.6504 48.3501 26.0773V26.0764Z" fill="#FCEAEA"/>
<path d="M39.5614 31.5719C39.463 31.9988 39.202 32.3873 38.8008 32.6379C37.9991 33.1385 36.9433 32.8946 36.4427 32.0938C34.1164 28.3711 30.4801 25.7778 26.203 24.7896C21.9259 23.8022 17.5204 24.5397 13.7977 26.8653C12.996 27.3658 11.9402 27.1219 11.4397 26.3211C10.9392 25.5194 11.183 24.4636 11.9839 23.9631C16.4817 21.1525 21.8044 20.2618 26.9722 21.4545C32.14 22.6472 36.5334 25.7812 39.3441 30.2791C39.5948 30.6795 39.6589 31.1441 39.5605 31.571L39.5614 31.5719Z" fill="#FCEAEA"/>
</svg>
