<svg width="88" height="89" viewBox="0 0 88 89" fill="none" xmlns="http://www.w3.org/2000/svg">
<g clip-path="url(#clip0_7741_13102)">
<path d="M48.5729 69.7932C49.2809 76.2466 53.1853 81.9312 58.9508 84.9049C57.8179 86.2604 56.1591 87.0493 54.3991 87.0493H6.91954C3.6423 87.0493 0.992188 84.3992 0.992188 81.122V42.5436C0.992188 39.2663 3.6423 36.6162 6.91954 36.6162H54.3991C57.6763 36.6162 60.3264 39.2663 60.3264 42.5436V49.9679C52.4368 53.2452 47.6423 61.3169 48.5527 69.8134L48.5729 69.7932Z" fill="#F6F7F7"/>
<path d="M48.572 69.7932C49.2801 76.2466 53.1844 81.9312 58.9499 84.9049C57.8171 86.2604 56.1582 87.0493 54.3982 87.0493H15.3141C12.0368 87.0493 9.38672 84.3992 9.38672 81.122V42.5436C9.38672 39.2663 12.0368 36.6162 15.3141 36.6162H54.378C57.6552 36.6162 60.3053 39.2663 60.3053 42.5436V49.9679C52.4157 53.2452 47.6212 61.3169 48.5315 69.8134L48.572 69.7932Z" fill="#EF8885"/>
<path d="M75.1734 49.9476V36.6161C75.1734 36.3329 75.052 36.0699 74.87 35.8676L72.6649 33.6423C72.2805 33.2782 72.2401 32.6915 72.5638 32.2667L74.6474 29.4952C74.9509 29.0704 74.9104 28.4837 74.5463 28.1196L72.6851 26.2382C72.3008 25.8741 72.2603 25.2874 72.584 24.8626L74.5868 22.172C74.9914 21.646 75.2139 20.9784 75.2139 20.3108C75.2139 19.4005 74.8093 18.5508 74.1215 17.9439L68.4773 13.109C68.093 12.7651 67.5063 12.7651 67.1219 13.109L65.5845 14.4239L60.7697 18.5711C60.527 18.7734 60.4056 19.0566 60.4056 19.3803V49.9679C53.4668 52.8405 48.8341 59.4961 48.5509 67.0014C48.2474 74.5067 52.3541 81.5062 59.03 84.9049C61.0732 85.9771 63.2985 86.6649 65.5845 86.9076C65.6047 86.9076 65.6249 86.9076 65.6654 86.9076C75.2139 88 84.0948 81.8906 86.5224 72.5849C88.9297 63.2791 84.1353 53.6295 75.2543 49.9274L75.1734 49.9476ZM63.2985 75.1743C63.2985 72.7062 65.3012 70.7237 67.7491 70.7237C70.1969 70.7237 72.1996 72.7265 72.1996 75.1743C72.1996 77.6221 70.1969 79.6249 67.7491 79.6249C65.3012 79.6249 63.2985 77.6221 63.2985 75.1743Z" fill="#EF8885"/>
<path d="M69.5921 86.9279C69.5921 86.9279 69.5516 86.9279 69.5112 86.9279C67.2252 86.6851 64.9999 85.9973 62.9567 84.9251C56.2606 81.5062 52.1741 74.5067 52.4776 67.0014C52.781 59.4961 57.3934 52.8405 64.3323 49.9679V19.3803C64.3323 19.0768 64.4739 18.7734 64.6964 18.5711L69.5112 14.4239L69.7337 14.2419L68.4187 13.109C68.0344 12.7651 67.4477 12.7651 67.0633 13.109L65.5259 14.4239L60.7112 18.5711C60.4684 18.7734 60.347 19.0566 60.347 19.3803V49.9679C53.4082 52.8405 48.7755 59.4961 48.4923 67.0014C48.1888 74.5067 52.2955 81.5062 58.9714 84.9251C61.0146 85.9973 63.2399 86.6851 65.5259 86.9279C65.5461 86.9279 65.5663 86.9279 65.6068 86.9279C67.0026 87.0897 68.3783 87.0695 69.7337 86.9279C69.6932 86.9279 69.6528 86.9279 69.6123 86.9279H69.5921Z" fill="#F6F7F7"/>
<path d="M69.7539 79.119C70.3608 79.4225 71.0284 79.6248 71.7567 79.6248C74.2247 79.6248 76.2072 77.622 76.2072 75.1742C76.2072 72.7264 74.2045 70.7236 71.7567 70.7236C71.0284 70.7236 70.3608 70.9057 69.7539 71.2294C71.2105 71.9577 72.2017 73.4547 72.2017 75.1742C72.2017 76.8938 71.2105 78.3908 69.7539 79.119Z" fill="#F6F7F7"/>
<path d="M87.5145 72.1802C89.5982 62.8947 85.0464 53.5485 76.4487 49.4418L76.1655 49.3002V36.5959C76.1655 36.0497 75.943 35.5439 75.5788 35.1595L73.3131 32.8736L75.4372 30.0414C76.0441 29.2322 75.9632 28.1195 75.2349 27.3913L73.3131 25.4492L75.3563 22.7182C76.651 20.9986 76.388 18.571 74.7494 17.1752L69.1053 12.3605C68.3365 11.6929 67.2037 11.6726 66.4552 12.3605L60.1232 17.8023C59.6377 18.1867 59.3747 18.7733 59.3747 19.36V37.6478L58.5655 37.0207C57.3922 36.1103 55.9154 35.6046 54.4184 35.6046H53.9126V23.2239C53.8924 10.4184 43.474 0 30.6483 0C17.8225 0 7.42437 10.4184 7.42437 23.2441V35.6248H6.91862C3.1154 35.6248 0 38.7402 0 42.5434V81.1218C0 84.9251 3.09517 88.0405 6.91862 88.0405H54.3982C56.057 88.0405 57.6754 87.4336 58.9296 86.3412L59.1724 86.1186L59.4759 86.2602C61.3775 87.1301 63.4005 87.6965 65.5044 87.9191C66.2933 88 67.0621 88.0405 67.8308 88.0405C77.3591 88 85.451 81.486 87.5347 72.2005L87.5145 72.1802ZM9.36644 23.2441C9.36644 11.5108 18.9149 1.9623 30.6483 1.9623C42.3816 1.9623 51.9301 11.5108 51.9301 23.2441V35.6248H46.468V23.2441C46.468 14.5251 39.3674 7.42437 30.6483 7.42437C21.9292 7.42437 14.8285 14.5251 14.8285 23.2441V35.6248H9.36644V23.2441ZM44.5057 23.2441V35.6248H16.7908V23.2441C16.7908 15.5972 23.0014 9.38667 30.6483 9.38667C38.2952 9.38667 44.5057 15.5972 44.5057 23.2441ZM56.583 85.5522C55.9154 85.8961 55.1467 86.0579 54.3982 86.0579H6.91862C4.18759 86.0579 1.9623 83.8326 1.9623 81.1016V42.5232C1.9623 39.7922 4.18759 37.5669 6.91862 37.5669H54.3982C57.1292 37.5669 59.3545 39.7922 59.3545 42.5232V49.3407L59.0713 49.4823C52.4561 52.5977 48.046 59.0713 47.5402 66.3743C47.0345 73.657 50.514 80.6768 56.6437 84.6823L57.3922 85.1678L56.6032 85.5522H56.583ZM67.7701 86.0579C67.406 86.0579 67.0216 86.0579 66.6372 86.0175C57.6754 85.4713 50.4938 78.6133 49.543 69.692C48.6529 61.6809 53.2451 53.9329 60.7099 50.8579C61.074 50.6961 61.2965 50.3522 61.3168 49.9476V19.3195L67.7499 13.7968L73.4345 18.6722C73.8998 19.0768 74.183 19.6634 74.183 20.2906C74.183 20.7559 74.0211 21.2009 73.7582 21.5651L71.7554 24.2354C71.1485 25.0446 71.2294 26.1775 71.9375 26.8855L73.8593 28.8276L71.7554 31.6598C71.1485 32.469 71.2294 33.6018 71.9375 34.3099L74.183 36.5554V49.9071C74.183 50.2915 74.4257 50.6556 74.7899 50.8175C83.0639 54.2566 87.5954 63.1172 85.5724 71.8566C83.6303 80.2317 76.2464 86.0377 67.7499 86.0377L67.7701 86.0579Z" fill="#8A1E1B"/>
<path d="M12.2578 23.2441V35.6248H14.8472V23.2441C14.8472 14.9498 21.2601 8.15259 29.3723 7.48501C28.9475 7.44455 28.5226 7.42432 28.0776 7.42432C19.3585 7.42432 12.2578 14.525 12.2578 23.2441Z" fill="#EF8885"/>
<path d="M30.6502 1.96191C30.2051 1.96191 29.7803 2.00237 29.3555 2.0226C40.4819 2.69019 49.3426 11.9352 49.3426 23.2438V35.6244H51.932V23.2438C51.932 11.5104 42.3835 1.96191 30.6502 1.96191Z" fill="#EF8885"/>
<path d="M67.7484 45.6183C68.2946 45.6183 68.7194 45.1732 68.7194 44.6472V21.5042C68.7194 20.958 68.2744 20.5332 67.7484 20.5332C67.2224 20.5332 66.7773 20.9783 66.7773 21.5042V44.6472C66.7773 44.9102 66.8785 45.153 67.0606 45.335C67.2426 45.5171 67.4854 45.6183 67.7484 45.6183Z" fill="#F6F7F7"/>
<path d="M73.6789 75.1744C73.6789 71.8972 71.0288 69.2471 67.7516 69.2471C64.4743 69.2471 61.8242 71.8972 61.8242 75.1744C61.8242 78.4517 64.4743 81.1018 67.7516 81.1018C71.0288 81.1018 73.6789 78.4517 73.6789 75.1744ZM64.7778 75.1744C64.7778 73.5358 66.113 72.2006 67.7516 72.2006C69.3902 72.2006 70.7254 73.5358 70.7254 75.1744C70.7254 76.813 69.3902 78.1482 67.7516 78.1482C66.113 78.1482 64.7778 76.813 64.7778 75.1744Z" fill="#8A1E1B"/>
<path d="M41.0052 54.9846C40.1556 51.6467 37.3436 49.1584 33.9046 48.7741C33.6011 48.7336 33.2977 48.7134 33.0144 48.7134H30.6678V49.0371C27.8558 49.8463 25.6103 52.0715 24.882 54.9846C24.0324 58.3226 25.3675 61.8426 28.1997 63.8251V70.0559C28.1997 71.8361 29.2112 73.3736 30.6678 74.1828V74.7897H33.0144C35.6039 74.7492 37.7078 72.6453 37.7078 70.0559V63.8251C40.54 61.8628 41.8751 58.3428 41.0255 54.9846H41.0052Z" fill="#F6F7F7"/>
<path d="M30.6491 48.7134C30.3254 48.7134 30.0017 48.7336 29.678 48.7741C26.2389 49.1584 23.427 51.6467 22.5773 54.9846C21.7277 58.3226 23.0629 61.8426 25.895 63.8251V70.0559C25.895 72.6656 28.0192 74.7897 30.6491 74.7897C33.2789 74.7897 35.4031 72.6656 35.4031 70.0559V63.8251C38.2353 61.8628 39.5704 58.3428 38.7208 54.9846C37.8711 51.6265 35.0592 49.1584 31.6201 48.7741C31.2964 48.7336 30.9727 48.7134 30.6491 48.7134Z" fill="#8A1E1B"/>
</g>
<defs>
<clipPath id="clip0_7741_13102">
<rect width="88" height="88.0202" fill="white"/>
</clipPath>
</defs>
</svg>
