<svg width="44" height="44" viewBox="0 0 44 44" fill="none" xmlns="http://www.w3.org/2000/svg">
<circle cx="19.1413" cy="19.1456" r="18.697" fill="#EF8885"/>
<circle cx="19.1413" cy="19.1456" r="14.2893" fill="#F6F7F7"/>
<circle cx="33.4627" cy="33.4903" r="9.84111" fill="#F6F7F7"/>
<rect x="32.105" y="27.0897" width="2.71562" height="8.46929" rx="1.35781" fill="#EF8885"/>
<rect x="32.105" y="37.8427" width="2.71562" height="2.82555" rx="1.35781" fill="#EF8885"/>
<circle cx="2.1378" cy="2.1378" r="2.1378" transform="matrix(-1 0 0 1 21.2793 17.0078)" fill="#EF8885"/>
<path d="M43.0497 29.1106C41.9963 26.7986 40.1486 24.9508 37.8366 23.8975L37.7027 23.835L37.7384 23.6922C40.2467 13.4445 33.9446 3.06297 23.688 0.554612C18.7249 -0.659395 13.5832 0.135066 9.20923 2.78624C4.84416 5.44635 1.76451 9.64181 0.550501 14.605C-1.95785 24.8526 4.34427 35.2342 14.6008 37.7425C17.5734 38.4656 20.7155 38.4656 23.688 37.7425L23.8309 37.7068L23.8934 37.8407C25.6608 41.7059 29.4903 44 33.4894 44C34.9444 44 36.4262 43.6965 37.8366 43.0538C40.3985 41.8844 42.3445 39.7956 43.3264 37.1623C44.3083 34.529 44.2101 31.6725 43.0407 29.1106H43.0497ZM23.2507 36.7427C21.9206 37.0552 20.5459 37.2158 19.1802 37.2158H19.1534C14.342 37.2158 9.81623 35.3413 6.4063 31.9492C2.98744 28.5393 1.10395 24.0135 1.09502 19.1843C1.09502 14.3639 2.96066 9.82034 6.36167 6.41041C9.7716 2.99155 14.2973 1.10806 19.1266 1.09913C19.1355 1.09913 19.1444 1.09913 19.1534 1.09913C23.9648 1.09913 28.4905 2.9737 31.9004 6.36578C35.3193 9.77571 37.2028 14.3015 37.2117 19.1307C37.2117 20.5143 37.0511 21.9069 36.7386 23.2548L36.694 23.4422L36.5155 23.3887C35.6139 23.1209 34.6766 22.9691 33.7393 22.9513H33.5162L33.5697 22.7281C34.507 18.8897 33.9 14.9085 31.8558 11.5342C29.8027 8.15108 26.5624 5.77663 22.724 4.83042C18.8856 3.89313 14.9044 4.50014 11.5301 6.54431C8.14697 8.59741 5.77252 11.8377 4.82631 15.6761C2.88032 23.6029 7.74528 31.6368 15.672 33.5738C17.984 34.1362 20.4209 34.1362 22.7329 33.5738L22.9471 33.5203V33.7434C22.9739 34.6807 23.1257 35.618 23.3935 36.5196L23.447 36.6981L23.2596 36.7427H23.2507ZM23.0007 32.2705L22.9829 32.3866L22.8668 32.4223C21.9027 32.6901 20.903 32.8508 19.9032 32.9043H19.7157C19.7157 32.9133 19.7157 32.0385 19.7157 32.0385C19.7157 31.7439 19.4747 31.5029 19.1802 31.5029C18.8856 31.5029 18.6446 31.7439 18.6446 32.0385V32.9043H18.4571C15.3239 32.7347 12.3246 31.485 10.0037 29.3873L9.86086 29.2623L10.4679 28.6553C10.5661 28.5571 10.6285 28.4232 10.6285 28.2804C10.6285 28.1376 10.575 28.0037 10.4679 27.9055C10.3697 27.8073 10.2358 27.7448 10.093 27.7448C9.95013 27.7448 9.81623 27.7984 9.71804 27.9055L9.11104 28.5125L8.98606 28.3697C6.88833 26.0488 5.63862 23.0405 5.47794 19.9162V19.7288C5.46902 19.7288 6.33489 19.7288 6.33489 19.7288C6.62946 19.7288 6.87048 19.4878 6.87048 19.1932C6.87048 18.8986 6.62946 18.6576 6.33489 18.6576H5.46902V18.4701C5.63862 15.3369 6.88833 12.3376 8.98606 10.0167L9.11104 9.8739L9.71804 10.4809C9.81623 10.5791 9.95013 10.6416 10.093 10.6416C10.2358 10.6416 10.3697 10.588 10.4679 10.4809C10.5661 10.3827 10.6285 10.2488 10.6285 10.106C10.6285 9.96317 10.575 9.82927 10.4679 9.73108L9.86086 9.12407L10.0037 8.9991C12.3246 6.90137 15.3328 5.65166 18.4571 5.49098H18.6446C18.6446 5.48205 18.6446 6.34793 18.6446 6.34793C18.6446 6.6425 18.8856 6.88352 19.1802 6.88352C19.4747 6.88352 19.7157 6.6425 19.7157 6.34793V5.48205H19.9032C23.0364 5.65166 26.0357 6.90137 28.3566 8.9991L28.4994 9.12407L27.8924 9.73108C27.7943 9.82927 27.7318 9.96317 27.7318 10.106C27.7318 10.2488 27.7853 10.3827 27.8924 10.4809C27.9906 10.5791 28.1245 10.6416 28.2674 10.6416C28.4102 10.6416 28.5441 10.588 28.6423 10.4809L29.2493 9.8739L29.3742 10.0167C31.472 12.3376 32.7217 15.3459 32.8824 18.4701V18.6576C32.8913 18.6576 32.0254 18.6576 32.0254 18.6576C31.7308 18.6576 31.4898 18.8986 31.4898 19.1932C31.4898 19.4878 31.7308 19.7288 32.0254 19.7288H32.9002V19.9162C32.8377 20.916 32.6771 21.9158 32.4093 22.8798L32.3736 22.9959L32.2575 23.0137C27.3658 23.5761 23.5631 27.3877 22.9918 32.2795L23.0007 32.2705ZM33.4626 42.9288C28.2495 42.9288 24.0005 38.6798 24.0005 33.4667C24.0005 28.2536 28.2495 24.0046 33.4626 24.0046C38.6757 24.0046 42.9247 28.2536 42.9247 33.4667C42.9247 38.6798 38.6757 42.9199 33.4626 42.9288Z" fill="#8A1E1B"/>
<path d="M28.2851 19.1842C28.2851 18.8896 28.0441 18.6486 27.7495 18.6486H21.7955L21.7598 18.5147C21.5188 17.5774 20.7868 16.8454 19.8495 16.6044L19.7156 16.5687V10.6147C19.7156 10.3201 19.4746 10.0791 19.18 10.0791C18.8855 10.0791 18.6445 10.3201 18.6445 10.6147V16.5687L18.5106 16.6044C17.0823 16.9704 16.2164 18.4254 16.5824 19.8536C16.9484 21.2819 18.4034 22.1478 19.8317 21.7818C20.7779 21.5408 21.5188 20.7999 21.7598 19.8536L21.7955 19.7197H27.7495C28.0441 19.7197 28.2851 19.4787 28.2851 19.1842ZM19.18 20.7909C18.2963 20.7909 17.5733 20.0679 17.5733 19.1842C17.5733 18.3004 18.2963 17.5774 19.18 17.5774C20.0638 17.5774 20.7868 18.3004 20.7868 19.1842C20.7868 20.0679 20.0638 20.7909 19.18 20.7909Z" fill="#8A1E1B"/>
<path d="M33.4624 26.5039C32.3823 26.5039 31.4985 27.3876 31.4985 28.4677V34.1807C31.4985 35.2608 32.3823 36.1446 33.4624 36.1446C34.5425 36.1446 35.4262 35.2608 35.4262 34.1807V28.4677C35.4262 27.3876 34.5425 26.5039 33.4624 26.5039ZM34.355 34.1807C34.355 34.6717 33.9533 35.0734 33.4624 35.0734C32.9714 35.0734 32.5697 34.6717 32.5697 34.1807V28.4677C32.5697 27.9768 32.9714 27.5751 33.4624 27.5751C33.9533 27.5751 34.355 27.9768 34.355 28.4677V34.1807Z" fill="#8A1E1B"/>
<path d="M33.4624 37.2157C32.3823 37.2157 31.4985 38.0994 31.4985 39.1795C31.4985 40.2596 32.3823 41.1434 33.4624 41.1434C34.5425 41.1434 35.4262 40.2596 35.4262 39.1795C35.4262 38.0994 34.5425 37.2157 33.4624 37.2157ZM33.4624 40.0722C32.9714 40.0722 32.5697 39.6705 32.5697 39.1795C32.5697 38.6886 32.9714 38.2869 33.4624 38.2869C33.9533 38.2869 34.355 38.6886 34.355 39.1795C34.355 39.6705 33.9533 40.0722 33.4624 40.0722Z" fill="#8A1E1B"/>
</svg>
