<svg width="86" height="78" viewBox="0 0 86 78" fill="none" xmlns="http://www.w3.org/2000/svg">
<path d="M39.6429 73.7143C60.9453 73.7143 78.2143 60.2828 78.2143 43.7143C78.2143 27.1458 60.9453 13.7143 39.6429 13.7143C18.3404 13.7143 1.07143 27.1458 1.07143 43.7143C1.07143 60.2828 18.3404 73.7143 39.6429 73.7143Z" fill="#A3D484" fill-opacity="0.18" stroke="#5C9442" stroke-width="2.14286"/>
<path opacity="0.586544" d="M28.6117 41.2246C32.1704 39.9294 33.0865 33.4701 30.6579 26.7976C28.2293 20.125 23.3756 15.7658 19.8169 17.0611C16.2582 18.3564 15.3421 24.8156 17.7707 31.4881C20.1993 38.1607 25.053 42.5199 28.6117 41.2246Z" fill="white"/>
<mask id="mask0_6_47" style="mask-type:luminance" maskUnits="userSpaceOnUse" x="1" y="13" width="78" height="61">
<path d="M39.6429 73.7143C60.9453 73.7143 78.2143 60.2828 78.2143 43.7143C78.2143 27.1458 60.9453 13.7143 39.6429 13.7143C18.3404 13.7143 1.07143 27.1458 1.07143 43.7143C1.07143 60.2828 18.3404 73.7143 39.6429 73.7143Z" fill="white"/>
</mask>
<g mask="url(#mask0_6_47)">
<path d="M22.5 68.5714C25.3403 68.5714 27.6429 66.2689 27.6429 63.4286C27.6429 60.5883 25.3403 58.2857 22.5 58.2857C19.6597 58.2857 17.3571 60.5883 17.3571 63.4286C17.3571 66.2689 19.6597 68.5714 22.5 68.5714Z" fill="#F0B429" stroke="#BA7517" stroke-width="0.685714"/>
<path d="M21.704 67.1666C21.616 67.1666 21.544 67.1366 21.488 67.0766C21.432 67.0206 21.404 66.9506 21.404 66.8666V66.3326L21.542 66.4646C21.266 66.4566 21.02 66.4206 20.804 66.3566C20.592 66.2926 20.412 66.2186 20.264 66.1346C20.192 66.0906 20.142 66.0366 20.114 65.9726C20.086 65.9046 20.076 65.8366 20.084 65.7686C20.092 65.7006 20.116 65.6426 20.156 65.5946C20.2 65.5426 20.254 65.5106 20.318 65.4986C20.382 65.4826 20.456 65.4986 20.54 65.5466C20.652 65.6106 20.798 65.6726 20.978 65.7326C21.162 65.7886 21.382 65.8166 21.638 65.8166C21.838 65.8166 22 65.7926 22.124 65.7446C22.248 65.6966 22.338 65.6306 22.394 65.5466C22.454 65.4626 22.484 65.3666 22.484 65.2586C22.484 65.1706 22.464 65.0946 22.424 65.0306C22.384 64.9626 22.318 64.9046 22.226 64.8566C22.134 64.8046 22.01 64.7626 21.854 64.7306L21.218 64.5926C20.854 64.5126 20.582 64.3786 20.402 64.1906C20.222 64.0026 20.132 63.7566 20.132 63.4526C20.132 63.2166 20.19 63.0066 20.306 62.8226C20.422 62.6346 20.584 62.4846 20.792 62.3726C21 62.2606 21.244 62.1946 21.524 62.1746L21.404 62.2646V61.7606C21.404 61.6766 21.432 61.6066 21.488 61.5506C21.544 61.4906 21.616 61.4606 21.704 61.4606C21.788 61.4606 21.858 61.4906 21.914 61.5506C21.974 61.6066 22.004 61.6766 22.004 61.7606V62.2646L21.878 62.1686C22.05 62.1726 22.238 62.2066 22.442 62.2706C22.65 62.3346 22.828 62.4246 22.976 62.5406C23.036 62.5886 23.076 62.6446 23.096 62.7086C23.116 62.7686 23.118 62.8286 23.102 62.8886C23.086 62.9446 23.056 62.9926 23.012 63.0326C22.968 63.0726 22.912 63.0966 22.844 63.1046C22.78 63.1086 22.706 63.0866 22.622 63.0386C22.506 62.9706 22.376 62.9166 22.232 62.8766C22.088 62.8326 21.916 62.8106 21.716 62.8106C21.46 62.8106 21.258 62.8686 21.11 62.9846C20.966 63.0966 20.894 63.2446 20.894 63.4286C20.894 63.5646 20.938 63.6746 21.026 63.7586C21.114 63.8386 21.264 63.9026 21.476 63.9506L22.13 64.0946C22.514 64.1786 22.796 64.3126 22.976 64.4966C23.156 64.6766 23.246 64.9146 23.246 65.2106C23.246 65.4426 23.188 65.6486 23.072 65.8286C22.956 66.0046 22.796 66.1466 22.592 66.2546C22.392 66.3586 22.158 66.4246 21.89 66.4526L22.004 66.3266V66.8666C22.004 66.9506 21.976 67.0206 21.92 67.0766C21.864 67.1366 21.792 67.1666 21.704 67.1666Z" fill="#854F0B"/>
<path d="M35.3572 70.2857C38.1975 70.2857 40.5 67.9832 40.5 65.1429C40.5 62.3026 38.1975 60 35.3572 60C32.5168 60 30.2143 62.3026 30.2143 65.1429C30.2143 67.9832 32.5168 70.2857 35.3572 70.2857Z" fill="#F0B429" stroke="#BA7517" stroke-width="0.685714"/>
<path d="M34.5612 68.8809C34.4732 68.8809 34.4012 68.8509 34.3452 68.7909C34.2892 68.7349 34.2612 68.6649 34.2612 68.5809V68.0469L34.3992 68.1789C34.1232 68.1709 33.8772 68.1349 33.6612 68.0709C33.4492 68.0069 33.2692 67.9329 33.1212 67.8489C33.0492 67.8049 32.9992 67.7509 32.9712 67.6869C32.9432 67.6189 32.9332 67.5509 32.9412 67.4829C32.9492 67.4149 32.9732 67.3569 33.0132 67.3089C33.0572 67.2569 33.1112 67.2249 33.1752 67.2129C33.2392 67.1969 33.3132 67.2129 33.3972 67.2609C33.5092 67.3249 33.6552 67.3869 33.8352 67.4469C34.0192 67.5029 34.2392 67.5309 34.4952 67.5309C34.6952 67.5309 34.8572 67.5069 34.9812 67.4589C35.1052 67.4109 35.1952 67.3449 35.2512 67.2609C35.3112 67.1769 35.3412 67.0809 35.3412 66.9729C35.3412 66.8849 35.3212 66.8089 35.2812 66.7449C35.2412 66.6769 35.1752 66.6189 35.0832 66.5709C34.9912 66.5189 34.8672 66.4769 34.7112 66.4449L34.0752 66.3069C33.7112 66.2269 33.4392 66.0929 33.2592 65.9049C33.0792 65.7169 32.9892 65.4709 32.9892 65.1669C32.9892 64.9309 33.0472 64.7209 33.1632 64.5369C33.2792 64.3489 33.4412 64.1989 33.6492 64.0869C33.8572 63.9749 34.1012 63.9089 34.3812 63.8889L34.2612 63.9789V63.4749C34.2612 63.3909 34.2892 63.3209 34.3452 63.2649C34.4012 63.2049 34.4732 63.1749 34.5612 63.1749C34.6452 63.1749 34.7152 63.2049 34.7712 63.2649C34.8312 63.3209 34.8612 63.3909 34.8612 63.4749V63.9789L34.7352 63.8829C34.9072 63.8869 35.0952 63.9209 35.2992 63.9849C35.5072 64.0489 35.6852 64.1389 35.8332 64.2549C35.8932 64.3029 35.9332 64.3589 35.9532 64.4229C35.9732 64.4829 35.9752 64.5429 35.9592 64.6029C35.9432 64.6589 35.9132 64.7069 35.8692 64.7469C35.8252 64.7869 35.7692 64.8109 35.7012 64.8189C35.6372 64.8229 35.5632 64.8009 35.4792 64.7529C35.3632 64.6849 35.2332 64.6309 35.0892 64.5909C34.9452 64.5469 34.7732 64.5249 34.5732 64.5249C34.3172 64.5249 34.1152 64.5829 33.9672 64.6989C33.8232 64.8109 33.7512 64.9589 33.7512 65.1429C33.7512 65.2789 33.7952 65.3889 33.8832 65.4729C33.9712 65.5529 34.1212 65.6169 34.3332 65.6649L34.9872 65.8089C35.3712 65.8929 35.6532 66.0269 35.8332 66.2109C36.0132 66.3909 36.1032 66.6289 36.1032 66.9249C36.1032 67.1569 36.0452 67.3629 35.9292 67.5429C35.8132 67.7189 35.6532 67.8609 35.4492 67.9689C35.2492 68.0729 35.0152 68.1389 34.7472 68.1669L34.8612 68.0409V68.5809C34.8612 68.6649 34.8332 68.7349 34.7772 68.7909C34.7212 68.8509 34.6492 68.8809 34.5612 68.8809Z" fill="#854F0B"/>
<path d="M48.2143 70.2857C51.0546 70.2857 53.3572 67.9832 53.3572 65.1429C53.3572 62.3026 51.0546 60 48.2143 60C45.374 60 43.0714 62.3026 43.0714 65.1429C43.0714 67.9832 45.374 70.2857 48.2143 70.2857Z" fill="#F0B429" stroke="#BA7517" stroke-width="0.685714"/>
<path d="M47.4183 68.8809C47.3303 68.8809 47.2583 68.8509 47.2023 68.7909C47.1463 68.7349 47.1183 68.6649 47.1183 68.5809V68.0469L47.2563 68.1789C46.9803 68.1709 46.7343 68.1349 46.5183 68.0709C46.3063 68.0069 46.1263 67.9329 45.9783 67.8489C45.9063 67.8049 45.8563 67.7509 45.8283 67.6869C45.8003 67.6189 45.7903 67.5509 45.7983 67.4829C45.8063 67.4149 45.8303 67.3569 45.8703 67.3089C45.9143 67.2569 45.9683 67.2249 46.0323 67.2129C46.0963 67.1969 46.1703 67.2129 46.2543 67.2609C46.3663 67.3249 46.5123 67.3869 46.6923 67.4469C46.8763 67.5029 47.0963 67.5309 47.3523 67.5309C47.5523 67.5309 47.7143 67.5069 47.8383 67.4589C47.9623 67.4109 48.0523 67.3449 48.1083 67.2609C48.1683 67.1769 48.1983 67.0809 48.1983 66.9729C48.1983 66.8849 48.1783 66.8089 48.1383 66.7449C48.0983 66.6769 48.0323 66.6189 47.9403 66.5709C47.8483 66.5189 47.7243 66.4769 47.5683 66.4449L46.9323 66.3069C46.5683 66.2269 46.2963 66.0929 46.1163 65.9049C45.9363 65.7169 45.8463 65.4709 45.8463 65.1669C45.8463 64.9309 45.9043 64.7209 46.0203 64.5369C46.1363 64.3489 46.2983 64.1989 46.5063 64.0869C46.7143 63.9749 46.9583 63.9089 47.2383 63.8889L47.1183 63.9789V63.4749C47.1183 63.3909 47.1463 63.3209 47.2023 63.2649C47.2583 63.2049 47.3303 63.1749 47.4183 63.1749C47.5023 63.1749 47.5723 63.2049 47.6283 63.2649C47.6883 63.3209 47.7183 63.3909 47.7183 63.4749V63.9789L47.5923 63.8829C47.7643 63.8869 47.9523 63.9209 48.1563 63.9849C48.3643 64.0489 48.5423 64.1389 48.6903 64.2549C48.7503 64.3029 48.7903 64.3589 48.8103 64.4229C48.8303 64.4829 48.8323 64.5429 48.8163 64.6029C48.8003 64.6589 48.7703 64.7069 48.7263 64.7469C48.6823 64.7869 48.6263 64.8109 48.5583 64.8189C48.4943 64.8229 48.4203 64.8009 48.3363 64.7529C48.2203 64.6849 48.0903 64.6309 47.9463 64.5909C47.8023 64.5469 47.6303 64.5249 47.4303 64.5249C47.1743 64.5249 46.9723 64.5829 46.8243 64.6989C46.6803 64.8109 46.6083 64.9589 46.6083 65.1429C46.6083 65.2789 46.6523 65.3889 46.7403 65.4729C46.8283 65.5529 46.9783 65.6169 47.1903 65.6649L47.8443 65.8089C48.2283 65.8929 48.5103 66.0269 48.6903 66.2109C48.8703 66.3909 48.9603 66.6289 48.9603 66.9249C48.9603 67.1569 48.9023 67.3629 48.7863 67.5429C48.6703 67.7189 48.5103 67.8609 48.3063 67.9689C48.1063 68.0729 47.8723 68.1389 47.6043 68.1669L47.7183 68.0409V68.5809C47.7183 68.6649 47.6903 68.7349 47.6343 68.7909C47.5783 68.8509 47.5063 68.8809 47.4183 68.8809Z" fill="#854F0B"/>
<path d="M59.3572 68.5714C62.1975 68.5714 64.5 66.2689 64.5 63.4286C64.5 60.5883 62.1975 58.2857 59.3572 58.2857C56.5168 58.2857 54.2143 60.5883 54.2143 63.4286C54.2143 66.2689 56.5168 68.5714 59.3572 68.5714Z" fill="#F0B429" stroke="#BA7517" stroke-width="0.685714"/>
<path d="M58.5612 67.1666C58.4732 67.1666 58.4012 67.1366 58.3452 67.0766C58.2892 67.0206 58.2612 66.9506 58.2612 66.8666V66.3326L58.3992 66.4646C58.1232 66.4566 57.8772 66.4206 57.6612 66.3566C57.4492 66.2926 57.2692 66.2186 57.1212 66.1346C57.0492 66.0906 56.9992 66.0366 56.9712 65.9726C56.9432 65.9046 56.9332 65.8366 56.9412 65.7686C56.9492 65.7006 56.9732 65.6426 57.0132 65.5946C57.0572 65.5426 57.1112 65.5106 57.1752 65.4986C57.2392 65.4826 57.3132 65.4986 57.3972 65.5466C57.5092 65.6106 57.6552 65.6726 57.8352 65.7326C58.0192 65.7886 58.2392 65.8166 58.4952 65.8166C58.6952 65.8166 58.8572 65.7926 58.9812 65.7446C59.1052 65.6966 59.1952 65.6306 59.2512 65.5466C59.3112 65.4626 59.3412 65.3666 59.3412 65.2586C59.3412 65.1706 59.3212 65.0946 59.2812 65.0306C59.2412 64.9626 59.1752 64.9046 59.0832 64.8566C58.9912 64.8046 58.8672 64.7626 58.7112 64.7306L58.0752 64.5926C57.7112 64.5126 57.4392 64.3786 57.2592 64.1906C57.0792 64.0026 56.9892 63.7566 56.9892 63.4526C56.9892 63.2166 57.0472 63.0066 57.1632 62.8226C57.2792 62.6346 57.4412 62.4846 57.6492 62.3726C57.8572 62.2606 58.1012 62.1946 58.3812 62.1746L58.2612 62.2646V61.7606C58.2612 61.6766 58.2892 61.6066 58.3452 61.5506C58.4012 61.4906 58.4732 61.4606 58.5612 61.4606C58.6452 61.4606 58.7152 61.4906 58.7712 61.5506C58.8312 61.6066 58.8612 61.6766 58.8612 61.7606V62.2646L58.7352 62.1686C58.9072 62.1726 59.0952 62.2066 59.2992 62.2706C59.5072 62.3346 59.6852 62.4246 59.8332 62.5406C59.8932 62.5886 59.9332 62.6446 59.9532 62.7086C59.9732 62.7686 59.9752 62.8286 59.9592 62.8886C59.9432 62.9446 59.9132 62.9926 59.8692 63.0326C59.8252 63.0726 59.7692 63.0966 59.7012 63.1046C59.6372 63.1086 59.5632 63.0866 59.4792 63.0386C59.3632 62.9706 59.2332 62.9166 59.0892 62.8766C58.9452 62.8326 58.7732 62.8106 58.5732 62.8106C58.3172 62.8106 58.1152 62.8686 57.9672 62.9846C57.8232 63.0966 57.7512 63.2446 57.7512 63.4286C57.7512 63.5646 57.7952 63.6746 57.8832 63.7586C57.9712 63.8386 58.1212 63.9026 58.3332 63.9506L58.9872 64.0946C59.3712 64.1786 59.6532 64.3126 59.8332 64.4966C60.0132 64.6766 60.1032 64.9146 60.1032 65.2106C60.1032 65.4426 60.0452 65.6486 59.9292 65.8286C59.8132 66.0046 59.6532 66.1466 59.4492 66.2546C59.2492 66.3586 59.0152 66.4246 58.7472 66.4526L58.8612 66.3266V66.8666C58.8612 66.9506 58.8332 67.0206 58.7772 67.0766C58.7212 67.1366 58.6492 67.1666 58.5612 67.1666Z" fill="#854F0B"/>
<path d="M29.3572 60C32.1975 60 34.5 57.6975 34.5 54.8572C34.5 52.0168 32.1975 49.7143 29.3572 49.7143C26.5168 49.7143 24.2143 52.0168 24.2143 54.8572C24.2143 57.6975 26.5168 60 29.3572 60Z" fill="#F0B429" stroke="#BA7517" stroke-width="0.685714"/>
<path d="M28.5612 58.5952C28.4732 58.5952 28.4012 58.5652 28.3452 58.5052C28.2892 58.4492 28.2612 58.3792 28.2612 58.2952V57.7612L28.3992 57.8932C28.1232 57.8852 27.8772 57.8492 27.6612 57.7852C27.4492 57.7212 27.2692 57.6472 27.1212 57.5632C27.0492 57.5192 26.9992 57.4652 26.9712 57.4012C26.9432 57.3332 26.9332 57.2652 26.9412 57.1972C26.9492 57.1292 26.9732 57.0712 27.0132 57.0232C27.0572 56.9712 27.1112 56.9392 27.1752 56.9272C27.2392 56.9112 27.3132 56.9272 27.3972 56.9752C27.5092 57.0392 27.6552 57.1012 27.8352 57.1612C28.0192 57.2172 28.2392 57.2452 28.4952 57.2452C28.6952 57.2452 28.8572 57.2212 28.9812 57.1732C29.1052 57.1252 29.1952 57.0592 29.2512 56.9752C29.3112 56.8912 29.3412 56.7952 29.3412 56.6872C29.3412 56.5992 29.3212 56.5232 29.2812 56.4592C29.2412 56.3912 29.1752 56.3332 29.0832 56.2852C28.9912 56.2332 28.8672 56.1912 28.7112 56.1592L28.0752 56.0212C27.7112 55.9412 27.4392 55.8072 27.2592 55.6192C27.0792 55.4312 26.9892 55.1852 26.9892 54.8812C26.9892 54.6452 27.0472 54.4352 27.1632 54.2512C27.2792 54.0632 27.4412 53.9132 27.6492 53.8012C27.8572 53.6892 28.1012 53.6232 28.3812 53.6032L28.2612 53.6932V53.1892C28.2612 53.1052 28.2892 53.0352 28.3452 52.9792C28.4012 52.9192 28.4732 52.8892 28.5612 52.8892C28.6452 52.8892 28.7152 52.9192 28.7712 52.9792C28.8312 53.0352 28.8612 53.1052 28.8612 53.1892V53.6932L28.7352 53.5972C28.9072 53.6012 29.0952 53.6352 29.2992 53.6992C29.5072 53.7632 29.6852 53.8532 29.8332 53.9692C29.8932 54.0172 29.9332 54.0732 29.9532 54.1372C29.9732 54.1972 29.9752 54.2572 29.9592 54.3172C29.9432 54.3732 29.9132 54.4212 29.8692 54.4612C29.8252 54.5012 29.7692 54.5252 29.7012 54.5332C29.6372 54.5372 29.5632 54.5152 29.4792 54.4672C29.3632 54.3992 29.2332 54.3452 29.0892 54.3052C28.9452 54.2612 28.7732 54.2392 28.5732 54.2392C28.3172 54.2392 28.1152 54.2972 27.9672 54.4132C27.8232 54.5252 27.7512 54.6732 27.7512 54.8572C27.7512 54.9932 27.7952 55.1032 27.8832 55.1872C27.9712 55.2672 28.1212 55.3312 28.3332 55.3792L28.9872 55.5232C29.3712 55.6072 29.6532 55.7412 29.8332 55.9252C30.0132 56.1052 30.1032 56.3432 30.1032 56.6392C30.1032 56.8712 30.0452 57.0772 29.9292 57.2572C29.8132 57.4332 29.6532 57.5752 29.4492 57.6832C29.2492 57.7872 29.0152 57.8532 28.7472 57.8812L28.8612 57.7552V58.2952C28.8612 58.3792 28.8332 58.4492 28.7772 58.5052C28.7212 58.5652 28.6492 58.5952 28.5612 58.5952Z" fill="#854F0B"/>
<path d="M41.3572 58.2857C44.1975 58.2857 46.5 55.9832 46.5 53.1429C46.5 50.3026 44.1975 48 41.3572 48C38.5168 48 36.2143 50.3026 36.2143 53.1429C36.2143 55.9832 38.5168 58.2857 41.3572 58.2857Z" fill="#F0B429" stroke="#BA7517" stroke-width="0.685714"/>
<path d="M40.5612 56.8809C40.4732 56.8809 40.4012 56.8509 40.3452 56.7909C40.2892 56.7349 40.2612 56.6649 40.2612 56.5809V56.0469L40.3992 56.1789C40.1232 56.1709 39.8772 56.1349 39.6612 56.0709C39.4492 56.0069 39.2692 55.9329 39.1212 55.8489C39.0492 55.8049 38.9992 55.7509 38.9712 55.6869C38.9432 55.6189 38.9332 55.5509 38.9412 55.4829C38.9492 55.4149 38.9732 55.3569 39.0132 55.3089C39.0572 55.2569 39.1112 55.2249 39.1752 55.2129C39.2392 55.1969 39.3132 55.2129 39.3972 55.2609C39.5092 55.3249 39.6552 55.3869 39.8352 55.4469C40.0192 55.5029 40.2392 55.5309 40.4952 55.5309C40.6952 55.5309 40.8572 55.5069 40.9812 55.4589C41.1052 55.4109 41.1952 55.3449 41.2512 55.2609C41.3112 55.1769 41.3412 55.0809 41.3412 54.9729C41.3412 54.8849 41.3212 54.8089 41.2812 54.7449C41.2412 54.6769 41.1752 54.6189 41.0832 54.5709C40.9912 54.5189 40.8672 54.4769 40.7112 54.4449L40.0752 54.3069C39.7112 54.2269 39.4392 54.0929 39.2592 53.9049C39.0792 53.7169 38.9892 53.4709 38.9892 53.1669C38.9892 52.9309 39.0472 52.7209 39.1632 52.5369C39.2792 52.3489 39.4412 52.1989 39.6492 52.0869C39.8572 51.9749 40.1012 51.9089 40.3812 51.8889L40.2612 51.9789V51.4749C40.2612 51.3909 40.2892 51.3209 40.3452 51.2649C40.4012 51.2049 40.4732 51.1749 40.5612 51.1749C40.6452 51.1749 40.7152 51.2049 40.7712 51.2649C40.8312 51.3209 40.8612 51.3909 40.8612 51.4749V51.9789L40.7352 51.8829C40.9072 51.8869 41.0952 51.9209 41.2992 51.9849C41.5072 52.0489 41.6852 52.1389 41.8332 52.2549C41.8932 52.3029 41.9332 52.3589 41.9532 52.4229C41.9732 52.4829 41.9752 52.5429 41.9592 52.6029C41.9432 52.6589 41.9132 52.7069 41.8692 52.7469C41.8252 52.7869 41.7692 52.8109 41.7012 52.8189C41.6372 52.8229 41.5632 52.8009 41.4792 52.7529C41.3632 52.6849 41.2332 52.6309 41.0892 52.5909C40.9452 52.5469 40.7732 52.5249 40.5732 52.5249C40.3172 52.5249 40.1152 52.5829 39.9672 52.6989C39.8232 52.8109 39.7512 52.9589 39.7512 53.1429C39.7512 53.2789 39.7952 53.3889 39.8832 53.4729C39.9712 53.5529 40.1212 53.6169 40.3332 53.6649L40.9872 53.8089C41.3712 53.8929 41.6532 54.0269 41.8332 54.2109C42.0132 54.3909 42.1032 54.6289 42.1032 54.9249C42.1032 55.1569 42.0452 55.3629 41.9292 55.5429C41.8132 55.7189 41.6532 55.8609 41.4492 55.9689C41.2492 56.0729 41.0152 56.1389 40.7472 56.1669L40.8612 56.0409V56.5809C40.8612 56.6649 40.8332 56.7349 40.7772 56.7909C40.7212 56.8509 40.6492 56.8809 40.5612 56.8809Z" fill="#854F0B"/>
<path d="M53.3572 60C56.1975 60 58.5 57.6975 58.5 54.8572C58.5 52.0168 56.1975 49.7143 53.3572 49.7143C50.5168 49.7143 48.2143 52.0168 48.2143 54.8572C48.2143 57.6975 50.5168 60 53.3572 60Z" fill="#F0B429" stroke="#BA7517" stroke-width="0.685714"/>
<path d="M52.5612 58.5952C52.4732 58.5952 52.4012 58.5652 52.3452 58.5052C52.2892 58.4492 52.2612 58.3792 52.2612 58.2952V57.7612L52.3992 57.8932C52.1232 57.8852 51.8772 57.8492 51.6612 57.7852C51.4492 57.7212 51.2692 57.6472 51.1212 57.5632C51.0492 57.5192 50.9992 57.4652 50.9712 57.4012C50.9432 57.3332 50.9332 57.2652 50.9412 57.1972C50.9492 57.1292 50.9732 57.0712 51.0132 57.0232C51.0572 56.9712 51.1112 56.9392 51.1752 56.9272C51.2392 56.9112 51.3132 56.9272 51.3972 56.9752C51.5092 57.0392 51.6552 57.1012 51.8352 57.1612C52.0192 57.2172 52.2392 57.2452 52.4952 57.2452C52.6952 57.2452 52.8572 57.2212 52.9812 57.1732C53.1052 57.1252 53.1952 57.0592 53.2512 56.9752C53.3112 56.8912 53.3412 56.7952 53.3412 56.6872C53.3412 56.5992 53.3212 56.5232 53.2812 56.4592C53.2412 56.3912 53.1752 56.3332 53.0832 56.2852C52.9912 56.2332 52.8672 56.1912 52.7112 56.1592L52.0752 56.0212C51.7112 55.9412 51.4392 55.8072 51.2592 55.6192C51.0792 55.4312 50.9892 55.1852 50.9892 54.8812C50.9892 54.6452 51.0472 54.4352 51.1632 54.2512C51.2792 54.0632 51.4412 53.9132 51.6492 53.8012C51.8572 53.6892 52.1012 53.6232 52.3812 53.6032L52.2612 53.6932V53.1892C52.2612 53.1052 52.2892 53.0352 52.3452 52.9792C52.4012 52.9192 52.4732 52.8892 52.5612 52.8892C52.6452 52.8892 52.7152 52.9192 52.7712 52.9792C52.8312 53.0352 52.8612 53.1052 52.8612 53.1892V53.6932L52.7352 53.5972C52.9072 53.6012 53.0952 53.6352 53.2992 53.6992C53.5072 53.7632 53.6852 53.8532 53.8332 53.9692C53.8932 54.0172 53.9332 54.0732 53.9532 54.1372C53.9732 54.1972 53.9752 54.2572 53.9592 54.3172C53.9432 54.3732 53.9132 54.4212 53.8692 54.4612C53.8252 54.5012 53.7692 54.5252 53.7012 54.5332C53.6372 54.5372 53.5632 54.5152 53.4792 54.4672C53.3632 54.3992 53.2332 54.3452 53.0892 54.3052C52.9452 54.2612 52.7732 54.2392 52.5732 54.2392C52.3172 54.2392 52.1152 54.2972 51.9672 54.4132C51.8232 54.5252 51.7512 54.6732 51.7512 54.8572C51.7512 54.9932 51.7952 55.1032 51.8832 55.1872C51.9712 55.2672 52.1212 55.3312 52.3332 55.3792L52.9872 55.5232C53.3712 55.6072 53.6532 55.7412 53.8332 55.9252C54.0132 56.1052 54.1032 56.3432 54.1032 56.6392C54.1032 56.8712 54.0452 57.0772 53.9292 57.2572C53.8132 57.4332 53.6532 57.5752 53.4492 57.6832C53.2492 57.7872 53.0152 57.8532 52.7472 57.8812L52.8612 57.7552V58.2952C52.8612 58.3792 52.8332 58.4492 52.7772 58.5052C52.7212 58.5652 52.6492 58.5952 52.5612 58.5952Z" fill="#854F0B"/>
</g>
<path d="M9.64285 18L5.35713 0.857147L22.5 13.7143L9.64285 18Z" fill="#7AB85A" fill-opacity="0.5" stroke="#5C9442" stroke-width="1.71429" stroke-linejoin="round"/>
<path d="M69.6428 18L73.9286 0.857147L56.7857 13.7143L69.6428 18Z" fill="#7AB85A" fill-opacity="0.5" stroke="#5C9442" stroke-width="1.71429" stroke-linejoin="round"/>
<path d="M25.9286 65.1429H24.2143C22.3207 65.1429 20.7857 66.6779 20.7857 68.5714V73.7143C20.7857 75.6078 22.3207 77.1429 24.2143 77.1429H25.9286C27.8221 77.1429 29.3571 75.6078 29.3571 73.7143V68.5714C29.3571 66.6779 27.8221 65.1429 25.9286 65.1429Z" fill="#7AB85A" fill-opacity="0.55" stroke="#5C9442" stroke-width="1.71429"/>
<path d="M55.0714 65.1429H53.3571C51.4636 65.1429 49.9286 66.6779 49.9286 68.5714V73.7143C49.9286 75.6078 51.4636 77.1429 53.3571 77.1429H55.0714C56.965 77.1429 58.5 75.6078 58.5 73.7143V68.5714C58.5 66.6779 56.965 65.1429 55.0714 65.1429Z" fill="#7AB85A" fill-opacity="0.55" stroke="#5C9442" stroke-width="1.71429"/>
<path d="M39.6429 56.5714C46.2703 56.5714 51.6429 52.7339 51.6429 48C51.6429 43.2661 46.2703 39.4286 39.6429 39.4286C33.0154 39.4286 27.6429 43.2661 27.6429 48C27.6429 52.7339 33.0154 56.5714 39.6429 56.5714Z" fill="#7AB85A" fill-opacity="0.75" stroke="#5C9442" stroke-width="1.71429"/>
<path d="M35.3571 49.7143C36.3039 49.7143 37.0714 48.9468 37.0714 48C37.0714 47.0532 36.3039 46.2857 35.3571 46.2857C34.4104 46.2857 33.6429 47.0532 33.6429 48C33.6429 48.9468 34.4104 49.7143 35.3571 49.7143Z" fill="#2D4A1F"/>
<path d="M43.9286 49.7143C44.8753 49.7143 45.6429 48.9468 45.6429 48C45.6429 47.0532 44.8753 46.2857 43.9286 46.2857C42.9818 46.2857 42.2143 47.0532 42.2143 48C42.2143 48.9468 42.9818 49.7143 43.9286 49.7143Z" fill="#2D4A1F"/>
<path d="M29.3571 38.5714C31.2507 38.5714 32.7857 37.0364 32.7857 35.1429C32.7857 33.2493 31.2507 31.7143 29.3571 31.7143C27.4636 31.7143 25.9286 33.2493 25.9286 35.1429C25.9286 37.0364 27.4636 38.5714 29.3571 38.5714Z" fill="#1A2E10"/>
<path d="M30.2143 35.3143C30.7823 35.3143 31.2428 34.8538 31.2428 34.2857C31.2428 33.7177 30.7823 33.2572 30.2143 33.2572C29.6462 33.2572 29.1857 33.7177 29.1857 34.2857C29.1857 34.8538 29.6462 35.3143 30.2143 35.3143Z" fill="white"/>
<path d="M49.9286 38.5714C51.8221 38.5714 53.3571 37.0364 53.3571 35.1429C53.3571 33.2493 51.8221 31.7143 49.9286 31.7143C48.035 31.7143 46.5 33.2493 46.5 35.1429C46.5 37.0364 48.035 38.5714 49.9286 38.5714Z" fill="#1A2E10"/>
<path d="M50.7857 35.3143C51.3538 35.3143 51.8143 34.8538 51.8143 34.2857C51.8143 33.7177 51.3538 33.2572 50.7857 33.2572C50.2176 33.2572 49.7571 33.7177 49.7571 34.2857C49.7571 34.8538 50.2176 35.3143 50.7857 35.3143Z" fill="white"/>
<path d="M73.9286 35.1429C79.6428 32.2857 81.9286 33.7143 80.7857 39.4286C79.6428 44 80.7857 45.4286 84.2143 43.7143" stroke="#5C9442" stroke-width="2.57143" stroke-linecap="round"/>
<path opacity="0.85" d="M44.7857 18H34.5C34.0266 18 33.6429 18.3838 33.6429 18.8571V19.7143C33.6429 20.1877 34.0266 20.5714 34.5 20.5714H44.7857C45.2591 20.5714 45.6429 20.1877 45.6429 19.7143V18.8571C45.6429 18.3838 45.2591 18 44.7857 18Z" fill="#1A2E10"/>
</svg>
