<svg width="114" height="37" viewBox="0 0 114 37" fill="none" xmlns="http://www.w3.org/2000/svg">
<path d="M3.27515 36.6935V29.0483H7.92431V29.8021H4.13024V32.4434H7.26557V33.1781H4.13024V35.9397H7.92431V36.6935H3.27515Z" fill="white"/>
<path d="M10.1538 36.6935V29.0483H11.75L14.6763 35.9397H14.9043V29.0483H15.7467V36.6935H14.1886L11.2179 29.8021H11.0089V36.6935H10.1538Z" fill="white"/>
<path d="M21.422 33.5457V32.7857H23.5313V36.5417C22.6065 36.7191 21.7767 36.8078 21.0483 36.8078C19.9335 36.8078 19.1671 36.4847 18.7364 35.845C18.3057 35.2053 18.0903 34.2172 18.0903 32.8807C18.0903 31.5442 18.3057 30.5498 18.7364 29.91C19.1671 29.264 19.9335 28.9409 21.0293 28.9409C21.7134 28.9409 22.4228 29.0169 23.1639 29.1626L23.5376 29.2323L23.5059 29.9417C22.5938 29.7897 21.8021 29.7073 21.1307 29.7073C20.2819 29.7073 19.7182 29.948 19.4205 30.4421C19.1228 30.9298 18.9771 31.7406 18.9771 32.8807C18.9771 34.0208 19.1228 34.8316 19.4205 35.3193C19.7182 35.807 20.2819 36.054 21.1243 36.054C21.6374 36.054 22.1631 36.0033 22.7015 35.902V33.5521H21.4347L21.422 33.5457Z" fill="white"/>
<path d="M26.8187 29.0483H25.97V36.6935H26.8187V29.0483Z" fill="white"/>
<path d="M29.46 36.6935V29.0483H31.0561L33.9824 35.9397H34.2105V29.0483H35.0529V36.6935H33.4947L30.5241 29.8021H30.315V36.6935H29.46Z" fill="white"/>
<path d="M37.7004 36.6935V29.0483H42.3496V29.8021H38.5492V32.4434H41.6845V33.1781H38.5492V35.9397H42.3496V36.6935H37.7004Z" fill="white"/>
<path d="M44.5791 36.6935V29.0483H49.2283V29.8021H45.4342V32.4434H48.5695V33.1781H45.4342V35.9397H49.2283V36.6935H44.5791Z" fill="white"/>
<path d="M52.3131 33.7672V36.6935H51.4644V29.0483H54.2893C55.1001 29.0483 55.7081 29.2384 56.1199 29.6121C56.5316 29.9858 56.7343 30.5748 56.7343 31.3666C56.7343 32.5447 56.2655 33.2858 55.3344 33.5898L56.8039 36.6935H55.8665L54.4857 33.7672H52.3195H52.3131ZM54.302 33.0134C55.3408 33.0134 55.8602 32.475 55.8602 31.4046C55.8602 30.3341 55.3344 29.7958 54.2893 29.7958H52.3131V33.0071H54.302V33.0134Z" fill="white"/>
<path d="M59.8822 29.0483H59.0334V36.6935H59.8822V29.0483Z" fill="white"/>
<path d="M62.5298 36.6935V29.0483H64.1196L67.0459 35.9397H67.274V29.0483H68.1164V36.6935H66.5582L63.5876 29.8021H63.3785V36.6935H62.5298Z" fill="white"/>
<path d="M73.7916 33.5457V32.7857H75.9009V36.5417C74.9698 36.7191 74.1464 36.8078 73.4116 36.8078C72.3032 36.8078 71.5304 36.4847 71.0997 35.845C70.669 35.2053 70.4536 34.2172 70.4536 32.8807C70.4536 31.5442 70.669 30.5498 71.0997 29.91C71.5304 29.264 72.2968 28.9409 73.3926 28.9409C74.0767 28.9409 74.7861 29.0169 75.5208 29.1626L75.8945 29.2323L75.8629 29.9417C74.9508 29.7897 74.159 29.7073 73.4876 29.7073C72.6389 29.7073 72.0688 29.948 71.7774 30.4421C71.4797 30.9298 71.3341 31.7406 71.3341 32.8807C71.3341 34.0208 71.4797 34.8316 71.7774 35.3193C72.0751 35.807 72.6389 36.054 73.4749 36.054C73.988 36.054 74.5137 36.0033 75.0521 35.902V33.5521H73.7853L73.7916 33.5457Z" fill="white"/>
<path d="M8.22824 4.23799C6.08101 4.23799 5.01056 4.9474 5.01056 6.36622C5.01056 6.99962 5.27659 7.48101 5.80864 7.81671C6.3407 8.15241 7.58216 8.6338 9.54571 9.2672C11.5029 9.89427 12.8774 10.61 13.6692 11.4081C14.4546 12.2062 14.8473 13.435 14.8473 15.0882C14.8473 17.1974 14.2075 18.7936 12.9281 19.8703C11.6486 20.9535 9.97642 21.4982 7.9052 21.4982C6.36604 21.4982 4.48483 21.2638 2.26159 20.7888L1.19748 20.5798L1.60919 17.4191C4.25047 17.7738 6.26469 17.9511 7.66451 17.9511C9.75473 17.9511 10.7935 17.0834 10.7935 15.3542C10.7935 14.7271 10.5528 14.2331 10.0714 13.8784C9.59005 13.5237 8.62728 13.1373 7.18946 12.7256C4.90288 12.0732 3.29404 11.3004 2.3566 10.4073C1.4255 9.50789 0.956787 8.26643 0.956787 6.67025C0.956787 4.66237 1.56485 3.16754 2.78732 2.17944C4.00978 1.19767 5.68196 0.703613 7.81019 0.703613C9.26701 0.703613 11.1165 0.899968 13.3651 1.29268L14.4292 1.5017L14.1062 4.71938C11.3256 4.40268 9.36836 4.24433 8.22824 4.24433" fill="white"/>
<path d="M21.137 21.131H17.1782V6.36008H21.1053V7.18983C22.4671 6.40441 23.6262 6.00537 24.589 6.00537C26.1852 6.00537 27.414 6.46775 28.2817 7.39252C30.0933 6.46775 31.7465 6.00537 33.2476 6.00537C35.1985 6.00537 36.554 6.57543 37.3077 7.70289C38.0678 8.83668 38.4415 10.6419 38.4415 13.1248V21.131H34.4827V13.2451C34.4827 11.9847 34.3434 11.0536 34.071 10.4518C33.7923 9.85012 33.2413 9.55242 32.4179 9.55242C31.7908 9.55242 31.018 9.69177 30.1123 9.96413L29.6689 10.1098C29.7449 11.5856 29.7829 12.7068 29.7829 13.4795V21.131H25.8241V13.5428C25.8241 12.086 25.6975 11.0599 25.4378 10.4582C25.1781 9.85645 24.6207 9.55875 23.7529 9.55875C22.9865 9.55875 22.2264 9.6981 21.479 9.97046L21.1243 10.0908V21.1373L21.137 21.131Z" fill="white"/>
<path d="M52.6867 10.9712V17.1152C52.7247 17.5903 52.807 17.9197 52.921 18.1033C53.0414 18.2934 53.282 18.4264 53.6621 18.5024L53.5417 21.4857C52.5346 21.4857 51.7302 21.416 51.1348 21.2767C50.5331 21.1373 49.925 20.865 49.317 20.4469C47.8981 21.1373 46.454 21.4857 44.9718 21.4857C41.9188 21.4857 40.3923 19.8705 40.3923 16.6402C40.3923 15.063 40.8167 13.9482 41.6655 13.2895C42.5142 12.6307 43.8127 12.2444 45.5672 12.124L48.7279 11.8897V10.9712C48.7279 10.3632 48.5885 9.94513 48.3162 9.7171C48.0375 9.48908 47.5941 9.37507 46.986 9.37507L41.4311 9.60942L41.3108 6.86046C43.42 6.2904 45.4215 6.00537 47.3217 6.00537C49.222 6.00537 50.5901 6.39808 51.4262 7.18983C52.2623 7.97525 52.6803 9.23572 52.6803 10.9712M46.0423 14.8667C44.9402 14.968 44.3891 15.5571 44.3891 16.6402C44.3891 17.7233 44.8705 18.268 45.8396 18.268C46.587 18.268 47.4041 18.1477 48.2908 17.9133L48.7342 17.793V14.6323L46.0486 14.8667H46.0423Z" fill="white"/>
<path d="M55.9551 21.131V6.36008H59.8822V7.92458C61.5354 6.9428 63.1125 6.29674 64.6073 6.00537V9.9958C63.0112 10.3315 61.643 10.6735 60.5029 11.0282L59.9138 11.2373V21.131H55.9551Z" fill="white"/>
<path d="M75.1217 9.72951H71.486V15.7848C71.486 16.3739 71.4987 16.7919 71.5303 17.039C71.562 17.286 71.6697 17.5013 71.8534 17.6724C72.0371 17.8497 72.3284 17.9384 72.7275 17.9384L74.9697 17.8814L75.1471 21.0421C73.8296 21.3398 72.8225 21.4854 72.1321 21.4854C70.3585 21.4854 69.1487 21.0864 68.4963 20.2883C67.8439 19.4902 67.5209 18.0207 67.5209 15.8735V9.72951H65.7791V6.35981H67.5209V2.25537H71.4797V6.35981H75.1154V9.72951H75.1217Z" fill="white"/>
<path d="M78.2888 0.450195H82.2476V4.46596H78.2888V0.450195ZM78.2888 6.35983H82.2476V21.1308H78.2888V6.35983Z" fill="white"/>
<path d="M89.3479 21.131H85.3892V6.36008H89.3163V7.18983C90.6527 6.40441 91.8879 6.00537 93.009 6.00537C94.9789 6.00537 96.3343 6.5881 97.0881 7.74722C97.8355 8.90635 98.2092 10.6989 98.2092 13.1248V21.131H94.2504V13.2451C94.2504 11.9847 94.1048 11.0536 93.8071 10.4518C93.5094 9.85012 92.9203 9.55242 92.0335 9.55242C91.2291 9.55242 90.45 9.69177 89.7026 9.96413L89.3479 10.0845V21.131Z" fill="white"/>
<path d="M114 22.9807C114 24.6655 113.348 25.907 112.049 26.7177C110.751 27.5221 108.99 27.9275 106.773 27.9275C104.556 27.9275 102.852 27.6298 101.661 27.0408C100.471 26.4517 99.8752 25.3749 99.8752 23.8231C99.8752 22.5816 100.585 21.4098 102.003 20.3077C101.275 19.8136 100.914 19.0662 100.914 18.0591C100.914 17.6664 101.212 17.014 101.801 16.1082L102.067 15.6965C100.724 14.7338 100.059 13.3086 100.059 11.4274C100.059 9.54621 100.623 8.18439 101.756 7.33564C102.89 6.48688 104.391 6.0625 106.26 6.0625C107.109 6.0625 107.945 6.15751 108.768 6.3602L109.243 6.44887L114 6.30319V9.46386L111.783 9.28651C112.214 9.95792 112.436 10.623 112.436 11.2944C112.436 13.2643 111.935 14.6198 110.928 15.3735C109.921 16.1209 108.35 16.4946 106.203 16.4946C105.747 16.4946 105.348 16.4566 104.993 16.3743C104.797 16.8873 104.695 17.3054 104.695 17.6284C104.695 17.9514 104.86 18.1731 105.196 18.2935C105.532 18.4138 106.317 18.4835 107.558 18.5025C110.041 18.5215 111.733 18.8509 112.638 19.4906C113.544 20.1303 114 21.2958 114 22.9743M103.777 23.405C103.777 24.2538 104.816 24.6782 106.893 24.6782C108.971 24.6782 110.01 24.1841 110.01 23.2023C110.01 22.6703 109.832 22.3282 109.478 22.1826C109.123 22.0369 108.375 21.9545 107.229 21.9355L104.569 21.7265C104.037 22.2586 103.771 22.816 103.771 23.4114M104.018 11.3134C104.018 12.7639 104.771 13.486 106.279 13.486C107.786 13.486 108.54 12.7639 108.54 11.3134C108.54 9.86291 107.786 9.14083 106.279 9.14083C104.771 9.14083 104.018 9.86291 104.018 11.3134Z" fill="white"/>
</svg>
