<svg width="346" height="242" viewBox="0 0 346 242" fill="none" xmlns="http://www.w3.org/2000/svg">
<path d="M280.158 240.998H98.8074C98.8074 240.998 61.8085 230.891 32.3024 180.187C2.7963 129.483 42.0655 60.0733 86.4856 28.0616C130.903 -3.95021 217.893 -13.3581 255.414 25.3934C293.271 64.4923 281.26 75.7004 280.16 99.7092C279.061 123.718 294.512 128.672 309.132 139.534C323.755 150.395 332.307 160.304 329.548 191.174C326.789 222.043 280.158 241 280.158 241V240.998Z" fill="#C7DEF7"/>
<path d="M185.255 77C190.111 77 192.956 76.1736 192.566 69.0163C192.176 61.8589 184.195 56.6837 176.548 57.0151C168.903 57.3444 165.442 64.377 164.829 66.9993H157.685C154.393 66.9993 151.602 68.7401 151.602 72.4303C151.602 76.1204 154.894 77 157.349 77H185.253H185.255Z" fill="#FDFEFE"/>
<path d="M202.48 39C205.204 39 206.8 38.5455 206.582 34.6089C206.363 30.6724 201.886 27.826 197.596 28.0083C193.307 28.1894 191.366 32.0573 191.022 33.4996H187.014C185.167 33.4996 183.602 34.4571 183.602 36.4866C183.602 38.5162 185.449 39 186.826 39H202.479H202.48Z" fill="#FDFEFE"/>
<path d="M336.283 117C342.085 117 345.487 116.009 345.02 107.421C344.553 98.8324 335.016 92.6232 325.878 93.0178C316.74 93.4153 312.604 101.852 311.87 105H303.332C299.396 105 296.062 107.091 296.062 111.518C296.062 115.944 299.998 117 302.933 117H336.283Z" fill="#C7DEF7"/>
<path d="M21.4572 85C24.4178 85 26.1528 84.5054 25.916 80.2105C25.6774 75.9156 20.8112 72.8121 16.1496 73.0089C11.488 73.2057 9.37791 77.4256 9.0029 79.0001H4.64633C2.63851 79.0001 0.9375 80.0451 0.9375 82.2587C0.9375 84.4723 2.94533 85 4.44178 85H21.4572Z" fill="#C7DEF7"/>
<path d="M54.5485 32C58.8133 32 61.312 31.2557 60.9687 24.8154C60.6253 18.3751 53.6178 13.7165 46.9039 14.0134C40.1901 14.3104 37.1498 20.6389 36.6119 22.999H30.3406C27.449 22.999 25 24.5647 25 27.8852C25 31.2056 27.8915 31.9961 30.0468 31.9961H54.5523L54.5485 32Z" fill="#C7DEF7"/>
<path d="M301.94 32C304.663 32 306.26 31.5473 306.043 27.6081C305.825 23.6689 301.345 20.8257 297.058 21.0083C292.766 21.191 290.828 25.0587 290.483 26.5002H286.475C284.627 26.5002 283.062 27.4572 283.062 29.4864C283.062 31.5155 284.91 32 286.286 32H301.94Z" fill="#C7DEF7"/>
<path d="M90.9084 28.6556C89.1824 25.9127 88.7074 22.4138 89.644 19.3162C90.1993 17.4831 91.2028 15.824 92.2598 14.2384C93.4975 12.3853 94.8556 10.5656 96.6486 9.24091C95.906 9.93669 96.9229 9.04021 96.6486 9.24091C96.9697 8.94655 97.3778 7.21381 97.5718 6.81909C98.5887 4.7786 99.3179 4.20994 100.02 3.98917C101.358 3.561 101.653 3.44058 103.038 3.23319C104.422 3.02579 106.791 4.00924 107.962 4.78529C108.45 2.99234 110.009 1.56735 111.802 1.08566C113.595 0.603968 115.582 1.01876 117.134 2.04234C117.301 2.14939 117.482 2.2765 117.676 2.24974C117.903 2.22298 118.064 2.02227 118.204 1.84833C119.288 0.510306 121.101 -0.285818 122.78 0.0955187C124.459 0.476856 125.811 2.17615 125.563 3.88213C126.861 2.86523 128.795 2.74481 130.206 3.58776C131.618 4.43072 132.427 6.19022 132.146 7.81592C133.364 7.555 134.769 7.32754 135.752 8.0969C136.943 9.02014 137.545 11.0004 137.318 12.4923C137.177 13.4156 136.341 15.436 135.404 16.2655C134.267 17.2691 133.304 16.6402 131.825 16.9613C129.624 17.4497 127.296 17.9113 125.142 17.2289" fill="#263238"/>
<path d="M139.26 30.1401C138.25 17.2483 127.499 7.29336 114.567 7.2666H113.283C99.4273 8.04266 92.3425 20.2521 93.5065 34.0806L95.9953 97.9847H127.76L127.479 77.1851C127.479 77.1851 140.806 75.1379 141 61.8245C141.093 55.3953 140.204 42.1288 139.26 30.1401Z" fill="#B78876"/>
<path d="M127.593 77.1652C127.593 77.1652 119.09 77.6603 110.152 72.0205C110.152 72.0205 114.24 81.6141 127.527 80.4434L127.593 77.1652Z" fill="#995037"/>
<path d="M134.078 40.6624C134.112 41.6659 133.289 42.5223 132.239 42.5758C131.195 42.6293 130.312 41.86 130.278 40.8564C130.245 39.8529 131.068 38.9966 132.111 38.9431C133.162 38.8895 134.038 39.6589 134.072 40.6624H134.078Z" fill="#263238"/>
<path d="M136.381 36.6497C136.147 36.8972 134.708 35.8268 132.661 35.8268C130.614 35.8 129.115 36.8504 128.888 36.5962C128.781 36.4824 129.022 36.0409 129.677 35.5659C130.319 35.0909 131.423 34.636 132.694 34.6427C133.972 34.6493 135.043 35.1243 135.658 35.606C136.287 36.0877 136.501 36.5426 136.381 36.6497Z" fill="#263238"/>
<path d="M114.395 41.5736C114.428 42.5771 113.605 43.4334 112.555 43.4869C111.511 43.5405 110.628 42.7711 110.595 41.7676C110.561 40.764 111.384 39.9077 112.428 39.8542C113.478 39.8007 114.355 40.57 114.388 41.5736H114.395Z" fill="#263238"/>
<path d="M116.24 37.6731C116.006 37.9207 114.561 36.8502 112.521 36.8502C110.474 36.8235 108.975 37.8738 108.748 37.6196C108.64 37.5059 108.875 37.0643 109.537 36.5893C110.179 36.1143 111.283 35.6594 112.554 35.6661C113.832 35.6728 114.902 36.1478 115.518 36.6295C116.147 37.1112 116.361 37.5661 116.24 37.6731Z" fill="#263238"/>
<path d="M123.666 52.1841C123.66 52.0704 124.931 51.8496 126.991 51.5887C127.513 51.5351 128.008 51.4348 128.095 51.0735C128.216 50.6989 128.002 50.1302 127.747 49.5214C127.259 48.257 126.744 46.9323 126.209 45.5408C124.075 39.8676 122.529 35.2113 122.757 35.1243C122.984 35.0373 124.904 39.5665 127.038 45.2397C127.553 46.638 128.042 47.9693 128.51 49.2471C128.704 49.8425 129.045 50.5182 128.778 51.301C128.637 51.689 128.249 51.9767 127.915 52.0637C127.58 52.164 127.286 52.1707 127.025 52.1841C124.951 52.2911 123.666 52.2978 123.653 52.1841H123.666Z" fill="#263238"/>
<path d="M117.635 53.589C117.969 53.5689 117.969 55.79 119.863 57.3756C121.756 58.9612 124.124 58.7203 124.144 59.0281C124.178 59.1686 123.616 59.4562 122.619 59.483C121.635 59.5164 120.21 59.1953 119.046 58.2319C117.889 57.2619 117.394 55.9707 117.32 55.0608C117.24 54.1309 117.488 53.5823 117.641 53.5957L117.635 53.589Z" fill="#263238"/>
<path d="M117.29 33.0373C117.096 33.5926 115.049 33.3518 112.647 33.6662C110.245 33.9338 108.312 34.6564 107.991 34.1613C107.844 33.9204 108.178 33.3986 108.954 32.85C109.724 32.3014 110.955 31.7796 112.4 31.6057C113.838 31.4317 115.163 31.6458 116.039 31.9937C116.922 32.3416 117.37 32.7697 117.29 33.0373Z" fill="#263238"/>
<path d="M136.888 30.7364C136.493 31.2448 134.727 30.9371 132.66 31.1244C130.586 31.2515 128.88 31.8202 128.425 31.3786C128.224 31.1646 128.452 30.6695 129.174 30.1544C129.884 29.6392 131.108 29.1575 132.526 29.0505C133.951 28.9434 135.222 29.2378 135.985 29.6392C136.761 30.0406 137.049 30.4955 136.882 30.7364H136.888Z" fill="#263238"/>
<path d="M95.5062 43.948C95.2787 43.8476 86.3608 41.2251 86.6351 50.3304C86.9094 59.4356 95.9946 57.2881 96.0013 57.0205C96.008 56.7596 95.5062 43.948 95.5062 43.948Z" fill="#B78876"/>
<path d="M93.9097 53.6554C93.8696 53.6287 93.7558 53.7692 93.4882 53.903C93.2273 54.0301 92.7858 54.1237 92.3041 53.9632C91.334 53.642 90.4777 52.1368 90.384 50.4977C90.3372 49.6681 90.4844 48.872 90.7587 48.2164C91.0196 47.5407 91.4344 47.0657 91.916 46.9653C92.3977 46.8382 92.7456 47.1192 92.866 47.3734C92.9932 47.6209 92.9463 47.8083 92.9932 47.8216C93.0199 47.8417 93.1872 47.6611 93.1002 47.2864C93.0601 47.1058 92.9463 46.8984 92.7255 46.7245C92.5048 46.5505 92.177 46.4702 91.8425 46.5171C91.14 46.584 90.5312 47.253 90.2301 47.9755C89.8889 48.7047 89.7016 49.6012 89.7551 50.5311C89.8689 52.3642 90.859 54.0501 92.1836 54.3913C92.8259 54.5385 93.3544 54.3311 93.6287 54.1104C93.903 53.8762 93.9431 53.6688 93.9164 53.6554H93.9097Z" fill="#995037"/>
<path d="M101.473 16.8805L105.975 12.9935L120.292 15.1812L130.341 12.5921L136.362 13.5153C135.238 15.0273 136.154 13.0002 133.866 11.2608C128.929 7.521 122.868 5.17946 116.673 5.07242C110.478 4.96537 97.8735 12.5051 93.3844 16.7801C89.7918 20.1988 89.8186 23.1558 89.8186 23.1558C89.2499 28.0797 92.0063 33.6727 93.0968 38.5096C93.6587 41.0051 94.7492 48.5448 94.7492 48.5448C96.8432 48.5381 97.6193 46.8723 97.2982 44.805L96.9034 36.6899C96.9034 36.6899 104.022 31.6322 100.65 22.3798C100.108 21.6438 98.9506 18.2586 101.459 16.8872L101.473 16.8805Z" fill="#263238"/>
<path d="M99.6143 19.0414C100.424 16.4457 103.254 14.8267 105.97 14.8601C108.686 14.8936 111.235 16.3119 113.222 18.1717C113.737 18.6534 114.232 19.1752 114.848 19.5098C115.463 19.8443 116.253 19.9714 116.868 19.6369C117.055 19.5298 117.256 19.3826 117.464 19.4429C117.611 19.483 117.711 19.6168 117.798 19.7439C118.36 20.5467 119.016 21.3295 119.905 21.7443C120.795 22.1523 121.973 22.0788 122.608 21.3362C123.598 22.2527 125.144 22.5069 126.375 21.965C127.606 21.4231 128.455 20.1052 128.449 18.7605C129.633 19.1686 130.931 18.4393 131.767 17.5027C133.092 16.0108 133.7 13.9101 133.379 11.9432C133.058 9.97633 131.821 8.17669 130.088 7.17986C128.756 6.41049 127.211 6.12282 125.686 5.90873C123.297 5.57423 120.882 5.39359 118.474 5.36683C117.417 5.35345 116.333 5.38021 115.336 5.74148C113.951 6.24324 112.801 7.36718 111.342 7.54781C110.405 7.66155 109.476 7.36718 108.572 7.10627C107.268 6.72493 105.916 6.39711 104.558 6.51754C101.889 6.75838 99.6879 8.67175 97.9217 10.6855C96.6773 12.1038 95.52 13.6827 95.1252 15.5224C94.7372 17.3622 95.3059 19.5231 96.9048 20.5133C97.5337 20.9013 98.3432 21.0886 99.0189 20.7943C99.6946 20.4999 100.129 19.6235 99.7749 18.9679" fill="#263238"/>
<path d="M95.5059 85.3683L58.543 103.739L73.7764 190.918L64.9521 241.188L160.119 241.375L153.937 144.475L167.184 105.552L127.592 84.8799C116.332 98.2066 105.548 95.5105 95.5126 85.3616L95.5059 85.3683Z" fill="#FC6262"/>
<path d="M137.895 161.822C137.895 161.822 137.741 161.842 137.453 161.849C137.126 161.849 136.711 161.849 136.189 161.849C135.045 161.849 133.466 161.849 131.533 161.842C127.606 161.842 122.173 161.929 116.186 162.217C110.198 162.505 104.786 162.946 100.872 163.314C98.9451 163.501 97.3729 163.655 96.2423 163.769C95.7271 163.816 95.3056 163.856 94.9845 163.889C94.6968 163.91 94.543 163.916 94.543 163.91C94.543 163.896 94.6902 163.869 94.9778 163.823C95.299 163.776 95.7137 163.715 96.2289 163.642C97.3194 163.488 98.8982 163.294 100.852 163.08C104.759 162.645 110.178 162.17 116.179 161.882C122.173 161.595 127.612 161.555 131.546 161.608C133.513 161.635 135.105 161.675 136.202 161.729C136.724 161.755 137.139 161.775 137.467 161.789C137.754 161.809 137.908 161.822 137.908 161.836L137.895 161.822Z" fill="#263238"/>
<path d="M152.623 153.34L182.093 152.048C182.093 152.048 175.262 107.225 165.688 104.716C156.115 102.207 150.047 130.205 150.047 130.205L152.623 153.34Z" fill="#FC6262"/>
<path d="M42.5117 163.281C42.6589 161.676 47.643 108.743 58.5412 103.746C69.4395 98.7417 75.9222 159.127 75.9222 159.127L42.5117 163.281Z" fill="#FC6262"/>
<path d="M156.333 182.08C156.333 182.08 156.32 182.026 156.306 181.926C156.293 181.806 156.28 181.658 156.26 181.478C156.226 181.056 156.179 180.481 156.119 179.758C156.019 178.233 155.872 176.086 155.698 173.436C155.363 168.098 154.955 160.718 154.6 152.57C154.246 144.415 154.038 137.029 153.972 131.677C153.952 129.001 153.931 126.84 153.958 125.341C153.972 124.618 153.978 124.043 153.985 123.622C153.998 123.227 154.005 123.02 154.018 123.02C154.018 123.02 154.032 123.073 154.038 123.173C154.038 123.294 154.052 123.441 154.059 123.622C154.065 124.043 154.079 124.618 154.099 125.341C154.125 126.866 154.172 129.021 154.219 131.67C154.353 137.015 154.594 144.401 154.955 152.55C155.31 160.698 155.678 168.077 155.945 173.416C156.079 176.066 156.186 178.213 156.26 179.738C156.293 180.461 156.313 181.036 156.333 181.458C156.347 181.852 156.347 182.06 156.333 182.06V182.08Z" fill="#E04349"/>
<path d="M71.3151 179.363C71.3151 179.363 71.295 179.169 71.2883 178.788C71.2883 178.38 71.2816 177.838 71.2749 177.149C71.2749 175.69 71.2616 173.643 71.2482 171.121C71.2214 166.03 71.101 158.998 70.9605 151.231C70.82 143.464 70.7397 136.426 70.7732 131.335C70.7866 128.786 70.8133 126.725 70.8602 125.307C70.8802 124.618 70.9003 124.076 70.9137 123.668C70.9271 123.293 70.9404 123.099 70.9538 123.099C70.9672 123.099 70.9739 123.293 70.9806 123.668C70.9806 124.076 70.9873 124.618 70.994 125.307C70.994 126.765 71.0073 128.812 71.0207 131.335C71.0475 136.426 71.1679 143.457 71.3084 151.224C71.4489 158.992 71.5292 166.023 71.4957 171.121C71.4823 173.67 71.4556 175.73 71.4087 177.149C71.3887 177.838 71.3686 178.38 71.3552 178.788C71.3418 179.162 71.3285 179.356 71.3151 179.356V179.363Z" fill="#E04349"/>
<path d="M71.0327 119.327C70.9725 119.34 70.7584 118.23 70.2165 116.504C69.668 114.784 68.7514 112.429 67.1458 110.188C65.5468 107.947 63.5532 106.361 61.9743 105.498C60.3954 104.622 59.2849 104.368 59.305 104.301C59.305 104.281 59.5926 104.328 60.081 104.468C60.5761 104.609 61.2719 104.863 62.088 105.284C63.7271 106.1 65.7944 107.693 67.4268 109.987C69.0592 112.275 69.9623 114.684 70.4507 116.437C70.6982 117.32 70.8521 118.042 70.9391 118.544C71.026 119.046 71.0595 119.327 71.0327 119.334V119.327Z" fill="#E04349"/>
<path d="M88.896 176.059L95.0509 191.868C95.0509 191.868 65.9422 207.228 59.2253 207.79C52.5084 208.352 50.4211 206.807 47.6313 201.642C45.4169 197.541 45.8116 187.472 46.3869 180.943C47.163 172.038 47.8387 162.585 47.8387 162.585L70.826 159.762L71.2407 179.297L88.9027 176.059" fill="#B78876"/>
<path d="M71.0181 179.545C71.0248 179.612 70.2488 179.612 69.1182 180.053C67.9808 180.482 66.5692 181.425 65.2312 182.716C63.8932 184.014 62.7291 185.258 61.9798 186.215C61.2238 187.178 60.8893 187.861 60.8358 187.834C60.8157 187.827 60.8759 187.64 61.0231 187.326C61.177 187.011 61.4178 186.576 61.7791 186.068C62.4949 185.051 63.6323 183.773 64.9903 182.462C66.3484 181.151 67.8403 180.194 69.0379 179.819C69.6333 179.612 70.1417 179.558 70.4829 179.518C70.8308 179.511 71.0248 179.518 71.0248 179.538L71.0181 179.545Z" fill="#995037"/>
<path d="M180.435 152.122L155.989 153.192L159.783 181.485L152.771 182.355L140.522 178.963L133.945 196.732C133.945 196.732 160.619 208.566 168.634 209.403C176.648 210.239 182.154 205.395 183.994 199.555C185.834 193.714 180.435 152.115 180.435 152.115V152.122Z" fill="#B78876"/>
<path d="M124.652 145.706H109.385C106.935 145.706 104.949 147.692 104.949 150.142V189.5C104.949 191.949 106.935 193.935 109.385 193.935H124.652C127.101 193.935 129.087 191.949 129.087 189.5V150.142C129.087 147.692 127.101 145.706 124.652 145.706Z" fill="#455A64"/>
<path d="M116.848 153.973C117.605 153.973 118.219 153.36 118.219 152.602C118.219 151.845 117.605 151.231 116.848 151.231C116.09 151.231 115.477 151.845 115.477 152.602C115.477 153.36 116.09 153.973 116.848 153.973Z" fill="white"/>
<path d="M175.718 191.774C175.651 191.794 175.37 190.67 174.474 189.058C173.598 187.453 171.999 185.379 169.644 183.847C167.289 182.315 164.747 181.692 162.92 181.538C161.08 181.378 159.936 181.572 159.93 181.498C159.93 181.478 160.211 181.411 160.726 181.344C161.241 181.278 162.004 181.237 162.94 181.291C164.8 181.385 167.416 181.98 169.831 183.552C172.246 185.124 173.852 187.279 174.688 188.938C175.116 189.774 175.384 190.483 175.531 190.985C175.685 191.487 175.738 191.768 175.718 191.774Z" fill="#995037"/>
<path d="M105.266 157.006C104.844 156.865 101.118 157.006 101.118 157.006L95.2438 163.442C95.2438 163.442 94.5414 169.456 93.5646 170.714C92.5878 171.972 88.1055 176.313 88.1055 176.313L94.2604 192.122L98.7361 191.286C98.7361 191.286 101.392 192.965 104.195 192.122C106.992 191.286 111.053 187.366 111.053 187.366L119.402 186.944L123.49 183.091L118.024 175.752L106.858 175.33L112.451 172.948L125.744 171.691C125.744 171.691 128.822 171.41 127.564 168.613C126.306 165.817 118.191 166.231 118.191 166.231L111.896 166.653C111.896 166.653 116.94 164.786 117.743 163.127C118.358 161.863 118.525 160.645 117.074 159.655C116.371 159.173 105.868 159.903 105.868 159.903L105.272 156.999L105.266 157.006Z" fill="#B78876"/>
<path d="M98.776 185.513C98.776 185.513 98.689 185.513 98.5284 185.466C98.3746 185.412 98.1471 185.332 97.8862 185.151C97.371 184.81 96.7489 184.074 96.4679 182.977C96.1735 181.88 96.3541 180.529 96.702 179.13C96.789 178.782 96.876 178.421 96.9629 178.06C97.0566 177.699 97.0767 177.364 96.876 177.076C96.6887 176.782 96.3675 176.548 96.0732 176.247C95.7788 175.939 95.5379 175.564 95.3841 175.156C95.0563 174.347 95.083 173.417 95.3841 172.668C95.6718 171.925 95.9527 171.243 95.7453 170.58C95.5647 169.925 95.1566 169.356 94.9024 168.747C94.6415 168.138 94.5144 167.536 94.4809 166.981C94.4073 165.864 94.6816 164.981 94.9291 164.419C95.0563 164.138 95.1767 163.93 95.2703 163.797C95.364 163.663 95.4175 163.596 95.4242 163.603C95.451 163.616 95.2637 163.904 95.0563 164.466C94.8489 165.027 94.6281 165.891 94.7284 166.954C94.7753 167.483 94.9091 168.058 95.17 168.627C95.4175 169.195 95.839 169.757 96.0531 170.493C96.1601 170.861 96.1735 171.283 96.0799 171.664C95.9929 172.052 95.839 172.413 95.7119 172.775C95.4376 173.484 95.4242 174.287 95.7119 175.023C95.8524 175.39 96.0665 175.725 96.3274 175.999C96.5883 176.28 96.9295 176.514 97.1703 176.889C97.2908 177.07 97.3644 177.297 97.371 177.525C97.3777 177.745 97.3376 177.946 97.2908 178.133C97.1971 178.501 97.1034 178.856 97.0165 179.204C96.6485 180.582 96.4612 181.88 96.7087 182.917C96.9429 183.961 97.4982 184.676 97.9665 185.038C98.4348 185.406 98.7827 185.473 98.7693 185.506L98.776 185.513Z" fill="#995037"/>
<path d="M122.686 181.712C122.686 181.712 122.479 181.799 122.078 181.892C121.676 181.959 121.094 182.053 120.365 182.053C118.907 182.1 116.913 181.812 114.732 181.591C112.551 181.344 110.577 181.618 109.146 181.759C107.714 181.926 106.831 182.066 106.824 182.013C106.824 181.993 107.032 181.926 107.426 181.832C107.821 181.739 108.396 181.625 109.112 181.511C110.531 181.304 112.551 180.983 114.765 181.237C116.966 181.464 118.927 181.785 120.365 181.799C121.803 181.852 122.673 181.638 122.686 181.705V181.712Z" fill="#995037"/>
<path d="M112.554 166.412C112.581 166.526 110.266 166.954 107.536 167.877C104.82 168.821 102.726 169.904 102.672 169.797C102.652 169.757 103.154 169.449 103.997 169.008C104.84 168.573 106.044 168.018 107.422 167.543C108.801 167.075 110.085 166.773 111.022 166.6C111.958 166.426 112.54 166.365 112.554 166.405V166.412Z" fill="#995037"/>
<path d="M106.616 159.38C106.65 159.467 105.894 159.915 104.924 160.383C103.954 160.852 103.131 161.16 103.084 161.073C103.037 160.986 103.793 160.537 104.777 160.069C105.76 159.601 106.583 159.293 106.616 159.38Z" fill="#995037"/>
<path d="M129.691 158.866C129.691 158.866 140.301 164.452 140.596 165.971C140.943 167.743 140.943 170.58 140.943 170.58L140.522 178.976L133.946 196.745C133.946 196.745 128.486 197.307 126.111 196.043C123.73 194.785 122.331 191.707 122.331 191.707L119.395 186.951L123 182.863L117.02 175.758C117.02 175.758 122.198 173.243 125.697 174.781C129.196 176.32 131.992 179.15 131.992 179.15L130.875 174.086L124.145 169.811L121.067 167.603C119.481 166.466 118.679 164.472 119.18 162.592C119.354 161.936 119.642 161.368 120.104 161.073C121.642 160.097 134.093 167.65 134.093 167.65C134.093 167.65 129.182 163.161 128.781 161.575C128.393 160.05 128.928 158.397 129.697 158.879L129.691 158.866Z" fill="#B78876"/>
<path d="M140.788 191.172C140.741 191.172 140.614 190.489 140.487 189.372C140.36 188.255 140.246 186.703 140.226 184.983C140.206 183.264 140.279 181.712 140.38 180.588C140.48 179.464 140.587 178.782 140.634 178.782C140.688 178.782 140.661 179.484 140.627 180.601C140.594 181.719 140.554 183.271 140.574 184.977C140.594 186.683 140.668 188.228 140.734 189.352C140.795 190.469 140.841 191.165 140.788 191.172Z" fill="#995037"/>
<path d="M122.373 181.738C122.414 181.738 122.521 182.153 122.574 182.856C122.594 183.203 122.594 183.632 122.487 184.1C122.387 184.568 122.146 185.07 121.771 185.478C121.015 186.314 120.025 186.642 119.349 186.783C118.66 186.923 118.226 186.916 118.219 186.87C118.212 186.816 118.634 186.736 119.289 186.542C119.931 186.348 120.835 186 121.51 185.244C122.213 184.501 122.313 183.531 122.327 182.856C122.34 182.173 122.327 181.738 122.373 181.738Z" fill="#995037"/>
<path d="M138.512 176.16C138.459 176.16 138.432 175.497 138.312 174.447C138.185 173.397 137.964 171.931 137.495 170.399C137.261 169.65 136.706 169.128 136.131 168.76C135.555 168.392 134.96 168.158 134.478 167.931C133.99 167.697 133.609 167.516 133.354 167.302C133.241 167.188 133.187 167.048 133.214 166.947C133.247 166.847 133.314 166.854 133.314 166.86C133.328 166.874 133.281 166.9 133.281 166.961C133.281 167.021 133.334 167.114 133.441 167.201C133.669 167.342 134.084 167.509 134.572 167.703C135.067 167.904 135.676 168.111 136.298 168.493C136.913 168.854 137.569 169.456 137.823 170.292C138.312 171.878 138.492 173.356 138.559 174.433C138.619 175.504 138.559 176.173 138.519 176.173L138.512 176.16Z" fill="#995037"/>
<path d="M119.173 162.578C119.213 162.578 119.14 162.9 119.133 163.462C119.133 164.017 119.207 164.853 119.688 165.73C120.157 166.613 121.026 167.456 122.164 168.171C123.301 168.914 124.539 169.717 125.837 170.566C127.71 171.811 129.456 172.968 130.941 173.952L131.001 173.992V174.059C131.189 175.597 131.516 176.822 131.771 177.685C132.012 178.548 132.125 179.05 132.098 179.056C132.065 179.063 131.898 178.581 131.61 177.732C131.309 176.889 130.934 175.638 130.72 174.092L130.787 174.193C129.289 173.222 127.529 172.078 125.643 170.847C124.345 169.991 123.114 169.175 121.983 168.426C120.852 167.703 119.929 166.78 119.474 165.837C118.993 164.9 118.952 164.017 118.999 163.448C119.013 163.161 119.073 162.94 119.106 162.793C119.14 162.645 119.166 162.572 119.173 162.572V162.578Z" fill="#995037"/>
<path d="M134.944 184.429C134.944 184.429 135.104 184.282 135.238 183.954C135.365 183.633 135.426 183.077 135.131 182.515C134.85 181.947 134.255 181.425 133.619 180.823C132.984 180.227 132.261 179.592 131.485 178.943C129.933 177.652 128.448 176.595 127.344 175.852C126.247 175.116 125.544 174.681 125.571 174.634C125.591 174.594 126.334 174.949 127.471 175.645C128.608 176.334 130.134 177.371 131.699 178.669C132.482 179.318 133.198 179.966 133.833 180.582C134.456 181.197 135.058 181.753 135.345 182.402C135.646 183.044 135.539 183.666 135.359 184.001C135.165 184.348 134.944 184.429 134.937 184.415L134.944 184.429Z" fill="#995037"/>
<path d="M121.169 182.019C121.169 182.019 121.356 181.939 121.698 181.838C122.032 181.738 122.541 181.604 123.069 181.29C123.604 180.996 124.093 180.387 124.086 179.571C124.099 179.169 124.032 178.741 123.959 178.286C123.885 177.838 123.805 177.376 123.564 177.008C123.33 176.64 122.929 176.433 122.507 176.319C122.086 176.205 121.644 176.145 121.229 176.078C120.4 175.951 119.65 175.878 119.015 175.824C117.75 175.724 116.961 175.717 116.961 175.663C116.961 175.623 117.75 175.543 119.028 175.583C119.67 175.603 120.433 175.657 121.269 175.764C121.691 175.824 122.126 175.871 122.594 175.991C123.049 176.105 123.557 176.353 123.852 176.821C124.146 177.276 124.226 177.784 124.293 178.233C124.36 178.687 124.427 179.136 124.4 179.584C124.38 180.025 124.253 180.46 124.012 180.788C123.778 181.123 123.477 181.343 123.183 181.504C122.594 181.812 122.072 181.905 121.718 181.972C121.363 182.032 121.162 182.039 121.162 182.019H121.169Z" fill="#995037"/>
<path d="M127.86 187.994C127.807 188.061 126.308 186.97 124.729 185.324C123.94 184.502 123.298 183.685 122.896 183.05C122.495 182.414 122.334 181.973 122.368 181.959C122.414 181.933 122.655 182.327 123.097 182.909C123.538 183.498 124.194 184.274 124.977 185.084C126.536 186.709 127.92 187.914 127.853 187.994H127.86Z" fill="#995037"/>
<path d="M232.232 52.0176C226.539 46.8863 219.28 51.295 215.4 54.2521C211.519 57.2091 209.753 61.4506 208.79 65.6253C207.826 69.7999 207.519 74.095 205.933 78.1425C204.013 83.053 200.246 87.5221 199.383 92.6266C198.467 98.0255 200.895 103.726 198.915 108.937C197.771 111.954 195.256 114.497 193.162 117.179C191.068 119.862 189.328 122.946 189.991 126.084C190.961 130.68 196.707 133.824 202.334 135.577C206.943 137.016 211.921 137.905 216.811 137.511C221.695 137.116 226.478 135.303 229.175 132.179C231.483 129.503 232.098 126.144 232.199 122.899C232.526 112.396 228.164 102.086 226.278 91.6432C223.976 78.9052 227.194 64.1401 232.225 52.0243" fill="#263238"/>
<path d="M198.57 134.54C198.57 134.54 198.523 134.48 198.449 134.346C198.376 134.213 198.255 134.019 198.122 133.744C197.881 133.196 197.566 132.353 197.459 131.209C197.352 130.071 197.446 128.653 197.827 127.074C198.195 125.495 198.831 123.749 199.6 121.869C202.704 114.37 206.35 103.692 208.665 91.5095C209.843 85.4215 210.565 79.5543 210.993 74.2022C211.201 71.5261 211.381 68.9705 211.776 66.6022C212.164 64.2339 212.773 62.0596 213.636 60.1997C214.512 58.3466 215.623 56.8346 216.774 55.6839C217.931 54.5399 219.108 53.7505 220.139 53.2554C221.176 52.7603 222.045 52.5663 222.634 52.4459C222.929 52.3991 223.163 52.379 223.31 52.3656C223.464 52.3522 223.544 52.3455 223.544 52.3522C223.544 52.3522 223.47 52.3723 223.317 52.4058C223.149 52.4325 222.929 52.4727 222.648 52.5195C222.072 52.66 221.209 52.8741 220.199 53.3825C219.189 53.8843 218.038 54.6804 216.914 55.8244C215.797 56.9684 214.713 58.4737 213.863 60.3068C213.027 62.1466 212.438 64.3008 212.064 66.649C211.682 69.0039 211.515 71.5462 211.315 74.2289C210.906 79.5944 210.191 85.4817 209.006 91.5764C206.685 103.793 202.999 114.483 199.828 121.963C199.045 123.836 198.403 125.556 198.015 127.121C197.62 128.68 197.506 130.071 197.593 131.195C197.787 133.47 198.643 134.52 198.57 134.54Z" fill="#455A64"/>
<path d="M198.738 119.896L222.755 118.879L255.155 129.804L275.968 138.34L250.345 228.811L254.252 241.449H180.828L184.133 172.835L198.738 119.896Z" fill="#FF847D"/>
<path d="M248.475 229.581C246.221 214.301 243.959 199.021 241.705 183.74C241.29 180.931 240.768 177.913 238.741 175.933C236.808 174.046 233.958 173.545 231.275 173.217C225.267 172.481 218.831 172.267 213.519 175.177C209.017 177.646 205.939 182.021 203.136 186.316C194.64 199.315 189.328 205.008 182.491 218.951L181.387 229.969C188.311 227.848 194.914 221.058 198.808 214.95C202.701 208.842 205.404 202.058 208.997 195.776C211.466 191.461 214.596 187.179 219.179 185.239C221.762 184.149 225.153 184.062 226.993 186.176C227.796 187.099 228.184 188.296 228.512 189.474C230.572 196.779 231.181 204.42 232.961 211.805C234.74 219.185 237.932 226.604 243.913 231.28C244.582 231.802 245.304 232.297 246.14 232.444C246.977 232.592 247.94 232.284 248.335 231.541C248.643 230.959 248.556 230.25 248.462 229.594L248.475 229.581Z" fill="#FC6262"/>
<path d="M168.801 154.295C168.801 153.599 179.391 119.895 198.739 119.895L192.805 160.289L168.807 154.288L168.801 154.295Z" fill="#FF847D"/>
<path d="M275.973 138.34C275.973 138.34 281.987 143.485 282.91 147.807C283.84 152.129 284.877 173.283 284.877 173.283L261.375 171.637L275.966 138.34H275.973Z" fill="#FF847D"/>
<path d="M194.916 137.558C194.916 137.558 194.916 137.711 194.882 138.006C194.842 138.334 194.789 138.748 194.722 139.27C194.581 140.367 194.34 141.953 194.019 143.913C193.377 147.827 192.34 153.206 191.129 159.127C189.911 165.054 188.841 170.419 188.139 174.313C187.797 176.233 187.523 177.799 187.322 178.936C187.229 179.451 187.155 179.873 187.102 180.194C187.048 180.481 187.015 180.629 187.001 180.629C186.988 180.629 187.001 180.475 187.035 180.187C187.075 179.859 187.128 179.444 187.195 178.923C187.336 177.825 187.577 176.24 187.898 174.28C188.54 170.366 189.577 164.987 190.788 159.066C191.999 153.146 193.076 147.78 193.778 143.88C194.12 141.96 194.394 140.394 194.595 139.257C194.688 138.742 194.762 138.32 194.815 137.999C194.869 137.711 194.902 137.564 194.916 137.564V137.558Z" fill="#E04349"/>
<path d="M267.232 153.152C267.232 153.152 267.232 153.5 267.152 154.129C267.078 154.751 266.951 155.654 266.777 156.765C266.436 158.986 265.887 162.044 265.232 165.409C264.59 168.74 264.001 171.758 263.566 174.026C263.365 175.083 263.198 175.959 263.071 176.641C262.95 177.257 262.87 177.598 262.85 177.591C262.83 177.585 262.857 177.243 262.937 176.615C263.017 175.992 263.144 175.089 263.325 173.979C263.68 171.758 264.242 168.707 264.891 165.342C265.526 162.01 266.102 158.993 266.536 156.725C266.73 155.668 266.891 154.791 267.018 154.109C267.132 153.494 267.212 153.152 267.232 153.152Z" fill="#E04349"/>
<path d="M276.539 139.304C276.539 139.304 276.479 139.364 276.345 139.478C276.198 139.598 276.004 139.752 275.756 139.953C275.214 140.334 274.398 140.896 273.234 141.405C272.077 141.913 270.571 142.361 268.772 142.522C266.979 142.676 264.885 142.502 262.751 141.706C260.596 140.91 258.629 139.344 256.395 137.966C255.271 137.284 254.053 136.655 252.695 136.34C251.344 136.019 249.885 136.006 248.434 136.22C245.503 136.648 242.627 137.939 239.516 138.889C236.412 139.879 232.933 140.16 229.521 139.498C226.115 138.856 222.951 137.384 220.416 135.317C219.138 134.286 218.074 133.082 216.983 131.978C215.9 130.874 214.762 129.851 213.444 129.202C212.133 128.54 210.695 128.272 209.31 128.212C207.912 128.165 206.554 128.312 205.262 128.56C202.673 129.055 200.325 129.851 198.104 130.292C195.896 130.754 193.802 130.901 192.029 130.533C190.256 130.179 188.831 129.449 187.855 128.647C186.858 127.851 186.329 126.981 186.042 126.385C185.894 126.084 185.821 125.843 185.767 125.676C185.714 125.516 185.694 125.429 185.7 125.429C185.7 125.429 185.741 125.509 185.801 125.663C185.861 125.823 185.948 126.058 186.102 126.352C186.403 126.934 186.945 127.77 187.935 128.54C188.912 129.316 190.323 130.011 192.063 130.339C193.809 130.68 195.863 130.52 198.05 130.052C200.251 129.597 202.586 128.787 205.202 128.272C206.507 128.018 207.892 127.857 209.317 127.904C210.735 127.964 212.22 128.232 213.585 128.914C214.956 129.583 216.12 130.64 217.218 131.744C218.315 132.855 219.372 134.046 220.623 135.056C223.118 137.083 226.223 138.535 229.574 139.164C232.926 139.812 236.331 139.538 239.402 138.568C242.486 137.638 245.376 136.34 248.374 135.905C249.859 135.685 251.357 135.705 252.756 136.046C254.154 136.374 255.398 137.029 256.535 137.725C258.79 139.137 260.73 140.689 262.831 141.485C264.918 142.274 266.985 142.468 268.752 142.335C270.525 142.194 272.016 141.773 273.174 141.291C274.331 140.809 275.154 140.267 275.703 139.906C275.957 139.719 276.158 139.572 276.311 139.458C276.452 139.358 276.519 139.311 276.526 139.311L276.539 139.304Z" fill="#FAFAFA"/>
<path d="M191.271 151.989C191.271 151.989 191.197 152.029 191.056 152.062C190.909 152.102 190.695 152.142 190.408 152.162C189.839 152.216 188.989 152.149 188.026 151.795C187.062 151.453 185.999 150.804 184.995 149.901C183.985 149.011 183.022 147.894 181.951 146.804C180.888 145.713 179.75 144.783 178.566 144.235C177.389 143.666 176.178 143.552 175.208 143.74C174.238 143.914 173.522 144.342 173.12 144.71C172.705 145.078 172.545 145.352 172.518 145.332C172.505 145.332 172.545 145.258 172.619 145.124C172.692 144.997 172.826 144.81 173.027 144.609C173.421 144.195 174.151 143.713 175.161 143.499C176.164 143.271 177.462 143.365 178.7 143.94C179.951 144.496 181.122 145.459 182.199 146.556C183.283 147.66 184.226 148.777 185.209 149.66C186.179 150.557 187.183 151.199 188.113 151.56C189.986 152.31 191.277 151.895 191.271 151.975V151.989Z" fill="#FAFAFA"/>
<path d="M260.805 170.412C260.805 170.412 259.922 171.034 258.082 171.663C256.263 172.258 253.399 172.807 249.974 172.098C248.275 171.757 246.462 171.068 244.749 169.95C243.043 168.82 241.478 167.274 239.919 165.622C238.347 163.976 236.741 162.197 234.727 160.778C232.727 159.347 230.218 158.564 227.616 158.591C225.006 158.604 222.504 159.246 220.123 159.902C217.741 160.578 215.453 161.307 213.212 161.762C208.723 162.692 204.541 162.645 201.123 162.197C197.691 161.748 194.995 160.932 193.195 160.256C192.292 159.909 191.603 159.628 191.141 159.407C190.927 159.306 190.753 159.226 190.619 159.159C190.506 159.106 190.445 159.072 190.445 159.066C190.445 159.059 190.512 159.079 190.633 159.126C190.773 159.179 190.947 159.253 191.168 159.34C191.636 159.541 192.332 159.801 193.235 160.129C195.048 160.758 197.738 161.534 201.15 161.949C204.548 162.364 208.696 162.384 213.145 161.447C215.366 160.992 217.641 160.256 220.029 159.574C222.417 158.912 224.94 158.256 227.609 158.243C228.94 158.243 230.258 158.417 231.496 158.805C232.74 159.179 233.891 159.788 234.915 160.497C236.968 161.949 238.581 163.755 240.14 165.401C241.692 167.06 243.23 168.586 244.896 169.71C246.575 170.813 248.342 171.509 250.014 171.857C253.379 172.586 256.209 172.085 258.029 171.536C258.945 171.248 259.635 170.954 260.089 170.733C260.304 170.633 260.478 170.546 260.611 170.486C260.732 170.432 260.792 170.405 260.792 170.412H260.805Z" fill="#FAFAFA"/>
<path d="M284.271 157.687C284.271 157.687 284.251 157.761 284.185 157.881C284.118 158.008 284.004 158.176 283.85 158.39C283.529 158.811 283 159.387 282.198 159.902C281.401 160.417 280.324 160.878 279.053 160.986C277.775 161.113 276.397 160.758 275.039 160.323C273.681 159.888 272.383 159.487 271.159 159.48C269.941 159.46 268.857 159.734 268.008 160.082C266.288 160.798 265.512 161.728 265.466 161.661C265.459 161.655 265.499 161.594 265.593 161.487C265.68 161.38 265.827 161.233 266.028 161.059C266.422 160.705 267.044 160.243 267.914 159.855C268.777 159.467 269.901 159.152 271.166 159.159C272.443 159.146 273.788 159.554 275.146 159.989C276.498 160.424 277.822 160.765 279.033 160.664C280.244 160.577 281.288 160.156 282.077 159.688C283.669 158.718 284.225 157.62 284.285 157.681L284.271 157.687Z" fill="#FAFAFA"/>
<path d="M258.655 190.496C258.655 190.496 258.582 190.496 258.441 190.496C258.281 190.482 258.08 190.469 257.826 190.449C257.284 190.442 256.488 190.409 255.464 190.543C254.447 190.663 253.209 190.931 251.825 191.372C250.433 191.807 248.888 192.429 247.188 193.145C245.489 193.854 243.622 194.65 241.515 195.219C239.428 195.774 237.039 196.156 234.604 195.62C233.393 195.36 232.209 194.851 231.119 194.169C230.015 193.5 228.978 192.704 227.901 191.934C226.824 191.172 225.7 190.429 224.442 189.941C223.191 189.452 221.813 189.258 220.428 189.332C217.645 189.479 215.049 190.489 212.641 191.553C210.219 192.617 207.877 193.714 205.469 194.249C203.06 194.811 200.652 194.65 198.544 194.095C196.43 193.533 194.584 192.63 193.012 191.66C191.44 190.683 190.128 189.633 189.024 188.669C187.921 187.706 187.011 186.823 186.281 186.094C185.552 185.365 184.997 184.789 184.622 184.394C184.448 184.207 184.308 184.06 184.201 183.946C184.107 183.846 184.06 183.786 184.067 183.786C184.067 183.786 184.127 183.826 184.228 183.919C184.341 184.026 184.489 184.167 184.676 184.348C185.084 184.742 185.653 185.291 186.382 186C187.88 187.398 190.021 189.519 193.146 191.453C194.711 192.403 196.537 193.279 198.625 193.821C200.705 194.356 203.047 194.503 205.402 193.941C207.763 193.406 210.085 192.316 212.507 191.245C214.922 190.175 217.551 189.144 220.414 188.991C221.839 188.91 223.271 189.118 224.569 189.626C225.867 190.135 227.018 190.891 228.101 191.66C229.185 192.429 230.209 193.232 231.293 193.888C232.363 194.563 233.507 195.052 234.678 195.306C237.033 195.835 239.374 195.48 241.448 194.938C243.536 194.389 245.395 193.613 247.101 192.911C248.807 192.208 250.366 191.6 251.771 191.178C253.176 190.75 254.427 190.503 255.457 190.402C257.525 190.208 258.655 190.496 258.655 190.496Z" fill="#FAFAFA"/>
<path d="M250.944 223.418C250.891 223.471 250.382 222.421 248.756 221.277C247.954 220.708 246.87 220.14 245.512 219.799C244.16 219.464 242.528 219.317 240.822 219.738C239.083 220.086 237.437 221.183 235.985 222.669C235.249 223.398 234.52 224.201 233.704 224.97C232.887 225.733 231.971 226.482 230.854 226.95C229.75 227.425 228.465 227.566 227.228 227.338C225.983 227.124 224.799 226.596 223.702 225.92C221.467 224.575 219.728 222.501 217.775 220.655C216.791 219.738 215.767 218.875 214.63 218.24C213.5 217.598 212.269 217.189 211.017 217.042C208.509 216.735 206.053 217.297 203.859 218.059C201.658 218.842 199.664 219.859 197.758 220.722C195.858 221.592 194.031 222.314 192.285 222.722C188.78 223.565 185.756 222.943 184.009 222C183.12 221.538 182.524 221.023 182.15 220.655C181.962 220.474 181.842 220.314 181.748 220.213C181.661 220.113 181.621 220.06 181.621 220.053C181.661 219.999 182.29 220.983 184.063 221.879C185.802 222.776 188.78 223.338 192.218 222.481C193.938 222.067 195.737 221.337 197.631 220.454C199.524 219.585 201.518 218.554 203.745 217.751C205.96 216.975 208.455 216.387 211.051 216.701C212.342 216.848 213.627 217.27 214.791 217.939C215.961 218.594 217.005 219.477 218.002 220.401C219.976 222.267 221.695 224.314 223.869 225.626C224.94 226.288 226.09 226.803 227.274 227.011C228.452 227.231 229.67 227.104 230.72 226.656C231.784 226.214 232.68 225.499 233.483 224.749C234.292 223.993 235.022 223.197 235.771 222.468C237.236 220.976 238.969 219.839 240.755 219.504C242.515 219.089 244.18 219.263 245.552 219.618C246.93 219.986 248.027 220.581 248.83 221.177C249.037 221.317 249.218 221.464 249.385 221.618C249.546 221.765 249.713 221.899 249.847 222.033C250.101 222.321 250.335 222.548 250.489 222.762C250.63 222.963 250.743 223.124 250.83 223.251C250.904 223.364 250.944 223.418 250.937 223.425L250.944 223.418Z" fill="#FAFAFA"/>
<g opacity="0.3">
<path d="M268.557 133.951C267.954 133.028 266.944 132.466 265.968 131.937C257.183 127.194 246.593 121.461 236.718 120.009C234.116 127.468 232.517 136.045 228.77 142.976C228.269 143.906 227.72 144.929 227.941 145.966C228.188 147.157 229.346 147.907 230.443 148.435C235.775 150.997 242.124 151.365 247.717 149.445C247.744 150.516 247.77 151.579 247.797 152.65C252.654 154.062 258.14 153.118 262.254 150.168C266.362 147.218 269.005 142.314 269.219 137.263C269.266 136.119 269.179 134.914 268.557 133.951Z" fill="black"/>
</g>
<path d="M255.052 59.7642C257.567 60.1589 259.36 62.4135 259.18 64.949L253.045 130.914C252.543 138.714 240.916 142.548 232.566 141.946C224.137 141.337 224.063 137.182 224.318 129.75C224.746 117.333 224.987 112.676 224.98 112.743C224.98 112.743 214.403 110.428 212.904 96.3993C212.155 89.4215 213.085 78.0951 214.142 68.8494C215.092 60.5269 221.146 50.5653 229.422 51.8698L255.065 59.7575L255.052 59.7642Z" fill="#FFBE9D"/>
<path d="M219.744 79.3C219.664 80.2433 220.393 81.0863 221.377 81.1866C222.353 81.287 223.216 80.6113 223.297 79.668C223.377 78.7247 222.648 77.8817 221.671 77.7814C220.688 77.681 219.831 78.3567 219.744 79.3Z" fill="#263238"/>
<path d="M216.265 75.38C216.473 75.6209 217.878 74.6909 219.798 74.798C221.718 74.8716 223.076 75.9353 223.297 75.7078C223.404 75.6075 223.203 75.1793 222.608 74.6976C222.026 74.2226 221.015 73.7343 219.824 73.6807C218.627 73.6272 217.597 74.0152 217.001 74.4367C216.386 74.8582 216.165 75.273 216.272 75.38H216.265Z" fill="#263238"/>
<path d="M237.99 81.0119C237.91 81.9552 238.639 82.7982 239.616 82.8985C240.593 82.9989 241.456 82.3232 241.536 81.3799C241.616 80.4366 240.887 79.5936 239.91 79.4933C238.927 79.3929 238.071 80.0686 237.99 81.0119Z" fill="#263238"/>
<path d="M235.292 76.7912C235.5 77.032 236.905 76.1021 238.825 76.2091C240.745 76.2827 242.103 77.3464 242.324 77.119C242.431 77.0186 242.23 76.5905 241.634 76.1088C241.052 75.6338 240.042 75.1454 238.851 75.0919C237.654 75.0384 236.624 75.4264 236.028 75.8479C235.419 76.2693 235.192 76.6841 235.299 76.7912H235.292Z" fill="#263238"/>
<path d="M227.461 90.0911C227.474 89.984 226.29 89.7164 224.37 89.3685C223.882 89.2949 223.42 89.1745 223.36 88.8333C223.26 88.4721 223.494 87.9569 223.761 87.395C224.283 86.2309 224.832 85.0133 225.4 83.7355C227.682 78.5239 229.368 74.2221 229.154 74.1351C228.946 74.0482 226.919 78.196 224.638 83.4143C224.089 84.6988 223.561 85.9298 223.059 87.1006C222.845 87.6492 222.497 88.2647 222.704 89.014C222.818 89.3886 223.166 89.6696 223.474 89.7699C223.781 89.8837 224.056 89.9037 224.303 89.9305C226.243 90.1312 227.454 90.2048 227.468 90.0978L227.461 90.0911Z" fill="#263238"/>
<path d="M224.972 112.75C224.972 112.75 234.305 113.827 243.865 108.729C243.865 108.729 238.667 118.31 224.805 116.303L224.979 112.757L224.972 112.75Z" fill="#EB996E"/>
<path d="M228.034 94.761C228.77 93.8846 230.008 93.4431 231.199 93.6304C232.028 93.7642 232.851 94.2058 233.32 94.9149C233.795 95.6174 233.848 96.5874 233.353 97.2096C232.798 97.9121 231.707 98.0258 230.804 97.7181C229.901 97.4103 229.145 96.7681 228.423 96.1258C228.222 95.9519 228.021 95.7646 227.901 95.5304C227.78 95.2962 227.774 94.9952 227.941 94.8145" fill="#EB996E"/>
<path d="M233.037 91.7035C232.723 91.6701 232.616 93.7507 230.756 95.1422C228.903 96.5338 226.688 96.1859 226.662 96.4803C226.628 96.6074 227.137 96.9084 228.073 96.982C228.99 97.0623 230.348 96.8348 231.485 95.9852C232.623 95.1356 233.151 93.9447 233.265 93.0951C233.392 92.2254 233.185 91.6968 233.037 91.7035Z" fill="#263238"/>
<path d="M234.498 69.1711C234.719 69.6796 236.619 69.325 238.887 69.4655C241.155 69.5592 243.015 70.1144 243.282 69.6261C243.403 69.3919 243.055 68.9236 242.292 68.462C241.536 68.0004 240.345 67.5856 238.987 67.5187C237.629 67.4518 236.398 67.7328 235.602 68.1141C234.792 68.4954 234.404 68.9303 234.498 69.1711Z" fill="#263238"/>
<path d="M216.516 72.931C216.804 73.4127 218.229 73.1585 219.875 73.3659C221.527 73.5198 222.865 74.0817 223.246 73.6736C223.42 73.4729 223.26 73.0113 222.711 72.5162C222.169 72.0212 221.219 71.5462 220.082 71.4258C218.951 71.2986 217.914 71.5529 217.285 71.9141C216.643 72.2754 216.389 72.6969 216.516 72.931Z" fill="#263238"/>
<path d="M253.261 86.0565C253.555 83.0995 256.874 81.2865 259.369 82.8921C260.741 83.7752 261.737 85.4678 261.456 88.6055C260.7 96.9748 252.458 94.4928 252.465 94.2519C252.465 94.1048 252.92 89.522 253.261 86.0632V86.0565Z" fill="#FFBE9D"/>
<path d="M255.301 91.3015C255.341 91.2815 255.435 91.4153 255.676 91.5491C255.903 91.6829 256.312 91.7966 256.766 91.6695C257.676 91.422 258.553 90.0906 258.727 88.5854C258.814 87.8227 258.727 87.0868 258.506 86.4646C258.305 85.829 257.951 85.3674 257.509 85.247C257.074 85.1065 256.74 85.3407 256.613 85.5681C256.479 85.7889 256.519 85.9628 256.472 85.9762C256.445 85.9963 256.305 85.8223 256.405 85.4811C256.452 85.3206 256.572 85.1266 256.78 84.9861C256.994 84.8389 257.295 84.7854 257.603 84.8456C258.245 84.9459 258.773 85.5949 259.008 86.2773C259.282 86.9664 259.402 87.8026 259.302 88.6523C259.095 90.3315 258.091 91.8301 256.853 92.0709C256.251 92.1713 255.776 91.9505 255.542 91.7297C255.301 91.5022 255.275 91.3082 255.301 91.2949V91.3015Z" fill="#EB996E"/>
<path d="M270.812 121.394C270.116 115.641 272.451 111.941 272.404 106.147C272.344 99.049 270.745 91.1212 269.36 84.1434C268.002 77.2861 265.908 71.3185 263.453 64.7488C260.998 58.1858 254.622 51.6362 248.126 48.6992C242.406 46.1034 234.92 46.826 230.511 51.0073C230.183 51.0207 229.862 51.0207 229.541 50.9939C219.726 50.1576 218.375 57.3696 218.375 57.3696C224.47 51.6763 228.631 56.6805 228.631 56.6805C232.331 52.8404 238.506 56.1587 240.626 59.7981C243.624 64.9294 243.905 67.9868 244.687 70.6695C246.654 77.3931 252.682 78.7311 252.327 85.729C251.879 94.6938 246.768 101.605 246.079 110.556C245.918 112.61 245.55 116.383 244.988 118.363C244.206 121.106 231.949 141.792 239.757 143.518C240.051 143.532 240.339 143.512 240.626 143.471L249.31 142.996L256.328 138.501L256.107 143.097L267.601 143.886C270.397 141.518 271.194 137.544 270.906 133.931C270.618 130.319 271.24 124.98 270.805 121.387L270.812 121.394Z" fill="#263238"/>
<path d="M228.273 55.9841C228.273 55.9841 228.307 55.8771 228.394 55.6897C228.481 55.5024 228.621 55.2281 228.815 54.8869C229.21 54.2112 229.799 53.201 230.849 52.2309C231.378 51.7559 232.047 51.2943 232.876 51.0602C233.692 50.8126 234.656 50.8193 235.566 51.1204C237.412 51.7225 238.951 53.2545 240.255 54.9538C242.918 58.3658 244.658 61.8848 245.868 64.4203C246.471 65.6915 246.932 66.7351 247.247 67.4577C247.387 67.7922 247.501 68.0665 247.601 68.2939C247.675 68.4879 247.715 68.5883 247.702 68.595C247.688 68.6017 247.635 68.508 247.534 68.3207C247.421 68.0999 247.287 67.8323 247.126 67.5112C246.752 66.7552 246.256 65.7517 245.648 64.5274C244.377 62.0253 242.617 58.5397 239.981 55.1679C238.69 53.4887 237.191 52.0102 235.465 51.4281C234.616 51.1405 233.726 51.1204 232.957 51.3412C232.18 51.5485 231.538 51.97 231.016 52.4183C229.973 53.3348 229.357 54.3116 228.936 54.9605C228.514 55.6228 228.3 56.0042 228.28 55.9908L228.273 55.9841Z" fill="#455A64"/>
<path d="M241.091 60.615C241.038 60.6417 240.63 59.7185 239.807 58.3336C239.385 57.6446 238.864 56.8418 238.208 56.0122C237.546 55.1893 236.77 54.2995 235.779 53.6104C235.291 53.2692 234.763 52.9816 234.227 52.8812C233.699 52.7875 233.157 52.928 232.702 53.1488C231.772 53.6037 231.09 54.3062 230.521 54.8682C229.41 56.0389 228.675 56.7347 228.634 56.6879C228.614 56.6678 228.788 56.4872 229.083 56.1393C229.377 55.7981 229.798 55.2963 230.347 54.6942C230.902 54.1055 231.571 53.3696 232.568 52.8544C233.063 52.6069 233.665 52.433 234.294 52.54C234.91 52.647 235.472 52.9548 235.987 53.3161C237.024 54.0453 237.807 54.9618 238.469 55.8115C239.124 56.6678 239.633 57.4974 240.028 58.2132C240.416 58.9291 240.69 59.5245 240.864 59.946C241.031 60.3674 241.118 60.6016 241.091 60.615Z" fill="#455A64"/>
<path d="M254.285 138.394C254.285 138.394 254.318 138.314 254.392 138.16C254.479 137.992 254.586 137.772 254.733 137.497C254.887 137.203 255.074 136.842 255.295 136.427C255.502 135.992 255.737 135.49 255.998 134.928C257.021 132.667 258.393 129.315 259.409 124.987C260.467 120.672 261.162 115.393 261.182 109.513C261.209 103.632 260.487 97.1826 259.155 90.5327C257.824 83.876 256.051 77.6408 254.358 72.0077C252.626 66.388 251.201 61.2433 249.06 57.343C246.973 53.4092 244.216 50.9138 242.102 49.6426C241.038 49.0071 240.149 48.619 239.533 48.405C239.232 48.2845 238.985 48.2243 238.831 48.1641C238.67 48.1106 238.59 48.0838 238.59 48.0771C238.59 48.0771 238.677 48.0905 238.837 48.1307C238.998 48.1775 239.245 48.2243 239.553 48.3381C240.182 48.5321 241.085 48.9 242.169 49.5222C244.323 50.7666 247.133 53.262 249.274 57.2159C251.468 61.1363 252.92 66.2944 254.666 71.9007C256.379 77.5338 258.165 83.7756 259.496 90.4524C260.834 97.1224 261.55 103.598 261.504 109.506C261.463 115.407 260.741 120.712 259.65 125.034C258.6 129.376 257.188 132.727 256.118 134.975C255.844 135.53 255.596 136.025 255.382 136.46C255.148 136.875 254.954 137.23 254.787 137.517C254.633 137.792 254.506 138.006 254.419 138.166C254.332 138.314 254.285 138.387 254.285 138.38V138.394Z" fill="#455A64"/>
<path d="M256.698 142.021C256.698 142.021 256.745 141.947 256.852 141.813C256.973 141.666 257.133 141.479 257.334 141.231C257.555 140.97 257.815 140.656 258.123 140.288C258.411 139.893 258.745 139.445 259.113 138.937C260.565 136.883 262.458 133.712 263.863 129.417C265.308 125.148 266.245 119.796 266.238 113.835C266.252 107.868 265.242 101.345 263.609 94.6614C261.983 87.9646 260.003 81.696 258.384 75.9358C256.779 70.1756 255.447 64.9573 253.735 60.7759C252.892 58.6819 251.982 56.8555 251.072 55.3168C250.149 53.7848 249.225 52.5471 248.402 51.5837C247.573 50.6337 246.891 49.9313 246.389 49.4964C246.155 49.2823 245.974 49.1084 245.833 48.9813C245.706 48.8608 245.646 48.8006 245.653 48.7939C245.653 48.7939 245.726 48.8408 245.86 48.9478C246.001 49.0682 246.195 49.2288 246.442 49.4362C246.964 49.8577 247.667 50.5468 248.516 51.4834C249.352 52.4334 250.302 53.6643 251.246 55.2031C252.176 56.7418 253.112 58.5749 253.969 60.6689C255.721 64.8569 257.08 70.0886 258.699 75.8354C260.331 81.5822 262.325 87.8509 263.957 94.5611C265.596 101.265 266.606 107.821 266.573 113.822C266.566 119.816 265.589 125.202 264.111 129.483C262.673 133.792 260.732 136.963 259.24 139.004C258.859 139.505 258.518 139.954 258.217 140.342C257.896 140.703 257.621 141.011 257.401 141.265C257.187 141.499 257.019 141.686 256.892 141.827C256.779 141.954 256.712 142.014 256.712 142.007L256.698 142.021Z" fill="#455A64"/>
<path d="M250.631 120.719C250.631 120.719 250.116 120.016 249.708 118.524C249.307 117.039 249.14 114.744 249.809 112.055C250.143 110.717 250.665 109.298 251.341 107.827C252.01 106.355 252.826 104.836 253.662 103.231C254.492 101.625 255.335 99.9256 255.963 98.0725C256.599 96.226 257 94.2123 256.873 92.1517C256.76 90.0845 256.224 88.1109 255.562 86.2711C254.893 84.4246 254.097 82.7053 253.348 81.0595C251.829 77.7813 250.458 74.8243 249.3 72.3289C248.169 69.8602 247.253 67.8532 246.597 66.4349C246.296 65.7592 246.055 65.2173 245.881 64.8226C245.808 64.6553 245.754 64.5148 245.701 64.4011C245.661 64.3074 245.647 64.2539 245.654 64.2539C245.654 64.2539 245.687 64.294 245.734 64.3877C245.788 64.5014 245.861 64.6352 245.942 64.7958C246.136 65.1838 246.39 65.7124 246.718 66.3814C247.393 67.793 248.343 69.7799 249.521 72.2352C250.698 74.7173 252.09 77.6676 253.635 80.9324C254.398 82.5715 255.207 84.3042 255.883 86.1641C256.559 88.0239 257.107 90.0309 257.221 92.145C257.348 94.2591 256.934 96.3263 256.285 98.1996C255.642 100.079 254.779 101.792 253.943 103.398C253.1 105.003 252.277 106.509 251.602 107.967C250.919 109.419 250.384 110.817 250.043 112.135C249.354 114.778 249.481 117.039 249.835 118.511C250.009 119.253 250.237 119.802 250.384 120.177C250.551 120.538 250.638 120.732 250.625 120.739L250.631 120.719Z" fill="#455A64"/>
<path d="M172.161 155.132C172.161 155.132 165.865 181.351 164.989 188.061C163.838 196.926 161.276 210.981 163.597 216.554C165.919 222.121 173.539 225.466 178.175 224.308C182.818 223.151 210.897 183.064 210.897 182.107L201.845 171.898L186.759 182.107L190.719 159.775L172.154 155.132H172.161Z" fill="#FFBE9D"/>
<path d="M235.37 129.643H216.517C215.209 129.643 214.148 130.703 214.148 132.011V172.225C214.148 173.533 215.209 174.594 216.517 174.594H235.37C236.677 174.594 237.738 173.533 237.738 172.225V132.011C237.738 130.703 236.677 129.643 235.37 129.643Z" fill="#455A64"/>
<path d="M229.517 155.627C227.778 155.332 224.373 155.921 224.373 155.921L212.29 157.587L215.916 153.118C215.916 153.118 225.791 151.352 227.851 150.763C228.688 150.522 228.882 149.94 228.808 149.325C228.681 148.268 227.724 147.498 226.661 147.525L213.113 147.819L203.827 155.928V167.863L201.145 172.386L210.417 182.354C210.417 182.354 216.793 178.915 217.381 177.584C217.97 176.259 217.823 175.082 217.823 175.082L225.717 172.426C226.621 172.125 227.196 171.242 227.122 170.298L227.102 170.077L217.08 169.342L228.005 167.448C228.728 167.321 229.23 166.672 229.169 165.943C229.116 165.261 228.574 164.719 227.892 164.652L215.154 163.448L225.724 159.902C225.724 159.902 229.216 158.858 230.916 157.995C231.892 157.5 231.431 155.975 229.497 155.647L229.517 155.627Z" fill="#FFBE9D"/>
<path d="M188.702 180.802C188.702 180.802 188.468 181.023 188.013 181.371C187.558 181.719 186.882 182.207 186.046 182.809C184.38 184.014 182.038 185.619 179.603 187.579C178.392 188.569 177.288 189.56 176.332 190.516C175.395 191.486 174.579 192.396 173.977 193.219C172.739 194.845 172.164 195.989 172.104 195.955C172.083 195.942 172.217 195.654 172.485 195.146C172.612 194.885 172.786 194.577 173.007 194.236C173.227 193.888 173.462 193.487 173.776 193.079C174.365 192.229 175.168 191.292 176.104 190.296C177.061 189.319 178.171 188.309 179.389 187.312C181.838 185.338 184.206 183.759 185.912 182.615C186.721 182.073 187.404 181.625 187.939 181.271C188.421 180.956 188.695 180.789 188.708 180.809L188.702 180.802Z" fill="#EB996E"/>
<path d="M227.179 135.028C227.179 135.623 226.697 136.112 226.095 136.112C225.493 136.112 225.012 135.623 225.012 135.028C225.012 134.433 225.5 133.945 226.095 133.945C226.69 133.945 227.179 134.433 227.179 135.028Z" fill="#E0E0E0"/>
<path d="M249.108 157.707L243.127 148.528C243.127 148.528 229.566 144.046 227.86 144.367C226.563 144.608 226.375 146.481 226.355 147.358C226.355 147.632 226.362 147.812 226.362 147.812L228.115 148.99L236.083 150.455L240.779 153.66L237.575 152.161L228.202 150.709C226.904 150.509 225.552 151.05 224.877 152.174C224.729 152.422 224.85 152.529 224.83 152.783C224.716 153.981 228.616 155.138 228.616 155.138L235.648 157.219L238.116 161.768L229.473 159.105C229.473 159.105 224.161 160.865 223.813 161.561C223.458 162.25 227.432 163.982 227.753 164.003C228.075 164.023 234.49 167.006 234.49 167.006L228.148 167.267L221.324 168.538L224.127 169.843L229.473 170.525L234.062 172.767L233.848 176.928C233.848 176.928 235.875 181.196 237.742 182.267C239.608 183.337 247.302 172.874 247.302 172.874L247.837 167.856L249.122 163.16L248.479 160.296L249.122 157.714L249.108 157.707Z" fill="#FFBE9D"/>
<path d="M237.734 182.267L247.549 228.241C247.549 228.241 250.526 237.922 261.31 237.922C271.205 237.922 274.831 219.25 274.831 219.25L283.441 173.181L264.154 171.489L258.862 198.764L247.301 172.874L237.741 182.267H237.734Z" fill="#FFBE9D"/>
<path d="M265.511 224.582C265.511 224.582 265.511 224.174 265.584 223.452C265.624 223.09 265.665 222.649 265.685 222.134C265.711 221.619 265.765 221.037 265.752 220.388C265.785 219.09 265.725 217.544 265.551 215.838C265.357 214.139 265.042 212.279 264.547 210.359C264.032 208.446 263.39 206.673 262.721 205.094C262.032 203.529 261.323 202.15 260.654 201.04C260.339 200.471 260.005 199.989 259.73 199.555C259.463 199.113 259.202 198.752 258.994 198.457C258.58 197.862 258.352 197.527 258.372 197.514C258.392 197.501 258.647 197.808 259.102 198.377C259.329 198.658 259.603 199.013 259.891 199.448C260.185 199.876 260.533 200.351 260.861 200.919C261.564 202.023 262.293 203.401 263.009 204.974C263.698 206.559 264.36 208.345 264.875 210.279C265.377 212.212 265.685 214.092 265.865 215.812C266.019 217.531 266.059 219.09 265.992 220.394C265.986 221.05 265.912 221.639 265.872 222.154C265.832 222.669 265.772 223.111 265.711 223.472C265.598 224.194 265.524 224.589 265.504 224.582H265.511Z" fill="#EB996E"/>
<path d="M284.884 173.283C284.884 173.283 284.85 173.136 284.817 172.848C284.783 172.527 284.743 172.112 284.696 171.604C284.603 170.48 284.476 168.927 284.315 167.027C284.001 163.161 283.592 157.822 283.057 151.935C282.883 150.182 282.749 148.456 282.475 146.863C282.121 145.311 281.144 144.027 280.221 142.923C278.307 140.729 276.334 139.123 274.815 137.966L274.835 137.979C273.631 137.464 272.661 137.049 271.952 136.748C271.644 136.607 271.396 136.5 271.196 136.407C271.028 136.326 270.941 136.28 270.941 136.273C270.941 136.266 271.042 136.293 271.216 136.353C271.423 136.434 271.677 136.527 271.992 136.641C272.708 136.922 273.684 137.303 274.909 137.785H274.922L274.929 137.798C276.488 138.936 278.495 140.515 280.448 142.722C281.398 143.833 282.408 145.124 282.803 146.797C283.091 148.436 283.224 150.142 283.398 151.901C283.934 157.795 284.302 163.141 284.556 167.007C284.67 168.907 284.763 170.466 284.83 171.59C284.85 172.105 284.87 172.513 284.884 172.834C284.89 173.122 284.89 173.269 284.884 173.269V173.283Z" fill="#263238"/>
</svg>
