<svg width="196" height="145" viewBox="0 0 196 145" fill="none" xmlns="http://www.w3.org/2000/svg">
<g clip-path="url(#clip0_6232_29157)">
<g clip-path="url(#clip1_6232_29157)">
<path d="M142.144 6.34631C142.144 6.34631 129.06 8.21801 124.653 12.516C120.246 16.8141 118.356 30.6502 120.954 32.2024C123.223 33.5589 126.213 30.5288 128.902 22.1259C129.705 19.6112 131.779 17.6975 134.353 17.1139C139.208 16.0074 144.43 14.9772 144.43 14.9772" fill="#F69A88"/>
<path d="M145.988 10.2632C145.988 10.2632 132.903 12.1349 128.496 16.4329C124.089 20.731 122.2 34.5671 124.797 36.1193C127.067 37.4758 130.057 34.4457 132.746 26.0428C133.548 23.528 135.623 21.6143 138.196 21.0308C143.052 19.9243 148.273 18.894 148.273 18.894" fill="#F69A88"/>
<path d="M150.949 13.9159C150.949 13.9159 137.865 15.7876 133.458 20.0856C129.051 24.3837 127.161 38.2198 129.759 39.772C132.029 41.1285 135.019 38.0984 137.707 29.6955C138.51 27.1807 140.584 25.2671 143.158 24.6835C148.013 23.577 153.235 22.5467 153.235 22.5467" fill="#F69A88"/>
<path d="M175.273 45.8216L187.697 55.0092L170.196 73.5459L158.025 62.02L175.273 45.8216Z" fill="#FDAB95"/>
<path d="M122.346 8.03623L67.4658 8.08409C65.1343 8.08612 63.2464 9.97689 63.249 12.3072L63.2865 46.0631C63.289 48.3934 65.1812 50.2809 67.5127 50.2789L122.393 50.231C124.724 50.229 126.612 48.3382 126.609 46.0078L126.572 12.252C126.569 9.92167 124.677 8.03419 122.346 8.03623Z" fill="#E3312C"/>
<path d="M110.612 26.0487C110.527 26.2245 110.374 26.3675 110.175 26.4361C109.777 26.5736 109.342 26.3621 109.205 25.9641C106.221 17.3246 96.764 12.7238 88.1244 15.7085C87.7259 15.846 87.2914 15.6345 87.1538 15.2365C87.0163 14.8384 87.2278 14.4035 87.626 14.2656C89.9356 13.468 92.3328 13.1462 94.7512 13.3097C97.0867 13.4679 99.3425 14.0693 101.456 15.0978C103.57 16.1263 105.436 17.5299 107.002 19.2699C108.623 21.0716 109.85 23.1563 110.648 25.4657C110.717 25.6648 110.698 25.8731 110.613 26.0488L110.612 26.0487Z" fill="#FCEAEA"/>
<path d="M106.241 27.5588C106.156 27.7345 106.004 27.8773 105.804 27.9462C105.406 28.0836 104.971 27.8722 104.834 27.4741C103.791 24.4564 101.636 22.0254 98.7649 20.6287C95.8938 19.232 92.6508 19.0368 89.6334 20.0793C89.2349 20.2167 88.8004 20.0053 88.6628 19.6072C88.5253 19.2091 88.7368 18.7742 89.1349 18.6367C90.8544 18.0425 92.6395 17.8032 94.4402 17.925C96.1789 18.0427 97.8589 18.4907 99.4326 19.2564C101.007 20.0222 102.396 21.0673 103.561 22.3626C104.769 23.7042 105.682 25.2562 106.276 26.976C106.345 27.1751 106.327 27.3834 106.241 27.5592L106.241 27.5588Z" fill="#FCEAEA"/>
<path d="M101.872 29.0691C101.787 29.2448 101.634 29.3876 101.435 29.4564C101.036 29.5939 100.602 29.3824 100.464 28.9844C99.8251 27.134 98.5037 25.6436 96.7434 24.7868C94.983 23.9304 92.9946 23.8109 91.1443 24.4498C90.7458 24.5873 90.3113 24.3758 90.1737 23.9778C90.0363 23.5793 90.2477 23.1448 90.6458 23.0072C92.8815 22.2349 95.2839 22.3795 97.4109 23.4141C99.5378 24.4487 101.134 26.2497 101.907 28.4854C101.976 28.6845 101.957 28.8929 101.872 29.0686L101.872 29.0691Z" fill="#FCEAEA"/>
<path d="M97.4972 30.5784C97.4118 30.7541 97.2596 30.8969 97.0601 30.9657C96.6617 31.1032 96.2271 30.8918 96.0896 30.4937C95.8538 29.8107 95.366 29.2605 94.7163 28.9444C94.0666 28.6283 93.3329 28.5842 92.6499 28.8199C92.2515 28.9574 91.8169 28.7459 91.6794 28.3479C91.5419 27.9494 91.7534 27.5149 92.1515 27.3773C93.2198 27.0082 94.3678 27.0774 95.3841 27.5718C96.4005 28.0661 97.1634 28.927 97.5322 29.9948C97.6012 30.1939 97.5827 30.4023 97.4973 30.578L97.4972 30.5784Z" fill="#FCEAEA"/>
<rect width="35.3684" height="16.2503" rx="3.2" transform="matrix(0.651315 -0.758807 0.758806 0.651318 158.282 72.0438)" fill="#8A1E1B"/>
<path d="M118.626 15.3196C122.214 16.0881 139.916 23.4684 140.788 18.9955C141.66 14.5174 125.674 10.877 117.737 8.69785C109.799 6.51864 108.238 0.300372 117.072 0.465257C125.906 0.635399 156.963 7.4662 161.182 13.8243C165.402 20.1823 175.271 45.8209 175.271 45.8209L158.018 62.0197C152.879 57.3233 144.281 46.2497 139.67 36.2829C135.61 27.5149 118.803 24.7874 114.833 21.3142C110.144 17.2164 115.033 14.5515 118.621 15.32L118.626 15.3196Z" fill="#FDAB95"/>
<path d="M71.3776 83.327C71.3776 83.327 81.7804 75.1819 87.9358 74.9737C94.0899 74.7707 105.392 82.9766 104.719 85.9233C104.132 88.5001 99.8717 88.5622 91.9412 84.687C89.5686 83.5309 86.7548 83.7002 84.549 85.1494C80.3942 87.8886 76.0369 90.9418 76.0369 90.9418" fill="#F69A88"/>
<path d="M71.9446 89.4486C71.9446 89.4486 82.3474 81.3035 88.5028 81.0953C94.657 80.8923 105.959 89.0982 105.286 92.0449C104.699 94.6217 100.439 94.6837 92.5083 90.8086C90.1357 89.6525 87.3218 89.8217 85.1161 91.271C80.9613 94.0102 76.6039 97.0634 76.6039 97.0634" fill="#F69A88"/>
<path d="M70.0941 94.7549C70.0941 94.7549 80.4969 86.6098 86.6523 86.4016C92.8064 86.1986 104.109 94.4045 103.436 97.3513C102.849 99.928 98.5881 99.9901 90.6525 96.1136C88.28 94.9576 85.4661 95.1268 83.2603 96.5761C79.1055 99.3152 74.7482 102.368 74.7482 102.368" fill="#F69A88"/>
<path d="M67.6762 98.3254C67.6762 98.3254 78.079 90.1803 84.2344 89.9721C90.3885 89.7691 101.691 97.975 101.018 100.922C100.431 103.499 96.1703 103.561 88.2398 99.6854C85.8672 98.5294 83.0534 98.6986 80.8476 100.148C76.6928 102.887 72.3355 105.94 72.3355 105.94" fill="#F69A88"/>
<path d="M99.0744 116.587L99.274 32.7834C99.2825 29.2325 96.4094 26.3465 92.8568 26.3372L53.623 26.2345C50.0704 26.2252 47.1836 29.0962 47.1751 32.6471L46.9755 116.451C46.9671 120.002 49.8402 122.888 53.3928 122.897L92.6266 123C96.1792 123.009 99.066 120.138 99.0744 116.587Z" fill="#1E3358"/>
<path d="M95.8965 116.579L96.096 32.7749C96.1003 30.9776 94.6461 29.5168 92.8479 29.5121L53.6141 29.4094C51.816 29.4047 50.3548 30.8579 50.3505 32.6552L50.1509 116.459C50.1467 118.256 51.6009 119.717 53.3991 119.722L92.6329 119.824C94.431 119.829 95.8922 118.376 95.8965 116.579Z" fill="#FCEAEA"/>
<path d="M85.2034 33.1212L61.2315 33.056C60.4365 33.0519 59.7332 32.5547 59.4666 31.8062L58.5884 29.3368L87.869 29.4153L86.978 31.8785C86.7094 32.6231 85.9996 33.1202 85.2046 33.116L85.2034 33.1212Z" fill="#1E3358"/>
<path d="M75.737 30.3334L70.715 30.3211C70.4552 30.3209 70.2489 30.1112 70.249 29.8514C70.2492 29.5917 70.459 29.3856 70.7188 29.3858L75.7408 29.3981C76.0006 29.3983 76.2069 29.608 76.2068 29.8678C76.2067 30.1275 75.9968 30.3336 75.737 30.3334Z" fill="#212121"/>
<path d="M80.216 29.8751C80.2152 30.2321 79.9275 30.5177 79.5703 30.5168C79.2132 30.5159 78.9273 30.2283 78.9282 29.8713C78.929 29.5144 79.2166 29.2287 79.5738 29.2296C79.9309 29.2305 80.2168 29.5181 80.216 29.8751Z" fill="#212121"/>
<path d="M17.046 111.905L5.51421 114.408L11.0033 138.008L31.4719 130.666L17.046 111.905Z" fill="#FDAB95"/>
<path d="M77.8576 90.9024C74.1927 91.0843 56.4077 95.093 52.73 92.3979C49.7527 90.2126 46.7504 86.1685 47.0662 74.1212C47.0662 74.1212 41.2761 76.9891 36.0948 82.5877C30.9084 88.1851 17.0473 111.904 17.0473 111.904L31.4732 130.665C37.3 126.856 47.5653 117.308 53.7187 108.212C59.1344 100.21 76.1614 100.219 80.6386 97.4288C85.9243 94.1376 81.5277 90.7218 77.8628 90.9037L77.8576 90.9024Z" fill="#FDAB95"/>
<rect width="35.3684" height="16.2503" rx="3.2" transform="matrix(0.290298 0.956937 -0.956936 0.290299 13.424 107.694)" fill="#8A1E1B"/>
</g>
</g>
<defs>
<clipPath id="clip0_6232_29157">
<rect width="196" height="145" fill="white"/>
</clipPath>
<clipPath id="clip1_6232_29157">
<rect width="214.575" height="218.214" fill="white" transform="translate(-9 -36)"/>
</clipPath>
</defs>
</svg>
