<svg width="21" height="20" viewBox="0 0 21 20" fill="none" xmlns="http://www.w3.org/2000/svg">
<path d="M16.3333 0H4.66667C2.36667 0 0.5 1.86667 0.5 4.16667V15.8333C0.5 18.1333 2.36667 20 4.66667 20H16.3333C18.6333 20 20.5 18.1333 20.5 15.8333V4.16667C20.5 1.86667 18.6333 0 16.3333 0ZM18.8333 15.8333C18.8333 17.2083 17.7083 18.3333 16.3333 18.3333H4.66667C3.29167 18.3333 2.16667 17.2083 2.16667 15.8333V4.16667C2.16667 2.79167 3.29167 1.66667 4.66667 1.66667H16.3333C17.7083 1.66667 18.8333 2.79167 18.8333 4.16667V15.8333ZM17.1667 5V15C17.1667 15.9167 16.4167 16.6667 15.5 16.6667H5.5C4.58333 16.6667 3.83333 15.9167 3.83333 15V5C3.83333 4.08333 4.58333 3.33333 5.5 3.33333H7.16667C7.5 3.33333 7.80833 3.53333 7.93333 3.85C8.06667 4.15833 7.99167 4.51667 7.75 4.75833L5.49167 7.01667V15.0083H15.4917V5H12.4333C12.2167 5 12 5.09167 11.8417 5.24167L9.06667 8.01667C8.90833 8.175 8.825 8.38333 8.825 8.60833V11.6667H12.1583V9.16667C12.1583 8.70833 12.5333 8.33333 12.9917 8.33333C13.45 8.33333 13.825 8.70833 13.825 9.16667V11.6667C13.825 12.5833 13.075 13.3333 12.1583 13.3333H8.825C7.90833 13.3333 7.15833 12.5833 7.15833 11.6667V8.60833C7.15833 7.94167 7.41667 7.30833 7.89167 6.84167L10.6667 4.06667C11.1417 3.59167 11.7667 3.33333 12.4333 3.33333H15.4917C16.4083 3.33333 17.1583 4.08333 17.1583 5H17.1667Z" fill="#E3312C"/>
</svg>
