<svg width="14" height="20" viewBox="0 0 14 20" fill="none" xmlns="http://www.w3.org/2000/svg">
<path d="M9.53825 0.000625007C9.51575 -0.000208336 4.48569 -0.000208336 4.46319 0.000625007C2.18317 0.0206252 0.333984 1.88231 0.333984 4.1665V15.8333C0.333984 18.1308 2.20317 20 4.50069 20H9.50075C11.7983 20 13.6675 18.1308 13.6675 15.8333V4.16734C13.6675 1.88231 11.8183 0.0214586 9.53825 0.000625007ZM12.0008 15.8333C12.0008 17.2116 10.8791 18.3333 9.50075 18.3333H4.50069C3.12235 18.3333 2.00067 17.2116 2.00067 15.8333V4.16734C2.00067 2.95649 2.86568 1.94481 4.00986 1.71564L4.58819 2.87315C4.72903 3.15566 5.0182 3.33399 5.33404 3.33399H8.6674C8.98324 3.33399 9.27158 3.15566 9.41325 2.87315L9.99158 1.71564C11.1358 1.94398 12.0008 2.95649 12.0008 4.16734V15.8333ZM7.83406 16.6666H6.16738C5.70737 16.6666 5.33404 16.2933 5.33404 15.8333C5.33404 15.3733 5.70737 14.9999 6.16738 14.9999H7.83406C8.29407 14.9999 8.6674 15.3733 8.6674 15.8333C8.6674 16.2933 8.29407 16.6666 7.83406 16.6666Z" fill="#E3312C"/>
</svg>
