<svg width="28" height="24" viewBox="0 0 28 24" fill="none" xmlns="http://www.w3.org/2000/svg">
<path d="M23.0683 11.8078C22.8762 11.1212 22.6595 10.3949 22.4182 9.61349C21.7035 7.64326 21.2207 5.59649 20.9795 3.51456C20.9795 3.20385 21.103 2.90587 21.3227 2.68617C21.5424 2.46647 21.8403 2.34304 22.151 2.34304C22.4618 2.34304 22.7597 2.46647 22.9794 2.68617C23.1991 2.90587 23.3226 3.20385 23.3226 3.51456C23.3226 3.82527 23.446 4.12325 23.6657 4.34295C23.8854 4.56265 24.1834 4.68608 24.4941 4.68608C24.8048 4.68608 25.1028 4.56265 25.3225 4.34295C25.5422 4.12325 25.6656 3.82527 25.6656 3.51456C25.6656 2.58244 25.2953 1.6885 24.6362 1.02939C23.9771 0.370283 23.0832 0 22.151 0C21.2189 0 20.325 0.370283 19.6659 1.02939C19.0068 1.6885 18.6365 2.58244 18.6365 3.51456C18.6655 4.40913 18.7908 5.29797 19.0102 6.16571L13.3869 10.5437L6.88731 5.8576H10.4358C10.7466 5.8576 11.0445 5.73417 11.2642 5.51447C11.4839 5.29477 11.6074 4.99679 11.6074 4.68608C11.6074 4.37537 11.4839 4.07739 11.2642 3.85769C11.0445 3.63799 10.7466 3.51456 10.4358 3.51456H6.88731C6.40062 3.51441 5.92635 3.66821 5.53237 3.95393C5.13838 4.23966 4.84486 4.64269 4.69381 5.10534C4.54275 5.56799 4.5419 6.06657 4.69138 6.52974C4.84085 6.99291 5.13299 7.39693 5.526 7.684L11.4668 12.0327L9.78214 13.3436C8.73572 12.3584 7.36097 11.7965 5.92405 11.7667C4.48713 11.7369 3.09026 12.2413 2.0039 13.1823C0.917547 14.1233 0.218981 15.4339 0.0434581 16.8604C-0.132065 18.2869 0.227943 19.7277 1.05378 20.904C1.87961 22.0803 3.11253 22.9083 4.51381 23.2277C5.91509 23.5472 7.38505 23.3353 8.63909 22.6331C9.89313 21.931 10.842 20.7885 11.3021 19.4269C11.7621 18.0653 11.7006 16.5814 11.1294 15.2626L19.6686 8.62122C19.8338 9.17886 20.5203 11.4141 20.6714 11.9284C19.2711 12.294 18.056 13.1657 17.2609 14.3749C16.4658 15.5842 16.1471 17.0452 16.3664 18.4758C16.5857 19.9063 17.3274 21.2048 18.4483 22.1203C19.5691 23.0358 20.9895 23.5035 22.435 23.4328C23.8805 23.3622 25.2486 22.7583 26.2748 21.7378C27.301 20.7173 27.9126 19.3527 27.9913 17.9076C28.0701 16.4625 27.6104 15.0395 26.7012 13.9135C25.7919 12.7876 24.4976 12.0386 23.0683 11.8113V11.8078ZM5.74976 21.0874C5.05465 21.0874 4.37514 20.8812 3.79718 20.4951C3.21921 20.1089 2.76874 19.56 2.50273 18.9178C2.23672 18.2756 2.16712 17.5689 2.30273 16.8871C2.43834 16.2054 2.77307 15.5792 3.26459 15.0876C3.75611 14.5961 4.38235 14.2614 5.06411 14.1258C5.74587 13.9902 6.45253 14.0598 7.09473 14.3258C7.73693 14.5918 8.28583 15.0422 8.67201 15.6202C9.0582 16.1982 9.26432 16.8777 9.26432 17.5728C9.26432 18.5049 8.89404 19.3989 8.23493 20.058C7.57583 20.7171 6.68188 21.0874 5.74976 21.0874ZM22.151 21.0874C21.4559 21.0874 20.7764 20.8812 20.1985 20.4951C19.6205 20.1089 19.17 19.56 18.904 18.9178C18.638 18.2756 18.5684 17.5689 18.704 16.8871C18.8396 16.2054 19.1744 15.5792 19.6659 15.0876C20.1574 14.5961 20.7836 14.2614 21.4654 14.1258C22.1471 13.9902 22.8538 14.0598 23.496 14.3258C24.1382 14.5918 24.6871 15.0422 25.0733 15.6202C25.4595 16.1982 25.6656 16.8777 25.6656 17.5728C25.6656 18.5049 25.2953 19.3989 24.6362 20.058C23.9771 20.7171 23.0832 21.0874 22.151 21.0874Z" fill="#E3312C"/>
</svg>
