<svg width="28" height="28" viewBox="0 0 28 28" fill="none" xmlns="http://www.w3.org/2000/svg">
<path d="M26.8331 23.3332C26.5237 23.3332 26.227 23.4561 26.0082 23.6749C25.7894 23.8937 25.6665 24.1904 25.6665 24.4998C25.6665 24.9012 24.8708 25.6665 23.6248 25.6665C23.2748 25.6788 22.9265 25.613 22.605 25.474C22.2836 25.335 21.9971 25.1261 21.7663 24.8627C21.8119 24.7883 21.8618 24.7166 21.9157 24.648C23.8183 22.6527 25.0978 20.1459 25.5976 17.4345C25.7456 16.6188 25.5992 15.777 25.1845 15.0591C24.7698 14.3413 24.1137 13.7939 23.3332 13.5146V10.4999C23.3332 9.26226 22.8415 8.07528 21.9663 7.20012C21.0912 6.32495 19.9042 5.83329 18.6665 5.83329V4.66663C18.6665 3.42897 18.1749 2.24199 17.2997 1.36683C16.4245 0.491662 15.2376 0 13.9999 0C12.7622 0 11.5753 0.491662 10.7001 1.36683C9.82493 2.24199 9.33327 3.42897 9.33327 4.66663V5.83329C8.0956 5.83329 6.90862 6.32495 6.03346 7.20012C5.15829 8.07528 4.66663 9.26226 4.66663 10.4999V13.4994C3.87633 13.7724 3.20987 14.3193 2.78786 15.0411C2.36586 15.7629 2.21621 16.6119 2.36598 17.4345C2.87833 20.1492 4.17034 22.6557 6.08412 24.648C6.14011 24.7184 6.19192 24.792 6.23929 24.8685C6.00833 25.1329 5.72083 25.3419 5.3981 25.48C5.07537 25.6182 4.72568 25.6819 4.37497 25.6665C3.10448 25.6665 2.33332 24.8568 2.33332 24.4998C2.33332 24.1904 2.2104 23.8937 1.99161 23.6749C1.77282 23.4561 1.47608 23.3332 1.16666 23.3332C0.857241 23.3332 0.560497 23.4561 0.341706 23.6749C0.122915 23.8937 0 24.1904 0 24.4998C0 26.3968 2.00432 27.9998 4.37497 27.9998C5.55467 28.0105 6.69884 27.5964 7.59845 26.8331C8.49572 27.5825 9.62677 27.9946 10.7958 27.998C11.9648 28.0014 13.0983 27.5959 13.9999 26.8518C14.9048 27.5952 16.0405 28 17.2116 27.9966C18.3827 27.9932 19.516 27.5818 20.4165 26.8331C21.3107 27.5923 22.4472 28.0061 23.6202 27.9998C25.9955 27.9998 27.9998 26.3968 27.9998 24.4998C27.9998 24.1904 27.8769 23.8937 27.6581 23.6749C27.4393 23.4561 27.1426 23.3332 26.8331 23.3332ZM11.6666 4.66663C11.6666 4.0478 11.9124 3.45431 12.35 3.01673C12.7876 2.57915 13.3811 2.33332 13.9999 2.33332C14.6187 2.33332 15.2122 2.57915 15.6498 3.01673C16.0874 3.45431 16.3332 4.0478 16.3332 4.66663V5.83329H11.6666V4.66663ZM9.33327 8.16661H18.6665C19.2854 8.16661 19.8789 8.41244 20.3164 8.85002C20.754 9.2876 20.9998 9.88109 20.9998 10.4999V12.7399L15.1059 10.8056C14.3894 10.5699 13.6162 10.5699 12.8997 10.8056L6.99995 12.7317V10.4999C6.99995 9.88109 7.24578 9.2876 7.68336 8.85002C8.12094 8.41244 8.71443 8.16661 9.33327 8.16661ZM10.7916 25.6665C10.4017 25.6878 10.0128 25.6078 9.66301 25.4342C9.31319 25.2607 9.01429 24.9994 8.79544 24.676C8.55242 24.0935 8.21849 23.5532 7.80611 23.0753C6.19777 21.4102 5.10718 19.3141 4.66663 17.0414C4.61276 16.7618 4.66111 16.4722 4.80287 16.2253C4.94463 15.9784 5.17037 15.7906 5.43896 15.6962L12.8332 13.2801V24.4998C12.8332 24.9012 12.0376 25.6665 10.7916 25.6665ZM17.2082 25.6665C15.9377 25.6665 15.1666 24.8568 15.1666 24.4998V13.2812L22.5223 15.6951C22.7918 15.7893 23.0185 15.9771 23.1611 16.2245C23.3038 16.4718 23.3528 16.7621 23.2993 17.0425C22.8715 19.3123 21.7924 21.4084 20.1937 23.0753C19.7787 23.5538 19.4445 24.0969 19.2044 24.683C18.9854 25.0059 18.6863 25.2663 18.3363 25.4387C17.9864 25.6111 17.5976 25.6896 17.2082 25.6665Z" fill="#E3312C"/>
</svg>
