<svg width="30" height="28" viewBox="0 0 30 28" fill="none" xmlns="http://www.w3.org/2000/svg">
<path d="M26.1172 0.855957C26.6971 0.914844 27.1494 1.40505 27.1494 2.00049V24.8501H28C28.6349 24.8503 29.1494 25.3655 29.1494 26.0005C29.1492 26.6353 28.6348 27.1497 28 27.1499H2C1.365 27.1499 0.84982 26.6354 0.849609 26.0005C0.849609 25.3654 1.36487 24.8501 2 24.8501H2.84961V2.00049C2.84961 1.36536 3.36487 0.850098 4 0.850098L4.11719 0.855957C4.69709 0.914844 5.14941 1.40505 5.14941 2.00049C5.14956 2.39988 5.36798 3.03618 5.94922 3.84424C6.51122 4.6255 7.33174 5.45321 8.32324 6.21143C10.3323 7.74776 12.8416 8.8501 15 8.8501C17.1583 8.84996 19.6669 7.74763 21.6758 6.21143C22.6674 5.45313 23.4888 4.62557 24.0508 3.84424C24.6319 3.03625 24.8495 2.39986 24.8496 2.00049C24.8496 1.36536 25.3649 0.850098 26 0.850098L26.1172 0.855957ZM5.14941 24.8501H24.8496V13.1499H19.8291L18.5957 16.8501H19C19.6349 16.8503 20.1494 17.3655 20.1494 18.0005V22.0005C20.1492 22.6353 19.6348 23.1497 19 23.1499H11C10.365 23.1499 9.84982 22.6354 9.84961 22.0005V18.0005C9.84961 17.3654 10.3649 16.8501 11 16.8501H11.4043L10.1709 13.1499H5.14941V24.8501ZM12.1494 20.8501H17.8496V19.1499H12.1494V20.8501ZM13.8291 16.8501H16.1709L17.4043 13.1499H12.5957L13.8291 16.8501ZM5.14941 10.8501H12.6309C10.5639 10.351 8.54786 9.27899 6.92578 8.03857C6.27865 7.5437 5.67983 7.00826 5.14941 6.45557V10.8501ZM24.8496 6.45557C24.3192 7.00826 23.7204 7.5437 23.0732 8.03857C21.4511 9.27903 19.4352 10.351 17.3682 10.8501H24.8496V6.45557Z" fill="#E3312C"/>
</svg>
