<svg width="28" height="28" viewBox="0 0 28 28" fill="none" xmlns="http://www.w3.org/2000/svg">
<path d="M25.6667 11.6635V7.48681C25.6666 7.21392 25.651 6.94126 25.62 6.67014C25.4641 5.24299 24.8684 3.89963 23.9152 2.82607C22.962 1.75251 21.6987 1.00188 20.3 0.678139C16.1487 -0.226046 11.8513 -0.226046 7.7 0.678139C6.30142 1.00204 5.03813 1.75271 4.085 2.82624C3.13187 3.89977 2.53604 5.24305 2.38 6.67014C2.34897 6.94126 2.33339 7.21392 2.33333 7.48681V11.6635C1.71449 11.6635 1.121 11.9093 0.683417 12.3469C0.245833 12.7845 0 13.378 0 13.9968L0 15.1635C0 15.7823 0.245833 16.3758 0.683417 16.8134C1.121 17.251 1.71449 17.4968 2.33333 17.4968V19.8301C2.33279 20.7358 2.5434 21.6292 2.94843 22.4393C3.35347 23.2493 3.94179 23.9538 4.66667 24.4968V25.0801C4.66594 25.8034 4.934 26.5012 5.4188 27.038C5.9036 27.5748 6.57057 27.9123 7.29021 27.985C8.00985 28.0577 8.73084 27.8604 9.31319 27.4314C9.89555 27.0024 10.2977 26.3723 10.4417 25.6635H17.5583C17.7023 26.3723 18.1045 27.0024 18.6868 27.4314C19.2692 27.8604 19.9901 28.0577 20.7098 27.985C21.4294 27.9123 22.0964 27.5748 22.5812 27.038C23.066 26.5012 23.3341 25.8034 23.3333 25.0801V24.4968C24.0582 23.9538 24.6465 23.2493 25.0516 22.4393C25.4566 21.6292 25.6672 20.7358 25.6667 19.8301V17.4968C26.2855 17.4968 26.879 17.251 27.3166 16.8134C27.7542 16.3758 28 15.7823 28 15.1635V13.9968C28 13.378 27.7542 12.7845 27.3166 12.3469C26.879 11.9093 26.2855 11.6635 25.6667 11.6635ZM4.66667 15.1635V8.16347H23.3333V15.1635H4.66667ZM8.22733 2.95081C12.0328 2.12297 15.9718 2.12297 19.7773 2.95081C20.5167 3.1231 21.2016 3.47643 21.7706 3.97902C22.3396 4.48161 22.7748 5.11771 23.037 5.83014H18.6667C18.6667 5.52072 18.5437 5.22397 18.325 5.00518C18.1062 4.78639 17.8094 4.66347 17.5 4.66347H10.5C10.1906 4.66347 9.89383 4.78639 9.67504 5.00518C9.45625 5.22397 9.33333 5.52072 9.33333 5.83014H4.963C5.22567 5.11715 5.66155 4.48068 6.23139 3.97805C6.80123 3.47542 7.48713 3.12241 8.22733 2.95081ZM19.8333 23.3301H8.16667C7.23841 23.3301 6.34817 22.9614 5.69179 22.305C5.03542 21.6486 4.66667 20.7584 4.66667 19.8301V17.4968H7V18.6635C7 18.9729 7.12292 19.2696 7.34171 19.4884C7.5605 19.7072 7.85725 19.8301 8.16667 19.8301C8.47609 19.8301 8.77283 19.7072 8.99162 19.4884C9.21042 19.2696 9.33333 18.9729 9.33333 18.6635V17.4968H18.6667V18.6635C18.6667 18.9729 18.7896 19.2696 19.0084 19.4884C19.2272 19.7072 19.5239 19.8301 19.8333 19.8301C20.1428 19.8301 20.4395 19.7072 20.6583 19.4884C20.8771 19.2696 21 18.9729 21 18.6635V17.4968H23.3333V19.8301C23.3333 20.7584 22.9646 21.6486 22.3082 22.305C21.6518 22.9614 20.7616 23.3301 19.8333 23.3301Z" fill="#E3312C"/>
</svg>
