<svg width="24" height="24" viewBox="0 0 24 24" fill="none" xmlns="http://www.w3.org/2000/svg">
<path d="M7 0.00293254H4C1.79 0.00293254 0 1.79293 0 4.00293V7.00293C0 9.21293 1.79 11.0029 4 11.0029H7C9.21 11.0029 11 9.21293 11 7.00293V4.00293C11 1.79293 9.21 0.00293254 7 0.00293254ZM9 7.00293C9 8.10293 8.1 9.00293 7 9.00293H4C2.9 9.00293 2 8.10293 2 7.00293V4.00293C2 2.90293 2.9 2.00293 4 2.00293H7C8.1 2.00293 9 2.90293 9 4.00293V7.00293ZM20 13.0029H17C14.79 13.0029 13 14.7929 13 17.0029V20.0029C13 22.2129 14.79 24.0029 17 24.0029H20C22.21 24.0029 24 22.2129 24 20.0029V17.0029C24 14.7929 22.21 13.0029 20 13.0029ZM22 20.0029C22 21.1029 21.1 22.0029 20 22.0029H17C15.9 22.0029 15 21.1029 15 20.0029V17.0029C15 15.9029 15.9 15.0029 17 15.0029H20C21.1 15.0029 22 15.9029 22 17.0029V20.0029ZM13 5.00293C13 3.94293 13.44 2.95293 14.25 2.22293L16.32 0.272933C16.72 -0.107067 17.35 -0.0870675 17.73 0.312933C18.11 0.712933 18.09 1.35293 17.69 1.72293L15.61 3.67293C15.5 3.77293 15.41 3.88293 15.33 3.99293H19C21.21 3.99293 23 5.78293 23 7.99293V9.99293C23 10.5429 22.55 10.9929 22 10.9929C21.45 10.9929 21 10.5429 21 9.99293V7.99293C21 6.89293 20.1 5.99293 19 5.99293H15.33C15.41 6.10293 15.5 6.20293 15.6 6.30293L17.69 8.26293C18.09 8.64293 18.11 9.27293 17.73 9.67293C17.53 9.88293 17.27 9.98293 17 9.98293C16.75 9.98293 16.51 9.89293 16.31 9.71293L14.23 7.76293C13.44 7.03293 12.99 6.04293 12.99 4.99293L13 5.00293ZM11 19.0029C11 20.0629 10.56 21.0429 9.75 21.7829L7.68 23.7329C7.49 23.9129 7.24 24.0029 6.99 24.0029C6.72 24.0029 6.46 23.8929 6.26 23.6929C5.88 23.2929 5.9 22.6529 6.3 22.2829L8.38 20.3329C8.49 20.2329 8.58 20.1229 8.66 20.0129H4.99C2.78 20.0129 0.99 18.2229 0.99 16.0129V14.0129C0.99 13.4629 1.44 13.0129 1.99 13.0129C2.54 13.0129 2.99 13.4629 2.99 14.0129V16.0129C2.99 17.1129 3.89 18.0129 4.99 18.0129H8.66C8.58 17.9029 8.49 17.8029 8.39 17.7029L6.3 15.7429C5.9 15.3629 5.88 14.7329 6.26 14.3329C6.64 13.9329 7.27 13.9129 7.67 14.2929L9.75 16.2429C10.54 16.9729 10.99 17.9629 10.99 19.0129L11 19.0029Z" fill="white"/>
</svg>
