<svg width="24" height="24" viewBox="0 0 24 24" fill="none" xmlns="http://www.w3.org/2000/svg">
<g clip-path="url(#clip0_26_5369)">
<path d="M16.5 0C12.294 0 9 1.977 9 4.5V7.087C8.516 7.03 8.015 7 7.5 7C3.294 7 0 8.977 0 11.5V19.5C0 22.023 3.294 24 7.5 24C10.916 24 13.731 22.696 14.667 20.854C15.264 20.941 15.874 21 16.5 21C20.706 21 24 19.023 24 16.5V4.5C24 1.977 20.706 0 16.5 0ZM16.5 2C19.648 2 22 3.32 22 4.5C22 5.68 19.648 7 16.5 7C13.352 7 11 5.68 11 4.5C11 3.32 13.352 2 16.5 2ZM7.5 9C10.648 9 13 10.32 13 11.5C13 12.68 10.648 14 7.5 14C4.352 14 2 12.68 2 11.5C2 10.32 4.352 9 7.5 9ZM2 14.582C3.36 15.457 5.303 16 7.5 16C9.697 16 11.64 15.457 13 14.582V15.5C13 16.68 10.648 18 7.5 18C4.352 18 2 16.68 2 15.5V14.582ZM7.5 22C4.352 22 2 20.68 2 19.5V18.582C3.36 19.457 5.303 20 7.5 20C9.697 20 11.64 19.457 13 18.582V19.5C13 20.68 10.648 22 7.5 22ZM16.5 19C15.986 19 15.488 18.953 15 18.884V16.904C15.492 16.962 15.99 17 16.5 17C18.697 17 20.64 16.457 22 15.582V16.5C22 17.68 19.648 19 16.5 19ZM16.5 15C15.986 15 15.488 14.953 15 14.884V12.904C15.492 12.962 15.99 13 16.5 13C18.697 13 20.64 12.457 22 11.582V12.5C22 13.68 19.648 15 16.5 15ZM16.5 11C15.958 11 15.434 10.949 14.922 10.873C14.724 9.986 14.113 9.189 13.201 8.552C14.193 8.837 15.307 9.001 16.5 9.001C18.697 9.001 20.64 8.458 22 7.583V8.501C22 9.681 19.648 11.001 16.5 11.001V11Z" fill="#939B9C"/>
</g>
<defs>
<clipPath id="clip0_26_5369">
<rect width="24" height="24" fill="white"/>
</clipPath>
</defs>
</svg>
