<svg width="24" height="24" viewBox="0 0 24 24" fill="none" xmlns="http://www.w3.org/2000/svg">
<path d="M11.2529 19.1045C11.6517 18.6648 12.3659 18.6649 12.7646 19.1045L15.7725 22.4199C16.3333 23.0383 15.8732 23.9999 15.0166 24H9.00195C8.1452 24 7.68522 23.0383 8.24609 22.4199L11.2529 19.1045ZM23 11C23.5523 11 24 11.4477 24 12C24 12.5523 23.5523 13 23 13H1C0.447715 13 0 12.5523 0 12C0 11.4477 0.447715 11 1 11H23ZM15.0156 0C15.8724 7.15205e-08 16.3324 0.961653 15.7715 1.58008L12.7646 4.89551C12.3659 5.33517 11.6517 5.33513 11.2529 4.89551L8.24512 1.58008C7.68428 0.961692 8.14433 0.000119801 9.00098 0H15.0156Z" fill="white"/>
</svg>
