<svg width="24" height="20" viewBox="0 0 24 20" fill="none" xmlns="http://www.w3.org/2000/svg">
<path d="M4.16667 3.33278H5.08417C5.47167 1.43393 7.155 0 9.16667 0H19.8333C22.1308 0 24 1.86886 24 4.16597V14.8759C24 15.5374 23.6375 16.1423 23.055 16.4539C22.79 16.5964 22.4992 16.6664 22.2092 16.6664C21.8625 16.6664 21.5167 16.5656 21.2175 16.3664L18.7592 14.7275C18.1833 16.3398 16.6417 17.4971 14.8333 17.4971H6.08583L2.7825 19.7001C2.48333 19.8992 2.1375 20 1.79083 20C1.50083 20 1.21083 19.9292 0.945 19.7867C0.362499 19.4743 0 18.8694 0 18.2086V7.49875C0 5.20163 1.86917 3.33278 4.16667 3.33278ZM22.1417 14.98C22.1575 14.99 22.2033 15.02 22.2683 14.9858C22.3342 14.9508 22.3342 14.895 22.3342 14.8767V4.16597C22.3342 2.78787 21.2125 1.66639 19.8342 1.66639H9.1675C7.78917 1.66639 6.6675 2.78787 6.6675 4.16597V9.99833C6.6675 11.3764 7.78917 12.4979 9.1675 12.4979H18.1675C18.4225 12.4979 18.6183 12.6304 18.6383 12.6437L22.1417 14.98ZM1.66667 18.2095C1.66667 18.227 1.66666 18.2836 1.73166 18.3186C1.79833 18.3544 1.84333 18.3236 1.85833 18.3128L5.37083 15.9707C5.5075 15.8799 5.66833 15.8307 5.83333 15.8307H14.8333C15.92 15.8307 16.8458 15.1341 17.19 14.1643H9.16667C6.86917 14.1643 5 12.2955 5 9.99833V4.99917H4.16667C2.78833 4.99917 1.66667 6.12065 1.66667 7.49875V18.2095Z" fill="#242B38"/>
</svg>
