<svg width="32" height="32" viewBox="0 0 32 32" fill="none" xmlns="http://www.w3.org/2000/svg">
<path d="M28.0005 13.8501C28.6354 13.8503 29.1499 14.3655 29.1499 15.0005V15.1401L29.5132 14.9575C30.0797 14.6718 30.7568 14.9067 31.0259 15.4819C31.2949 16.0576 31.0536 16.7565 30.4868 17.0425L2.48682 31.1704C1.92013 31.4562 1.24313 31.2215 0.974121 30.646C0.70515 30.0703 0.946399 29.3714 1.51318 29.0854L2.8501 28.4106V27.0005C2.8501 26.3654 3.36536 25.8501 4.00049 25.8501C4.63544 25.8503 5.1499 26.3655 5.1499 27.0005V27.2495L6.8501 26.3911V25.0005C6.8501 24.3654 7.36536 23.8501 8.00049 23.8501C8.63544 23.8503 9.1499 24.3655 9.1499 25.0005V25.231L10.8501 24.3726V23.0005C10.8501 22.3654 11.3654 21.8501 12.0005 21.8501C12.6354 21.8503 13.1499 22.3655 13.1499 23.0005V23.2124L14.8501 22.354V21.0005C14.8501 20.3654 15.3654 19.8501 16.0005 19.8501C16.6354 19.8503 17.1499 20.3655 17.1499 21.0005V21.1938L18.8501 20.3354V19.0005C18.8501 18.3654 19.3654 17.8501 20.0005 17.8501C20.6354 17.8503 21.1499 18.3655 21.1499 19.0005V19.1753L22.8501 18.3169V17.0005C22.8501 16.3654 23.3654 15.8501 24.0005 15.8501C24.6354 15.8503 25.1499 16.3655 25.1499 17.0005V17.1577L26.8501 16.3003V15.0005C26.8501 14.3654 27.3654 13.8501 28.0005 13.8501ZM23.1646 0.850098C23.7854 0.850147 24.5065 0.9661 25.1382 1.38721C26.1917 2.08967 26.6837 3.11885 26.9146 3.88818C27.0319 4.27941 27.0893 4.62994 27.1187 4.88428C27.1334 5.0122 27.142 5.11859 27.146 5.19678C27.148 5.23565 27.1483 5.26783 27.1489 5.29248L27.1499 5.32471V5.34229C27.1464 5.34279 27.0852 5.34424 26.0005 5.34424H27.1499V10.8442C27.1498 11.2797 26.9036 11.6778 26.5142 11.8726L2.51416 23.8726C2.15772 24.0507 1.73398 24.0313 1.39502 23.8218C1.05639 23.6123 0.850233 23.2425 0.850098 22.8442V17.3003C0.850409 17.2764 0.850928 17.2432 0.852051 17.2017C0.854305 17.1183 0.859091 17 0.867676 16.854C0.884818 16.5628 0.919045 16.1556 0.986816 15.6812C1.12037 14.7463 1.39347 13.4851 1.97119 12.3296C2.31301 11.646 2.86878 11.0334 3.4292 10.5239C4.00158 10.0036 4.64606 9.53106 5.23682 9.13721C5.83042 8.74147 6.38857 8.41301 6.79736 8.18408C7.00219 8.06938 7.17145 7.97918 7.29053 7.9165C7.34997 7.88522 7.39711 7.86021 7.43018 7.84326L7.46924 7.82373L7.47998 7.81787L7.48389 7.81592H7.48486L19.4858 1.81494L19.4917 1.81201L19.5024 1.80713L19.5356 1.79053C19.5636 1.77709 19.603 1.75927 19.6519 1.73682C19.7494 1.69197 19.8873 1.63031 20.0562 1.56104C20.3915 1.42348 20.8615 1.24915 21.3911 1.10791C21.9151 0.968184 22.537 0.850098 23.1646 0.850098ZM8.51514 9.87256L8.5083 9.87549L8.479 9.89014C8.45299 9.90347 8.41342 9.9245 8.36182 9.95166C8.25826 10.0062 8.10689 10.087 7.92139 10.1909C7.54901 10.3994 7.04441 10.6962 6.51318 11.0503C5.97908 11.4064 5.43578 11.8091 4.97705 12.2261C4.50638 12.654 4.187 13.0416 4.02881 13.3579C3.60661 14.2023 3.37963 15.1913 3.26318 16.0063C3.20599 16.4067 3.17769 16.7498 3.16357 16.9897C3.15656 17.109 3.15351 17.2021 3.15186 17.2632C3.15103 17.2937 3.15008 17.3169 3.1499 17.3306V20.9829L8.8501 18.1323V9.70459L8.51514 9.87256ZM11.1499 8.55518V16.9829L16.8501 14.1323V5.70459L11.1499 8.55518ZM23.1646 3.1499C22.8078 3.1499 22.3974 3.21933 21.9839 3.32959C21.5764 3.43824 21.2031 3.57659 20.9292 3.68896C20.7936 3.74461 20.6852 3.79339 20.6128 3.82666C20.5768 3.84323 20.5494 3.85572 20.5327 3.86377L20.5151 3.87158L20.5132 3.87354L19.1499 4.55518V12.9829L24.8501 10.1333V5.3501C24.85 5.34495 24.85 5.33217 24.8491 5.31494C24.8473 5.27995 24.8431 5.22252 24.8345 5.14795C24.8169 4.99606 24.7815 4.78304 24.7114 4.54932C24.5672 4.06871 24.3081 3.59781 23.8618 3.30029C23.7436 3.22164 23.5273 3.14995 23.1646 3.1499Z" fill="#E3312C"/>
</svg>
