<svg width="24" height="24" viewBox="0 0 24 24" fill="none" xmlns="http://www.w3.org/2000/svg">
<path d="M12.0151 19.5C7.87097 19.5 4.5 16.1286 4.5 11.9855C4.5 8.08842 7.42164 4.87288 11.2965 4.50444C11.5985 4.46958 11.8726 4.6432 11.9885 4.91732C12.1051 5.19075 12.0308 5.50929 11.8051 5.70274C11.0592 6.34393 10.6965 7.45269 10.6965 9.09122C10.6965 12.5966 12.3083 13.3007 14.9095 13.3007C16.5882 13.3007 17.6641 12.9486 18.2968 12.1933C18.4877 11.9636 18.8075 11.8877 19.0816 12.0019C19.3571 12.1174 19.5255 12.399 19.4968 12.6971C19.1321 16.575 15.9152 19.4993 12.0151 19.4993V19.5ZM9.80463 6.24208C7.47414 7.12799 5.86366 9.36875 5.86366 11.9848C5.86366 15.3746 8.62371 18.1322 12.0151 18.1322C14.6279 18.1322 16.8663 16.5292 17.7568 14.2085C16.7913 14.6042 15.7379 14.6685 14.9088 14.6685C12.5149 14.6685 9.33213 14.0902 9.33213 9.0919C9.33213 7.96195 9.48895 7.01657 9.80463 6.24208Z" fill="#898D94"/>
</svg>
