<svg width="15" height="20" viewBox="0 0 15 20" fill="none" xmlns="http://www.w3.org/2000/svg">
<path d="M9.71582 0C9.88384 1.77584e-05 10.0479 0.0515531 10.1865 0.146484L11.9414 1.3457L13.6963 0.146484C13.8215 0.0609988 13.9678 0.0105745 14.1191 0.00195312C14.2704 -0.00665867 14.4216 0.0269468 14.5557 0.0976562C14.6894 0.168313 14.8016 0.273842 14.8799 0.40332C14.9582 0.533082 14.9999 0.682414 15 0.833984V15.834C14.9986 16.9384 14.5592 17.9973 13.7783 18.7783C12.9972 19.5594 11.9377 19.9987 10.833 20H4.16699C3.06234 19.9987 2.00279 19.5594 1.22168 18.7783C0.440731 17.9973 0.00143221 16.9384 0 15.834V0.833984C0.000371593 0.682619 0.0417701 0.533809 0.120117 0.404297C0.198407 0.274889 0.310574 0.169218 0.444336 0.0986328C0.578108 0.0281096 0.728902 -0.00454415 0.879883 0.00390625C1.03101 0.0124427 1.17764 0.0622415 1.30273 0.147461L3.05273 1.34473L4.80273 0.146484C4.94139 0.0514381 5.10534 5.19918e-05 5.27344 0C5.44166 1.47064e-08 5.60638 0.0513551 5.74512 0.146484L7.49512 1.3457L9.24512 0.146484C9.38377 0.0515499 9.54778 -1.46903e-08 9.71582 0ZM7.96875 3.04395C7.83014 3.13889 7.66606 3.18941 7.49805 3.18945C7.32983 3.18945 7.16511 3.13907 7.02637 3.04395L5.27637 1.84473L3.52637 3.04395C3.3876 3.13913 3.22296 3.19043 3.05469 3.19043C2.88639 3.19037 2.72176 3.1392 2.58301 3.04395L1.66699 2.41699V15.834C1.6671 16.4968 1.92976 17.1328 2.39844 17.6016C2.86727 18.0704 3.50396 18.334 4.16699 18.334H10.833C11.4959 18.334 12.1318 18.0702 12.6006 17.6016C13.0693 17.1328 13.3329 16.4969 13.333 15.834V2.41699L12.4102 3.04395C12.2716 3.13871 12.1073 3.18945 11.9395 3.18945C11.7716 3.18945 11.6073 3.13871 11.4688 3.04395L9.71875 1.84473L7.96875 3.04395ZM9.16699 10C9.62696 10.0002 9.99989 10.373 10 10.833C10 11.2931 9.62703 11.6668 9.16699 11.667H4.16699C3.70676 11.667 3.33301 11.2932 3.33301 10.833C3.33312 10.3729 3.70683 10 4.16699 10H9.16699ZM10.833 6.66699C11.2932 6.66699 11.667 7.03977 11.667 7.5C11.6669 7.9602 11.2932 8.33301 10.833 8.33301H4.16699C3.70679 8.33301 3.33305 7.9602 3.33301 7.5C3.33301 7.03977 3.70676 6.66699 4.16699 6.66699H10.833Z" fill="#242B38"/>
</svg>
