<svg width="80" height="80" viewBox="0 0 80 80" fill="none" xmlns="http://www.w3.org/2000/svg">
<path d="M2.85645 0C3.61416 0.000120842 4.34126 0.301069 4.87696 0.836914L13.8164 9.77637C15.7018 8.14244 17.7596 6.65526 19.999 5.3623C26.1548 1.80816 32.8718 0.080041 39.5186 0.0107422C39.9616 0.00613337 40.4044 0.00642759 40.8467 0.0166016C54.3574 0.325276 67.4039 7.46333 74.6416 19.999C83.3797 35.1334 81.0599 53.6532 70.2227 66.1816L79.1621 75.1211C80.2776 76.2368 80.2776 78.0454 79.1621 79.1611C78.0464 80.2766 76.2378 80.2766 75.1221 79.1611L66.1885 70.2275C52.7993 56.8387 39.4097 43.4494 26.0205 30.0605L21.9473 25.9873L9.77051 13.8115L0.836917 4.87695C-0.278557 3.76124 -0.278533 1.95265 0.836917 0.836914C1.37258 0.301295 2.09893 0.000147932 2.85645 0ZM18.9717 31.0889C17.8313 33.7898 17.2096 36.6948 17.1582 39.6387L16.4609 39.0186C15.28 37.9756 13.4771 38.0859 12.4316 39.2646C11.3837 40.4449 11.4914 42.2513 12.6719 43.2988L19.4297 49.292C20.6115 50.3387 22.4187 50.2292 23.4648 49.0469L29.458 42.2891C29.5706 42.1608 29.6708 42.0224 29.7588 41.876L44.4356 56.5527C39.5129 57.8771 34.2961 56.9204 30.1943 54.0635C28.8986 53.1616 27.1168 53.4818 26.2158 54.7783C25.3164 56.0716 25.6337 57.8485 26.9248 58.751C33.2436 63.1522 41.5648 64.1552 48.917 61.0332L61.5674 73.6836C61.0538 74.0115 60.5378 74.3358 60.0049 74.6436C40.9028 85.6727 16.3913 79.1041 5.36231 60.002C-2.35333 46.6382 -1.44846 30.633 6.32715 18.4443L18.9717 31.0889ZM58.7266 29.7207C57.8576 29.6756 57.0151 30.0281 56.4385 30.6797L50.4453 37.4375C49.3971 38.6177 49.5047 40.425 50.6856 41.4727C51.8673 42.5195 53.6747 42.409 54.7207 41.2266L57.0859 38.5596C57.4261 42.5897 56.3217 46.6313 53.9727 49.9316L58.0459 54.0059C61.1197 50.0347 62.7982 45.1562 62.8447 40.1777L63.4424 40.708C64.6233 41.7509 66.4252 41.6406 67.4707 40.4619C68.5189 39.2817 68.412 37.4754 67.2314 36.4277L60.4736 30.4346C59.9891 30.0056 59.3729 29.7541 58.7266 29.7207ZM25.8994 38.0205C25.6365 38.143 25.394 38.3053 25.1797 38.501L22.8916 41.084C22.7731 39.217 22.9666 37.3536 23.4443 35.5654L25.8994 38.0205ZM39.7314 17.1426C35.9286 17.1835 32.0875 18.1754 28.5703 20.2061C27.6579 20.7329 26.8144 21.3349 26.0039 21.9639L30.0772 26.0371C30.5119 25.7294 30.9569 25.4271 31.4277 25.1553C36.7365 22.0902 42.9613 22.1844 47.9961 24.832C49.3922 25.5644 51.1175 25.0273 51.8516 23.6318C52.5848 22.2371 52.0505 20.5123 50.6572 19.7764C47.3014 18.0117 43.5342 17.1018 39.7314 17.1426Z" fill="#E3312C"/>
</svg>
