<svg width="28" height="28" viewBox="0 0 28 28" fill="none" xmlns="http://www.w3.org/2000/svg">
<path d="M22.1667 7H5.83333C2.61683 7 0 9.61683 0 12.8333V22.1667C0 25.3832 2.61683 28 5.83333 28H22.1667C25.3832 28 28 25.3832 28 22.1667V12.8333C28 9.61683 25.3832 7 22.1667 7ZM10.5 25.6667H7V22.75C7 21.7852 7.78517 21 8.75 21C9.71483 21 10.5 21.7852 10.5 22.75V25.6667ZM21 25.6667H17.5V22.75C17.5 21.7852 18.2852 21 19.25 21C20.2148 21 21 21.7852 21 22.75V25.6667ZM25.6667 22.1667C25.6667 23.688 24.6913 24.9842 23.3333 25.466V22.75C23.3333 20.4983 21.5017 18.6667 19.25 18.6667C16.9983 18.6667 15.1667 20.4983 15.1667 22.75V25.6667H12.8333V22.75C12.8333 20.4983 11.0017 18.6667 8.75 18.6667C6.49833 18.6667 4.66667 20.4983 4.66667 22.75V25.466C3.30867 24.9842 2.33333 23.688 2.33333 22.1667V12.8333C2.33333 10.9037 3.90367 9.33333 5.83333 9.33333H22.1667C24.0963 9.33333 25.6667 10.9037 25.6667 12.8333V22.1667ZM11.6667 14.5833C11.6667 16.1945 10.3612 17.5 8.75 17.5C7.13883 17.5 5.83333 16.1945 5.83333 14.5833C5.83333 12.9722 7.13883 11.6667 8.75 11.6667C10.3612 11.6667 11.6667 12.9722 11.6667 14.5833ZM22.1667 14.5833C22.1667 16.1945 20.8612 17.5 19.25 17.5C17.6388 17.5 16.3333 16.1945 16.3333 14.5833C16.3333 12.9722 17.6388 11.6667 19.25 11.6667C20.8612 11.6667 22.1667 12.9722 22.1667 14.5833ZM5.25233 3.12317L8.11067 0.264833C8.46417 -0.0875 9.03583 -0.0875 9.38933 0.264833L12.2488 3.12433C12.8182 3.69367 12.4145 4.66783 11.6095 4.66783H5.89167C5.08667 4.66783 4.683 3.69367 5.25233 3.12317ZM15.7523 1.54233C15.183 0.973 15.5867 0 16.3917 0H22.1095C22.9145 0 23.3182 0.973 22.7488 1.54233L19.8893 4.40183C19.5358 4.75533 18.9642 4.75533 18.6107 4.40183L15.7523 1.54233Z" fill="#E3312C"/>
</svg>
