<svg width="80" height="80" viewBox="0 0 80 80" fill="none" xmlns="http://www.w3.org/2000/svg">
<g clip-path="url(#clip0_10060_32012)">
<path d="M40 0C62.0569 0 80 17.9431 80 40C80 62.0569 62.0569 80 40 80C17.9431 80 0 62.0569 0 40C0 17.9431 17.9431 0 40 0ZM54.7305 25.2695C53.4267 23.9667 51.3202 23.9665 50.0166 25.2695L40.001 35.2871L29.9844 25.2695C28.6807 23.9665 26.5742 23.9667 25.2705 25.2695C23.9674 26.5732 23.9674 28.6797 25.2705 29.9834L35.2871 40L25.2705 50.0166C23.9674 51.3203 23.9674 53.4268 25.2705 54.7305C25.9205 55.3803 26.7741 55.707 27.6279 55.707C28.481 55.7069 29.3345 55.3804 29.9844 54.7305L40.001 44.7129L50.0166 54.7305C50.6666 55.3805 51.5208 55.707 52.374 55.707C53.2276 55.7069 54.0806 55.3802 54.7305 54.7305C56.0336 53.4268 56.0336 51.3203 54.7305 50.0166L44.7139 40L54.7305 29.9834C56.0336 28.6797 56.0336 26.5732 54.7305 25.2695Z" fill="#EF8885"/>
</g>
<defs>
<clipPath id="clip0_10060_32012">
<rect width="80" height="80" fill="white"/>
</clipPath>
</defs>
</svg>
