<svg width="80" height="80" viewBox="0 0 80 80" fill="none" xmlns="http://www.w3.org/2000/svg">
<path d="M40 0C62.0914 0 80 17.9086 80 40C80 62.0914 62.0914 80 40 80C17.9086 80 0 62.0914 0 40C0 17.9086 17.9086 0 40 0ZM28.7998 27C24.7874 27.0001 21.5155 30.1651 21.3418 34.1348H21.333V45.5352C21.3332 49.6587 24.6762 53.0018 28.7998 53.002H36.4746C36.1655 54.2842 36 55.6228 36 57C36 59.5517 36.5631 61.9716 37.5703 64.1436C33.7839 63.7648 30.0693 62.5001 26.7646 60.3457H28.333C29.3639 60.3457 30.2001 59.5104 30.2002 58.4795C30.2002 57.4485 29.364 56.6123 28.333 56.6123H21.5205C20.4896 56.6124 19.6543 57.4486 19.6543 58.4795V65.292C19.6544 66.3227 20.4897 67.1581 21.5205 67.1582C22.5514 67.1582 23.3876 66.3228 23.3877 65.292V62.5449C28.3218 66.1901 34.1815 68.0073 40.0391 67.999C43.1573 71.6699 47.8061 74 53 74C62.3888 74 70 66.3888 70 57C70 53.4271 68.8966 50.1125 67.0137 47.376C68.2638 42.781 68.325 37.9311 67.1943 33.3145C66.9492 32.3132 65.9387 31.7003 64.9375 31.9453C63.9361 32.1905 63.3231 33.2009 63.5684 34.2021C64.3537 37.4086 64.4753 40.7422 63.9375 43.9873C62.3913 42.6863 60.6106 41.6558 58.667 40.9688V34.1348H58.6582C58.4845 30.1652 55.2126 27.0002 51.2002 27H28.7998ZM56.6123 17.4561C45.6532 9.35954 30.1279 10.2745 20.2012 20.2012C13.0181 27.3843 10.5554 37.4988 12.8057 46.6865C13.051 47.6876 14.0614 48.3006 15.0625 48.0557C16.0638 47.8105 16.6769 46.7991 16.4316 45.7979C14.479 37.8249 16.6184 29.0632 22.8408 22.8408C31.4425 14.2393 44.895 13.4452 54.3926 20.458L52.2227 20.9053C51.2133 21.1137 50.5634 22.1009 50.7715 23.1104C50.9797 24.12 51.9678 24.7698 52.9775 24.5615L58.8564 23.3496C59.7236 23.1707 60.3455 22.4069 60.3457 21.5215V15.7334C60.3457 14.7026 59.5103 13.8664 58.4795 13.8662C57.4485 13.8662 56.6123 14.7025 56.6123 15.7334V17.4561Z" fill="#E3312C"/>
<path d="M53 40C62.3888 40 70 47.6112 70 57C70 66.3888 62.3888 74 53 74C43.6112 74 36 66.3888 36 57C36 47.6112 43.6112 40 53 40ZM52.7803 44C45.7321 44 40 49.7321 40 56.7803C40 63.8284 45.7321 69.5605 52.7803 69.5605C59.8284 69.5605 65.5605 63.8284 65.5605 56.7803C65.5605 49.7321 59.8284 44 52.7803 44ZM52.7803 47.4287C57.939 47.4288 62.1318 51.6215 62.1318 56.7803C62.1318 61.939 57.939 66.1318 52.7803 66.1318C47.6215 66.1318 43.4288 61.939 43.4287 56.7803C43.4287 51.6215 47.6215 47.4287 52.7803 47.4287ZM49.3096 51.25C48.7576 51.25 48.2482 51.4627 47.8555 51.8555C47.4627 52.2482 47.25 52.7576 47.25 53.3096C47.2501 53.8614 47.4628 54.3816 47.8555 54.7637L49.8721 56.7803L47.8555 58.7969C47.4628 59.1895 47.2501 59.6991 47.25 60.251C47.25 60.8029 47.4627 61.3229 47.8555 61.7051C48.6303 62.48 49.9888 62.48 50.7637 61.7051L52.7803 59.6885L54.7969 61.7051C55.1895 62.0977 55.6991 62.3105 56.251 62.3105C56.8029 62.3105 57.3229 62.0978 57.7051 61.7051C58.5118 60.8984 58.5118 59.593 57.7051 58.7969L55.6885 56.7803L57.7051 54.7637C58.5118 53.9569 58.5118 52.6516 57.7051 51.8555C56.9302 51.0806 55.5717 51.0806 54.7969 51.8555L52.7803 53.8721L50.7637 51.8555C50.371 51.4628 49.8614 51.2501 49.3096 51.25Z" fill="#E3312C"/>
</svg>
