<svg width="80" height="80" viewBox="0 0 80 80" fill="none" xmlns="http://www.w3.org/2000/svg">
<path d="M2.85612 0C3.61383 0.000120862 4.34093 0.301071 4.87663 0.836914L13.8161 9.77637C15.7015 8.14244 17.7593 6.65525 19.9987 5.3623C26.1545 1.80816 32.8715 0.080041 39.5182 0.0107422C39.9612 0.00613339 40.4041 0.00642756 40.8464 0.0166016C54.357 0.325277 67.4035 7.46333 74.6413 19.999C83.3794 35.1334 81.0595 53.6532 70.2223 66.1816L79.1618 75.1211C80.2773 76.2368 80.2772 78.0454 79.1618 79.1611C78.0461 80.2766 76.2375 80.2766 75.1217 79.1611L53.9606 58H53.9987L19.4987 23.5L19.4596 23.4141C19.4427 23.4258 19.4257 23.4374 19.4089 23.4492L9.77019 13.8115L0.836592 4.87695C-0.278876 3.76124 -0.278852 1.95265 0.836592 0.836914C1.37226 0.301297 2.0986 0.000150026 2.85612 0ZM16.1813 28.2988C16.0626 28.8471 15.9997 29.4162 15.9997 30V50C15.9997 54.4183 19.5814 58 23.9997 58H45.8835L61.5671 73.6836C61.0535 74.0114 60.5375 74.3359 60.0046 74.6436C40.9025 85.6727 16.391 79.1041 5.36198 60.002C-2.35367 46.6382 -1.44882 30.633 6.32683 18.4443L16.1813 28.2988ZM60.2653 56.7656C62.5084 55.3484 63.9997 52.8494 63.9997 50V30C63.9997 25.5817 60.4179 22 55.9997 22H25.4997L60.2653 56.7656Z" fill="#E3312C"/>
</svg>
