<svg width="24" height="24" viewBox="0 0 24 24" fill="none" xmlns="http://www.w3.org/2000/svg">
<path fill-rule="evenodd" clip-rule="evenodd" d="M12.7643 0.329766C12.3655 -0.109922 11.6512 -0.109922 11.2525 0.329766L8.24521 3.64558C7.68433 4.264 8.14438 5.22558 9.00114 5.22558H15.0156C15.8724 5.22558 16.3324 4.264 15.7716 3.64558L12.7643 0.329766ZM0 12.0001C0 11.4478 0.447715 11.0001 1 11.0001H23C23.5523 11.0001 24 11.4478 24 12.0001C24 12.5523 23.5523 13.0001 23 13.0001H1C0.447716 13.0001 0 12.5523 0 12.0001ZM12.7651 23.6702C12.3663 24.1099 11.652 24.1099 11.2533 23.6702L8.24601 20.3544C7.68513 19.736 8.14519 18.7744 9.00194 18.7744H15.0164C15.8732 18.7744 16.3332 19.736 15.7724 20.3544L12.7651 23.6702Z" fill="#FFFFFF"/>
</svg>
