<svg width="20" height="20" viewBox="0 0 20 20" fill="none" xmlns="http://www.w3.org/2000/svg">
<path d="M15.8333 3.3329H14.9158C14.5283 1.43405 12.845 0.00012207 10.8333 0.00012207H4.16667C1.86917 0.00012207 0 1.86898 0 4.16609V14.876C0 15.5375 0.3625 16.1424 0.945 16.454C1.21 16.5965 1.50083 16.6665 1.79083 16.6665C2.1375 16.6665 2.48333 16.5657 2.7825 16.3666L5.24083 14.7277C5.81667 16.3399 7.35833 17.4972 9.16667 17.4972H13.9142L17.2175 19.7002C17.5167 19.8993 17.8625 20.0001 18.2092 20.0001C18.4992 20.0001 18.7892 19.9293 19.055 19.7868C19.6375 19.4744 20 18.8695 20 18.2088V7.49887C20 5.20176 18.1308 3.3329 15.8333 3.3329ZM1.85833 14.9801C1.8425 14.9901 1.79667 15.0201 1.73167 14.986C1.66583 14.951 1.66583 14.8951 1.66583 14.8768V4.16609C1.66583 2.78799 2.7875 1.66651 4.16583 1.66651H10.8325C12.2108 1.66651 13.3325 2.78799 13.3325 4.16609V9.99846C13.3325 11.3766 12.2108 12.498 10.8325 12.498H5.8325C5.5775 12.498 5.38167 12.6305 5.36167 12.6438L1.85833 14.9801ZM18.3333 18.2096C18.3333 18.2271 18.3333 18.2837 18.2683 18.3187C18.2017 18.3546 18.1567 18.3237 18.1417 18.3129L14.6292 15.9708C14.4925 15.88 14.3317 15.8308 14.1667 15.8308H9.16667C8.08 15.8308 7.15417 15.1343 6.81 14.1644H10.8333C13.1308 14.1644 15 12.2956 15 9.99846V4.99929H15.8333C17.2117 4.99929 18.3333 6.12077 18.3333 7.49887V18.2096ZM5 5.48098C5 4.74027 5.32583 4.04205 5.89333 3.56547C6.46083 3.08888 7.2075 2.88724 7.94583 3.02139C8.95333 3.19719 9.7825 4.02539 9.96 5.03522C10.1458 6.09504 9.64167 7.15403 8.705 7.67145C8.3325 7.87641 8.3325 7.9364 8.3325 7.98056C8.3325 8.44132 7.95917 8.81376 7.49917 8.81376C7.03917 8.81376 6.66583 8.44132 6.66583 7.98056C6.66583 6.89075 7.53083 6.41499 7.9 6.21169C8.14167 6.07921 8.39583 5.76593 8.31833 5.32351C8.26083 4.99689 7.98333 4.71944 7.6575 4.66278C7.4025 4.61612 7.15583 4.68111 6.96417 4.84275C6.77417 5.00106 6.66583 5.23435 6.66583 5.48181C6.66583 5.94257 6.2925 6.31501 5.8325 6.31501C5.3725 6.31501 4.99917 5.94257 4.99917 5.48181L5 5.48098ZM8.33333 10.4801C8.33333 10.9401 7.96 11.3133 7.5 11.3133C7.04 11.3133 6.66667 10.9401 6.66667 10.4801C6.66667 10.0202 7.04 9.64695 7.5 9.64695C7.96 9.64695 8.33333 10.0202 8.33333 10.4801Z" fill="#242B38"/>
</svg>
