<svg width="20" height="20" viewBox="0 0 20 20" fill="none" xmlns="http://www.w3.org/2000/svg">
<path d="M16.9648 6.24993L19.6623 2.66914C20.0448 2.16164 20.1064 1.49165 19.8223 0.922489C19.5381 0.353329 18.9673 0 18.3306 0H3.3333C1.49498 0 0 1.49498 0 3.3333V19.1664C0 19.6273 0.373329 19.9998 0.833324 19.9998C1.29332 19.9998 1.66665 19.6273 1.66665 19.1664V12.4999H18.3315C18.9681 12.4999 19.5389 12.1457 19.8231 11.5774C20.1073 11.009 20.0456 10.339 19.6631 9.83072L16.9648 6.24993ZM1.66665 10.8332V3.3333C1.66665 2.41414 2.41414 1.66665 3.3333 1.66665H18.3315L15.2565 5.74827C15.0332 6.04493 15.0332 6.45409 15.2565 6.75076L18.3315 10.8324L1.66665 10.8332Z" fill="#242B38"/>
</svg>
