<svg width="25" height="24" viewBox="0 0 25 24" fill="none" xmlns="http://www.w3.org/2000/svg">
<path d="M12.3428 3.18945C12.6534 3.18945 12.9053 3.44129 12.9053 3.75195V5.46387C16.2616 5.75391 18.8955 8.56852 18.8955 12C18.8955 15.4314 16.2615 18.2451 12.9053 18.5352V20.2617C12.9053 20.5724 12.6534 20.8242 12.3428 20.8242C12.0323 20.824 11.7803 20.5723 11.7803 20.2617V18.5371C8.41466 18.2564 5.77054 15.4381 5.77051 12C5.77051 8.56181 8.4146 5.74263 11.7803 5.46191V3.75195C11.7803 3.4414 12.0323 3.18963 12.3428 3.18945ZM11.7803 6.58984C9.03679 6.86677 6.89551 9.18351 6.89551 12C6.89554 14.8164 9.03685 17.1322 11.7803 17.4092V6.58984ZM12.9053 17.4062C15.6392 17.1202 17.7705 14.8097 17.7705 12C17.7705 9.19027 15.6393 6.87879 12.9053 6.59277V17.4062ZM14.1104 14.25C14.5246 14.25 14.8604 14.5858 14.8604 15C14.8603 15.4142 14.5245 15.75 14.1104 15.75H14.0508C13.6366 15.75 13.3008 15.4142 13.3008 15C13.3008 14.5858 13.6366 14.25 14.0508 14.25H14.1104ZM16.1426 12.75C16.5568 12.75 16.8926 13.0858 16.8926 13.5C16.8925 13.9142 16.5568 14.25 16.1426 14.25H16.083C15.6688 14.25 15.333 13.9142 15.333 13.5C15.333 13.0858 15.6688 12.75 16.083 12.75H16.1426ZM14.1104 11.25C14.5245 11.25 14.8604 11.5858 14.8604 12C14.8602 12.4141 14.5245 12.75 14.1104 12.75H14.0498C13.6359 12.7497 13.3009 12.4139 13.3008 12C13.3008 11.5859 13.6358 11.2503 14.0498 11.25H14.1104ZM16.1426 9.75C16.5568 9.75 16.8926 10.0858 16.8926 10.5C16.8925 10.9142 16.5568 11.25 16.1426 11.25H16.083C15.6688 11.25 15.333 10.9142 15.333 10.5C15.333 10.0858 15.6688 9.75 16.083 9.75H16.1426ZM14.1104 8.25C14.5246 8.25 14.8604 8.58579 14.8604 9C14.8603 9.41418 14.5245 9.75 14.1104 9.75H14.0508C13.6366 9.75 13.3008 9.41418 13.3008 9C13.3008 8.58579 13.6366 8.25 14.0508 8.25H14.1104Z" fill="#898D94"/>
</svg>
