<svg width="24" height="24" viewBox="0 0 24 24" fill="none" xmlns="http://www.w3.org/2000/svg">
<g clip-path="url(#clip0_26_5367)">
<path d="M22 5.72398V1.99998C22 1.44798 21.553 0.999984 21 0.999984C20.447 0.999984 20 1.44798 20 1.99998V4.36598L14.797 0.854984C13.098 -0.291017 10.902 -0.291017 9.203 0.854984L2.203 5.57898C0.824 6.50998 0 8.05898 0 9.72398V19C0 21.757 2.243 24 5 24H8C8.553 24 9 23.552 9 23V15C9 14.449 9.448 14 10 14H14C14.552 14 15 14.449 15 15V23C15 23.552 15.447 24 16 24H19C21.757 24 24 21.757 24 19V9.72398C24 8.14298 23.256 6.66598 22 5.72398ZM22 19C22 20.654 20.654 22 19 22H17V15C17 13.346 15.654 12 14 12H10C8.346 12 7 13.346 7 15V22H5C3.346 22 2 20.654 2 19V9.72398C2 8.72499 2.494 7.79498 3.322 7.23698L10.322 2.51298C11.342 1.82498 12.658 1.82498 13.677 2.51298L20.677 7.23698C21.505 7.79498 21.999 8.72499 21.999 9.72398L22 19Z" fill="#939B9C"/>
</g>
<defs>
<clipPath id="clip0_26_5367">
<rect width="24" height="24" fill="white"/>
</clipPath>
</defs>
</svg>
