<svg width="20" height="20" viewBox="0 0 20 20" fill="none" xmlns="http://www.w3.org/2000/svg">
<path d="M11.2507 5.41762C11.2507 5.74912 11.119 6.06705 10.8846 6.30145C10.6502 6.53586 10.3322 6.66755 10.0007 6.66755C9.66924 6.66755 9.35131 6.53586 9.1169 6.30145C8.88249 6.06705 8.7508 5.74912 8.7508 5.41762C8.7508 5.08611 8.88249 4.76819 9.1169 4.53378C9.35131 4.29937 9.66924 4.16768 10.0007 4.16768C10.3322 4.16768 10.6502 4.29937 10.8846 4.53378C11.119 4.76819 11.2507 5.08611 11.2507 5.41762ZM20.0002 15.8337V10.284C20.0313 7.71537 19.0895 5.23004 17.364 3.32704C15.6384 1.42403 13.2568 0.244254 10.6974 0.0245679C9.26882 -0.0753787 7.83546 0.132679 6.49429 0.634663C5.15311 1.13665 3.9354 1.92085 2.92354 2.93421C1.91168 3.94756 1.12929 5.16644 0.629294 6.50836C0.129298 7.85028 -0.0766339 9.28394 0.0254304 10.7123C0.393744 16.0071 5.06933 20.0002 10.9032 20.0002H15.8338C16.9384 19.9989 17.9974 19.5595 18.7784 18.7784C19.5595 17.9973 19.9989 16.9383 20.0002 15.8337ZM10.584 1.68781C12.7226 1.877 14.7104 2.86851 16.148 4.46313C17.5856 6.05775 18.3664 8.13732 18.3336 10.284V15.8337C18.3336 16.4967 18.0703 17.1326 17.6014 17.6014C17.1326 18.0702 16.4968 18.3336 15.8338 18.3336H10.9032C5.87512 18.3336 2.00116 15.0838 1.68868 10.5973C1.60664 9.45456 1.76115 8.30713 2.14255 7.22675C2.52396 6.14636 3.12406 5.15624 3.90537 4.31823C4.68668 3.48023 5.63241 2.81235 6.68347 2.35632C7.73453 1.90029 8.86834 1.66591 10.0141 1.66781C10.2032 1.66781 10.3941 1.67531 10.584 1.68781ZM11.6673 15.0004V10.0007C11.6673 9.55871 11.4917 9.1348 11.1792 8.82226C10.8666 8.50972 10.4427 8.33413 10.0007 8.33413H9.16745C8.94645 8.33413 8.7345 8.42192 8.57822 8.5782C8.42195 8.73447 8.33416 8.94642 8.33416 9.16742C8.33416 9.38842 8.42195 9.60037 8.57822 9.75665C8.7345 9.91292 8.94645 10.0007 9.16745 10.0007H10.0007V15.0004C10.0007 15.2214 10.0885 15.4334 10.2448 15.5897C10.4011 15.7459 10.613 15.8337 10.834 15.8337C11.055 15.8337 11.267 15.7459 11.4233 15.5897C11.5795 15.4334 11.6673 15.2214 11.6673 15.0004Z" fill="#242B38"/>
</svg>
