<svg width="30" height="30" viewBox="0 0 30 30" fill="none" xmlns="http://www.w3.org/2000/svg">
<path d="M28 12.5C28.6075 12.5 29.0996 12.9921 29.0996 13.5996C29.0996 15.3855 28.7479 17.1538 28.0645 18.8037C27.381 20.4537 26.3791 21.953 25.1162 23.2158C23.8533 24.4787 22.3541 25.4806 20.7041 26.1641C20.1484 26.3942 19.5787 26.5851 19 26.7393V29.5635L13 26.0996L19 22.6357V24.4473C19.291 24.3534 19.579 24.2492 19.8623 24.1318C21.2454 23.5589 22.502 22.7187 23.5605 21.6602C24.6191 20.6016 25.4593 19.345 26.0322 17.9619C26.6051 16.5789 26.9004 15.0966 26.9004 13.5996C26.9004 12.9921 27.3925 12.5 28 12.5ZM6 11.7598L4.43652 10.8574C4.33422 11.27 4.25298 11.6883 4.19727 12.1113C4.00187 13.5955 4.10183 15.1038 4.48926 16.5498C4.87673 17.9959 5.5447 19.3523 6.45605 20.54C7.36735 21.7275 8.50348 22.7242 9.7998 23.4727C10.3258 23.7764 10.5058 24.4485 10.2021 24.9746C9.89839 25.5007 9.22632 25.6807 8.7002 25.377C7.15364 24.484 5.79811 23.2956 4.71094 21.8789C3.6237 20.462 2.8265 18.8443 2.36426 17.1191C1.90206 15.3941 1.7835 13.5948 2.0166 11.8242C2.11061 11.1103 2.26432 10.4077 2.46875 9.7207L0 8.2959L6 4.83203V11.7598ZM13.7246 0.116211C15.4952 -0.116894 17.2945 0.00167929 19.0195 0.463867C20.7447 0.926112 22.3624 1.72331 23.7793 2.81055C24.3627 3.25825 24.9049 3.75384 25.4062 4.28711L27.4639 3.09961V10.0273L21.4639 6.56348L23.4395 5.42188C23.1236 5.11515 22.7911 4.8248 22.4404 4.55566C21.2527 3.64431 19.8963 2.97634 18.4502 2.58887C17.0042 2.20144 15.4959 2.10148 14.0117 2.29688C12.5276 2.49232 11.0962 2.9781 9.7998 3.72656C9.27378 4.03014 8.60164 3.85011 8.29785 3.32422C7.99415 2.7982 8.1743 2.1261 8.7002 1.82227C10.2468 0.929349 11.9541 0.349364 13.7246 0.116211Z" fill="#E3312C"/>
</svg>
