<svg width="25" height="24" viewBox="0 0 25 24" fill="none" xmlns="http://www.w3.org/2000/svg">
<path d="M12.6665 18.6904C13.0807 18.6904 13.4165 19.0262 13.4165 19.4404V19.5C13.4165 19.9142 13.0807 20.25 12.6665 20.25C12.2523 20.25 11.9165 19.9142 11.9165 19.5V19.4404C11.9165 19.0262 12.2523 18.6904 12.6665 18.6904ZM6.87842 16.7275C7.17131 16.4346 7.64607 16.4346 7.93896 16.7275C8.23186 17.0204 8.23186 17.4952 7.93896 17.7881L7.84229 17.8857C7.54939 18.1786 7.07365 18.1786 6.78076 17.8857C6.48787 17.5928 6.48787 17.1171 6.78076 16.8242L6.87842 16.7275ZM17.394 16.7275C17.6869 16.4346 18.1617 16.4346 18.4546 16.7275L18.5522 16.8242C18.8451 17.1171 18.8451 17.5928 18.5522 17.8857C18.2594 18.1786 17.7836 18.1786 17.4907 17.8857L17.394 17.7881C17.1012 17.4952 17.1012 17.0204 17.394 16.7275ZM12.6665 6.5625C15.6696 6.5625 18.104 8.99695 18.104 12C18.104 15.003 15.6696 17.4375 12.6665 17.4375C9.66346 17.4375 7.229 15.003 7.229 12C7.229 8.99695 9.66346 6.5625 12.6665 6.5625ZM12.6665 7.6875C10.2848 7.6875 8.354 9.61827 8.354 12C8.354 14.3817 10.2848 16.3125 12.6665 16.3125C15.0482 16.3125 16.979 14.3817 16.979 12C16.979 9.61827 15.0482 7.6875 12.6665 7.6875ZM5.22607 11.25C5.64029 11.25 5.97607 11.5858 5.97607 12C5.97607 12.4142 5.64029 12.75 5.22607 12.75H5.1665C4.75229 12.75 4.4165 12.4142 4.4165 12C4.4165 11.5858 4.75229 11.25 5.1665 11.25H5.22607ZM20.1665 11.25C20.5807 11.25 20.9165 11.5858 20.9165 12C20.9165 12.4142 20.5807 12.75 20.1665 12.75H20.1069C19.6927 12.75 19.3569 12.4142 19.3569 12C19.3569 11.5858 19.6927 11.25 20.1069 11.25H20.1665ZM6.78076 6.11426C7.07365 5.82136 7.54939 5.82136 7.84229 6.11426L7.93896 6.21191C8.23186 6.50481 8.23186 6.97957 7.93896 7.27246C7.64607 7.56535 7.17131 7.56535 6.87842 7.27246L6.78076 7.17578C6.48787 6.88289 6.48787 6.40715 6.78076 6.11426ZM17.4907 6.11426C17.7836 5.82136 18.2594 5.82137 18.5522 6.11426C18.8451 6.40715 18.8451 6.88289 18.5522 7.17578L18.4546 7.27246C18.1617 7.56535 17.6869 7.56535 17.394 7.27246C17.1012 6.97957 17.1012 6.50481 17.394 6.21191L17.4907 6.11426ZM12.6665 3.75C13.0807 3.75 13.4165 4.08579 13.4165 4.5V4.55957C13.4165 4.97378 13.0807 5.30957 12.6665 5.30957C12.2523 5.30957 11.9165 4.97378 11.9165 4.55957V4.5C11.9165 4.08579 12.2523 3.75 12.6665 3.75Z" fill="#898D94"/>
</svg>
