<svg width="21" height="24" viewBox="0 0 21 24" fill="none" xmlns="http://www.w3.org/2000/svg">
<path d="M10.0547 0C12.7214 0 15.2794 1.05963 17.165 2.94531C19.0505 4.8309 20.1103 7.38813 20.1104 10.0547C20.1104 12.5926 18.1771 16.5449 14.3662 21.8018C13.8756 22.4862 13.2276 23.043 12.4775 23.4258C11.7275 23.8085 10.8967 24.0063 10.0547 24.002C9.21274 24.0062 8.38179 23.8085 7.63184 23.4258C6.88192 23.043 6.23467 22.4861 5.74414 21.8018C1.93319 16.5448 0 12.5927 0 10.0547C8.31548e-05 7.38805 1.05971 4.83092 2.94531 2.94531C4.83092 1.05971 7.38805 8.28383e-05 10.0547 0ZM10.0547 2.18262C7.96723 2.18508 5.9663 3.01613 4.49023 4.49219C3.01417 5.96825 2.18314 7.96919 2.18066 10.0566C2.18066 12.0666 4.07377 15.7844 7.50977 20.5234C7.80144 20.9251 8.18467 21.2521 8.62695 21.4775C9.06913 21.7029 9.55841 21.8203 10.0547 21.8203C10.5512 21.8203 11.0411 21.703 11.4834 21.4775C11.9256 21.2521 12.308 20.925 12.5996 20.5234C16.0356 15.7844 17.9287 12.0666 17.9287 10.0566C17.9262 7.96926 17.0961 5.96823 15.6201 4.49219C14.144 3.01604 12.1423 2.185 10.0547 2.18262ZM10 6.00098C11.0609 6.00098 12.078 6.42271 12.8281 7.17285C13.5783 7.923 14 8.94011 14 10.001C14 10.7921 13.7657 11.5658 13.3262 12.2236C12.8867 12.8814 12.2611 13.3936 11.5303 13.6963C10.7995 13.9989 9.99553 14.0781 9.21973 13.9238C8.4438 13.7695 7.73129 13.3885 7.17188 12.8291C6.61247 12.2697 6.23149 11.5572 6.07715 10.7812C5.92284 10.0054 6.00205 9.20151 6.30469 8.4707C6.60742 7.73985 7.11961 7.11433 7.77734 6.6748C8.43514 6.23528 9.20888 6.00098 10 6.00098ZM10.7656 8.15332C10.4002 8.00195 9.99734 7.96189 9.60938 8.03906C9.22155 8.11628 8.86555 8.3073 8.58594 8.58691C8.30632 8.86653 8.1153 9.22253 8.03809 9.61035C7.96092 9.99831 8.00097 10.4011 8.15234 10.7666C8.30372 11.1319 8.55988 11.4444 8.88867 11.6641C9.21757 11.8838 9.60444 12.001 10 12.001C10.5304 12.001 11.039 11.7901 11.4141 11.415C11.7891 11.04 12 10.5314 12 10.001C12 9.60541 11.8828 9.21855 11.6631 8.88965C11.4434 8.56086 11.1309 8.3047 10.7656 8.15332Z" fill="#242B38"/>
</svg>
