<svg width="21" height="22" viewBox="0 0 21 22" fill="none" xmlns="http://www.w3.org/2000/svg">
<path d="M13.6475 2.61154C13.7971 2.59601 13.9486 2.61831 14.0879 2.67502C16.2141 3.59691 17.9572 5.22344 19.0244 7.28049C20.0917 9.33766 20.418 11.6997 19.9473 13.969C19.4765 16.2381 18.2379 18.2756 16.4405 19.7385C14.6429 21.2014 12.3957 22.0002 10.0781 22.0002C7.76076 22.0001 5.5142 21.2013 3.71682 19.7385C1.91937 18.2756 0.680742 16.2381 0.209983 13.969C-0.26076 11.6997 0.0655565 9.33766 1.13283 7.28049C2.20006 5.22342 3.94319 3.5969 6.06936 2.67502C6.20852 2.6189 6.35959 2.59769 6.50881 2.61349C6.65805 2.62931 6.80148 2.68178 6.9258 2.76584C7.04981 2.84978 7.15151 2.96266 7.2217 3.09494C7.29193 3.22746 7.32834 3.37563 7.32815 3.5256C7.32527 3.70804 7.26939 3.88629 7.16701 4.03732C7.06465 4.1882 6.92025 4.30599 6.75198 4.37619C5.29001 5.02043 4.04646 6.07567 3.17287 7.4133C2.29932 8.75095 1.83319 10.3137 1.83108 11.9113C1.79562 14.0983 2.63012 16.21 4.15139 17.7815C5.67273 19.353 7.75641 20.2557 9.94338 20.2912C12.1303 20.3267 14.242 19.4921 15.8135 17.9709C17.385 16.4496 18.2878 14.3659 18.3233 12.1789C18.3743 10.536 17.9334 8.91502 17.0567 7.52463C16.1798 6.13418 14.907 5.03727 13.4024 4.37521C13.2341 4.3054 13.0897 4.188 12.9873 4.03732C12.8849 3.88658 12.8291 3.70879 12.8262 3.52658C12.8257 3.37616 12.8623 3.22791 12.9326 3.09494C13.003 2.96198 13.1049 2.84808 13.2295 2.76389C13.3542 2.67973 13.4979 2.62712 13.6475 2.61154ZM10.0772 0.000213623C10.5831 0.000213623 10.9931 0.410308 10.9932 0.916229V6.41428C10.993 6.9201 10.5831 7.33029 10.0772 7.33029C9.57131 7.33027 9.16138 6.92009 9.16115 6.41428V0.916229C9.16127 0.410324 9.57124 0.000240516 10.0772 0.000213623Z" fill="#242B38"/>
</svg>
