<svg width="20" height="20" viewBox="0 0 20 20" fill="none" xmlns="http://www.w3.org/2000/svg">
<path d="M17.2363 0.969018L17.2188 0.963183L14.9559 0.213055C14.1742 -0.0464422 13.3334 -0.0693482 12.5388 0.147211L7.89134 1.49661C7.32229 1.64741 6.71841 1.59434 6.18439 1.34658L5.76765 1.15322C5.1347 0.889982 4.44659 0.786951 3.7643 0.853253C3.08201 0.919556 2.42662 1.15314 1.85619 1.53332C1.28577 1.91349 0.817936 2.4285 0.494154 3.03272C0.170371 3.63694 0.000639514 4.3117 0 4.9972L0 15.0614C0.00175163 15.9627 0.294877 16.8392 0.835634 17.5602C1.37639 18.2812 2.13579 18.8081 3.00051 19.0621L5.39175 19.8122C5.79517 19.9376 6.21533 20.0009 6.6378 19.9998C7.01437 20.0045 7.38959 19.9537 7.75132 19.8489L12.5855 18.5153C13.0272 18.3955 13.4934 18.3993 13.9332 18.5262L15.886 19.0896C16.3763 19.2081 16.8871 19.2139 17.3799 19.1064C17.8727 18.9989 18.3347 18.781 18.7311 18.4691C19.1275 18.1572 19.4479 17.7595 19.6683 17.3058C19.8887 16.8521 20.0033 16.3543 20.0034 15.8499V4.89385C20.0021 4.0344 19.7357 3.19628 19.2405 2.49386C18.7453 1.79143 18.0453 1.25893 17.2363 0.969018ZM3.48059 17.4652C2.95909 17.3144 2.5005 16.9986 2.17353 16.5653C1.84656 16.1319 1.66883 15.6043 1.66695 15.0614V4.9972C1.6629 4.58436 1.76276 4.17714 1.95735 3.81302C2.15194 3.44889 2.435 3.13957 2.78047 2.91351C3.19155 2.64084 3.67409 2.49584 4.16738 2.49678C4.48548 2.49686 4.80044 2.55974 5.0942 2.68181C5.0942 2.68181 5.71514 2.94769 5.83349 2.99019V18.2011L3.48059 17.4652ZM7.50128 18.1886V3.2294C7.78437 3.21438 8.06526 3.1711 8.33975 3.10021L12.5021 1.89084V16.8326L7.50128 18.1886ZM18.3365 15.8499C18.3366 16.0995 18.2807 16.3461 18.1729 16.5712C18.065 16.7964 17.908 16.9944 17.7133 17.1508C17.5187 17.3071 17.2914 17.4177 17.0482 17.4744C16.8051 17.5312 16.5523 17.5325 16.3086 17.4785L14.1691 16.8759V1.72581L16.6845 2.54179C17.1679 2.71694 17.5858 3.0366 17.8813 3.45738C18.1768 3.87815 18.3357 4.37967 18.3365 4.89385V15.8499Z" fill="#242B38"/>
</svg>
