<svg width="28" height="28" viewBox="0 0 28 28" fill="none" xmlns="http://www.w3.org/2000/svg">
<g clip-path="url(#clip0_6763_49449)">
<path d="M17.5 7H10.5C7.2835 7 4.66667 9.61683 4.66667 12.8333V19.8333C4.66667 22.0512 6.22183 23.912 8.2985 24.3845L7.1715 26.2243C6.83433 26.7738 7.007 27.4925 7.5565 27.8285C7.74667 27.9452 7.95667 28 8.16433 28C8.55633 28 8.94017 27.8017 9.16067 27.4423L10.9632 24.5H17.0357L18.8382 27.4423C19.0575 27.8017 19.4413 28 19.8345 28C20.0422 28 20.2522 27.944 20.4423 27.8285C20.9918 27.4925 21.1645 26.7738 20.8273 26.2243L19.7003 24.3845C21.777 23.9132 23.3322 22.0523 23.3322 19.8333V12.8333C23.3322 9.61683 20.7153 7 17.4988 7H17.5ZM21 12.8333V15.1667H15.1667V9.33333H17.5C19.4297 9.33333 21 10.9037 21 12.8333ZM10.5 9.33333H12.8333V15.1667H7V12.8333C7 10.9037 8.57033 9.33333 10.5 9.33333ZM18.6667 22.1667H9.33333C8.0465 22.1667 7 21.1202 7 19.8333V17.5H9.33333V18.6667C9.33333 19.3118 9.856 19.8333 10.5 19.8333C11.144 19.8333 11.6667 19.3118 11.6667 18.6667V17.5H16.3333V18.6667C16.3333 19.3118 16.856 19.8333 17.5 19.8333C18.144 19.8333 18.6667 19.3118 18.6667 18.6667V17.5H21V19.8333C21 21.1202 19.9535 22.1667 18.6667 22.1667ZM28 14V26.8333C28 27.4785 27.4773 28 26.8333 28C26.1893 28 25.6667 27.4785 25.6667 26.8333V14C25.6667 7.567 20.433 2.33333 14 2.33333C7.567 2.33333 2.33333 7.567 2.33333 14V26.8333C2.33333 27.4785 1.81067 28 1.16667 28C0.522667 28 0 27.4785 0 26.8333V14C0 6.28017 6.28017 0 14 0C21.7198 0 28 6.28017 28 14Z" fill="#E3312C"/>
</g>
<defs>
<clipPath id="clip0_6763_49449">
<rect width="28" height="28" fill="white"/>
</clipPath>
</defs>
</svg>
