<svg width="23" height="29" viewBox="0 0 23 29" fill="none" xmlns="http://www.w3.org/2000/svg">
<path d="M16.833 10.8496C18.3795 10.8515 19.8625 11.467 20.9561 12.5605C22.0494 13.654 22.6651 15.1363 22.667 16.6826V23.0166C22.6651 24.5629 22.0494 26.0452 20.9561 27.1387C19.8625 28.2322 18.3795 28.8478 16.833 28.8496H5.83301C4.2866 28.8477 2.80442 28.2322 1.71094 27.1387C0.617453 26.0452 0.0019386 24.563 0 23.0166V16.6826C0.00193834 15.1362 0.617453 13.654 1.71094 12.5605C2.80442 11.4671 4.2866 10.8515 5.83301 10.8496H16.833ZM2.33301 18.8496V23.0166C2.33309 23.9447 2.7021 24.8349 3.3584 25.4912C4.0147 26.1475 4.90487 26.5165 5.83301 26.5166H16.833C17.7613 26.5166 18.6522 26.1476 19.3086 25.4912C19.9648 24.8349 20.3329 23.9447 20.333 23.0166V18.8496H2.33301ZM5.83301 13.1826C4.90487 13.1827 4.0147 13.5517 3.3584 14.208C2.74134 14.8251 2.37915 15.6489 2.33789 16.5166H20.3291C20.2878 15.649 19.9256 14.8251 19.3086 14.208C18.6522 13.5516 17.7613 13.1826 16.833 13.1826H5.83301ZM21.459 0C21.9419 6.39102e-05 22.3688 0.314753 22.5107 0.776367C22.6524 1.23821 22.4761 1.73871 22.0762 2.00977L12.1172 8.75977L11.9727 8.84277C11.6243 9.00867 11.209 8.98073 10.8828 8.75977L0.923828 2.00977L0.78418 1.89844C0.484433 1.61477 0.365242 1.18053 0.489258 0.776367C0.631183 0.314706 1.05799 -4.22271e-08 1.54102 0H21.459ZM11.5 6.52148L17.877 2.19922H5.12305L11.5 6.52148Z" fill="#E3312C"/>
</svg>
