<svg width="31" height="30" viewBox="0 0 31 30" fill="none" xmlns="http://www.w3.org/2000/svg">
<path d="M18.7256 0.345775C21.1392 0.897072 23.3716 2.06686 25.2158 3.73933L25.2197 3.74226L25.3086 3.8155L25.7578 4.24617C27.9547 6.44414 29.4151 9.29687 29.9248 12.3966C30.4685 15.7029 29.8987 19.1013 28.3076 22.0382C28.1043 22.4131 27.7066 22.6407 27.2803 22.6261C26.9072 22.6132 26.5685 22.4165 26.3711 22.1075L26.2949 21.9678L26.293 21.9649C26.2919 21.9626 26.2911 21.9587 26.2891 21.9542C26.2848 21.9448 26.2779 21.9306 26.2695 21.9122C26.2526 21.875 26.2271 21.8191 26.1943 21.7471C26.1289 21.6033 26.0331 21.3925 25.9111 21.1241C25.6669 20.5867 25.3176 19.8178 24.8994 18.8946C24.0631 17.0484 22.9487 14.5817 21.8369 12.1007C21.7517 11.9104 21.6672 11.7196 21.582 11.5294C22.056 13.0011 22.5036 14.3882 22.916 15.669C24.2602 19.8436 25.2284 22.776 25.749 23.8653C25.9255 24.2346 25.8866 24.6658 25.6572 24.9942L25.5469 25.128C23.8494 26.9014 21.7401 28.2131 19.4121 28.9395C19.1095 29.0339 18.7812 28.9955 18.5078 28.835C18.2344 28.6745 18.0416 28.4061 17.9766 28.0958C17.7416 26.9743 16.8158 20.1945 15.9873 13.7784C15.822 12.4978 15.6615 11.2269 15.5088 10.0128C15.3752 11.2473 15.2355 12.5416 15.0899 13.8458C14.3716 20.2779 13.5621 27.0786 13.3438 28.213C13.2839 28.5238 13.0953 28.795 12.8252 28.96C12.5889 29.1044 12.3089 29.1562 12.0391 29.1075L11.9238 29.0802C9.72406 28.4394 7.70716 27.2806 6.03322 25.7022L5.70314 25.3809C5.37194 25.0483 5.28198 24.5449 5.47755 24.1182L5.68654 23.6192C6.22031 22.2576 7.06819 19.5424 8.18556 15.8731C8.69196 14.2102 9.24996 12.3674 9.85157 10.3946C9.65376 10.8618 9.45724 11.3348 9.25685 11.8067C8.19416 14.309 7.11731 16.823 6.28126 18.7276C5.86373 19.6788 5.50332 20.485 5.23341 21.0636C5.09927 21.3511 4.98272 21.5939 4.88966 21.7735C4.8442 21.8613 4.79599 21.9503 4.74904 22.0274C4.72637 22.0647 4.69253 22.1172 4.65138 22.1719C4.64244 22.1839 4.57385 22.2811 4.45314 22.3819L4.31349 22.4815C4.0515 22.6411 3.73592 22.6873 3.43947 22.6085C3.14302 22.5296 2.89132 22.3331 2.74318 22.0645C1.5146 19.837 0.871793 17.3248 0.875012 14.7716C0.87612 11.4198 1.9888 8.16399 4.03614 5.53523C6.08387 2.90607 8.94727 1.0581 12.1621 0.296947C14.2459 -0.0437916 16.6607 -0.12584 18.7256 0.345775ZM13.7266 5.45613C12.4457 9.55929 11.3029 13.3593 10.3379 16.5284C9.28966 19.9707 8.42814 22.7405 7.83204 24.2989C8.86991 25.2242 10.0509 25.9627 11.3242 26.4874C11.654 24.0245 12.2772 18.7565 12.8535 13.5958C13.1843 10.6339 13.4953 7.73059 13.7266 5.45613ZM17.2031 5.34968C17.4738 7.62204 17.8361 10.5271 18.2188 13.4903C18.8826 18.6318 19.594 23.8788 19.9649 26.3341C21.2222 25.7866 22.3833 25.0279 23.3984 24.086C22.78 22.5408 21.8771 19.7829 20.7744 16.3585C19.7593 13.2059 18.5533 9.42619 17.2031 5.34968ZM10.416 3.26667C8.62997 4.08556 7.0471 5.33164 5.81154 6.91804C4.07433 9.14859 3.1259 11.9171 3.12501 14.7725V14.7745C3.12328 16.1587 3.34496 17.5277 3.7754 18.8282C3.91326 18.5188 4.06292 18.1828 4.22072 17.8233C5.05112 15.9315 6.12375 13.4281 7.18556 10.9278C8.24703 8.42834 9.29687 5.93527 10.0811 4.06746C10.1994 3.78572 10.3107 3.51784 10.416 3.26667ZM26.9492 17.9669C27.066 18.2247 27.178 18.4702 27.2832 18.7022C27.8807 16.796 28.0327 14.7602 27.7041 12.7618C27.2448 9.96861 25.8799 7.41906 23.835 5.51863L23.7842 5.47663L23.4844 5.20906C22.552 4.40312 21.5101 3.74718 20.3955 3.25789C21.921 6.83093 25.1101 13.907 26.9492 17.9669Z" fill="#E3312C"/>
</svg>
