<svg width="20" height="20" viewBox="0 0 20 20" fill="none" xmlns="http://www.w3.org/2000/svg">
<path d="M18.9583 8.07637C19.63 8.83804 20 9.81637 20 10.8322V14.9989C20 17.2964 18.1308 19.1655 15.8333 19.1655H4.16667C1.86917 19.1655 0 17.2964 0 14.9989V10.8322C0 8.53471 1.86917 6.66554 4.16667 6.66554H7.5C7.96083 6.66554 8.33333 7.03887 8.33333 7.49887C8.33333 7.95887 7.96083 8.3322 7.5 8.3322H4.16667C2.78833 8.3322 1.66667 9.45387 1.66667 10.8322V14.9989C1.66667 16.3772 2.78833 17.4989 4.16667 17.4989H15.8333C17.2117 17.4989 18.3333 16.3772 18.3333 14.9989V10.8322C18.3333 10.223 18.1108 9.63554 17.7083 9.17887C17.4042 8.83387 17.4367 8.30721 17.7825 8.0022C18.1267 7.69887 18.6533 7.73137 18.9583 8.07637ZM4.16667 12.9155C4.16667 13.6055 4.72667 14.1655 5.41667 14.1655C6.10667 14.1655 6.66667 13.6055 6.66667 12.9155C6.66667 12.2255 6.10667 11.6655 5.41667 11.6655C4.72667 11.6655 4.16667 12.2255 4.16667 12.9155ZM9.58333 14.1655C10.2733 14.1655 10.8333 13.6055 10.8333 12.9155C10.8333 12.2255 10.2733 11.6655 9.58333 11.6655C8.89333 11.6655 8.33333 12.2255 8.33333 12.9155C8.33333 13.6055 8.89333 14.1655 9.58333 14.1655ZM10 9.16554V7.84387C10 6.95387 10.3467 6.11637 10.9767 5.48721L15.7325 0.731372C16.7075 -0.243628 18.2925 -0.243628 19.2675 0.731372C19.7392 1.20304 20 1.83137 20 2.49887C20 3.16637 19.7392 3.79471 19.2675 4.26721L14.5117 9.02304C13.8825 9.65221 13.045 9.99971 12.155 9.99971H10.8333C10.3725 9.99971 10 9.62637 10 9.16637V9.16554ZM11.6667 8.3322H12.155C12.6 8.3322 13.0183 8.15887 13.3333 7.84387L18.0892 3.08804C18.2467 2.93054 18.3333 2.72137 18.3333 2.49887C18.3333 2.27637 18.2467 2.06721 18.0892 1.90971C17.7633 1.58387 17.2367 1.58471 16.9108 1.90971L12.155 6.66554C11.845 6.97637 11.6667 7.40554 11.6667 7.84387V8.3322Z" fill="#242B38"/>
</svg>
