<svg width="28" height="28" viewBox="0 0 28 28" fill="none" xmlns="http://www.w3.org/2000/svg">
<path d="M21.999 0.700195C24.9261 0.700195 27.2987 3.07298 27.2988 6V22C27.2988 24.9271 24.9261 27.2998 21.999 27.2998H5.99902C3.072 27.2997 0.699219 24.927 0.699219 22V6C0.699324 3.07305 3.07207 0.700301 5.99902 0.700195H21.999ZM5.99902 3C4.34232 3.00011 2.99913 4.3433 2.99902 6V22C2.99902 23.6568 4.34226 24.9999 5.99902 25H21.999C23.6559 25 24.999 23.6569 24.999 22V6C24.9989 4.34324 23.6558 3 21.999 3H5.99902ZM15.5 5.10059C17.261 5.10067 18.8179 5.69213 19.9375 6.81152C21.0572 7.9312 21.6494 9.48871 21.6494 11.25C21.6494 13.0113 21.0572 14.5688 19.9375 15.6885C18.8179 16.8079 17.261 17.4003 15.5 17.4004H14.6494V21.75C14.6494 22.385 14.1349 22.9002 13.5 22.9004H8.5C7.86487 22.9004 7.34961 22.3851 7.34961 21.75V6.25C7.34966 5.61492 7.86491 5.10059 8.5 5.10059H15.5ZM9.64941 20.6006H12.3496V16.25C12.3497 15.6149 12.8649 15.1006 13.5 15.1006H15.5C16.7385 15.1005 17.6813 14.6918 18.3115 14.0615C18.9417 13.4312 19.3496 12.4885 19.3496 11.25C19.3496 10.0115 18.9417 9.06876 18.3115 8.43848C17.6813 7.80824 16.7385 7.40048 15.5 7.40039H9.64941V20.6006ZM16 10.1006C16.6349 10.1008 17.1494 10.615 17.1494 11.25C17.1494 11.885 16.6349 12.4002 16 12.4004H13.5C12.8649 12.4004 12.3496 11.8851 12.3496 11.25C12.3497 10.6149 12.8649 10.1006 13.5 10.1006H16Z" fill="#E3312C"/>
</svg>
