<svg width="24" height="24" viewBox="0 0 24 24" fill="none" xmlns="http://www.w3.org/2000/svg">
<g clip-path="url(#clip0_26_5388)">
<path d="M5 20C5 21.381 3.881 22.5 2.5 22.5C1.119 22.5 0 21.381 0 20C0 18.619 1.119 17.5 2.5 17.5C3.881 17.5 5 18.619 5 20ZM21.5 6.50001C22.881 6.50001 24 5.38101 24 4.00001C24 2.61901 22.881 1.50001 21.5 1.50001C20.119 1.50001 19 2.61901 19 4.00001C19 5.38101 20.119 6.50001 21.5 6.50001ZM20.5 14.5V15C20.5 15.552 20.948 16 21.5 16C22.052 16 22.5 15.552 22.5 15V14.5C22.5 12.019 20.481 10 18 10H4.5C3.122 10 2 8.87801 2 7.50001C2 6.12201 3.122 5.00001 4.5 5.00001H14.228L12.935 6.29301C12.544 6.68401 12.544 7.31601 12.935 7.70701C13.13 7.90201 13.386 8.00001 13.642 8.00001C13.898 8.00001 14.154 7.90201 14.349 7.70701L16.321 5.73501C17.26 4.79701 17.26 3.26901 16.321 2.33001L14.284 0.293006C13.893 -0.0979941 13.261 -0.0979941 12.87 0.293006C12.479 0.684006 12.479 1.31601 12.87 1.70701L14.163 3.00001H4.5C2.019 3.00001 0 5.01901 0 7.50001C0 9.98101 2.019 12 4.5 12H18C19.378 12 20.5 13.122 20.5 14.5ZM21.5 17.5C20.119 17.5 19 18.619 19 20C19 21.381 20.119 22.5 21.5 22.5C22.881 22.5 24 21.381 24 20C24 18.619 22.881 17.5 21.5 17.5ZM14.284 16.293C13.893 15.902 13.261 15.902 12.87 16.293C12.479 16.684 12.479 17.316 12.87 17.707L14.163 19H8C7.448 19 7 19.448 7 20C7 20.552 7.448 21 8 21H14.228L12.935 22.293C12.544 22.684 12.544 23.316 12.935 23.707C13.13 23.902 13.386 24 13.642 24C13.898 24 14.154 23.902 14.349 23.707L16.321 21.735C17.26 20.797 17.26 19.269 16.321 18.33L14.284 16.293Z" fill="#939B9C"/>
</g>
<defs>
<clipPath id="clip0_26_5388">
<rect width="24" height="24" fill="white"/>
</clipPath>
</defs>
</svg>
