<svg width="24" height="24" viewBox="0 0 24 24" fill="none" xmlns="http://www.w3.org/2000/svg">
<path d="M19.3374 14.6665C18.5821 14.6671 17.8384 14.8517 17.1703 15.2043C16.5023 15.5569 15.93 16.0669 15.5028 16.6904L9.00121 13.7515C9.46299 12.6352 9.46479 11.3813 9.00621 10.2637L15.4988 7.30987C16.1319 8.22657 17.0723 8.88575 18.1493 9.16782C19.2263 9.44988 20.3687 9.33617 21.3691 8.84729C22.3696 8.35841 23.1619 7.52675 23.6023 6.50318C24.0427 5.4796 24.1021 4.33189 23.7696 3.26825C23.4372 2.20461 22.7349 1.29548 21.7903 0.705766C20.8456 0.116055 19.7211 -0.115174 18.6207 0.0540208C17.5203 0.223216 16.517 0.781628 15.7927 1.62797C15.0683 2.4743 14.671 3.55251 14.6727 4.667C14.6769 4.93079 14.7037 5.19373 14.7526 5.45296L7.85053 8.5928C7.18764 7.97105 6.35776 7.55669 5.46285 7.40062C4.56794 7.24456 3.64699 7.35358 2.81312 7.7143C1.97926 8.07502 1.26881 8.67173 0.769057 9.43112C0.269302 10.1905 0.00200712 11.0795 1.12593e-05 11.9889C-0.0019846 12.8982 0.261405 13.7884 0.757823 14.55C1.25424 15.3116 1.96206 15.9114 2.79433 16.2758C3.6266 16.6402 4.54707 16.7532 5.44266 16.6011C6.33824 16.449 7.16993 16.0383 7.83555 15.4194L14.7556 18.5473C14.7075 18.8063 14.6811 19.0688 14.6767 19.3322C14.6765 20.2553 14.9498 21.1577 15.4619 21.9253C15.9741 22.6929 16.7021 23.2912 17.554 23.6446C18.4058 23.9979 19.3432 24.0904 20.2475 23.9104C21.1519 23.7303 21.9826 23.2859 22.6346 22.6331C23.2866 21.9804 23.7306 21.1488 23.9105 20.2434C24.0903 19.3381 23.9979 18.3997 23.645 17.5469C23.292 16.6941 22.6944 15.9653 21.9276 15.4526C21.1608 14.9398 20.2594 14.6663 19.3374 14.6665ZM19.3374 2.00014C19.8643 1.99995 20.3794 2.15619 20.8176 2.4491C21.2558 2.74202 21.5974 3.15846 21.7992 3.64575C22.001 4.13304 22.0539 4.66928 21.9512 5.18667C21.8486 5.70406 21.5949 6.17934 21.2224 6.55241C20.8499 6.92547 20.3752 7.17957 19.8584 7.28255C19.3416 7.38553 18.806 7.33278 18.3191 7.13096C17.8323 6.92914 17.4162 6.58732 17.1234 6.14874C16.8307 5.71015 16.6744 5.1945 16.6744 4.667C16.6749 3.96004 16.9556 3.28218 17.4549 2.78219C17.9541 2.2822 18.6312 2.00094 19.3374 2.00014ZM4.68816 14.6665C4.16124 14.6667 3.6461 14.5104 3.20788 14.2175C2.76967 13.9246 2.42807 13.5082 2.22629 13.0209C2.02451 12.5336 1.97161 11.9973 2.07429 11.48C2.17696 10.9626 2.4306 10.4873 2.80312 10.1142C3.17564 9.74115 3.65031 9.48706 4.16709 9.38408C4.68387 9.2811 5.21955 9.33385 5.70638 9.53567C6.19321 9.73749 6.60932 10.0793 6.90208 10.5179C7.19484 10.9565 7.35111 11.4721 7.35111 11.9996C7.35032 12.7065 7.06953 13.3842 6.57033 13.8841C6.07114 14.3841 5.39427 14.6654 4.68816 14.6665ZM19.3374 21.9991C18.8105 21.9991 18.2954 21.8427 17.8573 21.5497C17.4193 21.2566 17.0778 20.8401 16.8762 20.3528C16.6746 19.8655 16.6218 19.3293 16.7246 18.812C16.8274 18.2946 17.0811 17.8195 17.4537 17.4465C17.8262 17.0735 18.3009 16.8195 18.8176 16.7166C19.3344 16.6137 19.87 16.6665 20.3568 16.8684C20.8436 17.0702 21.2596 17.412 21.5523 17.8506C21.8451 18.2892 22.0013 18.8048 22.0013 19.3322C22.0008 20.0394 21.7199 20.7174 21.2205 21.2174C20.721 21.7174 20.0437 21.9986 19.3374 21.9991Z" fill="white"/>
</svg>
