<svg width="56" height="56" viewBox="0 0 56 56" fill="none" xmlns="http://www.w3.org/2000/svg">
<path fill-rule="evenodd" clip-rule="evenodd" d="M47.1631 8.09549C36.3762 -2.69134 18.8817 -2.69134 8.09487 8.09549C-2.69829 18.8823 -2.69829 36.3769 8.09487 47.17C18.8817 57.9568 36.3762 57.9568 47.1631 47.17C57.9562 36.3769 57.9562 18.8823 47.1631 8.09549ZM30.4973 21.758C33.6896 18.5656 38.8899 18.5656 42.0885 21.758V21.7453C45.2872 24.944 45.2872 30.1442 42.0885 33.3429L31.6564 43.7687C32.0428 45.1495 31.6944 46.695 30.605 47.7844C29.0025 49.3933 26.3992 49.3933 24.7904 47.7844C23.1815 46.1819 23.1815 43.5786 24.7904 41.9698C25.8101 40.9437 27.248 40.5763 28.5654 40.8613L39.0862 30.3469C40.6254 28.8077 40.6254 26.2931 39.0862 24.7539C37.5407 23.2148 35.0325 23.2148 33.4933 24.7539L24.8664 33.3809C23.3209 34.9264 21.256 35.7815 19.0707 35.7815C16.8855 35.7815 14.827 34.9327 13.2751 33.3809C10.0828 30.1885 10.0828 24.9883 13.2751 21.7896L23.7136 11.3512C23.3842 10.002 23.7389 8.51353 24.7967 7.45575C26.3992 5.84691 29.0025 5.84691 30.6113 7.45575C32.2202 9.06459 32.2202 11.6679 30.6113 13.2767C29.5535 14.3282 28.065 14.6892 26.7159 14.3535L16.2774 24.7919C14.7383 26.3311 14.7383 28.8457 16.2774 30.3849C17.0249 31.1323 18.0193 31.544 19.0771 31.544C20.1349 31.544 21.123 31.1323 21.8704 30.3849L30.4973 21.758Z" fill="#E3312C"/>
</svg>
