<svg width="48" height="48" viewBox="0 0 48 48" fill="none" xmlns="http://www.w3.org/2000/svg">
<path d="M22.1839 3.93733C22.8987 2.38758 25.1013 2.38759 25.8161 3.93733L30.3024 13.6635C30.5937 14.2952 31.1923 14.73 31.883 14.8119L42.5195 16.0731C44.2143 16.274 44.8949 18.3688 43.6419 19.5275L35.7781 26.7998C35.2674 27.272 35.0388 27.9757 35.1744 28.6579L37.2618 39.1636C37.5944 40.8375 35.8125 42.1321 34.3233 41.2985L24.9769 36.0668C24.3699 35.7271 23.6301 35.7271 23.0231 36.0668L13.6767 41.2985C12.1875 42.1321 10.4056 40.8375 10.7382 39.1636L12.8256 28.6579C12.9612 27.9757 12.7326 27.272 12.2219 26.7998L4.35805 19.5275C3.10505 18.3688 3.78569 16.274 5.48048 16.0731L16.117 14.8119C16.8077 14.73 17.4063 14.2952 17.6976 13.6635L22.1839 3.93733Z" fill="#BBBDC1"/>
<path d="M22.6546 20.9169C23.1841 19.7688 24.8159 19.7688 25.3454 20.9169C25.5613 21.3848 26.0047 21.707 26.5164 21.7677C27.772 21.9165 28.2762 23.4684 27.348 24.3269C26.9696 24.6767 26.8003 25.198 26.9007 25.7034C27.1471 26.9436 25.827 27.9027 24.7237 27.2851C24.2741 27.0334 23.7259 27.0334 23.2763 27.2851C22.173 27.9027 20.8529 26.9436 21.0993 25.7034C21.1997 25.198 21.0304 24.6767 20.652 24.3269C19.7238 23.4684 20.228 21.9165 21.4836 21.7677C21.9953 21.707 22.4387 21.3848 22.6546 20.9169Z" fill="#BBBDC1"/>
</svg>
