<svg width="80" height="80" viewBox="0 0 80 80" fill="none" xmlns="http://www.w3.org/2000/svg">
<path d="M30.9348 37.2C29.3278 35.6 26.9173 35.6 25.3103 37.2C23.7033 38.8 23.7033 41.2 25.3103 42.8L37.3628 54.8C38.1663 55.6 38.9698 56 40.175 56C41.3803 56 42.1838 55.6 42.9873 54.8L71.1098 22.8C72.3151 20.8 72.3151 18.4 70.3063 17.2C68.6993 16 66.2888 16 65.0836 17.6L40.175 46L30.9348 37.2Z" fill="#83D35E"/>
<path d="M76.3325 36C73.922 36 72.315 37.6 72.315 40C72.315 57.6 57.852 72 40.175 72C22.498 72 8.035 57.6 8.035 40C8.035 31.6 11.249 23.6 17.2753 17.6C23.3015 11.2 31.3365 8 40.175 8C42.5855 8 45.3978 8.4 47.8083 8.8C49.817 9.6 52.2275 8.4 53.031 6C53.8345 3.6 52.2275 2 50.2188 1.2H49.817C46.603 0.4 43.389 0 40.175 0C18.0788 0 0 18 0 40.4C0 50.8 4.41925 61.2 11.6508 68.4C19.284 76 29.3278 80 39.7733 80C61.8695 80 79.9483 62 79.9483 40C80.35 37.6 78.3413 36 76.3325 36Z" fill="#83D35E"/>
</svg>
