<svg width="32" height="32" viewBox="0 0 32 32" fill="none" xmlns="http://www.w3.org/2000/svg">
<path d="M25.1019 16.0078C25.2185 16.0081 25.3333 16.0328 25.4398 16.0801C25.5464 16.1274 25.6426 16.1969 25.7211 16.2832C25.7993 16.3693 25.8589 16.4707 25.8959 16.5811C25.9328 16.6917 25.9467 16.8096 25.9359 16.9258C25.7685 18.7729 25.09 20.537 23.9769 22.0205C22.8636 23.5043 21.3582 24.649 19.6312 25.3262C17.9044 26.0031 16.0235 26.186 14.1986 25.8545C12.3735 25.5229 10.6766 24.6896 9.2982 23.4482V25.1816C9.29819 25.4027 9.21035 25.6151 9.05406 25.7715C8.89774 25.9278 8.68527 26.0155 8.46422 26.0156C8.24312 26.0156 8.03075 25.9278 7.87437 25.7715C7.71798 25.6151 7.63024 25.4028 7.63023 25.1816V21.7266C7.63012 21.5232 7.66966 21.3217 7.74742 21.1338C7.82521 20.9458 7.93953 20.7747 8.08336 20.6309C8.227 20.4873 8.39768 20.3736 8.58531 20.2959C8.77325 20.2181 8.97565 20.1776 9.17906 20.1777H12.6341C12.855 20.1778 13.0667 20.2658 13.223 20.4219C13.3794 20.5783 13.4681 20.7906 13.4681 21.0117C13.4681 21.2329 13.3794 21.4452 13.223 21.6016C13.0667 21.7577 12.855 21.8456 12.6341 21.8457H10.0296C11.1442 22.9841 12.5629 23.7788 14.1156 24.1357C15.6682 24.4925 17.2907 24.3968 18.7904 23.8594C20.2901 23.3219 21.6039 22.3653 22.5765 21.1035C23.5491 19.8417 24.1398 18.3275 24.2777 16.7402C24.2993 16.5375 24.3958 16.3503 24.5482 16.2148C24.7006 16.0795 24.8981 16.0053 25.1019 16.0078ZM23.475 6C23.696 6 23.9084 6.08791 24.0648 6.24414C24.2211 6.40049 24.3089 6.61288 24.3089 6.83398V10.2891C24.3087 10.6995 24.146 11.0934 23.8558 11.3838C23.5654 11.6742 23.1708 11.8377 22.7601 11.8379H19.305C19.0841 11.8378 18.8724 11.7499 18.7162 11.5938C18.5598 11.4374 18.4711 11.2251 18.4711 11.0039C18.4711 10.7828 18.5598 10.5704 18.7162 10.4141C18.8724 10.258 19.0842 10.17 19.305 10.1699H21.9095C21.1341 9.38092 20.2093 8.75367 19.1898 8.32422C18.1703 7.8948 17.0753 7.6716 15.9691 7.66797C13.885 7.67084 11.8772 8.45284 10.3402 9.86035C8.80316 11.2679 7.84816 13.1995 7.66246 15.2754C7.64087 15.4782 7.5445 15.6663 7.39195 15.8018C7.23941 15.9371 7.0412 16.0104 6.83726 16.0078C6.72083 16.0074 6.6058 15.9828 6.49937 15.9355C6.3928 15.8882 6.29657 15.8197 6.21812 15.7334C6.13971 15.6471 6.08031 15.5451 6.04332 15.4346C6.00637 15.3241 5.99257 15.2068 6.00328 15.0908C6.17059 13.2435 6.84907 11.4788 7.96226 9.99512C9.07552 8.51148 10.5801 7.3666 12.307 6.68945C14.0339 6.01237 15.9156 5.82959 17.7406 6.16113C19.5657 6.49276 21.2626 7.32603 22.641 8.56738V6.83398C22.641 6.61291 22.7288 6.40048 22.8851 6.24414C23.0414 6.08782 23.2539 6.00009 23.475 6Z" fill="#242B38"/>
</svg>
