<svg width="21" height="28" viewBox="0 0 21 28" fill="none" xmlns="http://www.w3.org/2000/svg">
<path d="M15.1673 5.83358H11.6672V2.36027C15.4006 2.52827 18.2801 3.43481 18.3104 3.44414C18.9218 3.64015 19.581 3.30414 19.7782 2.68928C19.9742 2.07675 19.637 1.41989 19.0245 1.22272C18.8693 1.17255 15.1661 0 10.5004 0C5.83474 0 2.13159 1.17255 1.97642 1.22272C1.36272 1.41989 1.02554 2.07675 1.22272 2.69045C1.38256 3.1863 1.83991 3.50015 2.33343 3.50015C2.45244 3.50015 2.57144 3.48148 2.69045 3.44414C2.72195 3.43364 5.58623 2.52711 9.33372 2.3591V5.83241H5.83358C2.61694 5.83241 0 8.44935 0 11.666V19.833C0 22.4686 1.75824 24.7017 4.16284 25.4227L3.67165 26.2243C3.33447 26.7749 3.50715 27.4925 4.05667 27.8285C4.24684 27.9452 4.45802 28 4.66453 28C5.05771 28 5.44039 27.8017 5.6609 27.4423L6.74828 25.6666H14.2514L15.3388 27.4423C15.5581 27.8017 15.942 28 16.3352 28C16.5429 28 16.7529 27.944 16.943 27.8285C17.4926 27.4925 17.6652 26.7749 17.3281 26.2243L16.8369 25.4227C19.2415 24.7029 20.9997 22.4698 20.9997 19.833V11.666C20.9997 8.44935 18.3828 5.83241 15.1661 5.83241L15.1673 5.83358ZM11.6672 16.334V12.8339H18.6674V16.334H11.6672ZM2.33343 16.334V12.8339H9.33372V16.334H2.33343ZM5.83358 8.16701H15.1673C16.6887 8.16701 17.9849 9.14238 18.4668 10.5004H2.53411C3.01596 9.14238 4.31218 8.16701 5.83358 8.16701ZM15.1673 23.3343H5.83358C3.90383 23.3343 2.33343 21.7639 2.33343 19.8342V18.6674H4.66686V19.8342C4.66686 20.4794 5.18838 21.0009 5.83358 21.0009C6.47877 21.0009 7.00029 20.4794 7.00029 19.8342V18.6674H14.0006V19.8342C14.0006 20.4794 14.5221 21.0009 15.1673 21.0009C15.8125 21.0009 16.334 20.4794 16.334 19.8342V18.6674H18.6674V19.8342C18.6674 21.7639 17.097 23.3343 15.1673 23.3343Z" fill="#E3312C"/>
</svg>
