<svg width="21" height="28" viewBox="0 0 21 28" fill="none" xmlns="http://www.w3.org/2000/svg">
<path d="M14.8333 0H5.83333C2.61683 0 0 2.61683 0 5.83333V19.8333C0 22.0512 1.55517 23.912 3.63183 24.3845L2.50483 26.2243C2.16767 26.7738 2.34033 27.4925 2.88983 27.8285C3.08 27.9452 3.29 28 3.49767 28C3.88967 28 4.2735 27.8017 4.494 27.4423L6.2965 24.5H14.369L16.1715 27.4423C16.3908 27.8017 16.7747 28 17.1678 28C17.3755 28 17.5855 27.944 17.7757 27.8285C18.3252 27.4925 18.4978 26.7738 18.1607 26.2243L17.0337 24.3845C19.1103 23.9132 20.6655 22.0523 20.6655 19.8333V5.83333C20.6655 2.61683 18.0487 0 14.8322 0H14.8333ZM18.3333 5.83333V12.1667H11.5V2.33333H14.8333C16.763 2.33333 18.3333 3.90367 18.3333 5.83333ZM5.83333 2.33333H9.16667V12.1667H2.33333V5.83333C2.33333 3.90367 3.90367 2.33333 5.83333 2.33333ZM16 22.1667H4.66667C3.37983 22.1667 2.33333 21.1202 2.33333 19.8333V14.5H4.66667V15.6667C4.66667 16.3118 5.18933 16.8333 5.83333 16.8333C6.47733 16.8333 7 16.3118 7 15.6667V14.5H13.6667V15.6667C13.6667 16.3118 14.1893 16.8333 14.8333 16.8333C15.4773 16.8333 16 16.3118 16 15.6667V14.5H18.3333V19.8333C18.3333 21.1202 17.2868 22.1667 16 22.1667Z" fill="#E3312C"/>
</svg>
