<svg width="80" height="76" viewBox="0 0 80 76" fill="none" xmlns="http://www.w3.org/2000/svg">
<path d="M78.3378 57.9918L50.0776 6.0424C45.5372 -1.6015 34.4689 -1.61166 29.9223 6.0424L1.66358 57.9918C-2.97799 65.8026 2.64154 75.6935 11.7389 75.6935H68.2601C77.3498 75.6935 82.9794 65.8105 78.3378 57.9918ZM40 66.3185C37.4159 66.3185 35.3125 64.2151 35.3125 61.631C35.3125 59.0469 37.4159 56.9435 40 56.9435C42.584 56.9435 44.6875 59.0469 44.6875 61.631C44.6875 64.2151 42.584 66.3185 40 66.3185ZM44.6875 47.5685C44.6875 50.1526 42.584 52.256 40 52.256C37.4159 52.256 35.3125 50.1526 35.3125 47.5685V24.131C35.3125 21.5469 37.4159 19.4435 40 19.4435C42.584 19.4435 44.6875 21.5469 44.6875 24.131V47.5685Z" fill="#BBBDC1"/>
</svg>
